<svg xmlns="http://www.w3.org/2000/svg" width="100" height="100" viewBox="0 0 100 100">
  <g id="Group_514" data-name="Group 514" transform="translate(-393 -800)">
    <g id="Group_515" data-name="Group 515">
      <g id="Rectangle_20" data-name="Rectangle 20" transform="translate(393 800)" fill="rgba(1,14,18,0)" stroke="#87bdd9" stroke-width="2">
        <rect width="100" height="100" rx="10" stroke="none"/>
        <rect x="1" y="1" width="98" height="98" rx="9" fill="none"/>
      </g>
    </g>
    <path id="noun-globe-2101866" d="M297,319.057v-2.832a1.864,1.864,0,0,0,.04-.211,19.952,19.952,0,0,1,1.5-6.184,20.07,20.07,0,0,1,16.4-12.142c.183-.019.363-.057.544-.087h2.948a1.13,1.13,0,0,0,.17.04,20.044,20.044,0,0,1,6.653,1.714,19.33,19.33,0,0,1,6.979,5.273,19.659,19.659,0,0,1,4.677,14.959,18.839,18.839,0,0,1-1.832,6.6c-.311.644-.662,1.273-1.036,1.883a6.4,6.4,0,0,1-1.207,1.782.48.48,0,0,0-.064.077,20.172,20.172,0,0,1-6.359,5.344,19.625,19.625,0,0,1-6.9,2.185c-.334.042-.667.093-1,.139H315.6a1.148,1.148,0,0,0-.172-.038A20.029,20.029,0,0,1,297.141,320.1c-.044-.348-.093-.7-.14-1.043Zm30.782,11.629a1.791,1.791,0,0,0-.853-.055,13.638,13.638,0,0,1-1.5.106,1.951,1.951,0,0,1-1.9-1.15,3.512,3.512,0,0,1-.262-1.014,7.829,7.829,0,0,1,.211-2.312,3.023,3.023,0,0,1,.955-1.811,6.358,6.358,0,0,1,.633-.515,12.267,12.267,0,0,1,5.151-2,4.57,4.57,0,0,1,2.854.363c.163.085.246,0,.289-.152a17,17,0,0,0,.566-3.273,17.317,17.317,0,0,0-.279-4.6,16.833,16.833,0,0,0-2.315-5.77c-.041-.065-.134-.145-.2-.14a4.972,4.972,0,0,0-1.369.306c.04.042.059.066.083.086a1.219,1.219,0,0,1,.422.829,2.183,2.183,0,0,1-.325,1.47,13.749,13.749,0,0,1-1.066,1.437,23.584,23.584,0,0,1-3.7,3.462,6.1,6.1,0,0,0-2.141,2.744,2.4,2.4,0,0,1-.288.5,1.551,1.551,0,0,1-1.706.649,2.6,2.6,0,0,1-1.33-.831c-.085-.093-.162-.194-.248-.286-.161-.173-.253-.17-.4.02a3.227,3.227,0,0,0-.2.3c-.329.538-.653,1.079-.988,1.613a1.041,1.041,0,0,1-.631.487,1.442,1.442,0,0,1-1.657-.707c-.1-.225-.212-.443-.3-.672q-.31-.809-.6-1.625a1.041,1.041,0,0,0-.476-.586c-.39-.227-.765-.479-1.154-.707-.093-.054-.255-.108-.316-.064s-.079.207-.083.319c-.012.338.019.679-.018,1.013a1.8,1.8,0,0,1-1.175,1.675.257.257,0,0,0-.174.332,2.471,2.471,0,0,1-.262,1.62q-.421.836-.834,1.676a5.384,5.384,0,0,0-.554,1.838,8.262,8.262,0,0,1-.287,1.481,13.008,13.008,0,0,1-1.66,3.364,9.506,9.506,0,0,1-.63.869c-.2.247-.219.242.05.43a16.817,16.817,0,0,0,13.516,2.774,16.287,16.287,0,0,0,6.989-3.344c.049-.037.092-.083.161-.148Zm-21.955-15.892v0c.126,0,.252,0,.378,0a3.585,3.585,0,0,1,3.006,1.483c.352.481.652,1,.981,1.5.043.065.127.158.179.15a.352.352,0,0,0,.228-.157.6.6,0,0,0,.059-.324,3.646,3.646,0,0,0-.1-.567,2.184,2.184,0,0,1,.314-2.057,1,1,0,0,1,.482-.361,2.27,2.27,0,0,1,1.831.176q1.108.608,2.184,1.27a2.734,2.734,0,0,1,1.154,1.407,3.864,3.864,0,0,0,.187.44c.067.13.156.248.235.371.1-.105.216-.205.313-.317a9.57,9.57,0,0,1,.834-.956,1.647,1.647,0,0,1,2.112-.146,6.249,6.249,0,0,1,.639.474c.479.391.6.379.851-.187A5.54,5.54,0,0,1,323,315.181c.256-.241.515-.481.785-.706a21.624,21.624,0,0,0,2.814-2.493c.476-.562.969-1.109,1.44-1.675.182-.218.146-.287-.058-.486a1.356,1.356,0,0,1-.385-.468,1.688,1.688,0,0,1,.545-2.071,3.756,3.756,0,0,1,1.412-.663c.276-.077.3-.123.088-.33-.549-.549-1.1-1.1-1.67-1.624a4.638,4.638,0,0,0-1.114-.825c-1.422-.652-2.867-1.252-4.309-1.86A1.655,1.655,0,0,0,321.2,302c-.261.115-.538.2-.788.331q-1.542.828-3.072,1.68a11.909,11.909,0,0,1-2.612,1.254c-1.619.436-3.247.839-4.874,1.245a11.2,11.2,0,0,0-2.923,1.012c-1.577.9-3.139,1.834-4.7,2.767a2.562,2.562,0,0,0-1.195,1.487c-.091.3-.188.608-.286.911-.091.283-.061.324.227.278a3.938,3.938,0,0,1,1.718.017,2.5,2.5,0,0,1,1.827,1.394.69.69,0,0,0,.671.418c.211.005.424,0,.636,0Zm-5.812,2.731c.026.548.036,1.026.077,1.5s.111.963.174,1.444c.033.251.1.287.347.221.218-.057.435-.119.655-.169a1.827,1.827,0,0,1,2.181.891,4.535,4.535,0,0,1,.441.932,22.087,22.087,0,0,1,.808,4.318q.153,1.145.322,2.288a.491.491,0,0,0,.383.457.464.464,0,0,0,.519-.281c.306-.5.627-1,.9-1.523a6.223,6.223,0,0,0,.827-2.557,6.381,6.381,0,0,1,.6-2.237c.2-.448.441-.877.674-1.31a1.539,1.539,0,0,0,.128-1.521c-.428-.8-.887-1.586-1.355-2.365a1.647,1.647,0,0,0-1.563-.805,11.667,11.667,0,0,1-1.371-.05,2.358,2.358,0,0,1-1.737-.917,2.023,2.023,0,0,0-2.626-.424.56.56,0,0,0-.3.483C300.081,316.466,300.044,317.03,300.014,317.525Zm25.041,10.583.019.005c.014.138.023.278.044.415.045.3.118.384.425.386a5.321,5.321,0,0,0,.89-.065,3.781,3.781,0,0,1,2.516.312c.294.161.345.151.576-.1a16.865,16.865,0,0,0,2.21-3.037c.273-.485.518-.987.764-1.486.127-.257.086-.385-.162-.53a1.865,1.865,0,0,0-.453-.2,3.905,3.905,0,0,0-1.658,0,10.334,10.334,0,0,0-4.206,1.7,1.573,1.573,0,0,0-.722.991c-.1.534-.164,1.075-.244,1.613Zm-21.144-21.282.034.037c.342-.189.686-.373,1.025-.567a11.906,11.906,0,0,1,2.843-1.318c1.525-.4,3.057-.777,4.589-1.153a10.734,10.734,0,0,0,2.637-.867c1.264-.688,2.515-1.4,3.77-2.1.018-.01.029-.035.059-.075a16.633,16.633,0,0,0-14.958,6.045Zm-1.347,19.745.068-.026c0-.05,0-.1-.008-.148-.04-.329-.067-.662-.127-.987-.13-.7-.261-1.409-.426-2.105a.834.834,0,0,0-.977-.647c-.247.045-.289.1-.194.335.278.7.545,1.4.857,2.077.237.516.536,1,.808,1.5Z" transform="translate(106 512.399)" fill="#87bdd9" fill-rule="evenodd"/>
    <path id="noun-globe-2101875" d="M297,319.051v-2.832a1.819,1.819,0,0,0,.04-.211,19.951,19.951,0,0,1,1.5-6.186,20.063,20.063,0,0,1,16.41-12.143c.176-.018.349-.057.524-.084h2.946a1.736,1.736,0,0,0,.17.039,19.58,19.58,0,0,1,7.063,1.908,19.962,19.962,0,0,1,9.3,9.219,19.234,19.234,0,0,1,2,7.518,19.51,19.51,0,0,1-.062,3.406,20.608,20.608,0,0,1-1.443,5.652,20.07,20.07,0,0,1-16.4,12.17c-.182.02-.363.059-.544.088h-2.906a.9.9,0,0,0-.172-.039,20.028,20.028,0,0,1-18.279-17.443c-.045-.355-.095-.709-.142-1.062Zm11.471-16.15c.03.037.037.053.047.057.688.258,1.376.518,2.066.771a1.127,1.127,0,0,0,1.232-.264c.058-.055.111-.113.166-.172a2.9,2.9,0,0,1,2.923-.918,9.24,9.24,0,0,1,3.082,1.482,4.3,4.3,0,0,1,1.586,1.928c.261.641.5,1.3.694,1.965a4.262,4.262,0,0,1-.488,3.629,33.3,33.3,0,0,1-2.465,3.451,10.209,10.209,0,0,1-1.454,1.553,1.681,1.681,0,0,1-1.66.324c-.232-.076-.457-.176-.686-.264a1.611,1.611,0,0,0-.261-.092.232.232,0,0,0-.3.164.411.411,0,0,0,.067.318.812.812,0,0,0,.332.158c.425.145.863.26,1.278.434a1.529,1.529,0,0,1,1,1.2c.021.125.033.25.048.373.013.1.064.152.161.1a1.792,1.792,0,0,1,.972-.137,13.915,13.915,0,0,1,4.794,1.127,7.476,7.476,0,0,1,2.3,1.4,2.8,2.8,0,0,1,1,2.689,11.459,11.459,0,0,1-.547,1.846,26.758,26.758,0,0,1-2.292,4.477c-.768,1.242-1.6,2.445-2.4,3.666-.025.039-.05.119-.032.137a.218.218,0,0,0,.156.051c.15-.025.3-.072.445-.1a16.619,16.619,0,0,0,8.464-4.387,16.8,16.8,0,0,0,3.886-5.586c.1-.242.088-.273-.153-.363-.391-.146-.786-.283-1.169-.447a7.274,7.274,0,0,1-2.292-1.334,8.232,8.232,0,0,1-2.138-3.359,3.538,3.538,0,0,1,.464-3.248,8.537,8.537,0,0,1,3.119-2.752,3.855,3.855,0,0,1,2.454-.479c.193.029.234-.031.163-.234a15.727,15.727,0,0,0-2.078-4.107,16.685,16.685,0,0,0-13.261-7.3,16.354,16.354,0,0,0-8.115,1.67c-.372.184-.735.383-1.109.578Zm7.047,31.609c.178.014.225-.092.235-.246q.075-1.143.157-2.285c.085-1.221.175-2.439.254-3.66a4.978,4.978,0,0,0-.683-2.941c-.285-.479-.54-.975-.81-1.463a2.407,2.407,0,0,1-.148-2.148c.139-.352.258-.711.377-1.07.061-.182.015-.234-.159-.18a2.027,2.027,0,0,1-1.494-.1c-.788-.365-1.567-.748-2.344-1.133a3.474,3.474,0,0,1-1.365-1.246,43.517,43.517,0,0,1-2.356-4.2,22.2,22.2,0,0,1-1.528-3.629,1.943,1.943,0,0,0-.358-.635,5.024,5.024,0,0,0-2.006-1.395c-.317-.141-.334-.137-.525.16a17.031,17.031,0,0,0-2.35,12.922,17.4,17.4,0,0,0,4.165,7.934,16.777,16.777,0,0,0,7.589,4.664,15.807,15.807,0,0,0,3.35.654Zm-8.042-29.67-.02-.055a3.382,3.382,0,0,0-.8.3,14.121,14.121,0,0,0-1.371,1.086c-.408.363-.378.523.083.816a5.109,5.109,0,0,1,1.9,1.91c.237.463.366.98.556,1.465a43.114,43.114,0,0,0,2.768,5.533.285.285,0,0,0,.234.129.335.335,0,0,0,.19-.215,2.249,2.249,0,0,1,1.114-1.391,1.615,1.615,0,0,1,.656-.2,2.6,2.6,0,0,1,1.4.295.621.621,0,0,0,.909-.2c.212-.238.418-.48.623-.727a24.475,24.475,0,0,0,2.478-3.535,1.308,1.308,0,0,0,.258-.84,11.463,11.463,0,0,0-.183-1.141,4.066,4.066,0,0,0-2.151-3.033c-.078-.035-.148-.088-.227-.125-.363-.162-.72-.338-1.092-.477a1.223,1.223,0,0,0-1.517.389,2.8,2.8,0,0,1-2.82.934,14.435,14.435,0,0,1-1.671-.572,4.176,4.176,0,0,0-1.318-.354Zm10.415,27.619h0a2.616,2.616,0,0,0-.011.338.2.2,0,0,0,.093.133c.032.016.1-.02.136-.049a.55.55,0,0,0,.1-.123,46.637,46.637,0,0,0,3.64-6.031,12.484,12.484,0,0,0,1.041-2.664.964.964,0,0,0-.3-1.031,5.492,5.492,0,0,0-.841-.631,11.954,11.954,0,0,0-4.312-1.369c-.355-.049-.508.053-.644.391-.113.283-.207.576-.327.855a.9.9,0,0,0,.063.873q.425.721.823,1.457a5.861,5.861,0,0,1,.813,2.74c.009.756-.013,1.516-.057,2.27C318.057,330.566,317.966,331.512,317.891,332.459Zm16.021-14.783c0-.385.021-.771,0-1.154a2.9,2.9,0,0,0-.808-1.883,1.077,1.077,0,0,0-1.216-.295c-.087.031-.175.063-.26.1a6.56,6.56,0,0,0-2.432,1.885,1.848,1.848,0,0,0-.3,2.182,16.813,16.813,0,0,0,1.007,1.645,2.7,2.7,0,0,0,1.124.959c.674.307,1.357.6,2.04.885.258.109.3.08.366-.2A15.4,15.4,0,0,0,333.912,317.676Z" transform="translate(146 552.404)" fill="#87bdd9" fill-rule="evenodd"/>
    <line id="Line_31" data-name="Line 31" y1="47" x2="47" transform="translate(419.5 826.5)" fill="none" stroke="#87bdd9" stroke-width="2"/>
  </g>
</svg>
