<svg xmlns="http://www.w3.org/2000/svg" width="100" height="100" viewBox="0 0 100 100">
  <g id="Group_511" data-name="Group 511" transform="translate(-393 -800)">
    <g id="Rectangle_20" data-name="Rectangle 20" transform="translate(393 800)" fill="rgba(1,14,18,0)" stroke="#87bdd9" stroke-width="2">
      <rect width="100" height="100" rx="10" stroke="none"/>
      <rect x="1" y="1" width="98" height="98" rx="9" fill="none"/>
    </g>
    <g id="noun-world-5404679" transform="translate(229.452 688.377)">
      <path id="Path_4118" data-name="Path 4118" d="M213.6,143.3a20.745,20.745,0,0,0-3.3.265,19.215,19.215,0,0,0-1.887.392,8.171,8.171,0,0,0-16.169,1.679c0,2.23,1.826,4.947,3.687,7.143A21.229,21.229,0,0,0,213.6,185.784a21.243,21.243,0,1,0,0-42.486Zm-13.183-3.877a6.22,6.22,0,0,1,6.213,6.213c0,2.606-4.019,6.944-6.213,9.016-2.193-2.072-6.213-6.41-6.213-9.016A6.22,6.22,0,0,1,200.421,139.421Zm-3.136,14.862c1.2,1.269,2.215,2.19,2.487,2.43a.98.98,0,0,0,1.3,0c.752-.666,7.19-6.5,7.494-10.769q.689-.189,1.4-.322c1.393,2.357,2.037,4.335,1.756,5.473a1.439,1.439,0,0,1-.718.952l-.36.207c-3.841,2.21-10.269,5.908-6.6,12.48a6.878,6.878,0,0,1-.116,7.016,7.862,7.862,0,0,1-6.086,3.875,19.219,19.219,0,0,1-.555-21.342Zm1.952,23.112a9.995,9.995,0,0,0,6.374-4.645,8.79,8.79,0,0,0,.142-8.97c-2.529-4.524,1-7.026,5.863-9.826l.366-.211a3.419,3.419,0,0,0,1.638-2.178c.385-1.561-.147-3.659-1.569-6.24.518-.043,1.037-.068,1.553-.068a19.162,19.162,0,0,1,9,2.241,12.16,12.16,0,0,0-2.564,4.874c-1.4,5.778-3.018,6.008-6.864,6.008a4.874,4.874,0,0,0-.962.1,3.911,3.911,0,0,0-2.548,1.813,5.123,5.123,0,0,0-.534,3.894c.829,3.209,4.163,4.359,6.585,5.086a20.028,20.028,0,0,0,2.569,3.872c-.2.336-.405.677-.627,1.027-1.5,2.373-3.7,5.874.267,9.145a19.143,19.143,0,0,1-18.687-5.925Zm17.655-10.989a6.213,6.213,0,1,1,12.427,0c0,2.606-4.019,6.944-6.213,9.016C220.911,173.35,216.891,169.011,216.891,166.405Zm3.323,16.227a.968.968,0,0,0-.218-.214c-3.519-2.3-2.55-4.234-.681-7.2.111-.176.217-.347.322-.518,1.341,1.454,2.522,2.522,2.818,2.784a.98.98,0,0,0,1.3,0c.77-.683,7.523-6.79,7.523-11.079a8.172,8.172,0,1,0-16.344,0,4.721,4.721,0,0,0,.052.566c-1.981-.7-3.524-1.588-3.959-3.274a3.163,3.163,0,0,1,.3-2.377,1.959,1.959,0,0,1,1.281-.924,2.875,2.875,0,0,1,.561-.06c4.9,0,7.2-1.043,8.766-7.506a10.387,10.387,0,0,1,2.364-4.325,19.258,19.258,0,0,1-4.089,34.126Z" transform="translate(0)" fill="#87bdd9"/>
      <g id="Ellipse_35" data-name="Ellipse 35" transform="translate(197.216 142.103)" fill="none" stroke="#87bdd9" stroke-width="2">
        <circle cx="3.193" cy="3.193" r="3.193" stroke="none"/>
        <circle cx="3.193" cy="3.193" r="2.193" fill="none"/>
      </g>
      <g id="Ellipse_36" data-name="Ellipse 36" transform="translate(219.92 162.679)" fill="none" stroke="#87bdd9" stroke-width="2">
        <circle cx="3.193" cy="3.193" r="3.193" stroke="none"/>
        <circle cx="3.193" cy="3.193" r="2.193" fill="none"/>
      </g>
    </g>
    <g id="noun-stairs-1655229" transform="translate(406.5 811.5)">
      <path id="Path_4120" data-name="Path 4120" d="M25,25,0,0H26.791V5.065H12.229L28.581,21.417Z" transform="translate(44.419 0)" fill="#87bdd9"/>
      <path id="Path_4121" data-name="Path 4121" d="M3.581,0l25,25H1.79V19.934H16.353L0,3.582Z" transform="translate(0 52.001)" fill="#87bdd9"/>
    </g>
  </g>
</svg>
