<svg width="24" height="24" viewBox="0 0 24 24" fill="none" xmlns="http://www.w3.org/2000/svg">
<path d="M15.8353 2.47963C15.462 2.85134 15.1663 3.29345 14.9651 3.78034C14.7641 4.26724 14.6615 4.7892 14.6637 5.31599C14.6581 5.43485 14.6673 5.55394 14.691 5.67054L2.12698 17.1414C1.62118 17.5905 1.26298 18.1818 1.09947 18.8381C0.935942 19.4943 0.974736 20.1847 1.21074 20.8185C1.44675 21.4523 1.86894 21.9999 2.42186 22.3894C2.97476 22.7788 3.63255 22.992 4.3088 23.0007H4.44517C4.90211 22.9838 5.35076 22.8735 5.76351 22.6767C6.17625 22.4799 6.54436 22.2007 6.84517 21.8563L18.3106 9.31963H18.6652C19.192 9.32186 19.714 9.21943 20.2008 9.0183C20.6878 8.81717 21.1298 8.52135 21.5015 8.14799C23.4913 6.15817 23.8448 1.74327 23.9015 1.25345L23.9833 0L22.7299 0.0818182C22.239 0.109095 17.7968 0.490902 15.8353 2.48181V2.47963ZM5.20662 20.412H5.17935C5.07986 20.5491 4.95179 20.6631 4.80401 20.7459C4.65622 20.8288 4.49223 20.8787 4.32333 20.892C4.15443 20.9053 3.98464 20.8819 3.82566 20.8233C3.66669 20.7647 3.52233 20.6723 3.40253 20.5525C3.28271 20.4326 3.19031 20.2883 3.1317 20.1293C3.07309 19.9704 3.04965 19.8005 3.06301 19.6317C3.07636 19.4628 3.12618 19.2987 3.20905 19.151C3.29191 19.0032 3.40585 18.8751 3.54298 18.7756L11.8273 11.2265C12.0707 11.595 12.3861 11.9104 12.7546 12.1538L5.20662 20.412ZM14.2819 10.4923C14.0923 10.4416 13.9193 10.3417 13.7804 10.2029C13.6416 10.0641 13.5418 9.89111 13.491 9.70145L15.5353 7.82072L15.8081 8.14799L16.1353 8.42072L14.2819 10.4923ZM19.9775 6.6229C19.808 6.79471 19.6061 6.93127 19.3835 7.02474C19.161 7.11821 18.9221 7.16673 18.6808 7.16752C18.4393 7.1683 18.2001 7.12133 17.977 7.02932C17.7538 6.9373 17.551 6.80206 17.3804 6.63137C17.2097 6.46067 17.0744 6.25791 16.9824 6.03474C16.8904 5.81157 16.8434 5.57241 16.8442 5.33101C16.845 5.08962 16.8935 4.85076 16.987 4.62821C17.0804 4.40564 17.217 4.20376 17.3888 4.03417C18.6162 3.15113 20.054 2.60602 21.5582 2.45346C21.3881 3.95319 20.8446 5.3874 19.9775 6.6229Z" fill="white"/>
</svg>
