<svg width="24" height="24" viewBox="0 0 24 24" fill="none" xmlns="http://www.w3.org/2000/svg">
<g clip-path="url(#clip0_2709_1531)">
<path d="M21.1877 2.35059C19.7487 2.35059 18.5767 3.75331 18.5767 5.4794C18.5767 7.20432 19.7487 8.60822 21.1877 8.60822C22.6277 8.60822 23.7997 7.20427 23.7997 5.4794C23.7997 3.75453 22.6286 2.35059 21.1877 2.35059ZM21.1877 7.64873C20.1887 7.64873 19.3766 6.67602 19.3766 5.47938C19.3766 4.28274 20.1887 3.3088 21.1877 3.3088C22.1867 3.3089 22.9997 4.28271 22.9997 5.47945C22.9997 6.67609 22.1867 7.6487 21.1877 7.6487V7.64873Z" fill="white" stroke="white" stroke-width="0.4"/>
<path d="M23.342 11.7501C22.054 11.9789 20.446 12.0316 20.084 11.7166C19.521 11.2243 19.0279 9.9797 18.509 8.66325C17.531 6.19086 16.317 3.11356 13.769 3.11356C12.236 3.11356 8.44397 2.91469 8.40597 2.91348C8.38597 2.91104 8.36893 2.92068 8.34995 2.9219C8.3269 2.92415 8.30589 2.92536 8.28292 2.93257C8.24495 2.94455 8.2119 2.96495 8.17893 2.99003C8.17089 2.99602 8.1619 2.99723 8.15386 3.00322C8.14987 3.00678 8.14886 3.01165 8.14487 3.01398C8.11792 3.04038 8.0969 3.07154 8.07589 3.10504C8.06292 3.12423 8.04987 3.14219 8.03987 3.16372C8.02792 3.19011 8.0219 3.21884 8.01386 3.24878C8.00589 3.27995 7.99682 3.31111 7.99386 3.34461C7.99386 3.35304 7.98886 3.36137 7.98886 3.37101C7.98792 3.39253 7.99487 3.4105 7.9969 3.4309C7.99886 3.4644 8.00089 3.49556 8.00886 3.52785C8.01682 3.56023 8.02886 3.58774 8.04284 3.61647C8.05089 3.63453 8.05386 3.65484 8.06386 3.67281C9.46886 6.00265 10.8569 6.97891 12.4339 6.73215C13.4718 6.57643 13.7539 6.93335 14.0159 7.42336C14.2939 7.94798 14.1569 8.14563 14.0789 8.26064L11.9819 10.6144C11.3098 11.2984 10.9448 12.0734 10.8958 12.9168C10.8398 13.8691 11.1919 14.8645 11.9419 15.8743C12.3889 16.4768 13.5358 17.7873 14.1779 18.5132L10.6969 20.2621C10.4939 20.3651 10.3979 20.6454 10.4829 20.8897C10.5469 21.0718 10.6958 21.1832 10.8519 21.1832C10.9039 21.1832 10.9558 21.17 11.0069 21.146L15.0559 19.1109C15.1809 19.0475 15.2709 18.9133 15.2938 18.7528C15.3178 18.5923 15.2728 18.4281 15.1728 18.318C15.1528 18.2952 13.1378 16.0433 12.5388 15.2383C11.9378 14.4285 11.6528 13.6691 11.6928 12.9839C11.7258 12.4077 11.9978 11.8567 12.5128 11.3296L14.6578 8.9183C15.0778 8.31582 15.0878 7.6581 14.6878 6.90834C14.3078 6.19316 13.7568 5.56074 12.3308 5.78235C11.6268 5.88416 10.5818 5.77879 9.24179 3.9149C10.4688 3.97358 12.6758 4.07306 13.7678 4.07306C15.8088 4.07306 16.8588 6.72992 17.7848 9.07413C18.3748 10.5667 18.8838 11.8556 19.6127 12.4928C20.1727 12.9815 21.5607 12.936 22.5267 12.8318C22.0128 13.5637 21.1817 14.522 20.2667 14.668C19.7047 14.7639 19.1857 14.5267 18.6788 13.9613C18.4538 13.711 18.0728 12.9838 17.7928 12.4532C17.4298 11.762 17.3178 11.5584 17.1707 11.453C17.0737 11.3824 16.8428 11.2159 16.0787 11.7777C15.7247 12.0387 14.5747 12.9959 14.6557 14.3459C14.7178 15.3665 15.6397 16.5966 16.5817 17.7706L16.7747 18.0126C17.0797 18.3994 17.2187 18.7109 17.1907 18.9385C17.1618 19.1648 16.9457 19.3542 16.7687 19.4727C15.5037 20.3244 11.1977 21.8637 11.1537 21.8792C10.9417 21.9547 10.8217 22.2219 10.8837 22.4757C10.9357 22.6841 11.0947 22.8183 11.2677 22.8183C11.3056 22.8183 11.3437 22.8111 11.3817 22.7979C11.5627 22.7333 15.8187 21.212 17.1607 20.3076C17.6417 19.9829 17.9186 19.5709 17.9807 19.0822C18.0727 18.36 17.6677 17.7502 17.3557 17.3549L17.1577 17.1058C16.6187 16.4337 15.4987 15.0359 15.4537 14.2776C15.4007 13.4007 16.3908 12.6161 16.8077 12.3934C16.8947 12.5456 17.0117 12.7695 17.1147 12.9636C17.4508 13.6033 17.8318 14.328 18.1327 14.6634C18.8177 15.4265 19.5717 15.7487 20.3727 15.6181C22.2517 15.3162 23.6787 12.5947 23.7377 12.4785C23.8197 12.3192 23.8177 12.1179 23.7317 11.9622C23.6499 11.8053 23.4969 11.7226 23.3419 11.7502L23.342 11.7501Z" fill="white" stroke="white" stroke-width="0.4"/>
<path d="M3.50707 20.9067L10.2351 14.5197C10.4091 14.3544 10.438 14.0537 10.3001 13.8464C10.1621 13.6392 9.91007 13.6021 9.73803 13.7686L3.01003 20.1556C2.83605 20.3208 2.80707 20.6215 2.94503 20.8288C3.02402 20.9486 3.14003 21.0109 3.25799 21.0109C3.34604 21.0108 3.43401 20.9773 3.50705 20.9067H3.50707Z" fill="white" stroke="white" stroke-width="0.4"/>
<path d="M11.6577 16.8606C11.5557 16.6245 11.3127 16.5347 11.1188 16.6545L3.41077 21.4316C3.21475 21.5538 3.13781 21.8424 3.23873 22.0772C3.30975 22.2425 3.44975 22.3372 3.59373 22.3372C3.6567 22.3372 3.71873 22.3192 3.77772 22.2833L11.4857 17.5062C11.6818 17.384 11.7588 17.0953 11.6578 16.8605L11.6577 16.8606Z" fill="white" stroke="white" stroke-width="0.4"/>
<path d="M2.70361 6.54067C2.70361 6.80542 2.88361 7.01981 3.10361 7.01981H8.82361C9.04463 7.01981 9.22361 6.80541 9.22361 6.54067C9.22361 6.27592 9.04361 6.06152 8.82361 6.06152H3.10361C2.88259 6.06152 2.70361 6.27714 2.70361 6.54067Z" fill="white" stroke="white" stroke-width="0.4"/>
<path d="M5.52695 1C5.30593 1 5.12695 1.2144 5.12695 1.47914C5.12695 1.7439 5.30695 1.95829 5.52695 1.95829H11.247C11.468 1.95829 11.647 1.74389 11.647 1.47914C11.647 1.21439 11.467 1 11.247 1H5.52695Z" fill="white" stroke="white" stroke-width="0.4"/>
<path d="M8.82361 12.5266C9.04463 12.5266 9.22361 12.311 9.22361 12.0475C9.22361 11.784 9.04361 11.5684 8.82361 11.5684H3.10361C2.88259 11.5684 2.70361 11.784 2.70361 12.0475C2.70361 12.311 2.88361 12.5266 3.10361 12.5266H8.82361Z" fill="white" stroke="white" stroke-width="0.4"/>
<path d="M6.85496 9.59731C6.85496 9.33256 6.67496 9.11816 6.45496 9.11816H0.734961C0.513941 9.11816 0.334961 9.33378 0.334961 9.59731C0.334961 9.86084 0.514961 10.0765 0.734961 10.0765H6.45496C6.67496 10.0765 6.85496 9.86206 6.85496 9.59731Z" fill="white" stroke="white" stroke-width="0.4"/>
<path d="M6.12 4.22684C6.34102 4.22684 6.52 4.01245 6.52 3.7477C6.52 3.48295 6.34 3.26855 6.12 3.26855H0.4C0.17898 3.26855 0 3.48295 0 3.7477C0 4.01245 0.18 4.22684 0.4 4.22684H6.12Z" fill="white" stroke="white" stroke-width="0.4"/>
</g>
<defs>
<clipPath id="clip0_2709_1531">
<rect width="24" height="24" fill="white"/>
</clipPath>
</defs>
</svg>
