<svg width="25" height="21" viewBox="0 0 25 21" fill="none" xmlns="http://www.w3.org/2000/svg">
<path d="M5.36899 10.94C4.87256 10.94 4.38727 11.0872 3.97451 11.363C3.56174 11.6388 3.24003 12.0308 3.05005 12.4895C2.86008 12.9481 2.81037 13.4528 2.90721 13.9397C3.00406 14.4266 3.24312 14.8738 3.59415 15.2249C3.94518 15.5759 4.39241 15.8149 4.87931 15.9118C5.3662 16.0086 5.87089 15.9589 6.32953 15.769C6.78817 15.579 7.18018 15.2572 7.45598 14.8445C7.73178 14.4317 7.87899 13.9464 7.87899 13.45C7.87819 12.7846 7.61349 12.1466 7.14295 11.6761C6.6724 11.2055 6.03444 10.9408 5.36899 10.94ZM5.36899 14.96C5.07054 14.96 4.77878 14.8715 4.53063 14.7057C4.28247 14.5399 4.08907 14.3042 3.97486 14.0285C3.86064 13.7527 3.83076 13.4493 3.88898 13.1566C3.94721 12.8639 4.09092 12.595 4.30196 12.384C4.513 12.1729 4.78189 12.0292 5.0746 11.971C5.36732 11.9128 5.67073 11.9427 5.94646 12.0569C6.22219 12.1711 6.45787 12.3645 6.62368 12.6126C6.78949 12.8608 6.87799 13.1526 6.87799 13.451C6.87747 13.8511 6.71831 14.2346 6.43543 14.5175C6.15255 14.8003 5.76904 14.9595 5.36899 14.96Z" fill="white"/>
<path d="M19.401 10.94C18.9046 10.94 18.4193 11.0872 18.0065 11.363C17.5938 11.6388 17.272 12.0308 17.0821 12.4895C16.8921 12.9481 16.8424 13.4528 16.9392 13.9397C17.0361 14.4266 17.2751 14.8738 17.6262 15.2249C17.9772 15.5759 18.4244 15.8149 18.9113 15.9118C19.3982 16.0086 19.9029 15.9589 20.3615 15.769C20.8202 15.579 21.2122 15.2572 21.488 14.8445C21.7638 14.4317 21.911 13.9464 21.911 13.45C21.9102 12.7846 21.6455 12.1466 21.175 11.6761C20.7044 11.2055 20.0665 10.9408 19.401 10.94ZM19.401 14.96C19.1026 14.96 18.8108 14.8715 18.5627 14.7057C18.3145 14.5399 18.1211 14.3042 18.0069 14.0285C17.8927 13.7527 17.8628 13.4493 17.921 13.1566C17.9792 12.8639 18.123 12.595 18.334 12.384C18.545 12.1729 18.8139 12.0292 19.1066 11.971C19.3993 11.9128 19.7028 11.9427 19.9785 12.0569C20.2542 12.1711 20.4899 12.3645 20.6557 12.6126C20.8215 12.8608 20.91 13.1526 20.91 13.451C20.9095 13.8511 20.7503 14.2346 20.4674 14.5175C20.1846 14.8003 19.8011 14.9595 19.401 14.96Z" fill="white"/>
<path d="M15.558 11.945H9.21099C9.07839 11.945 8.95122 11.9977 8.85745 12.0915C8.76368 12.1852 8.71099 12.3124 8.71099 12.445C8.71099 12.5776 8.76368 12.7048 8.85745 12.7986C8.95122 12.8923 9.07839 12.945 9.21099 12.945H15.558C15.6906 12.945 15.8178 12.8923 15.9116 12.7986C16.0053 12.7048 16.058 12.5776 16.058 12.445C16.058 12.3124 16.0053 12.1852 15.9116 12.0915C15.8178 11.9977 15.6906 11.945 15.558 11.945Z" fill="white"/>
<path d="M13.971 13.955H10.799C10.6664 13.955 10.5392 14.0077 10.4454 14.1014C10.3517 14.1952 10.299 14.3224 10.299 14.455C10.299 14.5876 10.3517 14.7148 10.4454 14.8086C10.5392 14.9023 10.6664 14.955 10.799 14.955H13.971C14.1036 14.955 14.2308 14.9023 14.3245 14.8086C14.4183 14.7148 14.471 14.5876 14.471 14.455C14.471 14.3224 14.4183 14.1952 14.3245 14.1014C14.2308 14.0077 14.1036 13.955 13.971 13.955Z" fill="white"/>
<path d="M24.317 5.90201C24.2222 5.7802 24.1009 5.68166 23.9623 5.6139C23.8236 5.54613 23.6713 5.51094 23.517 5.51101H21.658L21.184 2.87301C21.057 2.16408 20.6846 1.52243 20.1321 1.06043C19.5796 0.598426 18.8822 0.345522 18.162 0.346009H6.61099C5.89078 0.345522 5.19336 0.598426 4.64085 1.06043C4.08835 1.52243 3.716 2.16408 3.589 2.87301L3.115 5.51101H1.258C1.10334 5.51103 0.950711 5.54625 0.811683 5.614C0.672656 5.68176 0.550871 5.78027 0.455566 5.90208C0.360261 6.02388 0.293937 6.16578 0.261612 6.31702C0.229286 6.46827 0.231812 6.62489 0.268997 6.77501L0.290992 6.86501C0.40944 7.34662 0.686097 7.77454 1.07664 8.08023C1.46719 8.38592 1.94903 8.5517 2.44499 8.55101H2.56699L2.56 8.58901C1.9312 8.72346 1.36749 9.06936 0.962791 9.56904C0.558097 10.0687 0.336876 10.692 0.335998 11.335V15.782C0.336662 16.3047 0.514081 16.8117 0.839424 17.2208C1.16477 17.6298 1.6189 17.9168 2.128 18.035V19.312C2.12906 19.7604 2.30786 20.1901 2.62521 20.5069C2.94257 20.8237 3.37259 21.0017 3.821 21.002H6.547C6.99558 21.0015 7.42564 20.823 7.74284 20.5058C8.06003 20.1887 8.23847 19.7586 8.239 19.31V18.091H16.529V19.308C16.5295 19.7566 16.708 20.1867 17.0252 20.5038C17.3424 20.821 17.7724 20.9995 18.221 21H20.947C21.3956 20.9995 21.8256 20.821 22.1428 20.5038C22.46 20.1867 22.6385 19.7566 22.639 19.308V17.969C23.0968 17.8137 23.4946 17.519 23.7765 17.1263C24.0584 16.7336 24.2103 16.2625 24.211 15.779V10.837C24.2103 10.281 24.0096 9.74374 23.6455 9.32348C23.2814 8.90321 22.7783 8.62796 22.228 8.54801H22.328C22.824 8.5487 23.3058 8.38293 23.6963 8.07723C24.0869 7.77154 24.3635 7.34362 24.482 6.86201L24.504 6.77201C24.5416 6.62188 24.5443 6.46513 24.5119 6.3138C24.4794 6.16246 24.4128 6.02057 24.317 5.89901V5.90201ZM4.574 3.04701C4.6603 2.56977 4.91158 2.13804 5.28394 1.82729C5.65629 1.51654 6.12601 1.34654 6.61099 1.34701H18.158C18.643 1.34654 19.1127 1.51654 19.4851 1.82729C19.8574 2.13804 20.1087 2.56977 20.195 3.04701L21.18 8.52401H3.589L4.574 3.04701ZM2.447 7.54701C2.17459 7.54748 1.9099 7.45646 1.69539 7.28855C1.48088 7.12064 1.32896 6.88556 1.26399 6.62101L1.242 6.53101C1.24059 6.52858 1.23985 6.52582 1.23985 6.52301C1.23985 6.5202 1.24059 6.51744 1.242 6.51501C1.24354 6.51274 1.24563 6.51091 1.24808 6.50968C1.25053 6.50846 1.25326 6.50788 1.256 6.50801H2.93099L2.744 7.54601L2.447 7.54701ZM7.239 19.308C7.23873 19.4912 7.16585 19.6668 7.03632 19.7963C6.90679 19.9259 6.73118 19.9987 6.548 19.999H3.822C3.63881 19.9987 3.46321 19.9259 3.33368 19.7963C3.20415 19.6668 3.13126 19.4912 3.131 19.308V18.091H7.24L7.239 19.308ZM21.639 19.308C21.6387 19.4912 21.5658 19.6668 21.4363 19.7963C21.3068 19.9259 21.1312 19.9987 20.948 19.999H18.222C18.0388 19.9987 17.8632 19.9259 17.7337 19.7963C17.6042 19.6668 17.5313 19.4912 17.531 19.308V18.091H21.64L21.639 19.308ZM23.211 10.837V15.778C23.2107 16.1259 23.0724 16.4595 22.8264 16.7054C22.5804 16.9514 22.2469 17.0897 21.899 17.09H2.64999C2.30211 17.0897 1.96855 16.9514 1.72256 16.7054C1.47657 16.4595 1.33826 16.1259 1.338 15.778V11.331C1.33853 10.8522 1.52897 10.3931 1.86755 10.0546C2.20612 9.71598 2.66518 9.52554 3.144 9.52501H21.898C22.2459 9.52527 22.5794 9.66359 22.8254 9.90958C23.0714 10.1556 23.2107 10.4891 23.211 10.837ZM23.532 6.53701L23.51 6.62701C23.445 6.89156 23.2931 7.12664 23.0786 7.29455C22.8641 7.46246 22.5994 7.55348 22.327 7.55301H22.02L21.833 6.51501H23.513C23.5157 6.51488 23.5185 6.51546 23.5209 6.51668C23.5234 6.51791 23.5255 6.51974 23.527 6.52201C23.5284 6.52444 23.5291 6.5272 23.5291 6.53001C23.5291 6.53282 23.5284 6.53558 23.527 6.53801L23.532 6.53701Z" fill="white"/>
</svg>
