<svg width="26" height="26" viewBox="0 0 26 26" fill="none" xmlns="http://www.w3.org/2000/svg">
<path d="M1.00092 1.45186V8.63621C1.0014 8.74166 1.0436 8.84262 1.1183 8.91709C1.19299 8.99157 1.29412 9.03351 1.39963 9.03375H4.60037C4.65293 9.03412 4.70504 9.02412 4.75372 9.00433C4.80241 8.98453 4.84671 8.95533 4.88409 8.9184C4.92146 8.88147 4.95119 8.83754 4.97155 8.78912C4.99192 8.74069 5.00252 8.68874 5.00276 8.63621V7.7987C5.84384 8.32289 6.81018 8.61211 7.80112 8.63621H11.4006C11.6135 8.64133 11.8254 8.60383 12.0236 8.52591C12.2219 8.448 12.4025 8.33124 12.555 8.18252C12.7074 8.03379 12.8286 7.8561 12.9113 7.6599C12.994 7.46369 13.0366 7.25295 13.0366 7.04005C13.0366 6.82715 12.994 6.61639 12.9113 6.42019C12.8286 6.22399 12.7074 6.0463 12.555 5.89757C12.4025 5.74885 12.2219 5.6321 12.0236 5.55419C11.8254 5.47627 11.6135 5.43876 11.4006 5.44387H9.00092V5.04449C8.9999 4.99169 9.00962 4.93924 9.02948 4.8903C9.04934 4.84137 9.07893 4.79696 9.11647 4.75979C9.15401 4.72262 9.19872 4.69346 9.24786 4.67407C9.29701 4.65467 9.34957 4.64544 9.40239 4.64695H16.6013C16.6542 4.64544 16.7068 4.65467 16.756 4.67405C16.8052 4.69344 16.8499 4.7226 16.8875 4.75975C16.9251 4.79691 16.9548 4.84129 16.9748 4.89023C16.9948 4.93917 17.0046 4.99164 17.0037 5.04449V15.4175H16.2026V7.04143C16.2027 6.98875 16.1924 6.93656 16.1723 6.88788C16.1521 6.8392 16.1225 6.79497 16.0852 6.75776C16.0479 6.72055 16.0036 6.6911 15.9548 6.67108C15.9061 6.65106 15.8538 6.64087 15.8011 6.64112C15.6959 6.6421 15.5916 6.62215 15.4942 6.58243C15.3968 6.5427 15.3083 6.48399 15.2338 6.40973C15.1593 6.33548 15.1003 6.24715 15.0604 6.1499C15.0204 6.05264 15.0002 5.94841 15.0009 5.84327C15.0004 5.73783 14.9583 5.63685 14.8836 5.56238C14.8089 5.4879 14.7077 5.44597 14.6022 5.44573H13.7762C13.6732 5.4526 13.5769 5.49902 13.5074 5.57529C13.4378 5.65155 13.4006 5.75172 13.4033 5.85484C13.4061 5.95796 13.4486 6.05603 13.5221 6.12849C13.5956 6.20095 13.6942 6.24219 13.7974 6.24357H14.2469C14.3197 6.51915 14.4647 6.77034 14.667 6.97123C14.8693 7.17211 15.1216 7.31543 15.3978 7.38639V15.4175H10.5985V9.82607C10.5985 9.72002 10.5564 9.61831 10.4813 9.54333C10.4063 9.46834 10.3045 9.42622 10.1984 9.42622C10.0923 9.42622 9.99055 9.46834 9.91552 9.54333C9.84049 9.61831 9.79833 9.72002 9.79833 9.82607V15.4175H8.99816V9.82607C8.99816 9.72002 8.95601 9.61831 8.88098 9.54333C8.80594 9.46834 8.70418 9.42622 8.59807 9.42622C8.49195 9.42622 8.39019 9.46834 8.31515 9.54333C8.24012 9.61831 8.19797 9.72002 8.19797 9.82607V15.4175H6.99815C6.89561 15.4224 6.7989 15.4666 6.72807 15.5409C6.65724 15.6151 6.61772 15.7138 6.61772 15.8164C6.61772 15.919 6.65724 16.0177 6.72807 16.0919C6.7989 16.1662 6.89561 16.2104 6.99815 16.2153H18.9963C19.0989 16.2104 19.1956 16.1662 19.2664 16.0919C19.3372 16.0177 19.3767 15.919 19.3767 15.8164C19.3767 15.7138 19.3372 15.6151 19.2664 15.5409C19.1956 15.4666 19.0989 15.4224 18.9963 15.4175H17.7965V5.04449C17.7948 4.72699 17.6679 4.42299 17.4432 4.19848C17.2186 3.97398 16.9144 3.84711 16.5967 3.84542H16.3244L13.6295 1.92504C12.9624 1.49043 12.2117 1.20024 11.4257 1.07315C10.6396 0.946063 9.83565 0.98489 9.06553 1.18714L5.00461 2.1464V1.44725C5.00437 1.39472 4.99376 1.34275 4.9734 1.29433C4.95303 1.2459 4.92331 1.20197 4.88593 1.16504C4.84855 1.12811 4.80425 1.09893 4.75557 1.07913C4.70688 1.05934 4.65478 1.04934 4.60222 1.0497H1.38301C1.28105 1.05533 1.18508 1.09958 1.11461 1.17343C1.04414 1.24728 1.00447 1.3452 1.00369 1.44725L1.00092 1.45186ZM11.3996 6.24082C11.5068 6.23717 11.6136 6.25513 11.7137 6.29361C11.8138 6.33209 11.9052 6.3903 11.9823 6.46479C12.0594 6.53928 12.1207 6.62851 12.1626 6.72718C12.2045 6.82585 12.226 6.93194 12.226 7.03912C12.226 7.1463 12.2045 7.25239 12.1626 7.35106C12.1207 7.44973 12.0594 7.53896 11.9823 7.61345C11.9052 7.68794 11.8138 7.74616 11.7137 7.78464C11.6136 7.82312 11.5068 7.84107 11.3996 7.83743H7.80019C6.78786 7.79533 5.81213 7.44734 5.00185 6.83942V2.96547L9.25843 1.96377C9.91801 1.79998 10.6037 1.76979 11.2752 1.87498C11.9466 1.98016 12.5902 2.2186 13.168 2.57623L14.9511 3.8491H9.40055C9.08279 3.85056 8.77845 3.97736 8.55376 4.20192C8.32907 4.42647 8.2022 4.73062 8.20074 5.04819V5.84603C8.19865 5.8992 8.20761 5.95222 8.22707 6.00175C8.24653 6.05128 8.27606 6.09623 8.31379 6.13377C8.35152 6.1713 8.39665 6.20061 8.44629 6.21983C8.49594 6.23905 8.54903 6.24776 8.60222 6.24542L11.3996 6.24082ZM1.8011 1.85216H4.20074V8.23406H1.8011V1.85216ZM12.9981 9.82975C12.6823 9.8303 12.3737 9.9244 12.1113 10.1002C11.849 10.2759 11.6446 10.5255 11.5241 10.8173C11.4037 11.1091 11.3724 11.43 11.4344 11.7396C11.4963 12.0491 11.6487 12.3333 11.8722 12.5563C12.0958 12.7794 12.3804 12.9312 12.6903 12.9925C13.0001 13.0539 13.3212 13.0221 13.613 12.9012C13.9047 12.7803 14.1541 12.5756 14.3295 12.3131C14.5049 12.0506 14.5985 11.742 14.5985 11.4264C14.5963 11.0034 14.427 10.5983 14.1275 10.2995C13.8279 10.0006 13.4224 9.83214 12.9991 9.83068L12.9981 9.82975ZM12.9981 10.6285C13.156 10.6289 13.3102 10.676 13.4412 10.7639C13.5722 10.8518 13.6743 10.9765 13.7344 11.1223C13.7945 11.2682 13.8101 11.4285 13.7791 11.5832C13.7481 11.7378 13.6719 11.8798 13.5602 11.9912C13.4484 12.1026 13.3062 12.1784 13.1514 12.209C12.9966 12.2397 12.8362 12.2238 12.6904 12.1633C12.5446 12.1029 12.42 12.0006 12.3324 11.8694C12.2448 11.7383 12.198 11.5841 12.198 11.4264C12.1975 11.3213 12.2179 11.2171 12.258 11.12C12.2981 11.0228 12.3572 10.9346 12.4317 10.8605C12.5063 10.7863 12.5948 10.7277 12.6922 10.688C12.7896 10.6484 12.8939 10.6285 12.9991 10.6295L12.9981 10.6285ZM2.19982 13.0267C2.04226 13.0267 1.88623 13.0577 1.74066 13.118C1.59509 13.1782 1.46282 13.2665 1.35141 13.3779C1.24 13.4892 1.15162 13.6214 1.09133 13.7669C1.03103 13.9124 1 14.0683 1 14.2258V23.8009C1.00146 24.1185 1.12834 24.4226 1.35303 24.6472C1.57772 24.8717 1.88206 24.9985 2.19982 25H23.7965C24.1143 24.9985 24.4186 24.8717 24.6433 24.6472C24.868 24.4226 24.9949 24.1185 24.9963 23.8009V19.8135C24.9963 19.7074 24.9542 19.6058 24.8791 19.5308C24.8041 19.4558 24.7023 19.4136 24.5962 19.4136C24.4901 19.4136 24.3884 19.4558 24.3133 19.5308C24.2383 19.6058 24.1961 19.7074 24.1961 19.8135V23.8009C24.1975 23.8537 24.1882 23.9062 24.1687 23.9553C24.1491 24.0044 24.1198 24.049 24.0826 24.0864C24.0453 24.1238 24.0008 24.1533 23.9518 24.1731C23.9028 24.1928 23.8503 24.2024 23.7974 24.2012H2.20073C2.14791 24.2024 2.0954 24.1928 2.04639 24.1731C1.99737 24.1533 1.95288 24.1238 1.9156 24.0864C1.87832 24.049 1.84903 24.0044 1.82951 23.9553C1.80999 23.9062 1.80065 23.8537 1.80203 23.8009V18.6144H24.5985C24.651 18.6147 24.703 18.6046 24.7516 18.5847C24.8002 18.5649 24.8444 18.5357 24.8816 18.4988C24.9189 18.4618 24.9486 18.4179 24.9689 18.3696C24.9892 18.3212 24.9998 18.2693 25 18.2169V14.2267C25 13.9087 24.8736 13.6037 24.6486 13.3788C24.4236 13.1539 24.1184 13.0276 23.8002 13.0276H19.0009C18.8949 13.0276 18.7933 13.0697 18.7184 13.1446C18.6434 13.2195 18.6013 13.3211 18.6013 13.427C18.6013 13.5329 18.6434 13.6345 18.7184 13.7094C18.7933 13.7843 18.8949 13.8264 19.0009 13.8264H23.8002C23.8529 13.8249 23.9053 13.8341 23.9543 13.8535C24.0033 13.8729 24.0479 13.9022 24.0852 13.9394C24.1225 13.9766 24.1518 14.021 24.1714 14.07C24.1909 14.1189 24.2003 14.1713 24.1989 14.2239V17.8138H1.8011V14.2239C1.7997 14.1713 1.80906 14.1189 1.82861 14.07C1.84816 14.021 1.8775 13.9766 1.91482 13.9394C1.95214 13.9022 1.99667 13.8729 2.04567 13.8535C2.09467 13.8341 2.14712 13.8249 2.19982 13.8264H6.99908C7.10507 13.8264 7.20671 13.7843 7.28165 13.7094C7.3566 13.6345 7.39871 13.5329 7.39871 13.427C7.39871 13.3211 7.3566 13.2195 7.28165 13.1446C7.20671 13.0697 7.10507 13.0276 6.99908 13.0276L2.19982 13.0267Z" fill="white" stroke="white" stroke-width="0.3"/>
</svg>
