<svg width="24" height="24" viewBox="0 0 24 24" fill="none" xmlns="http://www.w3.org/2000/svg">
<g clip-path="url(#clip0_205_52)">
<path d="M23.6255 18.5211H21.7783C21.8214 18.3766 21.8437 18.2244 21.8442 18.0709V3.35065C21.8442 2.99243 21.7258 2.64889 21.5151 2.39559C21.3044 2.1423 21.0186 2 20.7206 2H3.27865C2.98065 2 2.69486 2.1423 2.48415 2.39559C2.27343 2.64889 2.15506 2.99243 2.15506 3.35065V18.0709C2.15559 18.2244 2.17788 18.3766 2.22097 18.5211H0.374532C0.2752 18.5211 0.179936 18.5685 0.109698 18.653C0.0394592 18.7374 0 18.8519 0 18.9713V19.0839C0.000594479 19.5918 0.168725 20.0788 0.46753 20.438C0.766336 20.7972 1.17143 20.9993 1.59401 21H22.406C22.8286 20.9993 23.2337 20.7972 23.5325 20.438C23.8313 20.0788 23.9994 19.5918 24 19.0839V18.9713C24 18.8519 23.9605 18.7374 23.8903 18.653C23.8201 18.5685 23.7248 18.5211 23.6255 18.5211ZM2.90337 3.35065C2.90337 3.23124 2.94283 3.11673 3.01307 3.0323C3.08331 2.94786 3.17857 2.90043 3.2779 2.90043H20.7191C20.8184 2.90043 20.9137 2.94786 20.9839 3.0323C21.0542 3.11673 21.0936 3.23124 21.0936 3.35065V18.0709C21.0936 18.1903 21.0542 18.3048 20.9839 18.3892C20.9137 18.4737 20.8184 18.5211 20.7191 18.5211H3.27865C3.17932 18.5211 3.08405 18.4737 3.01382 18.3892C2.94358 18.3048 2.90412 18.1903 2.90412 18.0709L2.90337 3.35065ZM22.4067 20.0987H1.59101C1.41659 20.0983 1.24652 20.0332 1.10411 19.9121C0.961695 19.791 0.853901 19.62 0.795503 19.4224H23.2015C23.1429 19.6197 23.035 19.7903 22.8926 19.911C22.7502 20.0318 22.5802 20.0967 22.406 20.0969L22.4067 20.0987Z" fill="white"/>
<path d="M10.779 17.8737H13.2172C13.3166 17.8737 13.4118 17.8263 13.4821 17.7418C13.5523 17.6574 13.5918 17.5429 13.5918 17.4235C13.5918 17.3041 13.5523 17.1896 13.4821 17.1051C13.4118 17.0207 13.3166 16.9733 13.2172 16.9733H10.779C10.6797 16.9733 10.5844 17.0207 10.5142 17.1051C10.444 17.1896 10.4045 17.3041 10.4045 17.4235C10.4045 17.5429 10.444 17.6574 10.5142 17.7418C10.5844 17.8263 10.6797 17.8737 10.779 17.8737Z" fill="white"/>
<path d="M12.4202 4.25108C12.4202 4.35134 12.3955 4.44935 12.3492 4.53271C12.3028 4.61608 12.237 4.68106 12.1599 4.71943C12.0828 4.7578 11.998 4.76783 11.9162 4.74827C11.8344 4.72871 11.7593 4.68044 11.7003 4.60954C11.6413 4.53865 11.6012 4.44832 11.5849 4.34998C11.5686 4.25164 11.577 4.14971 11.6089 4.05708C11.6408 3.96445 11.6949 3.88527 11.7642 3.82957C11.8336 3.77386 11.9151 3.74414 11.9985 3.74414C12.1104 3.74414 12.2176 3.79755 12.2967 3.89262C12.3758 3.98769 12.4202 4.11663 12.4202 4.25108Z" fill="white"/>
<path d="M23.6255 18.5211H21.7783C21.8214 18.3766 21.8437 18.2244 21.8442 18.0709V3.35065C21.8442 2.99243 21.7258 2.64889 21.5151 2.39559C21.3044 2.1423 21.0186 2 20.7206 2H3.27865C2.98065 2 2.69486 2.1423 2.48415 2.39559C2.27343 2.64889 2.15506 2.99243 2.15506 3.35065V18.0709C2.15559 18.2244 2.17788 18.3766 2.22097 18.5211H0.374532C0.2752 18.5211 0.179936 18.5685 0.109698 18.653C0.0394592 18.7374 0 18.8519 0 18.9713V19.0839C0.000594479 19.5918 0.168725 20.0788 0.46753 20.438C0.766336 20.7972 1.17143 20.9993 1.59401 21H22.406C22.8286 20.9993 23.2337 20.7972 23.5325 20.438C23.8313 20.0788 23.9994 19.5918 24 19.0839V18.9713C24 18.8519 23.9605 18.7374 23.8903 18.653C23.8201 18.5685 23.7248 18.5211 23.6255 18.5211ZM2.90337 3.35065C2.90337 3.23124 2.94283 3.11673 3.01307 3.0323C3.08331 2.94786 3.17857 2.90043 3.2779 2.90043H20.7191C20.8184 2.90043 20.9137 2.94786 20.9839 3.0323C21.0542 3.11673 21.0936 3.23124 21.0936 3.35065V18.0709C21.0936 18.1903 21.0542 18.3048 20.9839 18.3892C20.9137 18.4737 20.8184 18.5211 20.7191 18.5211H3.27865C3.17932 18.5211 3.08405 18.4737 3.01382 18.3892C2.94358 18.3048 2.90412 18.1903 2.90412 18.0709L2.90337 3.35065ZM22.4067 20.0987H1.59101C1.41659 20.0983 1.24652 20.0332 1.10411 19.9121C0.961695 19.791 0.853901 19.62 0.795503 19.4224H23.2015C23.1429 19.6197 23.035 19.7903 22.8926 19.911C22.7502 20.0318 22.5802 20.0967 22.406 20.0969L22.4067 20.0987Z" stroke="white" stroke-width="0.5"/>
<path d="M10.779 17.8737H13.2172C13.3166 17.8737 13.4118 17.8263 13.4821 17.7418C13.5523 17.6574 13.5918 17.5429 13.5918 17.4235C13.5918 17.3041 13.5523 17.1896 13.4821 17.1051C13.4118 17.0207 13.3166 16.9733 13.2172 16.9733H10.779C10.6797 16.9733 10.5844 17.0207 10.5142 17.1051C10.444 17.1896 10.4045 17.3041 10.4045 17.4235C10.4045 17.5429 10.444 17.6574 10.5142 17.7418C10.5844 17.8263 10.6797 17.8737 10.779 17.8737Z" stroke="white" stroke-width="0.5"/>
<path d="M12.4202 4.25108C12.4202 4.35134 12.3955 4.44935 12.3492 4.53271C12.3028 4.61608 12.237 4.68106 12.1599 4.71943C12.0828 4.7578 11.998 4.76783 11.9162 4.74827C11.8344 4.72871 11.7593 4.68044 11.7003 4.60954C11.6413 4.53865 11.6012 4.44832 11.5849 4.34998C11.5686 4.25164 11.577 4.14971 11.6089 4.05708C11.6408 3.96445 11.6949 3.88527 11.7642 3.82957C11.8336 3.77386 11.9151 3.74414 11.9985 3.74414C12.1104 3.74414 12.2176 3.79755 12.2967 3.89262C12.3758 3.98769 12.4202 4.11663 12.4202 4.25108Z" stroke="white" stroke-width="0.5"/>
</g>
<defs>
<clipPath id="clip0_205_52">
<rect width="24" height="24" fill="white"/>
</clipPath>
</defs>
</svg>
