<svg width="24" height="24" viewBox="0 0 24 24" fill="none" xmlns="http://www.w3.org/2000/svg">
<path d="M21.3165 3.82817C21.4312 3.90525 21.5243 4.0106 21.5865 4.13406C21.6488 4.25752 21.6782 4.39492 21.672 4.53306V13.6122C21.672 13.6273 21.672 13.6424 21.672 13.6584C21.4573 15.9769 20.3785 18.1298 18.6498 19.6895C16.8276 21.4738 14.5534 22.7275 12.072 23.3162C12.0098 23.3304 11.968 23.3366 11.936 23.3419H11.9227L11.8747 23.3499H11.8649H11.8142C11.788 23.3497 11.7619 23.3473 11.736 23.3428H11.7271L11.6933 23.3366C11.6622 23.3313 11.6293 23.3259 11.5769 23.3135C9.10064 22.726 6.83122 21.475 5.01245 19.6948C3.2882 18.1421 2.21254 15.9965 2 13.6859C2 13.6717 2 13.6575 2 13.6433V4.56507C2 4.09751 2.31645 3.72329 2.68267 3.75973C4.46667 3.93218 6.69956 3.05484 8.46045 2.09573C9.51977 1.52116 10.5342 0.867447 11.4951 0.140173C11.5595 0.0833975 11.6357 0.0417816 11.7182 0.018394H11.7253C11.8125 -0.00613133 11.9048 -0.00613133 11.992 0.018394H12.0009C12.0659 0.0401638 12.1261 0.0739326 12.1787 0.117949L12.1858 0.122394C13.1525 0.85687 14.1731 1.5174 15.2391 2.09839C17.0018 3.05839 19.2391 3.93662 21.0231 3.76418C21.1287 3.75392 21.2349 3.77757 21.3262 3.83172L21.3165 3.82817ZM20.4276 5.25039C18.4181 5.14463 16.4625 4.56304 14.7218 3.55351C13.7027 3.00808 12.7309 2.37833 11.8169 1.67084C10.903 2.37691 9.93193 3.00575 8.91377 3.55084C7.17734 4.5563 5.22834 5.13826 3.22489 5.2495V13.5793C3.45645 15.4538 4.36001 17.1807 5.768 18.4397C7.44641 20.0722 9.53489 21.2205 11.8125 21.7633L11.8427 21.7704L11.8693 21.7642C14.1406 21.2225 16.2233 20.0769 17.8969 18.4486C19.3005 17.1955 20.2 15.4746 20.4276 13.6068V5.25039Z" fill="white"/>
</svg>
