<svg width="24" height="24" viewBox="0 0 24 24" fill="none" xmlns="http://www.w3.org/2000/svg">
<path d="M5.85216 13.4481C6.11769 13.719 6.44571 13.9176 6.80618 14.026V23.3435C6.80618 23.5176 6.87413 23.6845 6.99504 23.8076C7.11596 23.9307 7.27996 23.9998 7.45097 23.9998C7.62197 23.9998 7.78598 23.9307 7.9069 23.8076C8.02782 23.6845 8.09575 23.5176 8.09575 23.3435V13.9992C8.56272 13.8606 8.97207 13.5697 9.26091 13.1713C9.54975 12.773 9.70209 12.289 9.69455 11.794H9.71995C10.3091 11.796 10.875 11.56 11.2934 11.1377C11.5049 10.9261 11.6714 10.6723 11.7823 10.3924C11.8933 10.1123 11.9463 9.81213 11.9381 9.51028H11.9898C11.9853 9.81158 12.04 10.1108 12.1507 10.3903C12.2614 10.6698 12.4259 10.9239 12.6346 11.1377C12.8661 11.3754 13.1486 11.5551 13.4599 11.6629L11.5001 13.6577C11.3799 13.7801 11.3123 13.9461 11.3123 14.1192C11.3123 14.2923 11.3799 14.4583 11.5001 14.5807C11.6204 14.7031 11.7835 14.7719 11.9536 14.7719C12.1236 14.7719 12.2867 14.7031 12.407 14.5807L16.9196 9.98751C17.0398 9.86511 17.1074 9.69905 17.1074 9.52597C17.1074 9.3529 17.0398 9.18685 16.9196 9.06445C16.7993 8.94204 16.6362 8.87327 16.4661 8.87327C16.2961 8.87327 16.1329 8.94204 16.0127 9.06445L14.88 10.2192C14.7912 10.3147 14.6845 10.391 14.5661 10.4438C14.4479 10.4965 14.3204 10.5247 14.1913 10.5264C14.0621 10.5282 13.934 10.5036 13.8143 10.4541C13.6946 10.4047 13.5859 10.3313 13.4946 10.2383C13.4033 10.1454 13.3312 10.0347 13.2826 9.91293C13.234 9.79108 13.2098 9.66065 13.2116 9.52921C13.2133 9.39776 13.2409 9.26797 13.2927 9.14757C13.3446 9.02715 13.4196 8.91854 13.5134 8.82814L15.757 6.54444C15.9391 6.36162 16.1845 6.25913 16.4403 6.25913C16.696 6.25913 16.9415 6.36162 17.1236 6.54444L19.3908 8.85213C19.5647 9.04045 19.6616 9.28921 19.6616 9.54767C19.6616 9.80613 19.5647 10.0549 19.3908 10.2432L16.0354 13.6586C15.9747 13.7203 15.9273 13.7942 15.8961 13.8756C15.8649 13.9569 15.8505 14.044 15.854 14.1312V23.3186C15.854 23.4927 15.9219 23.6596 16.0428 23.7827C16.1638 23.9058 16.3277 23.9749 16.4988 23.9749C16.6698 23.9749 16.8338 23.9058 16.9547 23.7827C17.0756 23.6596 17.1436 23.4927 17.1436 23.3186V14.3934L20.3412 11.1386C20.55 10.9267 20.7157 10.6749 20.8287 10.3977C20.9418 10.1205 21 9.82339 21 9.52321C21 9.22308 20.9418 8.92589 20.8287 8.64869C20.7157 8.37148 20.55 8.11972 20.3412 7.90782L18.074 5.60013C17.8661 5.38478 17.6168 5.21536 17.3418 5.10244C17.0667 4.98952 16.7717 4.93553 16.4752 4.94383V4.91798C16.4772 4.31827 16.2453 3.74225 15.8304 3.31644L13.5632 1.00874C13.1325 0.588794 12.56 0.352913 11.9635 0.349672C11.6717 0.347459 11.3823 0.404356 11.1122 0.517051C10.8422 0.629747 10.5968 0.79599 10.3905 1.0061C10.1842 1.21622 10.0209 1.46601 9.91034 1.74094C9.79973 2.01587 9.74396 2.31044 9.74625 2.60751V2.63336H9.72086C9.429 2.63115 9.13962 2.68805 8.86957 2.80074C8.59951 2.91344 8.35418 3.07968 8.14783 3.2898C7.94149 3.49991 7.77827 3.7497 7.66766 4.02463C7.55706 4.29956 7.50127 4.59413 7.50356 4.89121V4.91706H7.47817C6.88899 4.91501 6.3231 5.15106 5.90476 5.57336C5.6932 5.78497 5.52676 6.03868 5.41581 6.31868C5.30488 6.59869 5.25183 6.89895 5.25998 7.20074H5.23459C4.79211 7.20001 4.35941 7.33321 3.99151 7.58342C3.6236 7.83363 3.33709 8.18955 3.16843 8.60594C2.99976 9.02233 2.95656 9.48037 3.0443 9.92179C3.13204 10.3632 3.34676 10.7682 3.66117 11.0851L5.85216 13.4481ZM11.2934 1.92536C11.3818 1.83781 11.4869 1.76942 11.602 1.72436C11.7172 1.6793 11.8402 1.6585 11.9635 1.66321C12.0885 1.66337 12.2122 1.68902 12.3274 1.73864C12.4424 1.78826 12.5466 1.86086 12.6337 1.95213L14.9009 4.25982C14.9907 4.34846 15.0621 4.45455 15.1108 4.57181C15.1596 4.68907 15.1847 4.81511 15.1847 4.94244C15.1847 5.06978 15.1596 5.19581 15.1108 5.31307C15.0621 5.43033 14.9907 5.53642 14.9009 5.62505C14.7159 5.80212 14.4715 5.90069 14.2175 5.90069C13.9636 5.90069 13.7192 5.80212 13.5342 5.62505L11.2671 3.31736C11.1774 3.22872 11.1061 3.12268 11.0573 3.00553C11.0086 2.88836 10.9834 2.76244 10.9832 2.63521C11.0043 2.37003 11.1133 2.12003 11.2925 1.92628L11.2934 1.92536ZM9.02619 4.23305C9.11327 4.14164 9.2175 4.06895 9.3327 4.01931C9.4479 3.96968 9.57173 3.9441 9.69682 3.9441C9.82192 3.9441 9.94575 3.96968 10.0609 4.01931C10.1761 4.06895 10.2804 4.14164 10.3674 4.23305L12.6346 6.54074C12.7244 6.62938 12.7959 6.73548 12.8446 6.85274C12.8933 6.96999 12.9185 7.09603 12.9185 7.22336C12.9185 7.3507 12.8933 7.47674 12.8446 7.59399C12.7959 7.71125 12.7244 7.81735 12.6346 7.90598C12.4496 8.08304 12.2052 8.18162 11.9513 8.18162C11.6973 8.18162 11.453 8.08304 11.268 7.90598L9.0008 5.59828C8.91113 5.50964 8.83981 5.40361 8.79106 5.28645C8.74231 5.16928 8.71711 5.04337 8.71695 4.91613C8.73882 4.65902 8.84819 4.41683 9.02619 4.23305ZM6.75903 6.54074C6.84611 6.44933 6.95033 6.37665 7.06553 6.32701C7.18073 6.27737 7.30456 6.25179 7.42966 6.25179C7.55476 6.25179 7.67858 6.27737 7.79378 6.32701C7.90898 6.37665 8.01321 6.44933 8.10028 6.54074L10.3674 8.84845C10.4612 8.93885 10.5362 9.04746 10.5881 9.16788C10.6399 9.28828 10.6675 9.41807 10.6693 9.54951C10.671 9.68096 10.6469 9.81139 10.5982 9.93324C10.5496 10.055 10.4775 10.1657 10.3862 10.2586C10.2949 10.3516 10.1862 10.425 10.0665 10.4744C9.94686 10.5239 9.81869 10.5485 9.68955 10.5467C9.5604 10.545 9.43292 10.5168 9.31462 10.4641C9.19633 10.4113 9.08962 10.335 9.0008 10.2395L6.73364 7.93183C6.56908 7.73729 6.48078 7.48783 6.48563 7.23117C6.49049 6.97452 6.58816 6.72869 6.75994 6.54074H6.75903ZM4.51544 8.82444C4.60252 8.73302 4.70674 8.66034 4.82194 8.6107C4.93714 8.56106 5.06098 8.53549 5.18607 8.53549C5.31117 8.53549 5.43498 8.56106 5.55018 8.6107C5.66538 8.66034 5.76963 8.73302 5.8567 8.82444L8.12387 11.1321C8.29707 11.3182 8.39209 11.5658 8.38868 11.8221C8.38527 12.0785 8.28372 12.3234 8.10562 12.5047C7.92753 12.6859 7.68696 12.7893 7.43512 12.7927C7.18329 12.7963 6.94007 12.6995 6.75721 12.5232L4.49005 10.2155C4.31391 10.0267 4.21791 9.77484 4.22283 9.51453C4.22776 9.25413 4.33321 9.00624 4.51636 8.82444H4.51544Z" fill="white"/>
</svg>
