<svg width="42" height="43" viewBox="0 0 42 43" fill="none" xmlns="http://www.w3.org/2000/svg">
<path d="M15.2233 5C14.6359 5.00638 14.0743 5.24257 13.6589 5.65796C13.2435 6.07335 13.0074 6.63491 13.0009 7.22232V9.44465H5.44843C4.27059 9.44888 3.14214 9.91838 2.30891 10.7509C1.47569 11.5834 1.00522 12.7115 1 13.8893V33.4447C1.00522 34.6218 1.47516 35.7493 2.30757 36.5817C3.13998 37.4142 4.26746 37.8841 5.44465 37.8893H36.5553C37.7325 37.8841 38.86 37.4142 39.6924 36.5817C40.5249 35.7493 40.9948 34.6218 41 33.4447V13.8893C40.9948 12.7121 40.5249 11.5846 39.6924 10.7522C38.86 9.91982 37.7325 9.44987 36.5553 9.44465H29.0028V7.22327C28.9964 6.63585 28.7603 6.07429 28.3448 5.6589C27.9294 5.24351 27.3679 5.00733 26.7805 5.00094L15.2233 5ZM15.6679 7.66698H26.3359V9.44465H15.6679V7.66698ZM5.4456 12.1116H7.65376V35.2223H5.4456C5.21095 35.2267 4.97784 35.1836 4.7602 35.0959C4.54255 35.0081 4.34484 34.8773 4.17889 34.7113C4.01294 34.5454 3.88217 34.3477 3.79437 34.13C3.70657 33.9124 3.66356 33.6793 3.66792 33.4447V13.8902C3.66343 13.6556 3.70635 13.4224 3.7941 13.2047C3.88185 12.987 4.01262 12.7892 4.1786 12.6232C4.34457 12.4573 4.54233 12.3265 4.76004 12.2388C4.97774 12.151 5.21092 12.1071 5.4456 12.1116ZM10.3208 12.1116H31.6821V35.2223H10.3208V12.1116ZM34.3481 12.1116H36.5563C36.7909 12.1073 37.0241 12.1503 37.2417 12.2381C37.4594 12.3259 37.6571 12.4566 37.823 12.6226C37.9889 12.7885 38.1198 12.9863 38.2076 13.2039C38.2954 13.4215 38.3383 13.6547 38.334 13.8893V33.4447C38.3383 33.6793 38.2954 33.9124 38.2076 34.13C38.1198 34.3477 37.9889 34.5454 37.823 34.7113C37.6571 34.8773 37.4594 35.0081 37.2417 35.0959C37.0241 35.1836 36.7909 35.2267 36.5563 35.2223H34.3481V12.1116Z" fill="white"/>
</svg>
