<svg width="42" height="42" viewBox="0 0 42 42" fill="none" xmlns="http://www.w3.org/2000/svg">
<path d="M34.258 7.8664C32.633 6.22473 30.7164 4.8914 28.5997 3.94961L28.0581 5.16628C30.0164 6.04126 31.7996 7.27461 33.3082 8.79969L34.258 7.8664Z" fill="white"/>
<path d="M13.9413 5.16628L13.3997 3.94961C8.73303 6.04126 5.11632 9.95777 3.3997 14.783L4.65805 15.2247C6.24972 10.7415 9.59965 7.10796 13.9413 5.16628Z" fill="white"/>
<path d="M8.80033 33.3172C6.94199 31.4755 5.52535 29.2422 4.6503 26.7839L3.39195 27.2255C4.3336 29.8755 5.85861 32.284 7.85843 34.2673L8.80033 33.3172Z" fill="white"/>
<path d="M34.4665 31.917L35.4998 32.7503C36.1998 31.8836 36.8248 30.9586 37.3582 29.9837L36.1915 29.342C35.6998 30.2503 35.1165 31.1086 34.4665 31.917Z" fill="white"/>
<path d="M22.5416 5.31647L20.4083 3.89148C19.7916 3.48316 18.9666 3.64981 18.5583 4.25813C18.4083 4.47479 18.3333 4.73311 18.3333 4.99978V7.84144C18.3333 8.57477 18.9333 9.17477 19.6666 9.17477C19.9333 9.17477 20.1916 9.09977 20.4083 8.94977L22.5416 7.52478C23.1583 7.11646 23.3166 6.29143 22.9083 5.67479C22.8083 5.53313 22.6833 5.40813 22.5416 5.31647ZM19.6666 7.84148V4.99981L21.8 6.4248L19.6666 7.84148Z" fill="white"/>
<path d="M27.6666 21C27.6666 18.0583 25.2749 15.6666 22.3333 15.6666C19.3916 15.6666 17 18.0583 17 21C17 23.9416 19.3916 26.3333 22.3333 26.3333C25.2749 26.3333 27.6666 23.9416 27.6666 21ZM22.3333 24.9999C20.125 24.9999 18.3333 23.2083 18.3333 21C18.3333 18.7916 20.125 17 22.3333 17C24.5416 17 26.3333 18.7916 26.3333 21C26.3333 23.2083 24.5416 24.9999 22.3333 24.9999Z" fill="white"/>
<path d="M21.6668 20.7249L19.8585 22.5249L20.8085 23.4749L23.0002 21.2749V18.3333H21.6668L21.6668 20.7249Z" fill="white"/>
<path d="M6.33332 23.6666V23H9.66665V23.6666C9.66665 24.7666 10.5666 25.6666 11.6666 25.6666H13C14.1 25.6666 15 24.7666 15 23.6666V18.3333C15 17.2333 14.1 16.3333 13 16.3333H11.6666C10.5666 16.3333 9.66665 17.2333 9.66665 18.3333V19H6.33332V18.3333C6.33332 17.2333 5.43334 16.3333 4.33333 16.3333H3C1.89998 16.3333 1 17.2333 1 18.3333V23.6666C1 24.7666 1.89998 25.6666 3 25.6666H4.33333C5.43334 25.6666 6.33332 24.7666 6.33332 23.6666ZM11 18.3333C11 17.9666 11.3 17.6666 11.6666 17.6666H13C13.3666 17.6666 13.6666 17.9666 13.6666 18.3333V23.6666C13.6666 24.0333 13.3666 24.3333 13 24.3333H11.6666C11.3 24.3333 11 24.0333 11 23.6666V18.3333ZM6.33332 20.3333H9.66665V21.6666H6.33332V20.3333ZM2.33333 23.6666V18.3333C2.33333 17.9666 2.63333 17.6666 3 17.6666H4.33333C4.69997 17.6666 4.99999 17.9666 4.99999 18.3333V23.6666C4.99999 24.0333 4.69999 24.3333 4.33333 24.3333H3C2.63335 24.3333 2.33333 24.0333 2.33333 23.6666Z" fill="white"/>
<path d="M7.66665 35.6666C6.55832 35.6666 5.66666 36.5582 5.66666 37.6666C5.66666 38.7749 6.55832 39.6666 7.66665 39.6666H13.6666C14.2916 40.5082 15.2833 40.9999 16.3333 40.9999H25.6666C27.5083 40.9999 28.9999 39.5083 28.9999 37.6666V35.6666H7.66665ZM7.66665 38.3332C7.3 38.3332 6.99999 38.0332 6.99999 37.6666C6.99999 37.2999 7.29999 36.9999 7.66665 36.9999H13V37.6666C13 37.8916 13.025 38.1166 13.0666 38.3332H7.66665ZM27.6666 37.6666C27.6666 38.7666 26.7666 39.6666 25.6666 39.6666H16.3333C15.2333 39.6666 14.3333 38.7666 14.3333 37.6666V36.9999H27.6666V37.6666Z" fill="white"/>
<path d="M20.3333 29.6666H21.6666V30.9999H20.3333V29.6666Z" fill="white"/>
<path d="M13 28.9999H14.3333V30.3333H13V28.9999Z" fill="white"/>
<path d="M13.6666 32.9999H15V34.3333H13.6666V32.9999Z" fill="white"/>
<path d="M15.6666 30.3333H17V31.6666H15.6666V30.3333Z" fill="white"/>
<path d="M17.6666 32.3333H19V33.6666H17.6666V32.3333Z" fill="white"/>
<path d="M17.6666 28.3333H19V29.6666H17.6666V28.3333Z" fill="white"/>
<path d="M21.6666 32.9999H23V34.3333H21.6666V32.9999Z" fill="white"/>
<path d="M35.6667 20.2917C36.8833 20.15 38.0167 19.5916 38.8833 18.725L39.3917 18.2167C40.425 17.1917 41.0083 15.7917 41 14.3333V13.6666H40.3333C38.875 13.6666 37.475 14.2416 36.4499 15.275L35.9416 15.7833C35.5666 16.1583 35.25 16.5833 35 17.0416C34.75 16.5833 34.4333 16.1583 34.0583 15.7833L33.55 15.275C32.525 14.2416 31.125 13.6666 29.6666 13.6666H28.9999V14.3333C28.9999 15.7916 29.5749 17.1916 30.6083 18.2167L31.1166 18.725C31.9833 19.5917 33.1166 20.15 34.3333 20.2917V21.6667H30.3333V23H31.0749L31.5249 26.5833C31.6499 27.5833 32.4999 28.3333 33.5082 28.3333H36.4915C37.4999 28.3333 38.3499 27.5833 38.4749 26.5833L38.9249 23H39.6665V21.6667H35.6665L35.6667 20.2917ZM36.8833 16.7251L37.3917 16.2167C37.9917 15.6167 38.7667 15.2084 39.6083 15.0584C39.4583 15.9001 39.0583 16.6667 38.45 17.2751L37.9417 17.7834C37.3417 18.3834 36.5667 18.7917 35.725 18.9418C35.875 18.1001 36.2833 17.3251 36.8833 16.7251ZM32.0585 17.7834L31.5501 17.2751C30.9501 16.6751 30.5418 15.9001 30.3918 15.0584C31.2335 15.2084 32.0001 15.6084 32.6085 16.2167L33.1168 16.7251C33.7168 17.3251 34.1251 18.1001 34.2751 18.9418C33.4335 18.7918 32.6585 18.3834 32.0585 17.7834ZM37.5752 23.0001L37.1502 26.4168C37.1086 26.7501 36.8252 27.0001 36.4919 27.0001H33.5086C33.1753 27.0001 32.8919 26.7501 32.8502 26.4168L32.4252 23.0001H37.5752Z" fill="white"/>
<path d="M34.9069 10.0651L36.3891 6.72964L37.6075 7.27115L36.1252 10.6066L34.9069 10.0651Z" fill="white"/>
<path d="M33.7223 12.7289L34.3145 11.3963L35.5329 11.9378L34.9407 13.2704L33.7223 12.7289Z" fill="white"/>
<path d="M13.6666 12.3333C13.6666 13.4333 14.5666 14.3333 15.6666 14.3333H26.3333C27.4333 14.3333 28.3333 13.4333 28.3333 12.3333V10.3333H26.9999V3C26.9999 1.89998 26.1 1 24.9999 1H17C15.8999 1 15 1.89998 15 3V10.3333H13.6666V12.3333ZM16.3333 3C16.3333 2.63335 16.6333 2.33333 17 2.33333H24.9999C25.3666 2.33333 25.6666 2.63333 25.6666 3V10.3333H16.3333V3ZM15 11.6666H26.9999V12.3333C26.9999 12.7 26.6999 13 26.3333 13H15.6666C15.3 13 15 12.7 15 12.3333V11.6666Z" fill="white"/>
<path d="M31 30.7246V29.5496C31 29.0163 30.7917 28.508 30.4167 28.133L29.0833 26.7996C28.3 26.0163 27.0334 26.0163 26.2584 26.7996L24.1417 28.9163C23.3584 29.6996 23.3584 30.9663 24.1417 31.7413L25.475 33.0746C25.85 33.4496 26.3584 33.6579 26.8917 33.6579H28.0667L33.5415 39.1328C34.3582 39.9411 35.6749 39.9411 36.4832 39.1328C37.2915 38.3245 37.2915 37.0078 36.4832 36.1911L31 30.7246ZM35.5251 38.1913C35.2335 38.483 34.7585 38.483 34.4668 38.1913L28.6083 32.3328H26.8833C26.7083 32.3328 26.5333 32.2662 26.4083 32.1412L25.075 30.8078C24.8167 30.5495 24.8167 30.1245 25.075 29.8662L27.1917 27.7495C27.45 27.4912 27.875 27.4912 28.1333 27.7495L29.4666 29.0829C29.5916 29.2079 29.6583 29.3745 29.6583 29.5578V31.2828L35.5168 37.1413C35.8168 37.433 35.8168 37.8996 35.5251 38.1913Z" fill="white"/>
<path d="M38.2407 10.0651L39.7229 6.72964L40.9413 7.27115L39.4591 10.6066L38.2407 10.0651Z" fill="white"/>
<path d="M37.0566 12.7289L37.6488 11.3963L38.8672 11.9378L38.2749 13.2704L37.0566 12.7289Z" fill="white"/>
</svg>
