<svg width="42" height="44" viewBox="0 0 42 44" fill="none" xmlns="http://www.w3.org/2000/svg">
<path d="M21.0189 4.00001C19.0217 4.00377 17.1074 4.79872 15.6952 6.21081C14.2829 7.62289 13.4877 9.53706 13.4837 11.5342C13.4906 12.4682 13.6737 13.3926 14.0235 14.2587L8.4758 21.7228L9.92347 22.8014L14.9751 15.99C15.7382 17.0241 16.7535 17.8455 17.9243 18.3757C19.0949 18.906 20.382 19.1275 21.6626 19.0192C22.9432 18.9108 24.1748 18.4762 25.2397 17.7567C26.3047 17.0372 27.1675 16.0569 27.746 14.9093C28.3245 13.7616 28.5994 12.4849 28.5443 11.2008C28.4893 9.9168 28.1062 8.66828 27.4316 7.57434C26.7571 6.48041 25.8135 5.57751 24.6909 4.9518C23.5682 4.32609 22.3041 3.9984 21.0189 4.00001ZM21.0189 5.81569C22.1499 5.81569 23.2555 6.15107 24.1959 6.77943C25.1363 7.40779 25.8693 8.30089 26.302 9.34581C26.7349 10.3907 26.8482 11.5405 26.6275 12.6498C26.4069 13.7591 25.8621 14.778 25.0625 15.5778C24.2627 16.3775 23.2437 16.9222 22.1345 17.1428C21.0252 17.3635 19.8754 17.2502 18.8305 16.8174C17.7856 16.3846 16.8925 15.6516 16.2641 14.7112C15.6358 13.7708 15.3004 12.6652 15.3004 11.5342C15.2988 10.7828 15.4456 10.0384 15.7324 9.34391C16.0192 8.64938 16.4404 8.01835 16.9717 7.48701C17.503 6.95569 18.1341 6.53452 18.8286 6.24771C19.5231 5.9609 20.2675 5.81408 21.0189 5.81569ZM29.9733 16.9253L28.5256 18.004L33.2366 24.3751C31.3428 24.4251 29.5367 25.184 28.1756 26.5017C26.8144 27.8193 25.9973 29.5997 25.8857 31.491C25.7743 33.3821 26.3766 35.2462 27.5734 36.7148C28.7703 38.1833 30.4747 39.149 32.3495 39.4213C34.2243 39.6936 36.133 39.2522 37.698 38.1849C39.2631 37.1174 40.3707 35.5015 40.8017 33.6568C41.2326 31.8119 40.9556 29.8726 40.0254 28.2222C39.0952 26.5719 37.5795 25.3307 35.7782 24.7442L29.9733 16.9253ZM8.57543 24.3467C7.25225 24.3394 5.95051 24.6807 4.80115 25.3363C3.6518 25.992 2.69538 26.9387 2.02812 28.0814C1.36085 29.224 1.00628 30.5222 1.00008 31.8453C0.99388 33.1686 1.33626 34.4701 1.99278 35.6189C2.6493 36.7677 3.59681 37.7234 4.73997 38.3897C5.88313 39.0561 7.18162 39.4097 8.50481 39.4148C9.82799 39.42 11.1292 39.0766 12.2776 38.4191C13.4258 37.7617 14.3807 36.8135 15.0462 35.6698L24.3829 35.6982V33.8887L15.8128 33.8602C16.0003 33.2192 16.1006 32.5558 16.1106 31.8879C16.1069 29.8906 15.3118 27.9762 13.8995 26.5639C12.4872 25.1516 10.5727 24.3565 8.57543 24.3528V24.3467ZM8.57543 26.1623C9.70644 26.1623 10.812 26.4977 11.7525 27.1261C12.6929 27.7545 13.4258 28.6476 13.8586 29.6924C14.2915 30.7373 14.4047 31.8871 14.184 32.9965C13.9634 34.1057 13.4187 35.1247 12.619 35.9244C11.8193 36.7241 10.8003 37.2688 9.69105 37.4894C8.58178 37.7101 7.43198 37.5969 6.38706 37.164C5.34215 36.7312 4.44905 35.9982 3.82068 35.0579C3.19233 34.1175 2.85694 33.0118 2.85694 31.8808C2.85533 31.1294 3.00212 30.3853 3.28887 29.6908C3.57562 28.9964 3.99668 28.3654 4.5279 27.834C5.05913 27.3027 5.69005 26.8815 6.38446 26.5946C7.07887 26.3078 7.8241 26.1608 8.57543 26.1623ZM33.4633 26.1623C34.5943 26.1623 35.7 26.4977 36.6404 27.1261C37.5807 27.7545 38.3137 28.6476 38.7465 29.6924C39.1794 30.7373 39.2926 31.8871 39.0719 32.9965C38.8513 34.1057 38.3066 35.1247 37.5069 35.9244C36.7071 36.7241 35.6882 37.2688 34.579 37.4894C33.4696 37.7101 32.3198 37.5969 31.2749 37.164C30.2301 36.7312 29.337 35.9982 28.7086 35.0579C28.0802 34.1175 27.7448 33.0118 27.7448 31.8808C27.7432 31.1294 27.89 30.3853 28.1768 29.6908C28.4635 28.9964 28.8846 28.3654 29.4157 27.834C29.947 27.3027 30.5779 26.8815 31.2723 26.5946C31.9668 26.3078 32.711 26.1608 33.4623 26.1623H33.4633Z" fill="white"/>
</svg>
