<svg width="42" height="43" viewBox="0 0 42 43" fill="none" xmlns="http://www.w3.org/2000/svg">
<path d="M39.0955 8.81094H13.3809V6.90547C13.3796 6.40064 13.1787 5.91683 12.8217 5.55978C12.4649 5.20273 11.9812 5.00147 11.4764 5H8.61908C7.86196 5.00221 7.13648 5.30395 6.60112 5.83931C6.06576 6.37468 5.76401 7.10016 5.7618 7.85727V8.81094H2.90453C2.39987 8.81241 1.9163 9.01354 1.55945 9.37039C1.20259 9.72724 1.00147 10.2108 1 10.7155V35.4773C1.00147 35.9819 1.20259 36.4655 1.55945 36.8224C1.9163 37.1792 2.39987 37.3803 2.90453 37.3818H39.0955C39.6001 37.3803 40.0837 37.1792 40.4405 36.8224C40.7974 36.4655 40.9985 35.9819 41 35.4773V10.7145C40.9985 10.2099 40.7974 9.72632 40.4405 9.36946C40.0837 9.01261 39.6001 8.81241 39.0955 8.81094ZM7.66635 7.8582C7.66635 7.60552 7.76673 7.36319 7.9454 7.18452C8.12408 7.00585 8.3664 6.90547 8.61908 6.90547H11.4764V22.1436H9.57185C8.9028 22.1443 8.24579 22.3216 7.66727 22.6577L7.66635 7.8582ZM2.90453 10.7145H5.7618V25.9527C5.76466 26.6241 5.94902 27.2822 6.29534 27.8573H2.90453V10.7145ZM18.1427 35.4773H2.90453V33.5727H18.1427V35.4773ZM18.1427 31.6663H2.90453V29.7627H18.1427V31.6663ZM18.1427 23.0945C17.5507 22.6511 17.0702 22.0757 16.7393 21.4143C16.4083 20.7527 16.236 20.0233 16.236 19.2836C16.236 18.5439 16.4083 17.8144 16.7393 17.1529C17.0702 16.4915 17.5507 15.9161 18.1427 15.4726V23.0945ZM18.1427 13.2846C17.0035 13.8198 16.0403 14.6683 15.3656 15.7308C14.6909 16.7933 14.3325 18.0259 14.3325 19.2845C14.3325 20.5431 14.6909 21.7757 15.3656 22.8383C16.0403 23.9008 17.0035 24.7492 18.1427 25.2844V27.8563H9.57092C9.06552 27.8563 8.58086 27.6556 8.22351 27.2983C7.86617 26.9409 7.66542 26.4562 7.66542 25.9509C7.66542 25.4455 7.86617 24.9609 8.22351 24.6035C8.58086 24.2462 9.06552 24.0454 9.57092 24.0454H11.4755C11.9801 24.0439 12.4637 23.8428 12.8205 23.4859C13.1774 23.1291 13.3785 22.6455 13.38 22.1409V10.708H18.1418L18.1427 13.2846ZM21.9537 35.4763H20.0491V29.7637H21.9537V35.4763ZM21.9537 27.8545H20.0491V10.7155H21.9537V27.8545ZM23.8582 15.4736C24.4501 15.917 24.9307 16.4924 25.2617 17.1538C25.5926 17.8153 25.7649 18.5448 25.7649 19.2845C25.7649 20.0242 25.5926 20.7537 25.2617 21.4152C24.9307 22.0766 24.4501 22.652 23.8582 23.0954V15.4736ZM39.0964 35.4736H23.8573V33.5727H39.0955L39.0964 35.4736ZM39.0964 31.6626H23.8573V29.7637H39.0955L39.0964 31.6626ZM39.0964 27.8517H34.4201C34.6172 26.683 35.1735 25.6049 36.0116 24.7669C36.8495 23.9288 37.9277 23.3726 39.0964 23.1754V27.8517ZM39.0964 21.2523C37.4205 21.4654 35.863 22.2292 34.6685 23.4237C33.4739 24.6183 32.71 26.1758 32.497 27.8517H23.8582V25.2872C24.9973 24.752 25.9606 23.9036 26.6353 22.841C27.31 21.7785 27.6683 20.5459 27.6683 19.2873C27.6683 18.0287 27.31 16.7961 26.6353 15.7336C25.9606 14.671 24.9973 13.8226 23.8582 13.2874V10.7155H32.497C32.71 12.3913 33.4739 13.9489 34.6685 15.1434C35.863 16.3379 37.4205 17.1018 39.0964 17.3149V21.2523ZM39.0964 15.3853C37.9277 15.188 36.8495 14.6318 36.0116 13.7938C35.1735 12.9558 34.6172 11.8776 34.4201 10.709H39.0964V15.3853Z" fill="white"/>
</svg>
