<svg width="42" height="43" viewBox="0 0 42 43" fill="none" xmlns="http://www.w3.org/2000/svg">
<g clip-path="url(#clip0_2723_1640)">
<path d="M32.8616 10.7607V3.18657C32.8617 3.04345 32.8331 2.90176 32.7777 2.76979C32.7222 2.63782 32.6411 2.51825 32.5388 2.41806C32.4366 2.31787 32.3154 2.23909 32.1824 2.18633C32.0494 2.13357 31.9072 2.10789 31.764 2.11078H27.1882C26.9029 2.11078 26.6293 2.22413 26.4275 2.42587C26.2258 2.62762 26.1124 2.90126 26.1124 3.18657V4.39805L21.739 0.291144C21.5396 0.1041 21.2764 0 21.003 0C20.7297 0 20.4664 0.1041 20.267 0.291144L1.33531 18.0817C1.18051 18.2285 1.07289 18.4182 1.02614 18.6264C0.979383 18.8346 0.995612 19.0521 1.07276 19.251C1.14991 19.4499 1.28448 19.6215 1.45937 19.7437C1.63425 19.8661 1.84158 19.9336 2.05493 19.9377H8.08203C8.3675 19.9377 8.6413 19.8243 8.84315 19.6225C9.04502 19.4205 9.15843 19.1467 9.15843 18.8613C9.15843 18.5759 9.04502 18.3021 8.84315 18.1001C8.6413 17.8983 8.3675 17.7849 8.08203 17.7849H4.78802L20.9963 2.55297L26.448 7.67147C26.6008 7.81678 26.7929 7.914 27.0005 7.95104C27.2081 7.98809 27.4219 7.96331 27.6156 7.87979C27.8092 7.79628 27.974 7.65773 28.0894 7.48134C28.205 7.30493 28.2661 7.09849 28.2652 6.88764V4.26237H30.71V11.1932C30.7102 11.3402 30.7405 11.4856 30.799 11.6204C30.8576 11.7552 30.9432 11.8766 31.0504 11.9771L37.2108 17.7849H33.8913C33.606 17.7849 33.3325 17.8983 33.1306 18.1C32.9289 18.3017 32.8155 18.5754 32.8155 18.8607V34.3846H25.377C25.0916 34.3846 24.8178 34.4979 24.616 34.6998C24.414 34.9017 24.3006 35.1755 24.3006 35.461C24.3006 35.7464 24.414 36.0202 24.616 36.2221C24.8178 36.424 25.0916 36.5374 25.377 36.5374H33.8925C34.1778 36.537 34.4513 36.4236 34.653 36.2219C34.8546 36.0202 34.9681 35.7467 34.9683 35.4616V19.9365H39.9451C40.1584 19.9324 40.3658 19.8649 40.5406 19.7425C40.7156 19.6203 40.8502 19.4487 40.9273 19.2498C41.0044 19.0509 41.0206 18.8334 40.9739 18.6252C40.9271 18.417 40.8195 18.2273 40.6647 18.0805L32.8616 10.7607Z" fill="white"/>
<path d="M14.4789 20.3249H13.9277C11.7588 20.4893 9.73242 21.4684 8.25588 23.0656C6.77936 24.6628 5.96207 26.7598 5.96829 28.9349C6.02038 34.2 10.1176 39.0083 12.5551 41.4131C13.0681 41.9187 13.7594 42.202 14.4795 42.202C15.1997 42.202 15.891 41.9187 16.4039 41.4131C18.845 38.9768 22.9907 34.1297 22.9907 28.8392C22.9907 26.5812 22.0944 24.4157 20.4986 22.8183C18.9027 21.2208 16.738 20.3224 14.4801 20.3201L14.4789 20.3249ZM14.909 39.8648C14.7967 39.9708 14.648 40.0298 14.4934 40.0298C14.339 40.0298 14.1903 39.9708 14.0779 39.8648C12.3043 38.1433 8.18044 33.5652 8.1332 28.9131C8.13686 27.2947 8.74812 25.7367 9.84591 24.5476C10.9437 23.3584 12.4481 22.6249 14.0609 22.4922H14.491C16.1739 22.4977 17.786 23.1692 18.9752 24.3599C20.1642 25.5506 20.8336 27.1637 20.8367 28.8464C20.8367 33.5215 16.691 38.1106 14.892 39.8709L14.909 39.8648Z" fill="white"/>
<path d="M17.2822 26.0322C16.6346 25.3808 15.7809 24.9742 14.8668 24.8819C13.9527 24.7897 13.035 25.0173 12.2701 25.526C11.5051 26.0348 10.9404 26.7932 10.6722 27.6719C10.4039 28.5505 10.4488 29.4949 10.7992 30.3442C11.1495 31.1934 11.7837 31.8949 12.5935 32.3288C13.4032 32.7628 14.3384 32.9024 15.2396 32.7238C16.1407 32.5452 16.952 32.0595 17.5351 31.3496C18.1182 30.6397 18.4368 29.7494 18.4369 28.8307C18.4378 27.7818 18.0226 26.7753 17.2822 26.0322ZM15.7583 30.1355C15.4595 30.4306 15.0675 30.613 14.6493 30.6519C14.2311 30.6908 13.8124 30.5836 13.4644 30.3484C13.1163 30.1134 12.8603 29.7651 12.7402 29.3627C12.62 28.9602 12.6429 28.5286 12.805 28.1411C12.9671 27.7537 13.2583 27.4343 13.6294 27.2374C14.0003 27.0405 14.428 26.9781 14.8398 27.061C15.2516 27.1438 15.6219 27.3667 15.8878 27.6918C16.1538 28.0168 16.2989 28.424 16.2986 28.844C16.2984 29.0844 16.2505 29.3222 16.1577 29.5439C16.0651 29.7656 15.9293 29.9667 15.7583 30.1355Z" fill="white"/>
</g>
<defs>
<clipPath id="clip0_2723_1640">
<rect width="42" height="42.202" fill="white"/>
</clipPath>
</defs>
</svg>
