<svg width="42" height="42" viewBox="0 0 42 42" fill="none" xmlns="http://www.w3.org/2000/svg">
<path d="M9.9977 1C8.6789 1.0239 7.42089 1.55875 6.48863 2.49185C5.55638 3.42496 5.02269 4.68348 5 6.0023V36.9093C5.00303 37.9932 5.43499 39.032 6.20149 39.7985C6.96799 40.565 8.00671 40.997 9.09071 41H35.907C36.1453 40.9912 36.3715 40.8925 36.5402 40.7239C36.7088 40.5552 36.8075 40.329 36.8163 40.0907V10.093C36.8218 9.97211 36.8022 9.85139 36.7584 9.73855C36.7147 9.62572 36.6479 9.52324 36.5623 9.43767C36.4767 9.3521 36.3743 9.28532 36.2614 9.24159C36.1486 9.19785 36.0279 9.17814 35.907 9.1837C35.0821 9.12664 34.3056 8.77314 33.7209 8.18843C33.1362 7.60371 32.7827 6.82724 32.7256 6.0023C32.7827 5.17735 33.1362 4.40089 33.7209 3.81617C34.3056 3.23145 35.0821 2.87795 35.907 2.8209C36.1424 2.81253 36.3654 2.71312 36.5289 2.54362C36.6925 2.37411 36.784 2.14774 36.784 1.91217C36.784 1.6766 36.6925 1.45023 36.5289 1.28072C36.3654 1.11122 36.1424 1.01182 35.907 1.00345H9.9977V1ZM9.9977 2.81746H32.0953C31.3261 3.6988 30.9022 4.82902 30.9022 5.99885C30.9022 7.16868 31.3261 8.2989 32.0953 9.18025H9.99426C9.16933 9.12319 8.39284 8.76969 7.80812 8.18497C7.2234 7.60027 6.8699 6.82379 6.81285 5.99885C6.87053 5.17377 7.22476 4.39741 7.81014 3.81308C8.39552 3.22876 9.17251 2.87594 9.9977 2.81975V2.81746ZM6.8163 9.80597C7.70274 10.5666 8.82968 10.9892 9.9977 10.9989H18.6338V21.9059C18.6335 22.0712 18.6785 22.2334 18.7636 22.3751C18.8488 22.5169 18.971 22.6327 19.117 22.7101C19.2631 22.7876 19.4276 22.8238 19.5927 22.8147C19.7576 22.8057 19.9172 22.7519 20.054 22.659L24.0873 19.8473L28.1056 22.659C28.2425 22.7557 28.4034 22.8128 28.5706 22.8238C28.7378 22.8348 28.9048 22.7993 29.0532 22.7214C29.2015 22.6435 29.3255 22.5261 29.4112 22.3822C29.4971 22.2382 29.5416 22.0734 29.5396 21.9059V10.9989H34.9931V39.1814H9.08841C8.78913 39.1846 8.49222 39.128 8.2151 39.015C7.93799 38.902 7.68622 38.7347 7.47459 38.5231C7.26296 38.3115 7.09572 38.0597 6.98268 37.7825C6.86964 37.5055 6.81307 37.2086 6.8163 36.9093V9.80597ZM20.4512 10.9989H27.7233V20.1734L24.5993 17.992C24.4475 17.8869 24.2673 17.8307 24.0827 17.8307C23.898 17.8307 23.7178 17.8869 23.566 17.992L20.4558 20.1653V11.0034L20.4512 10.9989Z" fill="white"/>
</svg>
