<svg width="24" height="24" viewBox="0 0 24 24" fill="none" xmlns="http://www.w3.org/2000/svg">
<g clip-path="url(#clip0_2710_1553)">
<path d="M4.10893 15.4749H9.40644V20.8163C9.40764 21.7175 9.75241 22.5814 10.3651 23.2186C10.9779 23.8559 11.8086 24.2144 12.6751 24.2157H20.0495C20.916 24.2144 21.7467 23.8559 22.3594 23.2186C22.9722 22.5814 23.3169 21.7175 23.3181 20.8163V13.144C23.3169 12.2429 22.9722 11.379 22.3594 10.7417C21.7467 10.1045 20.916 9.74591 20.0495 9.74464H14.9144V4.23712C14.915 3.37926 14.5879 2.55632 14.0049 1.94926C13.4221 1.34221 12.6313 1.00076 11.8064 1H4.10893C3.28454 1.00051 2.49405 1.34132 1.91113 1.94757C1.3282 2.55381 1.00049 3.37592 1 4.23328V12.2416C1.00049 13.099 1.3282 13.921 1.91113 14.5273C2.49405 15.1335 3.28454 15.4744 4.10893 15.4749ZM22.192 13.144V20.8154C22.1912 21.4058 21.9654 21.9719 21.5639 22.3894C21.1625 22.8069 20.6182 23.0418 20.0504 23.0426H12.6741C12.1064 23.0418 11.5621 22.8069 11.1607 22.3894C10.7592 21.9719 10.5333 21.4058 10.5326 20.8154V13.144C10.5333 12.5535 10.7592 11.9875 11.1607 11.57C11.5621 11.1525 12.1064 10.9176 12.6741 10.9168H20.0504C20.6182 10.9176 21.1625 11.1525 21.5639 11.57C21.9654 11.9875 22.1912 12.5535 22.192 13.144ZM2.12707 4.23424C2.1283 3.68825 2.33758 3.16503 2.70907 2.77923C3.08055 2.39342 3.58394 2.1765 4.10893 2.176H11.8064C12.3319 2.17651 12.8358 2.39383 13.2073 2.78025C13.5788 3.16668 13.7878 3.69063 13.7883 4.23712V9.74464H12.6732C11.988 9.74511 11.3205 9.97092 10.7661 10.3898C10.4267 9.95595 9.99832 9.60661 9.51232 9.36725C9.02631 9.12789 8.49499 9.0046 7.95724 9.0064C7.26853 9.00967 6.5947 9.21501 6.01322 9.59881C5.43174 9.98264 4.9662 10.5293 4.67015 11.176C4.63016 11.2462 4.60471 11.3243 4.59543 11.4055C4.58613 11.4865 4.59321 11.5687 4.6162 11.6467C4.63919 11.7247 4.67758 11.7969 4.72893 11.8587C4.78028 11.9204 4.84346 11.9702 4.91442 12.0052C4.98537 12.04 5.06254 12.0591 5.141 12.0612C5.21946 12.0633 5.29747 12.0484 5.37006 12.0173C5.44263 11.9863 5.50818 11.9398 5.5625 11.8808C5.61683 11.822 5.65874 11.7519 5.68554 11.6752C5.89015 11.2294 6.21147 10.8526 6.61263 10.588C7.01379 10.3234 7.47853 10.1818 7.95354 10.1795C8.345 10.1781 8.73124 10.2729 9.08067 10.4565C9.43007 10.64 9.73275 10.907 9.96398 11.2355C9.59595 11.7976 9.39933 12.462 9.39998 13.1421V14.2999H4.10893C3.58394 14.2994 3.08055 14.0824 2.70907 13.6966C2.33758 13.3108 2.1283 12.7876 2.12707 12.2416V4.23424Z" fill="white"/>
<path d="M10.5631 13.342C10.7126 13.342 10.8562 13.2802 10.9619 13.1702C11.0676 13.0602 11.1271 12.911 11.1271 12.7555C11.1358 12.5914 11.2044 12.4371 11.3192 12.3241C11.4338 12.2112 11.5858 12.1483 11.7437 12.1483C11.9016 12.1483 12.0536 12.2112 12.1682 12.3241C12.283 12.4371 12.3517 12.5914 12.3603 12.7555C12.3662 12.9068 12.4282 13.0499 12.5332 13.1548C12.6382 13.2596 12.7783 13.3183 12.9238 13.3183C13.0695 13.3183 13.2094 13.2596 13.3145 13.1548C13.4195 13.0499 13.4815 12.9068 13.4874 12.7555C13.4726 12.2847 13.2825 11.8384 12.9571 11.5108C12.6317 11.1832 12.1966 11 11.7437 11C11.2908 11 10.8557 11.1832 10.5303 11.5108C10.2049 11.8384 10.0148 12.2847 10 12.7555C10 12.9108 10.0593 13.0599 10.1649 13.1699C10.2705 13.2798 10.4136 13.3417 10.5631 13.342Z" fill="white"/>
<path d="M10.563 13.342C10.7126 13.342 10.8561 13.2802 10.9618 13.1702C11.0676 13.0602 11.127 12.911 11.127 12.7555C11.1357 12.5914 11.2044 12.4371 11.3191 12.3241C11.4338 12.2112 11.5857 12.1483 11.7436 12.1483C11.9015 12.1483 12.0535 12.2112 12.1682 12.3241C12.2829 12.4371 12.3516 12.5914 12.3602 12.7555C12.3572 12.8344 12.3694 12.9132 12.3964 12.9871C12.4234 13.0609 12.4643 13.1284 12.517 13.1854C12.5697 13.2425 12.6328 13.2878 12.7027 13.3188C12.7726 13.3498 12.8478 13.3657 12.9238 13.3657C12.9998 13.3657 13.075 13.3498 13.1449 13.3188C13.2148 13.2878 13.2779 13.2425 13.3306 13.1854C13.3833 13.1284 13.4242 13.0609 13.4512 12.9871C13.4782 12.9132 13.4904 12.8344 13.4873 12.7555C13.4726 12.2847 13.2825 11.8384 12.9571 11.5108C12.6317 11.1832 12.1965 11 11.7436 11C11.2907 11 10.8556 11.1832 10.5302 11.5108C10.2048 11.8384 10.0147 12.2847 10 12.7555C9.99982 12.8324 10.0143 12.9089 10.0426 12.98C10.0709 13.0512 10.1124 13.1159 10.1649 13.1705C10.2173 13.225 10.2795 13.2682 10.348 13.2976C10.4165 13.327 10.489 13.3421 10.563 13.342Z" fill="white"/>
<path d="M10.0521 11.2986C9.98115 11.171 9.8666 11.076 9.73127 11.0323C9.59595 10.9885 9.44983 10.9995 9.3218 11.0628C9.19386 11.126 9.09352 11.237 9.04063 11.3738C8.98783 11.5105 8.98644 11.6629 9.03675 11.8007C9.33066 12.4489 9.79571 12.997 10.3777 13.3807C10.9597 13.7645 11.6347 13.9683 12.3238 13.9683C13.0129 13.9683 13.688 13.7645 14.27 13.3807C14.852 12.997 15.317 12.4489 15.6109 11.8007C15.663 11.6627 15.6628 11.5092 15.6104 11.3712C15.5581 11.2333 15.4574 11.1211 15.3287 11.0572C15.2 10.9933 15.0529 10.9825 14.9168 11.0269C14.7808 11.0714 14.666 11.1678 14.5955 11.2966C14.3928 11.7441 14.072 12.1223 13.6704 12.3873C13.2688 12.6521 12.8031 12.7929 12.3275 12.7929C11.852 12.7929 11.3862 12.6521 10.9846 12.3873C10.583 12.1223 10.2621 11.7441 10.0595 11.2966L10.0521 11.2986Z" fill="white"/>
<path d="M10.564 13.46C10.6381 13.4601 10.7115 13.445 10.78 13.4156C10.8485 13.3862 10.9107 13.343 10.9631 13.2885C11.0155 13.234 11.057 13.1693 11.0853 13.098C11.1136 13.0268 11.1281 12.9505 11.128 12.8734C11.1234 12.7863 11.136 12.699 11.1649 12.6171C11.1938 12.5351 11.2385 12.4602 11.2962 12.3968C11.3539 12.3334 11.4234 12.2829 11.5005 12.2484C11.5776 12.2139 11.6607 12.1961 11.7446 12.1961C11.8286 12.1961 11.9116 12.2139 11.9887 12.2484C12.0658 12.2829 12.1354 12.3334 12.1931 12.3968C12.2508 12.4602 12.2955 12.5351 12.3244 12.6171C12.3533 12.699 12.3658 12.7863 12.3612 12.8734C12.3671 13.0248 12.4291 13.1679 12.5341 13.2728C12.6392 13.3777 12.7791 13.4363 12.9248 13.4363C13.0704 13.4363 13.2104 13.3777 13.3154 13.2728C13.4205 13.1679 13.4824 13.0248 13.4883 12.8734C13.4959 12.6303 13.4564 12.3881 13.3722 12.1612C13.288 11.9342 13.1608 11.7272 12.9982 11.5525C12.8355 11.3777 12.6407 11.2387 12.4253 11.1438C12.21 11.0489 11.9785 11 11.7446 11C11.5107 11 11.2792 11.0489 11.0639 11.1438C10.8485 11.2387 10.6538 11.3777 10.4911 11.5525C10.3284 11.7272 10.2012 11.9342 10.117 12.1612C10.0328 12.3881 9.99332 12.6303 10.0009 12.8734C10.0009 13.029 10.0603 13.1782 10.1661 13.2882C10.2719 13.3982 10.4153 13.46 10.5649 13.46H10.564Z" fill="white"/>
<path d="M10.564 13.46C10.7136 13.46 10.857 13.3982 10.9628 13.2882C11.0686 13.1782 11.128 13.029 11.128 12.8734C11.1234 12.7863 11.136 12.699 11.1649 12.6171C11.1938 12.5351 11.2385 12.4602 11.2962 12.3968C11.3538 12.3334 11.4234 12.2829 11.5005 12.2484C11.5776 12.2139 11.6607 12.1961 11.7446 12.1961C11.8286 12.1961 11.9116 12.2139 11.9887 12.2484C12.0658 12.2829 12.1353 12.3334 12.193 12.3968C12.2508 12.4602 12.2955 12.5351 12.3244 12.6171C12.3533 12.699 12.3658 12.7863 12.3612 12.8734C12.3582 12.9524 12.3704 13.0312 12.3974 13.1051C12.4243 13.179 12.4653 13.2464 12.5179 13.3034C12.5706 13.3604 12.6338 13.4058 12.7037 13.4368C12.7735 13.4677 12.8488 13.4837 12.9247 13.4837C13.0008 13.4837 13.0759 13.4677 13.1458 13.4368C13.2158 13.4058 13.2789 13.3604 13.3315 13.3034C13.3842 13.2464 13.4252 13.179 13.4522 13.1051C13.479 13.0312 13.4914 12.9524 13.4883 12.8734C13.4959 12.6303 13.4564 12.3881 13.3722 12.1612C13.2881 11.9342 13.1609 11.7272 12.9981 11.5525C12.8355 11.3777 12.6407 11.2387 12.4254 11.1438C12.21 11.0489 11.9785 11 11.7446 11C11.5108 11 11.2793 11.0489 11.0639 11.1438C10.8486 11.2387 10.6538 11.3777 10.4911 11.5525C10.3284 11.7272 10.2012 11.9342 10.117 12.1612C10.0328 12.3881 9.99332 12.6303 10.0009 12.8734C10.0009 13.029 10.0603 13.1782 10.1661 13.2882C10.2719 13.3982 10.4144 13.46 10.564 13.46Z" fill="white"/>
</g>
<defs>
<clipPath id="clip0_2710_1553">
<rect width="24" height="24" fill="white"/>
</clipPath>
</defs>
</svg>
