<svg width="24" height="24" viewBox="0 0 24 24" fill="none" xmlns="http://www.w3.org/2000/svg">
<g clip-path="url(#clip0_2710_1548)">
<path d="M14.64 11.599H13.0231V9.78003C13.0231 9.53974 12.9383 9.3093 12.7873 9.13939C12.6362 8.96948 12.4314 8.87402 12.2178 8.87402C12.0042 8.87402 11.7994 8.96948 11.6484 9.13939C11.4973 9.3093 11.4125 9.53974 11.4125 9.78003V11.599H9.79557C9.58197 11.599 9.37717 11.6945 9.22615 11.8644C9.07512 12.0343 8.99023 12.2647 8.99023 12.505C8.99023 12.7453 9.07512 12.9757 9.22615 13.1456C9.37717 13.3155 9.58197 13.411 9.79557 13.411H11.4125V15.23C11.4125 15.4703 11.4973 15.7007 11.6484 15.8706C11.7994 16.0405 12.0042 16.136 12.2178 16.136C12.4314 16.136 12.6362 16.0405 12.7873 15.8706C12.9383 15.7007 13.0231 15.4703 13.0231 15.23V13.411H14.64C14.8536 13.411 15.0584 13.3155 15.2095 13.1456C15.3605 12.9757 15.4453 12.7453 15.4453 12.505C15.4453 12.2647 15.3605 12.0343 15.2095 11.8644C15.0584 11.6945 14.8536 11.599 14.64 11.599Z" fill="white"/>
<path d="M22.1378 3.10793C21.5491 2.44323 20.8495 1.91582 20.0792 1.55595C19.3089 1.19609 18.483 1.01084 17.6489 1.01084C16.8148 1.01084 15.989 1.19609 15.2187 1.55595C14.4484 1.91582 13.7487 2.44323 13.16 3.10793L12.2178 4.16093L11.2818 3.10793C10.6944 2.42499 9.992 1.88049 9.21556 1.50621C8.43907 1.13192 7.60414 0.935348 6.75944 0.927951C5.91474 0.920555 5.07719 1.10249 4.29565 1.46313C3.51412 1.82377 2.80425 2.3559 2.20748 3.02847C1.61069 3.70105 1.13895 4.50059 0.819769 5.38046C0.500589 6.26033 0.340358 7.20289 0.348435 8.15317C0.356512 9.10344 0.53273 10.0423 0.866807 10.9152C1.20088 11.788 1.68613 12.5773 2.29424 13.2369L11.6489 23.7279C11.7228 23.814 11.8113 23.8824 11.9092 23.9292C12.0071 23.9759 12.1124 24 12.2187 24C12.3251 24 12.4303 23.9759 12.5282 23.9292C12.626 23.8824 12.7146 23.814 12.7884 23.7279L22.1422 13.2369C23.3308 11.8964 23.9982 10.0803 23.9982 8.18693C23.9982 6.29356 23.3308 4.47747 22.1422 3.13693L22.1378 3.10793ZM20.992 11.9449L12.2187 21.8069L3.44002 11.9309C2.99568 11.4374 2.64252 10.8499 2.40089 10.2022C2.15925 9.55451 2.03391 8.85942 2.03209 8.15698C2.03027 7.45455 2.152 6.75865 2.39028 6.10937C2.62855 5.46009 2.97866 4.87027 3.42043 4.37387C3.8622 3.87747 4.38692 3.4843 4.96434 3.21702C5.54175 2.94974 6.16047 2.81361 6.78485 2.8165C7.40924 2.81939 8.02695 2.96123 8.6024 3.23384C9.17787 3.50646 9.69964 3.90446 10.1378 4.40493L11.6489 6.10493C11.8016 6.27147 12.006 6.3646 12.2187 6.3646C12.4314 6.3646 12.6357 6.27147 12.7884 6.10493L14.2996 4.40493C15.2013 3.48951 16.381 2.99848 17.5952 3.03318C18.8093 3.06788 19.9654 3.62567 20.8246 4.59142C21.6839 5.55716 22.1807 6.85716 22.2127 8.22309C22.2447 9.58903 21.8093 10.9166 20.9964 11.9319L20.992 11.9449Z" fill="white"/>
</g>
<defs>
<clipPath id="clip0_2710_1548">
<rect width="24" height="24" fill="white"/>
</clipPath>
</defs>
</svg>
