<svg width="24" height="24" viewBox="0 0 24 24" fill="none" xmlns="http://www.w3.org/2000/svg">
<g clip-path="url(#clip0_205_87)">
<path d="M11.9986 20.759C10.266 20.759 8.57237 20.2452 7.13179 19.2827C5.69122 18.3201 4.56844 16.952 3.90541 15.3513C3.24239 13.7506 3.0689 11.9893 3.40691 10.29C3.74492 8.59073 4.57923 7.02986 5.80434 5.80475C7.02945 4.57964 8.59033 3.74533 10.2896 3.40732C11.9889 3.06932 13.7502 3.24279 15.3509 3.90581C16.9516 4.56884 18.3197 5.69163 19.2823 7.13221C20.2448 8.57278 20.7586 10.2664 20.7586 11.999C20.7559 14.3215 19.8322 16.5481 18.1899 18.1903C16.5477 19.8326 14.3211 20.7564 11.9986 20.759ZM11.9986 4.012C10.4189 4.012 8.87471 4.48043 7.56125 5.35805C6.2478 6.23568 5.22409 7.48308 4.61957 8.94251C4.01505 10.4019 3.85688 12.0079 4.16506 13.5572C4.47324 15.1065 5.23392 16.5297 6.35092 17.6467C7.46793 18.7637 8.89108 19.5244 10.4404 19.8325C11.9897 20.1407 13.5957 19.9825 15.0551 19.378C16.5145 18.7735 17.7619 17.7498 18.6395 16.4363C19.5172 15.1229 19.9856 13.5787 19.9856 11.999C19.9822 9.88177 19.1396 7.85225 17.6425 6.35514C16.1454 4.85803 14.1158 4.01544 11.9986 4.012Z" fill="white" stroke="white" stroke-width="0.3"/>
<path d="M11.9986 20.76C9.23758 20.76 7.07558 16.912 7.07558 12C7.07558 7.08801 9.23858 3.24001 11.9986 3.24001C14.7586 3.24001 16.9216 7.08801 16.9216 12C16.9216 16.912 14.7586 20.76 11.9986 20.76ZM11.9986 4.01301C9.74858 4.01301 7.84859 7.67001 7.84859 12C7.84859 16.33 9.74858 19.987 11.9986 19.987C14.2486 19.987 16.1486 16.33 16.1486 12C16.1486 7.67001 14.2466 4.01301 11.9986 4.01301Z" fill="white" stroke="white" stroke-width="0.3"/>
<path d="M18.2146 17.997C18.1188 17.9973 18.0263 17.9616 17.9556 17.897C16.2353 16.6122 14.1457 15.918 11.9986 15.918C9.85147 15.918 7.76188 16.6122 6.0416 17.897C5.96535 17.9658 5.86488 18.0015 5.7623 17.9963C5.65972 17.991 5.56343 17.9453 5.4946 17.869C5.42578 17.7928 5.39006 17.6923 5.39531 17.5897C5.40056 17.4871 5.44635 17.3908 5.5226 17.322C7.38526 15.9085 9.6593 15.1433 11.9976 15.1433C14.3359 15.1433 16.6099 15.9085 18.4726 17.322C18.5305 17.3744 18.5713 17.4431 18.5894 17.5191C18.6075 17.5952 18.6023 17.6749 18.5742 17.7478C18.5462 17.8208 18.4967 17.8835 18.4324 17.9278C18.368 17.9721 18.2917 17.9959 18.2136 17.996L18.2146 17.997Z" fill="white" stroke="white" stroke-width="0.3"/>
<path d="M11.9986 8.856C9.64988 8.92435 7.35399 8.15161 5.5246 6.677C5.48684 6.64286 5.45619 6.60161 5.43437 6.55562C5.41256 6.50962 5.40001 6.45979 5.39746 6.40895C5.39491 6.35811 5.40238 6.30727 5.41948 6.25932C5.43658 6.21138 5.46296 6.16726 5.4971 6.1295C5.53124 6.09175 5.57249 6.06109 5.61848 6.03928C5.66448 6.01746 5.71431 6.00492 5.76515 6.00236C5.81599 5.99981 5.86683 6.0073 5.91478 6.0244C5.96273 6.04149 6.00685 6.06786 6.0446 6.102C7.76473 7.38675 9.85414 8.0809 12.0011 8.0809C14.1481 8.0809 16.2375 7.38675 17.9576 6.102C17.9954 6.06793 18.0394 6.04162 18.0874 6.02458C18.1353 6.00755 18.1861 6.00012 18.2369 6.00272C18.2877 6.00532 18.3375 6.01789 18.3834 6.03973C18.4293 6.06157 18.4705 6.09225 18.5046 6.13C18.5387 6.16776 18.565 6.21186 18.582 6.25978C18.5991 6.3077 18.6065 6.35851 18.6039 6.4093C18.6013 6.46009 18.5887 6.50988 18.5669 6.55582C18.545 6.60175 18.5143 6.64292 18.4766 6.677C16.6455 8.15141 14.3485 8.92408 11.9986 8.856Z" fill="white" stroke="white" stroke-width="0.3"/>
<path d="M20.3706 12.386H3.62459C3.52182 12.386 3.42324 12.3452 3.35057 12.2725C3.2779 12.1998 3.23708 12.1013 3.23708 11.9985C3.23708 11.8957 3.2779 11.7972 3.35057 11.7245C3.42324 11.6518 3.52182 11.611 3.62459 11.611H20.3706C20.4733 11.611 20.5719 11.6518 20.6446 11.7245C20.7173 11.7972 20.7581 11.8957 20.7581 11.9985C20.7581 12.1013 20.7173 12.1998 20.6446 12.2725C20.5719 12.3452 20.4733 12.386 20.3706 12.386Z" fill="white" stroke="white" stroke-width="0.3"/>
<path d="M11.9986 20.759C11.896 20.7587 11.7978 20.7179 11.7252 20.6454C11.6527 20.5728 11.6119 20.4746 11.6116 20.372V3.62601C11.6116 3.52324 11.6524 3.42468 11.7251 3.35201C11.7978 3.27933 11.8963 3.23851 11.9991 3.23851C12.1018 3.23851 12.2004 3.27933 12.2731 3.35201C12.3458 3.42468 12.3866 3.52324 12.3866 3.62601V20.373C12.3861 20.4756 12.3449 20.5737 12.2722 20.6461C12.1995 20.7184 12.1011 20.759 11.9986 20.759Z" fill="white" stroke="white" stroke-width="0.3"/>
<path d="M11.9986 24C10.1212 23.9998 8.27011 23.5591 6.59404 22.7133C4.91797 21.8676 3.46372 20.6404 2.34819 19.1304C1.23266 17.6204 0.486986 15.8697 0.171096 14.0192C-0.144794 12.1686 -0.0220828 10.2697 0.529373 8.47513C1.08083 6.68059 2.04564 5.04046 3.34624 3.68661C4.64685 2.33276 6.24695 1.30295 8.01794 0.679967C9.78892 0.056987 11.6814 -0.141784 13.5431 0.0996356C15.4049 0.341055 17.1841 1.01593 18.7376 2.07C18.8225 2.12782 18.8809 2.21698 18.9 2.31788C18.9191 2.41877 18.8974 2.52313 18.8396 2.608C18.7818 2.69287 18.6926 2.7513 18.5917 2.77043C18.4908 2.78956 18.3865 2.76782 18.3016 2.71C16.0246 1.16635 13.2596 0.51361 10.5326 0.875959C7.80564 1.23831 5.30702 2.59046 3.51214 4.67517C1.71725 6.75988 0.751346 9.43166 0.798187 12.1822C0.845028 14.9327 1.90135 17.5701 3.76618 19.5924C5.63101 21.6148 8.17421 22.8811 10.9119 23.1504C13.6497 23.4197 16.3908 22.6732 18.614 21.0529C20.8371 19.4326 22.387 17.0516 22.9689 14.3629C23.5507 11.6742 23.1239 8.86547 21.7696 6.471C21.7421 6.42671 21.7238 6.37731 21.7159 6.32577C21.7079 6.27424 21.7105 6.22163 21.7234 6.1711C21.7363 6.12058 21.7593 6.07319 21.7909 6.03176C21.8226 5.99034 21.8623 5.95575 21.9077 5.93006C21.9531 5.90437 22.0032 5.88812 22.055 5.88228C22.1068 5.87643 22.1593 5.88112 22.2092 5.89606C22.2592 5.911 22.3056 5.93588 22.3457 5.96921C22.3858 6.00253 22.4188 6.04362 22.4426 6.09C23.4757 7.91563 24.0122 9.98019 23.9986 12.0778C23.985 14.1754 23.4218 16.2329 22.3651 18.0449C21.3084 19.857 19.7951 21.3605 17.9762 22.4053C16.1573 23.4502 14.0963 24 11.9986 24Z" fill="white" stroke="white" stroke-width="0.3"/>
<path d="M20.4526 6.081C20.0493 6.081 19.6551 5.96142 19.3198 5.73737C18.9845 5.51332 18.7231 5.19488 18.5688 4.8223C18.4145 4.44972 18.3741 4.03974 18.4528 3.64421C18.5315 3.24869 18.7256 2.88537 19.0108 2.60022C19.296 2.31506 19.6593 2.12086 20.0548 2.04219C20.4503 1.96351 20.8603 2.00389 21.2329 2.15821C21.6055 2.31254 21.9239 2.57389 22.1479 2.9092C22.372 3.24451 22.4916 3.63873 22.4916 4.042C22.4908 4.58254 22.2757 5.10071 21.8935 5.48292C21.5113 5.86514 20.9931 6.08021 20.4526 6.081ZM20.4526 2.78101C20.2025 2.78121 19.958 2.85557 19.7501 2.99469C19.5422 3.13381 19.3802 3.33144 19.2846 3.5626C19.189 3.79377 19.1641 4.04809 19.213 4.29341C19.2619 4.53873 19.3825 4.76404 19.5594 4.94085C19.7364 5.11767 19.9618 5.23804 20.2072 5.28677C20.4525 5.3355 20.7068 5.31039 20.9379 5.21462C21.169 5.11884 21.3665 4.95671 21.5055 4.7487C21.6444 4.54069 21.7186 4.29616 21.7186 4.04601C21.719 3.8795 21.6865 3.71456 21.6231 3.56061C21.5596 3.40667 21.4664 3.26675 21.3488 3.14887C21.2312 3.03099 21.0916 2.93747 20.9378 2.87366C20.784 2.80985 20.6191 2.777 20.4526 2.777V2.78101Z" fill="white" stroke="white" stroke-width="0.3"/>
</g>
<defs>
<clipPath id="clip0_205_87">
<rect width="24" height="24" fill="white"/>
</clipPath>
</defs>
</svg>
