<svg width="22" height="24" viewBox="0 0 22 24" fill="none" xmlns="http://www.w3.org/2000/svg">
<path d="M16.8708 23.736H7.22775C7.12269 23.736 7.01867 23.7169 6.92161 23.6798C6.82455 23.6427 6.73634 23.5883 6.66206 23.5197C6.58777 23.4511 6.52885 23.3697 6.48864 23.2802C6.44844 23.1905 6.42774 23.0945 6.42774 22.9975V20.0317H4.01675C3.37747 20.0312 2.76454 19.7966 2.3125 19.3793C1.86047 18.962 1.60628 18.3963 1.60575 17.8062V14.8348H0.805751C0.678061 14.8356 0.552001 14.8083 0.438111 14.7549C0.324231 14.7016 0.225831 14.6238 0.151131 14.5283C0.0764413 14.4327 0.0276212 14.3219 0.00876923 14.2054C-0.0100858 14.0888 0.00156521 13.9697 0.0427512 13.8581L1.60875 9.51969V8.90123C1.60875 7.73231 1.85817 6.57482 2.34278 5.49488C2.82738 4.41493 3.53768 3.43367 4.43312 2.60711C5.32855 1.78056 6.39159 1.12489 7.56153 0.677562C8.73148 0.230237 9.98546 0 11.2518 0C12.5181 0 13.7721 0.230237 14.942 0.677562C16.1119 1.12489 17.175 1.78056 18.0704 2.60711C18.9659 3.43367 19.6761 4.41493 20.1608 5.49488C20.6454 6.57482 20.8948 7.73231 20.8948 8.90123C20.865 10.9588 20.1845 12.9634 18.9368 14.6686C18.2176 15.5903 17.7834 16.6751 17.6808 17.8071V22.9948C17.6808 23.0918 17.6601 23.1878 17.6199 23.2774C17.5797 23.3669 17.5208 23.4484 17.4465 23.5169C17.3722 23.5855 17.284 23.6399 17.1869 23.677C17.0899 23.7141 16.9858 23.7332 16.8808 23.7332L16.8708 23.736ZM8.03175 22.2526H16.0678V17.8025C16.1566 16.4085 16.6669 15.0653 17.5408 13.9255C18.6402 12.444 19.2454 10.6976 19.2818 8.90215C19.2818 6.93481 18.4351 5.04806 16.9281 3.65694C15.4211 2.26583 13.3771 1.4843 11.2458 1.4843C9.11446 1.4843 7.07048 2.26583 5.56344 3.65694C4.0564 5.04806 3.20975 6.93481 3.20975 8.90215V9.64061C3.20988 9.72027 3.19603 9.79947 3.16875 9.87507L1.91475 13.3495H2.40675C2.61892 13.3495 2.82241 13.4273 2.97244 13.5658C3.12247 13.7043 3.20675 13.8921 3.20675 14.088V17.7969C3.20675 17.8939 3.22745 17.9899 3.26765 18.0796C3.30785 18.1691 3.36678 18.2505 3.44107 18.3191C3.51535 18.3877 3.60354 18.4421 3.7006 18.4792C3.79766 18.5163 3.90169 18.5354 4.00675 18.5354H7.22074C7.43292 18.5354 7.6364 18.6132 7.78643 18.7517C7.93646 18.8901 8.02075 19.078 8.02075 19.2738L8.03175 22.2526Z" fill="white"/>
<path d="M15.363 11.4201C14.8007 11.4046 14.2402 11.355 13.685 11.2715C12.2 11.0242 10.679 11.0242 9.19398 11.2715C8.63877 11.3549 8.07822 11.4045 7.51597 11.4201C7.18698 11.442 6.85663 11.4019 6.54496 11.3023C6.23329 11.2026 5.94683 11.0455 5.70298 10.8404C5.45032 10.5698 5.25892 10.2551 5.14007 9.91506C5.02122 9.57499 4.97733 9.21638 5.01098 8.86045C5.03207 7.29947 5.71864 5.80903 6.92193 4.71208C8.12521 3.61512 9.7483 3 11.4395 3C13.1307 3 14.7537 3.61512 15.957 4.71208C17.1603 5.80903 17.8469 7.29947 17.868 8.86045C17.868 10.5598 17.025 11.4201 15.363 11.4201ZM11.439 9.60259C12.2647 9.61607 13.0883 9.68272 13.904 9.80198C14.3867 9.87527 14.874 9.92022 15.363 9.93675C15.942 9.93675 16.263 9.93675 16.263 8.86137C16.2447 7.69209 15.7287 6.57642 14.8265 5.7555C13.9243 4.93458 12.7083 4.47439 11.4415 4.47439C10.1746 4.47439 8.95867 4.93458 8.05645 5.7555C7.15423 6.57642 6.63822 7.69209 6.61997 8.86137C6.61997 9.49367 6.75897 9.71613 6.84197 9.79275C7.04182 9.91293 7.28128 9.96398 7.51797 9.93675C8.00689 9.92022 8.4942 9.87527 8.97697 9.80198C9.7926 9.68272 10.6163 9.61607 11.442 9.60259H11.439Z" fill="white"/>
</svg>
