<svg width="24" height="24" viewBox="0 0 24 24" fill="none" xmlns="http://www.w3.org/2000/svg">
<g clip-path="url(#clip0_205_67)">
<path d="M1.09863e-06 5.40301V20.92C0.0220874 21.7062 0.335624 22.456 0.879693 23.0239C1.42376 23.5919 2.15951 23.9372 2.944 23.993H20.952C21.7546 23.9589 22.5146 23.6227 23.0798 23.0519C23.6451 22.4812 23.9737 21.7179 24 20.915V5.40301C24 5.24388 23.9368 5.09126 23.8243 4.97874C23.7117 4.86622 23.5591 4.803 23.4 4.803H0.6C0.44087 4.803 0.288258 4.86622 0.175737 4.97874C0.0632147 5.09126 1.09863e-06 5.24388 1.09863e-06 5.40301ZM1.2 6.003H22.8V20.915C22.7739 21.3995 22.5716 21.8578 22.2313 22.2036C21.891 22.5495 21.436 22.7591 20.952 22.793H2.944C2.47891 22.7371 2.04863 22.5183 1.72941 22.1755C1.41019 21.8327 1.22263 21.3879 1.2 20.92V6.003Z" fill="white"/>
<path d="M7.79 6.009C7.71121 6.009 7.63318 5.99348 7.56039 5.96333C7.48759 5.93318 7.42146 5.88898 7.36574 5.83327C7.31003 5.77755 7.26583 5.71141 7.23568 5.63861C7.20553 5.56582 7.18999 5.48779 7.18999 5.409V1.8C7.21865 1.33199 7.41749 0.890615 7.74905 0.559059C8.0806 0.227503 8.522 0.0286579 8.99001 0H15.003C15.4721 0.0254391 15.9153 0.223251 16.2476 0.555462C16.5798 0.887672 16.7776 1.33088 16.803 1.8V5.408C16.803 5.56713 16.7398 5.71975 16.6273 5.83227C16.5148 5.94479 16.3621 6.008 16.203 6.008L7.79 6.009ZM15.607 4.809V1.8C15.5827 1.64964 15.5117 1.51076 15.404 1.40306C15.2963 1.29536 15.1574 1.22431 15.007 1.2H8.993C8.84399 1.22747 8.70684 1.29955 8.59969 1.40669C8.49255 1.51384 8.42047 1.65099 8.393 1.8V4.807L15.607 4.809Z" fill="white"/>
<path d="M0 10.798H24V9.59801H0V10.798Z" fill="white"/>
<path d="M10.797 15.589V13.184H13.202V15.589H15.607V17.994H13.202V20.399H10.797V17.994H8.39V15.589H10.797Z" fill="white"/>
<path d="M11.697 16.789H11.997M1.09863e-06 5.40301V20.92C0.0220874 21.7062 0.335624 22.456 0.879693 23.0239C1.42376 23.5919 2.15951 23.9372 2.944 23.993H20.952C21.7546 23.9589 22.5146 23.6227 23.0798 23.0519C23.6451 22.4812 23.9737 21.7179 24 20.915V5.40301C24 5.24388 23.9368 5.09126 23.8243 4.97874C23.7117 4.86622 23.5591 4.803 23.4 4.803H0.6C0.44087 4.803 0.288258 4.86622 0.175737 4.97874C0.0632147 5.09126 1.09863e-06 5.24388 1.09863e-06 5.40301ZM1.2 6.003H22.8V20.915C22.7739 21.3995 22.5716 21.8578 22.2313 22.2036C21.891 22.5495 21.436 22.7591 20.952 22.793H2.944C2.47891 22.7371 2.04863 22.5183 1.72941 22.1755C1.41019 21.8327 1.22263 21.3879 1.2 20.92V6.003ZM7.79 6.009C7.71121 6.009 7.63318 5.99348 7.56039 5.96333C7.48759 5.93318 7.42146 5.88898 7.36574 5.83327C7.31003 5.77755 7.26583 5.71141 7.23568 5.63861C7.20553 5.56582 7.18999 5.48779 7.18999 5.409V1.8C7.21865 1.33199 7.41749 0.890615 7.74905 0.559059C8.0806 0.227503 8.522 0.0286579 8.99001 0H15.003C15.4721 0.0254391 15.9153 0.223251 16.2476 0.555462C16.5798 0.887672 16.7776 1.33088 16.803 1.8V5.408C16.803 5.56713 16.7398 5.71975 16.6273 5.83227C16.5148 5.94479 16.3621 6.008 16.203 6.008L7.79 6.009ZM15.607 4.809V1.8C15.5827 1.64964 15.5117 1.51076 15.404 1.40306C15.2963 1.29536 15.1574 1.22431 15.007 1.2H8.993C8.84399 1.22747 8.70684 1.29955 8.59969 1.40669C8.49255 1.51384 8.42047 1.65099 8.393 1.8V4.807L15.607 4.809ZM0 10.798H24V9.59801H0V10.798ZM10.797 15.589V13.184H13.202V15.589H15.607V17.994H13.202V20.399H10.797V17.994H8.39V15.589H10.797Z" stroke="white" stroke-width="0.1"/>
</g>
<defs>
<clipPath id="clip0_205_67">
<rect width="24" height="24" fill="white"/>
</clipPath>
</defs>
</svg>
