<svg width="24" height="24" viewBox="0 0 24 24" fill="none" xmlns="http://www.w3.org/2000/svg">
<path d="M4 1.53927V22.4607C4.00072 22.8688 4.19276 23.2599 4.53402 23.5485C4.87527 23.837 5.33791 23.9994 5.82052 24H17.1795C17.6621 23.9994 18.1247 23.837 18.466 23.5485C18.8073 23.2599 18.9993 22.8688 19 22.4607V1.53927C18.9993 1.13122 18.8073 0.74005 18.466 0.451512C18.1247 0.162974 17.6621 0.000605421 17.1795 0H5.82052C5.33769 0 4.87465 0.162175 4.53323 0.450844C4.19182 0.739513 4 1.13103 4 1.53927ZM17.7114 19.1728H5.29264V4.03529H17.7114V19.1728ZM17.1822 22.9036H5.82323C5.6831 22.9036 5.54869 22.8566 5.44948 22.773C5.35027 22.6893 5.29436 22.5758 5.294 22.4573V20.2657H17.7114V22.4607C17.7111 22.5792 17.6552 22.6927 17.5559 22.7764C17.4567 22.8601 17.3223 22.9071 17.1822 22.9071V22.9036ZM17.7114 1.53927V2.9435H5.29264V1.53927C5.293 1.42068 5.34888 1.30704 5.44806 1.22319C5.54723 1.13934 5.68163 1.0921 5.82188 1.0918H17.1808C17.3212 1.0918 17.4558 1.13894 17.5551 1.22286C17.6543 1.30678 17.7101 1.42059 17.7101 1.53927H17.7114Z" fill="white"/>
<path d="M12.1849 21.0737H10.8138C10.6425 21.0737 10.4783 21.1312 10.3572 21.2336C10.2361 21.336 10.1681 21.4748 10.1681 21.6196C10.1681 21.7644 10.2361 21.9032 10.3572 22.0056C10.4783 22.1079 10.6425 22.1655 10.8138 22.1655H12.1849C12.3561 22.1655 12.5204 22.1079 12.6414 22.0056C12.7625 21.9032 12.8305 21.7644 12.8305 21.6196C12.8305 21.4748 12.7625 21.336 12.6414 21.2336C12.5204 21.1312 12.3561 21.0737 12.1849 21.0737Z" fill="white"/>
</svg>
