<svg width="24" height="24" viewBox="0 0 24 24" fill="none" xmlns="http://www.w3.org/2000/svg">
<g clip-path="url(#clip0_2710_1565)">
<path d="M1 19.3605C1 20.592 1.48922 21.7731 2.36005 22.6439C3.23086 23.5148 4.41194 24.0039 5.64348 24.0039C6.875 24.0039 8.05608 23.5148 8.92691 22.6439C9.79773 21.7731 10.287 20.592 10.287 19.3605V8.15559L21.4282 7.36046V11.933H18.6348C17.7166 11.933 16.819 12.2052 16.0556 12.7154C15.2921 13.2254 14.6971 13.9505 14.3458 14.7988C13.9943 15.6471 13.9024 16.5805 14.0816 17.4812C14.2607 18.3817 14.7029 19.2088 15.3521 19.8581C16.0014 20.5073 16.8285 20.9495 17.729 21.1286C18.6297 21.3078 19.5631 21.2159 20.4114 20.8644C21.2597 20.5131 21.9848 19.9181 22.4948 19.1546C23.005 18.3912 23.2772 17.4936 23.2772 16.5754V2.78585C23.2772 2.40329 23.1983 2.02484 23.0457 1.67407C22.893 1.32331 22.6697 1.00775 22.3897 0.747052C22.1098 0.486358 21.7791 0.286114 21.4184 0.158803C21.0575 0.0314908 20.6745 -0.0201596 20.2929 0.00706366L11.0059 0.670713C10.3042 0.722997 9.64808 1.03807 9.16854 1.553C8.689 2.06793 8.42139 2.74482 8.41913 3.44846V14.718H5.63409C4.4047 14.7216 3.22683 15.2121 2.3583 16.0823C1.48979 16.9523 1.00138 18.131 1 19.3605ZM21.425 16.5754C21.425 17.1263 21.2617 17.6647 20.9557 18.1227C20.6496 18.5807 20.2147 18.9376 19.7058 19.1484C19.1969 19.3592 18.6369 19.4144 18.0967 19.3069C17.5565 19.1994 17.0602 18.9342 16.6706 18.5448C16.2812 18.1552 16.016 17.659 15.9085 17.1188C15.801 16.5785 15.8562 16.0185 16.067 15.5096C16.2778 15.0007 16.6347 14.5658 17.0927 14.2597C17.5507 13.9537 18.0891 13.7904 18.64 13.7904H21.425V16.5754ZM11.1468 2.52393L20.4337 1.86028C20.5611 1.85123 20.689 1.86857 20.8094 1.91117C20.9297 1.95378 21.04 2.02076 21.1334 2.10791C21.2267 2.19506 21.301 2.30053 21.3518 2.41771C21.4025 2.53489 21.4285 2.66129 21.4282 2.78898V5.50202L10.287 6.29715V3.4495C10.2872 3.21471 10.3763 2.98871 10.5364 2.81698C10.6965 2.64526 10.9158 2.54056 11.1499 2.52393H11.1468ZM5.64244 16.5754H8.42748V19.3605C8.42748 19.9113 8.26414 20.4497 7.95812 20.9077C7.6521 21.3657 7.21713 21.7227 6.70822 21.9335C6.19933 22.1442 5.63935 22.1994 5.09909 22.092C4.55884 21.9845 4.06261 21.7192 3.67312 21.3298C3.28362 20.9403 3.01837 20.444 2.9109 19.9038C2.80344 19.3636 2.8586 18.8036 3.06939 18.2946C3.28019 17.7857 3.63715 17.3508 4.09515 17.0448C4.55315 16.7387 5.09161 16.5754 5.64244 16.5754Z" fill="white"/>
</g>
<defs>
<clipPath id="clip0_2710_1565">
<rect width="24" height="24" fill="white"/>
</clipPath>
</defs>
</svg>
