<svg width="24" height="24" viewBox="0 0 24 24" fill="none" xmlns="http://www.w3.org/2000/svg">
<g clip-path="url(#clip0_2720_1583)">
<path d="M0.751465 19.3585C0.751465 20.59 1.24069 21.7711 2.11151 22.6419C2.98233 23.5128 4.16341 24.002 5.39494 24.002C6.62647 24.002 7.80755 23.5128 8.67837 22.6419C9.5492 21.7711 10.0384 20.59 10.0384 19.3585V8.15363L21.1796 7.3585V11.931H18.3862C17.4681 11.931 16.5705 12.2033 15.8071 12.7134C15.0436 13.2235 14.4486 13.9486 14.0972 14.7968C13.7458 15.6452 13.6539 16.5786 13.833 17.4792C14.0122 18.3797 14.4543 19.2069 15.1036 19.8561C15.7528 20.5054 16.58 20.9475 17.4805 21.1267C18.3811 21.3058 19.3145 21.2139 20.1629 20.8625C21.0111 20.5111 21.7362 19.9161 22.2463 19.1526C22.7564 18.3892 23.0287 17.4916 23.0287 16.5735V2.78389C23.0287 2.40133 22.9498 2.02289 22.7971 1.67212C22.6445 1.32135 22.4212 1.00579 22.1412 0.745099C21.8612 0.484405 21.5306 0.284161 21.1698 0.15685C20.809 0.0295377 20.4259 -0.0221127 20.0443 0.00511054L10.7574 0.66876C10.0557 0.721044 9.39954 1.03612 8.92001 1.55105C8.44047 2.06598 8.17286 2.74286 8.17059 3.4465V14.7161H5.38555C4.15617 14.7196 2.9783 15.2102 2.10977 16.0803C1.24125 16.9504 0.75284 18.1291 0.751465 19.3585ZM21.1765 16.5735C21.1765 17.1243 21.0132 17.6627 20.7072 18.1207C20.4011 18.5787 19.9662 18.9357 19.4573 19.1465C18.9484 19.3573 18.3883 19.4125 17.8481 19.305C17.3079 19.1975 16.8116 18.9322 16.4221 18.5428C16.0327 18.1533 15.7674 17.657 15.66 17.1168C15.5525 16.5766 15.6077 16.0166 15.8185 15.5077C16.0292 14.9987 16.3862 14.5638 16.8442 14.2578C17.3022 13.9517 17.8406 13.7884 18.3915 13.7884H21.1765V16.5735ZM10.8982 2.52198L20.1852 1.85833C20.3126 1.84928 20.4404 1.86661 20.5609 1.90922C20.6812 1.95182 20.7915 2.01881 20.8849 2.10596C20.9781 2.19311 21.0524 2.29857 21.1033 2.41575C21.154 2.53294 21.18 2.65933 21.1796 2.78702V5.50007L10.0384 6.2952V3.44755C10.0386 3.21275 10.1277 2.98676 10.2879 2.81503C10.448 2.64331 10.6672 2.5386 10.9014 2.52198H10.8982ZM5.39391 16.5735H8.17894V19.3585C8.17894 19.9094 8.01561 20.4478 7.70959 20.9058C7.40356 21.3638 6.96859 21.7207 6.45969 21.9315C5.95079 22.1423 5.39081 22.1975 4.85056 22.09C4.31031 21.9825 3.81407 21.7173 3.42458 21.3279C3.03508 20.9383 2.76983 20.4421 2.66236 19.9018C2.55491 19.3616 2.61007 18.8016 2.82086 18.2927C3.03165 17.7838 3.38861 17.3489 3.84662 17.0428C4.30461 16.7368 4.84308 16.5735 5.39391 16.5735Z" fill="white"/>
</g>
<defs>
<clipPath id="clip0_2720_1583">
<rect width="24" height="24" fill="white"/>
</clipPath>
</defs>
</svg>
