<svg width="24" height="24" viewBox="0 0 24 24" fill="none" xmlns="http://www.w3.org/2000/svg">
<g clip-path="url(#clip0_205_54)">
<path d="M17.7254 13.4551C17.7097 13.409 17.6844 13.3664 17.6511 13.3299C17.6178 13.2935 17.5771 13.2638 17.5315 13.2428C17.4859 13.2218 17.4363 13.2098 17.3858 13.2076C17.3353 13.2054 17.2848 13.213 17.2374 13.23C17.19 13.247 17.1467 13.273 17.1101 13.3064C17.0734 13.3398 17.0442 13.38 17.0242 13.4245C17.0041 13.469 16.9937 13.517 16.9935 13.5655C16.9933 13.614 17.0034 13.662 17.023 13.7066L19.0313 18.8441C19.3259 19.601 19.3199 20.4352 19.0145 21.1882C18.7091 21.9411 18.1256 22.5602 17.3749 22.9277V18.6175C17.3749 18.5222 17.3354 18.4307 17.265 18.3632C17.1946 18.2958 17.0992 18.2579 16.9997 18.2579C16.9001 18.2579 16.8047 18.2958 16.7343 18.3632C16.664 18.4307 16.6244 18.5222 16.6244 18.6175V22.9303C16.6236 22.9919 16.6061 23.0523 16.5736 23.1054C16.541 23.1586 16.4946 23.2027 16.4388 23.2333C16.2331 23.2704 16.0242 23.2894 15.8148 23.29H14.7523C14.6527 23.29 14.5573 23.2521 14.4869 23.1846C14.4165 23.1172 14.377 23.0257 14.377 22.9303V18.6175C14.377 18.5222 14.3375 18.4307 14.2671 18.3632C14.1967 18.2958 14.1013 18.2579 14.0017 18.2579C13.9022 18.2579 13.8068 18.2958 13.7364 18.3632C13.666 18.4307 13.6265 18.5222 13.6265 18.6175V22.9303C13.6276 23.0531 13.6508 23.1748 13.6952 23.29H11.3062C11.3506 23.1748 11.3738 23.0531 11.3749 22.9303V18.6175C11.3749 18.5222 11.3354 18.4307 11.265 18.3632C11.1946 18.2958 11.0992 18.2579 10.9997 18.2579C10.9001 18.2579 10.8047 18.2958 10.7343 18.3632C10.664 18.4307 10.6244 18.5222 10.6244 18.6175V22.9303C10.6244 23.0257 10.5849 23.1172 10.5145 23.1846C10.4441 23.2521 10.3487 23.29 10.2492 23.29H9.18387C8.97402 23.2895 8.76466 23.2705 8.55844 23.2333C8.50295 23.2025 8.45679 23.1583 8.42449 23.1052C8.3922 23.0521 8.3749 22.9918 8.37426 22.9303V18.6175C8.37426 18.5222 8.33471 18.4307 8.26433 18.3632C8.19396 18.2958 8.09851 18.2579 7.99899 18.2579C7.89946 18.2579 7.80402 18.2958 7.73364 18.3632C7.66327 18.4307 7.62374 18.5222 7.62374 18.6175V22.9277C6.87308 22.5602 6.28956 21.9411 5.98416 21.1882C5.67876 20.4352 5.67279 19.601 5.96738 18.8441L7.97562 13.7066C7.99529 13.662 8.00533 13.614 8.00513 13.5655C8.00494 13.517 7.99451 13.469 7.97449 13.4245C7.95447 13.38 7.92527 13.3398 7.88862 13.3064C7.85198 13.273 7.80866 13.247 7.76127 13.23C7.71388 13.213 7.66339 13.2054 7.61285 13.2076C7.56231 13.2098 7.51275 13.2218 7.46717 13.2428C7.42158 13.2638 7.3809 13.2935 7.34757 13.3299C7.31424 13.3664 7.28895 13.409 7.27322 13.4551L5.26497 18.5859C5.05491 19.1243 4.96811 19.6997 5.01043 20.2731C5.05275 20.8465 5.22323 21.4045 5.51029 21.9092C5.79735 22.4139 6.19428 22.8536 6.67419 23.1984C7.1541 23.5433 7.70575 23.7852 8.29177 23.9078C8.43416 23.9684 8.58821 23.9998 8.74402 24C8.77351 23.9977 8.8026 23.992 8.83062 23.9829C8.94471 23.9921 9.06016 24 9.17837 24H15.8107C15.9275 24 16.043 23.9921 16.1584 23.9829C16.1865 23.9919 16.2156 23.9976 16.245 24C16.3999 23.9995 16.553 23.9681 16.6945 23.9078C17.2819 23.7863 17.8352 23.5449 18.3165 23.2001C18.7979 22.8554 19.1961 22.4153 19.4841 21.9098C19.7721 21.4043 19.9431 20.8453 19.9854 20.2709C20.0278 19.6964 19.9405 19.1199 19.7296 18.5806L17.7254 13.4551Z" fill="white" stroke="white" stroke-width="0.5"/>
<path d="M7.62098 8.18982C7.52145 8.18982 7.42601 8.2277 7.35563 8.29515C7.28526 8.36259 7.24573 8.45406 7.24573 8.54943V10.7059C7.24646 11.3729 7.5233 12.0125 8.0155 12.4842C8.50771 12.9559 9.17508 13.2212 9.87116 13.2219H15.122C15.8181 13.2212 16.4855 12.9559 16.9777 12.4842C17.4699 12.0125 17.7467 11.3729 17.7474 10.7059V8.54943C17.7474 8.45406 17.7079 8.36259 17.6375 8.29515C17.5672 8.2277 17.4717 8.18982 17.3722 8.18982C17.2727 8.18982 17.1772 8.2277 17.1068 8.29515C17.0365 8.36259 16.9969 8.45406 16.9969 8.54943V10.7059C16.9962 11.1822 16.7984 11.6388 16.447 11.9756C16.0955 12.3124 15.619 12.5019 15.122 12.5026H9.87116C9.37412 12.5019 8.89765 12.3124 8.54619 11.9756C8.19474 11.6388 7.99698 11.1822 7.99625 10.7059V8.54943C7.99625 8.45406 7.9567 8.36259 7.88632 8.29515C7.81595 8.2277 7.7205 8.18982 7.62098 8.18982Z" fill="white" stroke="white" stroke-width="0.5"/>
<path d="M7.62097 7.47055C8.21753 7.46986 8.78945 7.24244 9.21128 6.83818C9.63311 6.43393 9.8704 5.88584 9.87113 5.31414V2.79679C9.87113 2.70141 9.8316 2.60994 9.76122 2.5425C9.69085 2.47506 9.5954 2.43717 9.49588 2.43717C9.39635 2.43717 9.30091 2.47506 9.23053 2.5425C9.16016 2.60994 9.12063 2.70141 9.12063 2.79679V5.31282C9.12063 5.69416 8.96254 6.05988 8.68118 6.32952C8.39981 6.59917 8.01819 6.75065 7.62028 6.75065C7.22236 6.75065 6.84075 6.59917 6.55938 6.32952C6.27801 6.05988 6.11995 5.69416 6.11995 5.31282V2.79679C6.11995 2.51066 6.23854 2.23624 6.44966 2.03392C6.66079 1.83159 6.94715 1.71793 7.24572 1.71793H17.7488C18.0474 1.71793 18.3337 1.83159 18.5448 2.03392C18.7559 2.23624 18.8746 2.51066 18.8746 2.79679V5.31282C18.8806 5.5053 18.8463 5.69699 18.7737 5.87653C18.701 6.05607 18.5915 6.2198 18.4516 6.35801C18.3116 6.49622 18.1442 6.6061 17.9591 6.68113C17.7741 6.75617 17.5752 6.79484 17.3742 6.79484C17.1733 6.79484 16.9744 6.75617 16.7893 6.68113C16.6043 6.6061 16.4368 6.49622 16.2969 6.35801C16.157 6.2198 16.0474 6.05607 15.9748 5.87653C15.9021 5.69699 15.8678 5.5053 15.8739 5.31282V2.79679C15.8739 2.74956 15.8642 2.7028 15.8453 2.65917C15.8265 2.61554 15.7988 2.57589 15.764 2.5425C15.7291 2.50911 15.6877 2.48262 15.6422 2.46454C15.5967 2.44647 15.5479 2.43717 15.4986 2.43717C15.4493 2.43717 15.4005 2.44647 15.355 2.46454C15.3095 2.48262 15.2681 2.50911 15.2333 2.5425C15.1984 2.57589 15.1708 2.61554 15.1519 2.65917C15.1331 2.7028 15.1234 2.74956 15.1234 2.79679V5.31282C15.1234 5.88491 15.3605 6.43357 15.7826 6.8381C16.2047 7.24263 16.7773 7.46989 17.3742 7.46989C17.9712 7.46989 18.5437 7.24263 18.9658 6.8381C19.3879 6.43357 19.6251 5.88491 19.6251 5.31282V2.79679C19.6244 2.32024 19.4264 1.86342 19.0746 1.52657C18.7229 1.18972 18.2461 1.00035 17.7488 1H7.24572C6.74868 1.0007 6.27221 1.19022 5.92075 1.52704C5.5693 1.86385 5.37152 2.32047 5.37079 2.79679V5.31282C5.37152 5.88453 5.60883 6.43261 6.03066 6.83687C6.45249 7.24112 7.02441 7.46854 7.62097 7.46924V7.47055Z" fill="white" stroke="white" stroke-width="0.5"/>
<path d="M13.6224 9.26736C13.6224 9.01776 13.5322 8.77586 13.367 8.58287C13.2018 8.38987 12.972 8.25772 12.7165 8.20896C12.4611 8.1602 12.1959 8.19783 11.9662 8.31543C11.7364 8.43304 11.5563 8.62336 11.4566 8.85394C11.3569 9.08452 11.3437 9.34111 11.4192 9.57998C11.4948 9.81886 11.6544 10.0252 11.8709 10.164C12.0875 10.3027 12.3475 10.3652 12.6067 10.3407C12.8659 10.3163 13.1083 10.2065 13.2925 10.0301C13.5036 9.82781 13.6223 9.55346 13.6224 9.26736ZM12.1213 9.26736C12.1213 9.19624 12.1433 9.12671 12.1846 9.06757C12.2258 9.00843 12.2844 8.96234 12.353 8.93512C12.4216 8.90791 12.497 8.90077 12.5698 8.91464C12.6426 8.92852 12.7095 8.96278 12.762 9.01307C12.8144 9.06337 12.8502 9.12745 12.8646 9.19721C12.8791 9.26697 12.8717 9.33928 12.8433 9.40499C12.8149 9.4707 12.7668 9.52686 12.7051 9.56638C12.6434 9.60589 12.5708 9.62698 12.4966 9.62698C12.398 9.62559 12.304 9.5871 12.2348 9.5198C12.1656 9.45251 12.1268 9.36183 12.1268 9.26736H12.1213Z" fill="white" stroke="white" stroke-width="0.5"/>
</g>
<defs>
<clipPath id="clip0_205_54">
<rect width="24" height="24" fill="white"/>
</clipPath>
</defs>
</svg>
