<svg width="24" height="24" viewBox="0 0 24 24" fill="none" xmlns="http://www.w3.org/2000/svg">
<g clip-path="url(#clip0_205_62)">
<path d="M21.3041 22.9962H2.73256C2.2846 22.9955 1.85517 22.8086 1.53842 22.4765C1.22167 22.1444 1.04343 21.6941 1.04279 21.2245V17.0135C1.04261 16.7607 1.09409 16.5107 1.19378 16.2804C1.29347 16.0502 1.43904 15.845 1.6207 15.6787L7.42921 10.3583C7.73714 10.0772 8.13153 9.92206 8.53984 9.92149H15.3172C15.72 9.9202 16.1099 10.0697 16.4169 10.343L22.4038 15.671C22.5907 15.8374 22.7409 16.0445 22.8439 16.2779C22.9469 16.5113 23.0001 16.7654 23 17.0225V21.2257C23.0003 21.4584 22.957 21.6889 22.8723 21.904C22.7877 22.119 22.6635 22.3145 22.5068 22.4793C22.3501 22.6441 22.164 22.7748 21.9592 22.8642C21.7543 22.9535 21.5346 22.9997 21.3127 23L21.3041 22.9962ZM8.54229 11.0271C8.38761 11.0263 8.23806 11.0851 8.12198 11.1923L2.31347 16.5088C2.24393 16.5726 2.18846 16.6514 2.1509 16.7399C2.11335 16.8284 2.09461 16.9244 2.09599 17.0212V21.2257C2.09631 21.4037 2.16387 21.5742 2.28387 21.7C2.40387 21.8259 2.56652 21.8967 2.73622 21.897H21.3078C21.4775 21.8967 21.6402 21.8259 21.7602 21.7C21.8802 21.5742 21.9477 21.4037 21.948 21.2257V17.0264C21.9484 16.9288 21.9283 16.8324 21.8892 16.7438C21.8502 16.6553 21.7931 16.5768 21.722 16.5139L15.7351 11.1859C15.6192 11.0832 15.4726 11.0265 15.3209 11.0258L8.54229 11.0271Z" fill="white" stroke="white" stroke-width="0.3"/>
<path d="M11.9744 19.6333C11.376 19.6336 10.7911 19.4478 10.2934 19.0995C9.79581 18.7511 9.40787 18.2559 9.17867 17.6764C8.94948 17.0969 8.88932 16.4592 9.00581 15.8438C9.1223 15.2285 9.41022 14.6632 9.83313 14.2194C10.256 13.7756 10.7949 13.4733 11.3817 13.3506C11.9685 13.228 12.5768 13.2905 13.1297 13.5304C13.6826 13.7702 14.1552 14.1766 14.4878 14.6981C14.8204 15.2195 14.9981 15.8327 14.9983 16.4601C14.998 17.3011 14.6794 18.1077 14.1124 18.7026C13.5455 19.2976 12.7765 19.6323 11.9744 19.6333ZM11.9744 13.8403C11.4802 13.8403 10.9971 13.9939 10.5862 14.2818C10.1753 14.5697 9.85505 14.9788 9.66594 15.4575C9.47682 15.9362 9.42735 16.463 9.52376 16.9712C9.62017 17.4794 9.85813 17.9462 10.2076 18.3126C10.557 18.679 11.0022 18.9285 11.4869 19.0296C11.9716 19.1306 12.474 19.0788 12.9305 18.8805C13.3871 18.6822 13.7773 18.3464 14.0519 17.9156C14.3264 17.4847 14.473 16.9782 14.473 16.4601C14.4723 15.7655 14.2089 15.0995 13.7404 14.6084C13.272 14.1172 12.6368 13.841 11.9744 13.8403Z" fill="white" stroke="white" stroke-width="0.3"/>
<path d="M21.3945 8.27526H17.2526C16.9345 8.27492 16.6295 8.14227 16.4045 7.90642C16.1796 7.67056 16.0531 7.35078 16.0528 7.01723V5.36976C16.0521 5.30881 16.0287 5.25055 15.9876 5.20744C15.9465 5.16434 15.891 5.13984 15.8328 5.13917H8.11585C8.05772 5.13984 8.00215 5.16434 7.96104 5.20744C7.91993 5.25055 7.89656 5.30881 7.89592 5.36976V7.01851C7.8956 7.35206 7.76909 7.67184 7.54415 7.9077C7.31921 8.14355 7.01422 8.2762 6.6961 8.27654H2.55659C2.14386 8.2762 1.74812 8.10413 1.45627 7.79813C1.16442 7.49213 1.00032 7.07719 1 6.64444V4.59471C1.00097 3.64165 1.36249 2.72791 2.00523 2.05399C2.64798 1.38007 3.51944 1.00102 4.42841 1H19.5203C20.4292 1.00102 21.3007 1.38007 21.9435 2.05399C22.5862 2.72791 22.9477 3.64165 22.9487 4.59471V6.64444C22.9487 7.07685 22.785 7.4916 22.4936 7.7976C22.2023 8.10361 21.8069 8.27458 21.3945 8.27526ZM8.11585 4.03744H15.8328C16.1697 4.03778 16.4927 4.17826 16.731 4.42804C16.9692 4.67783 17.1032 5.01651 17.1035 5.36976V7.01851C17.1035 7.05996 17.1192 7.09972 17.1472 7.12903C17.1751 7.15834 17.2131 7.17481 17.2526 7.17481H21.3945C21.529 7.17481 21.658 7.11879 21.7531 7.01909C21.8482 6.91939 21.9016 6.78416 21.9016 6.64316V4.59343C21.9006 3.93256 21.6498 3.29905 21.2041 2.83174C20.7584 2.36444 20.1542 2.10146 19.5239 2.10044H4.43085C3.80056 2.10146 3.19636 2.36444 2.75067 2.83174C2.30499 3.29905 2.05417 3.93256 2.0532 4.59343V6.64316C2.0532 6.78416 2.10663 6.91939 2.20172 7.01909C2.29681 7.11879 2.42578 7.17481 2.56026 7.17481H6.6961C6.73564 7.17481 6.77355 7.15834 6.8015 7.12903C6.82946 7.09972 6.84516 7.05996 6.84516 7.01851V5.36976C6.84548 5.01651 6.97946 4.67783 7.21769 4.42804C7.45592 4.17826 7.77894 4.03778 8.11585 4.03744Z" fill="white" stroke="white" stroke-width="0.3"/>
</g>
<defs>
<clipPath id="clip0_205_62">
<rect width="24" height="24" fill="white"/>
</clipPath>
</defs>
</svg>
