<svg width="24" height="24" viewBox="0 0 24 24" fill="none" xmlns="http://www.w3.org/2000/svg">
<g clip-path="url(#clip0_205_60)">
<path d="M17.2882 0H5.79943C5.32238 0.000634505 4.86506 0.190419 4.52774 0.527739C4.19043 0.865058 4.00063 1.32238 4 1.79942V22.2006C4.00042 22.6777 4.19015 23.1351 4.52751 23.4725C4.86488 23.8099 5.32232 23.9996 5.79943 24H17.2882C17.7654 24 18.2231 23.8104 18.5606 23.473C18.8981 23.1355 19.0876 22.6778 19.0876 22.2006V1.79942C19.087 1.32238 18.8972 0.865058 18.5599 0.527739C18.2226 0.190419 17.7653 0.000634505 17.2882 0ZM5.79943 1.01282H17.2882C17.4968 1.01304 17.6967 1.09598 17.8442 1.24345C17.9917 1.39092 18.0746 1.59087 18.0748 1.79942V9.16897H5.01282V1.79942C5.01303 1.59087 5.09597 1.39092 5.24344 1.24345C5.39091 1.09598 5.59087 1.01304 5.79943 1.01282ZM17.8438 22.7562C17.7705 22.8298 17.6833 22.8881 17.5872 22.9277C17.4911 22.9672 17.3881 22.9872 17.2842 22.9864H5.79943C5.59108 22.9862 5.39134 22.9033 5.24402 22.756C5.0967 22.6087 5.01384 22.4089 5.01363 22.2006V10.1826H18.0748V22.2006C18.0756 22.3045 18.0556 22.4075 18.0161 22.5036C17.9766 22.5997 17.9183 22.6869 17.8446 22.7602L17.8438 22.7562Z" fill="white"/>
<path d="M6.70592 7.74606C6.84034 7.74606 6.96926 7.69267 7.0643 7.59762C7.15935 7.50258 7.21274 7.37366 7.21274 7.23925V4.36146C7.21274 4.22704 7.15935 4.09814 7.0643 4.00309C6.96926 3.90804 6.84034 3.85465 6.70592 3.85465C6.57151 3.85465 6.4426 3.90804 6.34756 4.00309C6.25251 4.09814 6.19912 4.22704 6.19912 4.36146V7.23925C6.19912 7.37366 6.25251 7.50258 6.34756 7.59762C6.4426 7.69267 6.57151 7.74606 6.70592 7.74606Z" fill="white"/>
<path d="M6.70592 11.4936C6.57151 11.4936 6.4426 11.547 6.34756 11.642C6.25251 11.7371 6.19912 11.866 6.19912 12.0004V17.1165C6.19912 17.2509 6.25251 17.3798 6.34756 17.4748C6.4426 17.5699 6.57151 17.6233 6.70592 17.6233C6.84034 17.6233 6.96926 17.5699 7.0643 17.4748C7.15935 17.3798 7.21274 17.2509 7.21274 17.1165V12.0004C7.21274 11.866 7.15935 11.7371 7.0643 11.642C6.96926 11.547 6.84034 11.4936 6.70592 11.4936Z" fill="white"/>
<path d="M17.2882 0H5.79943C5.32238 0.000634505 4.86506 0.190419 4.52774 0.527739C4.19043 0.865058 4.00063 1.32238 4 1.79942V22.2006C4.00042 22.6777 4.19015 23.1351 4.52751 23.4725C4.86488 23.8099 5.32232 23.9996 5.79943 24H17.2882C17.7654 24 18.2231 23.8104 18.5606 23.473C18.8981 23.1355 19.0876 22.6778 19.0876 22.2006V1.79942C19.087 1.32238 18.8972 0.865058 18.5599 0.527739C18.2226 0.190419 17.7653 0.000634505 17.2882 0ZM5.79943 1.01282H17.2882C17.4968 1.01304 17.6967 1.09598 17.8442 1.24345C17.9917 1.39092 18.0746 1.59087 18.0748 1.79942V9.16897H5.01282V1.79942C5.01303 1.59087 5.09597 1.39092 5.24344 1.24345C5.39091 1.09598 5.59087 1.01304 5.79943 1.01282ZM17.8438 22.7562C17.7705 22.8298 17.6833 22.8881 17.5872 22.9277C17.4911 22.9672 17.3881 22.9872 17.2842 22.9864H5.79943C5.59108 22.9862 5.39134 22.9033 5.24402 22.756C5.0967 22.6087 5.01384 22.4089 5.01363 22.2006V10.1826H18.0748V22.2006C18.0756 22.3045 18.0556 22.4075 18.0161 22.5036C17.9766 22.5997 17.9183 22.6869 17.8446 22.7602L17.8438 22.7562Z" stroke="white" stroke-width="0.2"/>
<path d="M6.70592 7.74606C6.84034 7.74606 6.96926 7.69267 7.0643 7.59762C7.15935 7.50258 7.21274 7.37366 7.21274 7.23925V4.36146C7.21274 4.22704 7.15935 4.09814 7.0643 4.00309C6.96926 3.90804 6.84034 3.85465 6.70592 3.85465C6.57151 3.85465 6.4426 3.90804 6.34756 4.00309C6.25251 4.09814 6.19912 4.22704 6.19912 4.36146V7.23925C6.19912 7.37366 6.25251 7.50258 6.34756 7.59762C6.4426 7.69267 6.57151 7.74606 6.70592 7.74606Z" stroke="white" stroke-width="0.2"/>
<path d="M6.70592 11.4936C6.57151 11.4936 6.4426 11.547 6.34756 11.642C6.25251 11.7371 6.19912 11.866 6.19912 12.0004V17.1165C6.19912 17.2509 6.25251 17.3798 6.34756 17.4748C6.4426 17.5699 6.57151 17.6233 6.70592 17.6233C6.84034 17.6233 6.96926 17.5699 7.0643 17.4748C7.15935 17.3798 7.21274 17.2509 7.21274 17.1165V12.0004C7.21274 11.866 7.15935 11.7371 7.0643 11.642C6.96926 11.547 6.84034 11.4936 6.70592 11.4936Z" stroke="white" stroke-width="0.2"/>
</g>
<defs>
<clipPath id="clip0_205_60">
<rect width="24" height="24" fill="white"/>
</clipPath>
</defs>
</svg>
