<svg width="26" height="25" viewBox="0 0 26 25" fill="none" xmlns="http://www.w3.org/2000/svg">
<path d="M9 4.50062C9.00014 5.31036 9.28106 6.09499 9.79486 6.72083C10.3086 7.34668 11.0236 7.77501 11.8178 7.93286C12.6119 8.09069 13.4363 7.96828 14.1504 7.58646C14.8645 7.20464 15.424 6.58703 15.7338 5.8389C16.0435 5.09075 16.0843 4.25835 15.8491 3.48352C15.614 2.70868 15.1174 2.03936 14.4441 1.58959C13.7708 1.13982 12.9623 0.93743 12.1565 1.0169C11.3506 1.09638 10.5973 1.4528 10.0248 2.02544C9.69978 2.35048 9.44199 2.73637 9.26615 3.16108C9.09031 3.58578 8.99987 4.04096 9 4.50062ZM13.9 4.50062C13.8999 4.82451 13.7876 5.13837 13.582 5.38871C13.3766 5.63905 13.0906 5.81037 12.7729 5.87351C12.4553 5.93665 12.1255 5.88769 11.8399 5.73496C11.5542 5.58223 11.3304 5.33519 11.2065 5.03593C11.0826 4.73668 11.0663 4.40372 11.1604 4.09378C11.2544 3.78384 11.453 3.51612 11.7224 3.33621C11.9917 3.1563 12.3151 3.07534 12.6374 3.10714C12.9597 3.13892 13.2611 3.28149 13.4901 3.51055C13.6201 3.64058 13.7232 3.79494 13.7935 3.96482C13.8639 4.13469 13.9 4.31676 13.9 4.50062Z" stroke="white"/>
<path d="M17.4138 10.4311L17.0567 10H14.4773V17.7496C13.6949 18.1923 13.0205 18.7748 12.4951 19.4616C11.9697 18.7748 11.2952 18.1923 10.5128 17.7496V10H7.93639L7.57928 10.4311C6.94976 11.1874 6.13533 11.8013 5.19983 12.2248C4.26435 12.6481 3.23324 12.8697 2.18738 12.8718H1V15.0257H2.18935C4.37127 15.0211 6.47987 14.3121 8.13609 13.0259V16.9212C7.74373 16.8557 7.34571 16.822 6.94674 16.8205H6.55324C5.50179 16.8205 4.49341 17.1987 3.74991 17.8719C3.00642 18.5451 2.58874 19.4582 2.58874 20.4103C2.58874 21.3623 3.00642 22.2753 3.74991 22.9486C4.49341 23.6218 5.50179 24 6.55324 24H18.4467C19.4982 24 20.5066 23.6218 21.2501 22.9486C21.9935 22.2753 22.4112 21.3623 22.4112 20.4103C22.4112 19.4582 21.9935 18.5451 21.2501 17.8719C20.5066 17.1987 19.4982 16.8205 18.4467 16.8205H18.0532C17.6543 16.822 17.2563 16.8557 16.8639 16.9212V13.0259C18.5201 14.3121 20.6287 15.0211 22.8106 15.0257H24V12.8718H22.8106C21.7648 12.8697 20.7337 12.6481 19.7982 12.2248C18.8627 11.8013 18.0482 11.1874 17.4187 10.4311H17.4138ZM6.55128 21.8497C6.1307 21.8497 5.72735 21.6984 5.42995 21.4291C5.13256 21.1598 4.96548 20.7946 4.96548 20.4138C4.96548 20.0329 5.13256 19.6677 5.42995 19.3985C5.72735 19.1292 6.1307 18.9779 6.55128 18.9779H6.94478C7.89385 18.9781 8.81694 19.2586 9.57393 19.7768C10.331 20.2952 10.8806 21.0229 11.1395 21.8497H6.55128ZM18.4448 18.9779C18.8653 18.9779 19.2688 19.1292 19.5662 19.3985C19.8635 19.6677 20.0306 20.0329 20.0306 20.4138C20.0306 20.7946 19.8635 21.1598 19.5662 21.4291C19.2688 21.6984 18.8653 21.8497 18.4448 21.8497H13.8536C14.1125 21.0229 14.6621 20.2952 15.4192 19.7768C16.1762 19.2586 17.0993 18.9781 18.0483 18.9779H18.4448Z" stroke="white"/>
<path d="M2 9C2 9.19778 1.94136 9.39113 1.83147 9.55557C1.7216 9.72002 1.56541 9.84819 1.38269 9.92388C1.19996 9.99956 0.998892 10.0194 0.804906 9.98079C0.610928 9.9422 0.432753 9.84695 0.292901 9.7071C0.153048 9.56725 0.0577998 9.38908 0.0192143 9.19509C-0.0193705 9.00111 0.000435135 8.80005 0.0761224 8.61732C0.15181 8.4346 0.279979 8.27841 0.444428 8.16853C0.608877 8.05865 0.802226 8 1 8C1.26522 8 1.51957 8.10536 1.70711 8.29289C1.89464 8.48044 2 8.73479 2 9Z" fill="white"/>
<path d="M25 9C25 9.19778 24.9414 9.39113 24.8315 9.55557C24.7216 9.72002 24.5654 9.84819 24.3827 9.92388C24.2 9.99956 23.9989 10.0194 23.805 9.98079C23.6109 9.9422 23.4327 9.84695 23.2929 9.7071C23.1531 9.56725 23.0578 9.38908 23.0193 9.19509C22.9806 9.00111 23.0004 8.80005 23.0762 8.61732C23.1518 8.4346 23.28 8.27841 23.4444 8.16853C23.6089 8.05865 23.8022 8 24 8C24.2653 8 24.5196 8.10536 24.7071 8.29289C24.8946 8.48044 25 8.73479 25 9Z" fill="white"/>
<path d="M22 4C22 4.19778 21.9414 4.39112 21.8314 4.55557C21.7216 4.72002 21.5654 4.84819 21.3827 4.92388C21.1999 4.99957 20.9989 5.01937 20.8049 4.98079C20.6109 4.9422 20.4328 4.84695 20.2929 4.7071C20.153 4.56725 20.0578 4.38907 20.0192 4.19509C19.9807 4.00111 20.0004 3.80004 20.0761 3.61732C20.1519 3.43459 20.28 3.27841 20.4444 3.16853C20.6089 3.05864 20.8022 3 21 3C21.2652 3 21.5196 3.10536 21.7071 3.29289C21.8946 3.48043 22 3.73478 22 4Z" fill="white"/>
<path d="M5 4C5 4.19778 4.94136 4.39112 4.83147 4.55557C4.7216 4.72002 4.56541 4.84819 4.38268 4.92388C4.19996 4.99957 3.99889 5.01937 3.80491 4.98079C3.61093 4.9422 3.43274 4.84695 3.29289 4.7071C3.15304 4.56725 3.0578 4.38907 3.01922 4.19509C2.98063 4.00111 3.00043 3.80004 3.07612 3.61732C3.15181 3.43459 3.27998 3.27841 3.44443 3.16853C3.60888 3.05864 3.80223 3 4 3C4.26522 3 4.51957 3.10536 4.70711 3.29289C4.89464 3.48043 5 3.73478 5 4Z" fill="white"/>
</svg>
