<svg width="24" height="24" viewBox="0 0 24 24" fill="none" xmlns="http://www.w3.org/2000/svg">
<g clip-path="url(#clip0_2710_1573)">
<mask id="mask0_2710_1573" style="mask-type:luminance" maskUnits="userSpaceOnUse" x="0" y="0" width="24" height="24">
<path d="M24 0H0V24H24V0Z" fill="white"/>
</mask>
<g mask="url(#mask0_2710_1573)">
<path d="M1.46039 9.67695L4.89399 12.5515C5.19878 12.8089 5.56573 12.9567 5.94642 12.9753C6.32713 12.9938 6.70385 12.8823 7.02735 12.6554L8.87174 11.3185L8.87166 16.0113L5.04168 17.549C4.53595 17.7545 4.09884 18.1309 3.79017 18.6268C3.48156 19.1228 3.31631 19.7139 3.31722 20.3197C3.31745 20.8569 3.45053 21.3833 3.70141 21.8401C4.02392 22.427 4.51908 22.8677 5.10053 23.0854C5.68191 23.3032 6.31274 23.284 6.88295 23.0314L12.001 20.815L17.2266 23.0108C17.7981 23.249 18.4255 23.2551 19.0006 23.0282C19.5757 22.8011 20.0626 22.3554 20.3773 21.7675C20.7531 21.0413 20.8239 20.1651 20.571 19.3743C20.3102 18.5702 19.7478 17.9365 19.034 17.6426L15.1793 16.0149V11.2945L17.2603 12.7109C17.5864 12.9197 17.9605 13.0141 18.3345 12.9821C18.7084 12.9501 19.0656 12.7929 19.3598 12.5308L22.5629 9.70835C22.8459 9.46696 23.0282 9.10496 23.067 8.7074C23.1082 8.32759 23.0167 7.94469 22.812 7.63941C22.6072 7.33403 22.3053 7.13029 21.9697 7.07118C21.6342 7.01197 21.2914 7.10194 21.0137 7.32213L18.1488 9.57674L15.3821 7.25282C15.0789 6.99928 14.7114 6.86213 14.334 6.86143H12.3083C12.9059 6.7766 13.4551 6.44768 13.8517 5.937C14.2482 5.42626 14.4648 4.76936 14.4601 4.09076V3.74444C14.4601 2.74961 13.989 1.83042 13.2243 1.333C12.4596 0.835615 11.5175 0.835615 10.7529 1.333C9.98821 1.83046 9.51716 2.74964 9.51716 3.74444V4.09076C9.51245 4.76936 9.72882 5.42626 10.1256 5.937C10.5221 6.44766 11.0713 6.77658 11.6689 6.86143H9.8491C9.31593 6.86408 8.79734 7.05686 8.36744 7.41208L5.7914 9.57663L2.9911 7.3117C2.61657 7.00233 2.12408 6.94165 1.69905 7.15234C1.27409 7.36312 0.98108 7.81329 0.930578 8.33337C0.880083 8.85336 1.07964 9.36437 1.4541 9.67369L1.46039 9.67695ZM10.1351 4.11159V3.76527C10.1351 3.01789 10.489 2.32729 11.0634 1.95365C11.6378 1.58 12.3456 1.58 12.9201 1.95365C13.4945 2.32729 13.8484 3.01789 13.8484 3.76527V4.11159C13.8484 4.85889 13.4945 5.54949 12.9201 5.92314C12.3456 6.29679 11.6378 6.29679 11.0634 5.92314C10.489 5.54949 10.1351 4.85889 10.1351 4.11159ZM19.9932 19.5995C20.1815 20.2009 20.1241 20.8652 19.8363 21.4143C19.5956 21.8639 19.2231 22.2048 18.7832 22.378C18.3432 22.5512 17.8633 22.546 17.4264 22.3633L13.3227 20.6316H13.5563C13.6892 20.6222 13.8172 20.5711 13.9258 20.4842C14.0344 20.3974 14.1193 20.278 14.171 20.1398C14.2238 19.9989 14.2406 19.844 14.2194 19.6928C14.1983 19.5416 14.1399 19.4002 14.0512 19.2843L13.9129 19.1042L17.6016 20.3995C17.631 20.4061 17.6612 20.4062 17.6906 20.3996C17.8005 20.4181 17.9108 20.3692 17.9799 20.2714C18.0492 20.1735 18.0667 20.0415 18.026 19.9251C17.9854 19.8086 17.8927 19.7255 17.7829 19.7069L12.5142 17.8713H12.4743C11.9302 17.6711 11.3428 17.6771 10.8021 17.8887L6.19433 19.7207C6.09053 19.7628 6.01456 19.8641 5.99502 19.9863C5.97548 20.1087 6.01533 20.2334 6.09951 20.3136C6.18377 20.3939 6.29958 20.4173 6.40331 20.3753L11.0142 18.5258C11.3922 18.3751 11.8016 18.3555 12.1897 18.4699C12.5776 18.584 12.9263 18.8268 13.1905 19.1666L13.6023 19.7208C13.6294 19.7562 13.6364 19.8056 13.6209 19.8489C13.6052 19.8932 13.5678 19.923 13.5255 19.9251L12.1823 20.0013C12.1508 20.0029 12.1197 20.0098 12.09 20.022L6.66752 22.3874C6.23085 22.5812 5.74773 22.5962 5.30223 22.4297C4.85675 22.2632 4.47727 21.9259 4.22997 21.4766C3.913 20.9059 3.84265 20.2041 4.03855 19.5682C4.23452 18.9322 4.67561 18.4304 5.23821 18.2038L9.23424 16.6036H14.8165L18.8126 18.2764C19.3617 18.4967 19.7947 18.982 19.9932 19.5995ZM1.72788 7.98013C1.84127 7.84167 1.99549 7.75436 2.16181 7.73466C2.32804 7.71488 2.49505 7.76397 2.63163 7.87279L5.6165 10.2972C5.6689 10.3396 5.73171 10.3626 5.79627 10.3626C5.86084 10.3626 5.92373 10.3396 5.97613 10.2972L8.74275 7.99408C9.06194 7.72238 9.44941 7.57202 9.84938 7.56456H14.322C14.5675 7.56456 14.8067 7.65316 15.0043 7.81739L17.9491 10.2832C18.0014 10.3258 18.0645 10.3487 18.1289 10.3487C18.1935 10.3487 18.2565 10.3258 18.3088 10.2832L21.355 7.89351C21.4998 7.78075 21.6769 7.73355 21.8511 7.76113C22.0254 7.78872 22.1841 7.88914 22.2956 8.04251C22.4199 8.20736 22.4769 8.42361 22.4524 8.63815C22.4341 8.8479 22.3395 9.03974 22.1911 9.16799L18.982 11.9872C18.7842 12.1627 18.5448 12.2685 18.2937 12.2912C18.0427 12.3141 17.7913 12.2529 17.5711 12.1154L15.1796 10.4842V9.97158C15.1796 9.84783 15.1211 9.7335 15.0259 9.67158C14.9308 9.60975 14.8137 9.60975 14.7185 9.67158C14.6234 9.7335 14.5648 9.84783 14.5648 9.97158V15.9111H9.47451V9.97158C9.47451 9.84783 9.4159 9.7335 9.32082 9.67158C9.22567 9.60975 9.10849 9.60975 9.01342 9.67158C8.91829 9.7335 8.85973 9.84783 8.85973 9.97158V10.491L6.7079 12.0634C6.4895 12.2156 6.23565 12.2902 5.97914 12.2779C5.72262 12.2655 5.47539 12.1667 5.2693 11.9941L1.82654 9.11966C1.67117 8.9896 1.57186 8.79159 1.55315 8.57456C1.53445 8.35753 1.59769 8.14148 1.72788 7.98013Z" fill="white" stroke="white" stroke-width="0.5"/>
<path d="M21.8304 3.23957C21.8304 3.57185 21.7357 3.89665 21.5581 4.17293C21.3807 4.44921 21.1284 4.66454 20.8332 4.79168C20.538 4.91884 20.2133 4.9521 19.8998 4.8873C19.5865 4.82248 19.2987 4.66245 19.0728 4.4275C18.8468 4.19255 18.693 3.89321 18.6306 3.56732C18.5683 3.24144 18.6003 2.90364 18.7226 2.59667C18.845 2.28968 19.0519 2.0273 19.3175 1.84269C19.5832 1.6581 19.8955 1.55957 20.215 1.55957C20.6434 1.55957 21.0544 1.73658 21.3572 2.05164C21.6602 2.36669 21.8304 2.794 21.8304 3.23957Z" fill="white"/>
<path d="M6.20635 3.23957C6.20635 3.57185 6.11162 3.89665 5.93411 4.17293C5.75662 4.44921 5.50432 4.66454 5.20915 4.79168C4.91398 4.91884 4.58918 4.9521 4.27582 4.8873C3.96247 4.82248 3.67462 4.66245 3.44871 4.4275C3.2228 4.19255 3.06896 3.89321 3.00663 3.56732C2.9443 3.24144 2.97628 2.90364 3.09855 2.59667C3.22082 2.28968 3.42786 2.0273 3.6935 1.84269C3.95915 1.6581 4.27149 1.55957 4.59097 1.55957C5.0194 1.55957 5.43027 1.73658 5.73322 2.05164C6.03616 2.36669 6.20635 2.794 6.20635 3.23957Z" fill="white"/>
</g>
</g>
<defs>
<clipPath id="clip0_2710_1573">
<rect width="24" height="24" fill="white"/>
</clipPath>
</defs>
</svg>
