<svg width="24" height="24" viewBox="0 0 24 24" fill="none" xmlns="http://www.w3.org/2000/svg">
<g clip-path="url(#clip0_2710_1567)">
<path d="M22.7593 6.00631L21.399 4.64599L21.9625 4.08535C22.3232 3.72458 22.5259 3.23525 22.5259 2.72503C22.5259 2.21481 22.3232 1.72549 21.9625 1.36471C21.6017 1.00394 21.1124 0.801251 20.6022 0.801251C20.0919 0.801251 19.6026 1.00394 19.2418 1.36471L18.6812 1.92535L17.3209 0.565033C17.1425 0.385945 16.9304 0.243839 16.6971 0.146876C16.4636 0.0499133 16.2133 0 15.9606 0C15.7078 0 15.4575 0.0499133 15.224 0.146876C14.9906 0.243839 14.7786 0.385945 14.6002 0.565033C14.3976 0.765635 14.2436 1.00995 14.15 1.27927L14.0156 1.14775C13.6548 0.787359 13.1656 0.585039 12.6557 0.585308C12.1457 0.585577 11.6568 0.788415 11.2964 1.14919C10.936 1.50997 10.7336 1.99915 10.7339 2.50909C10.7342 3.01904 10.9371 3.508 11.2978 3.86839L14.0185 6.58903L6.58903 14.0146L3.8684 11.2969C3.68995 11.1182 3.47805 10.9765 3.24482 10.8798C3.0116 10.783 2.7616 10.7332 2.5091 10.733C2.25659 10.7329 2.00654 10.7824 1.77321 10.879C1.53987 10.9755 1.32784 11.117 1.1492 11.2954C0.970564 11.4739 0.82881 11.6858 0.732063 11.919C0.635312 12.1522 0.585448 12.4022 0.585315 12.6547C0.585181 12.9073 0.634782 13.1573 0.731287 13.3906C0.827793 13.6239 0.969306 13.836 1.14776 14.0146L1.27928 14.149C1.00994 14.2426 0.765623 14.3966 0.565042 14.5993C0.38595 14.7777 0.243843 14.9896 0.14688 15.2231C0.0499171 15.4566 0 15.7068 0 15.9596C0 16.2124 0.0499171 16.4626 0.14688 16.6961C0.243843 16.9295 0.38595 17.1416 0.565042 17.3199L1.92247 18.6802L1.36184 19.2409C1.00105 19.6016 0.798378 20.091 0.798378 20.6012C0.798378 21.1114 1.00105 21.6008 1.36184 21.9615C1.72262 22.3223 2.21194 22.5249 2.72215 22.5249C3.23237 22.5249 3.72169 22.3223 4.08247 21.9615L4.64311 21.398L6.00343 22.7583C6.23253 22.9878 6.51602 23.1555 6.82744 23.2457C7.13885 23.3361 7.46806 23.3459 7.78437 23.2747C8.10068 23.2034 8.39376 23.0531 8.63631 22.8379C8.87885 22.6228 9.06295 22.3496 9.17144 22.0441L9.30584 22.1756C9.66661 22.536 10.1558 22.7384 10.6658 22.7381C11.1757 22.7378 11.6647 22.5349 12.025 22.1742C12.3854 21.8134 12.5878 21.3242 12.5875 20.8142C12.5872 20.3043 12.3844 19.8153 12.0236 19.455L9.30296 16.7343L16.7314 9.30584L19.4521 12.0265C19.8125 12.3873 20.3014 12.5901 20.8113 12.5904C21.3213 12.5907 21.8105 12.3883 22.1713 12.0279C22.532 11.6675 22.7349 11.1786 22.7352 10.6687C22.7355 10.1587 22.5331 9.66949 22.1727 9.30872L22.0412 9.17432C22.3101 9.07976 22.5542 8.92587 22.7554 8.72407C23.1157 8.36304 23.3181 7.87381 23.3181 7.36375C23.3181 6.8537 23.1157 6.36447 22.7554 6.00343L22.7593 6.00631ZM20.0194 2.14231C20.174 1.98777 20.3836 1.90095 20.6022 1.90095C20.8208 1.90095 21.0303 1.98777 21.1849 2.14231C21.3394 2.29686 21.4262 2.50647 21.4262 2.72503C21.4262 2.9436 21.3394 3.15321 21.1849 3.30775L20.6242 3.87127L19.453 2.69911L20.0194 2.14231ZM3.30392 21.1849C3.14937 21.3394 2.93975 21.4262 2.7212 21.4262C2.50264 21.4262 2.29303 21.3394 2.13848 21.1849C1.98393 21.0303 1.89711 20.8208 1.89711 20.6022C1.89711 20.3836 1.98393 20.174 2.13848 20.0194L2.69912 19.4559L3.86744 20.6242L3.30392 21.1849ZM7.9484 21.9846C7.79292 22.1385 7.583 22.2248 7.36424 22.2248C7.14548 22.2248 6.93556 22.1385 6.78008 21.9846L1.3388 16.5433C1.18388 16.3883 1.09683 16.1782 1.09683 15.9591C1.09683 15.7401 1.18388 15.5299 1.3388 15.375C1.49373 15.22 1.70386 15.1329 1.92296 15.1329C2.14206 15.1329 2.35219 15.22 2.50712 15.375L7.94552 20.8162C8.09941 20.9717 8.18573 21.1816 8.18573 21.4004C8.18573 21.6192 8.09941 21.829 7.94552 21.9846H7.9484ZM11.2518 20.2335C11.4067 20.3885 11.4937 20.5986 11.4937 20.8177C11.4937 21.0368 11.4067 21.2469 11.2518 21.4018C11.0968 21.5568 10.8867 21.6438 10.6676 21.6438C10.4485 21.6438 10.2384 21.5568 10.0834 21.4018L1.92343 13.2418C1.76851 13.0869 1.68147 12.8768 1.68147 12.6577C1.68147 12.4386 1.76851 12.2285 1.92343 12.0735C2.07837 11.9186 2.2885 11.8315 2.5076 11.8315C2.7267 11.8315 2.93683 11.9186 3.09176 12.0735L11.2518 20.2335ZM8.53112 15.9596L7.36279 14.7913L14.7913 7.36279L15.9596 8.53111L8.53112 15.9596ZM21.4018 11.2556C21.2441 11.4053 21.035 11.4887 20.8177 11.4887C20.6003 11.4887 20.3912 11.4053 20.2335 11.2556L12.0735 3.09559C11.9186 2.94067 11.8315 2.73053 11.8315 2.51143C11.8315 2.29233 11.9186 2.08221 12.0735 1.92727C12.2285 1.77235 12.4386 1.6853 12.6577 1.6853C12.8768 1.6853 13.0869 1.77235 13.2418 1.92727L21.4018 10.0873C21.5539 10.2429 21.639 10.4519 21.639 10.6695C21.639 10.8872 21.5539 11.0961 21.4018 11.2518V11.2556ZM21.9846 7.94935C21.8299 8.10377 21.6203 8.1905 21.4018 8.1905C21.1833 8.1905 20.9738 8.10377 20.8191 7.94935L19.261 6.39031L15.3721 2.50423C15.2171 2.34931 15.1302 2.13917 15.1302 1.92007C15.1302 1.70097 15.2171 1.49085 15.3721 1.33591C15.527 1.18099 15.7372 1.09394 15.9562 1.09394C16.1753 1.09394 16.3855 1.18099 16.5404 1.33591L21.9817 6.77719C22.136 6.93181 22.2228 7.1414 22.2228 7.35991C22.2228 7.57843 22.136 7.78801 21.9817 7.94263L21.9846 7.94935Z" fill="white"/>
</g>
<defs>
<clipPath id="clip0_2710_1567">
<rect width="24" height="24" fill="white"/>
</clipPath>
</defs>
</svg>
