<svg width="24" height="24" viewBox="0 0 24 24" fill="none" xmlns="http://www.w3.org/2000/svg">
<g clip-path="url(#clip0_2720_1585)">
<path d="M22.9663 6.68307L21.606 5.32275L22.1695 4.76211C22.5303 4.40133 22.7329 3.91201 22.7329 3.40179C22.7329 2.89157 22.5303 2.40225 22.1695 2.04147C21.8087 1.68069 21.3194 1.47801 20.8092 1.47801C20.299 1.47801 19.8096 1.68069 19.4489 2.04147L18.8882 2.60211L17.5279 1.24179C17.3495 1.0627 17.1375 0.920597 16.9041 0.823634C16.6706 0.726671 16.4204 0.676758 16.1676 0.676758C15.9148 0.676758 15.6646 0.726671 15.4311 0.823634C15.1976 0.920597 14.9856 1.0627 14.8073 1.24179C14.6046 1.44239 14.4506 1.68671 14.357 1.95603L14.2226 1.82451C13.8619 1.46412 13.3726 1.2618 12.8627 1.26207C12.3527 1.26233 11.8638 1.46517 11.5034 1.82595C11.143 2.18673 10.9407 2.67591 10.941 3.18585C10.9413 3.6958 11.1441 4.18476 11.5049 4.54515L14.2255 7.26579L6.79606 14.6914L4.07543 11.9736C3.89698 11.795 3.68509 11.6533 3.45185 11.5565C3.21863 11.4598 2.96863 11.4099 2.71613 11.4097C2.46362 11.4096 2.21357 11.4592 1.98024 11.5558C1.7469 11.6522 1.53487 11.7937 1.35623 11.9722C1.1776 12.1507 1.03584 12.3625 0.939095 12.5957C0.842343 12.829 0.79248 13.079 0.792346 13.3315C0.792213 13.584 0.841813 13.834 0.938318 14.0674C1.03482 14.3007 1.17634 14.5127 1.35479 14.6914L1.48631 14.8258C1.21697 14.9194 0.972654 15.0734 0.772073 15.276C0.592981 15.4544 0.450874 15.6664 0.353911 15.8998C0.256948 16.1333 0.207031 16.3836 0.207031 16.6364C0.207031 16.8891 0.256948 17.1394 0.353911 17.3729C0.450874 17.6062 0.592981 17.8183 0.772073 17.9967L2.1295 19.357L1.56887 19.9176C1.20808 20.2784 1.00541 20.7677 1.00541 21.278C1.00541 21.7882 1.20808 22.2775 1.56887 22.6383C1.92965 22.999 2.41897 23.2017 2.92918 23.2017C3.4394 23.2017 3.92872 22.999 4.2895 22.6383L4.85014 22.0748L6.21046 23.4351C6.43957 23.6645 6.72305 23.8322 7.03447 23.9225C7.34588 24.0128 7.6751 24.0227 7.9914 23.9515C8.30771 23.8801 8.60079 23.7299 8.84334 23.5147C9.08588 23.2995 9.26998 23.0264 9.37847 22.7208L9.51287 22.8524C9.87364 23.2127 10.3629 23.4151 10.8728 23.4148C11.3828 23.4145 11.8717 23.2117 12.2321 22.8509C12.5925 22.4902 12.7948 22.0009 12.7945 21.491C12.7942 20.981 12.5914 20.4921 12.2306 20.1317L9.50999 17.4111L16.9385 9.9826L19.6591 12.7032C20.0195 13.064 20.5084 13.2669 21.0184 13.2671C21.5283 13.2674 22.0175 13.0651 22.3783 12.7047C22.7391 12.3443 22.9419 11.8554 22.9422 11.3454C22.9425 10.8355 22.7401 10.3462 22.3798 9.98548L22.2482 9.85108C22.5171 9.75652 22.7613 9.60263 22.9625 9.40083C23.3228 9.03979 23.5251 8.55057 23.5251 8.04051C23.5251 7.53045 23.3228 7.04123 22.9625 6.68019L22.9663 6.68307ZM20.2265 2.81907C20.381 2.66453 20.5906 2.57771 20.8092 2.57771C21.0278 2.57771 21.2374 2.66453 21.3919 2.81907C21.5465 2.97362 21.6333 3.18323 21.6333 3.40179C21.6333 3.62035 21.5465 3.82997 21.3919 3.98451L20.8313 4.54803L19.6601 3.37587L20.2265 2.81907ZM3.51095 21.8616C3.3564 22.0162 3.14679 22.103 2.92823 22.103C2.70967 22.103 2.50006 22.0162 2.34551 21.8616C2.19096 21.7071 2.10414 21.4975 2.10414 21.2789C2.10414 21.0603 2.19096 20.8508 2.34551 20.6962L2.90615 20.1327L4.07447 21.301L3.51095 21.8616ZM8.15543 22.6613C7.99995 22.8152 7.79003 22.9015 7.57127 22.9015C7.35251 22.9015 7.14259 22.8152 6.98711 22.6613L1.54583 17.22C1.39091 17.0651 1.30386 16.855 1.30386 16.6359C1.30386 16.4168 1.39091 16.2067 1.54583 16.0517C1.70076 15.8968 1.91089 15.8097 2.12999 15.8097C2.34909 15.8097 2.55922 15.8968 2.71415 16.0517L8.15255 21.493C8.30644 21.6484 8.39276 21.8584 8.39276 22.0772C8.39276 22.2959 8.30644 22.5058 8.15255 22.6613H8.15543ZM11.4588 20.9103C11.6137 21.0652 11.7007 21.2754 11.7007 21.4944C11.7007 21.7135 11.6137 21.9237 11.4588 22.0786C11.3038 22.2335 11.0937 22.3205 10.8746 22.3205C10.6556 22.3205 10.4454 22.2335 10.2905 22.0786L2.13046 13.9186C1.97554 13.7637 1.8885 13.5535 1.8885 13.3344C1.8885 13.1154 1.97554 12.9052 2.13046 12.7503C2.2854 12.5953 2.49553 12.5083 2.71463 12.5083C2.93373 12.5083 3.14386 12.5953 3.29879 12.7503L11.4588 20.9103ZM8.73815 16.6364L7.56982 15.468L14.9983 8.03955L16.1666 9.20787L8.73815 16.6364ZM21.6089 11.9324C21.4511 12.082 21.2421 12.1654 21.0247 12.1654C20.8074 12.1654 20.5982 12.082 20.4406 11.9324L12.2806 3.77235C12.1256 3.61743 12.0385 3.40729 12.0385 3.18819C12.0385 2.96909 12.1256 2.75897 12.2806 2.60403C12.4355 2.44911 12.6456 2.36206 12.8647 2.36206C13.0838 2.36206 13.2939 2.44911 13.4489 2.60403L21.6089 10.764C21.7609 10.9197 21.846 11.1286 21.846 11.3463C21.846 11.5639 21.7609 11.7728 21.6089 11.9285V11.9324ZM22.1916 8.62611C22.0369 8.78053 21.8274 8.86725 21.6089 8.86725C21.3904 8.86725 21.1808 8.78053 21.0262 8.62611L19.4681 7.06707L15.5791 3.18099C15.4242 3.02607 15.3372 2.81593 15.3372 2.59683C15.3372 2.37773 15.4242 2.16761 15.5791 2.01267C15.7341 1.85775 15.9442 1.7707 16.1633 1.7707C16.3823 1.7707 16.5925 1.85775 16.7474 2.01267L22.1887 7.45395C22.3431 7.60857 22.4299 7.81816 22.4299 8.03667C22.4299 8.25519 22.3431 8.46477 22.1887 8.61939L22.1916 8.62611Z" fill="white"/>
</g>
<defs>
<clipPath id="clip0_2720_1585">
<rect width="24" height="24" fill="white"/>
</clipPath>
</defs>
</svg>
