<svg width="24" height="24" viewBox="0 0 24 24" fill="none" xmlns="http://www.w3.org/2000/svg">
<g clip-path="url(#clip0_205_50)">
<path d="M22.9998 1H1.0002C0.734927 1 0.480526 1.12294 0.292953 1.34178C0.10538 1.56062 0 1.85743 0 2.16692V18.5002C0.000207272 18.8096 0.105652 19.1062 0.29318 19.325C0.480708 19.5438 0.734991 19.6668 1.0002 19.6671H7.99922V20.8322H6.00039C5.86765 20.8322 5.74035 20.8937 5.64649 21.0032C5.55263 21.1127 5.49991 21.2612 5.49991 21.4161C5.49991 21.571 5.55263 21.7195 5.64649 21.829C5.74035 21.9385 5.86765 22 6.00039 22H18.0004C18.1331 22 18.2604 21.9385 18.3543 21.829C18.4482 21.7195 18.5009 21.571 18.5009 21.4161C18.5009 21.2612 18.4482 21.1127 18.3543 21.0032C18.2604 20.8937 18.1331 20.8322 18.0004 20.8322H16.0008V19.668H22.9998C23.265 19.6677 23.5193 19.5447 23.7068 19.3259C23.8943 19.1072 23.9998 18.8105 24 18.5011V2.16692C24 1.85743 23.8946 1.56062 23.7071 1.34178C23.5195 1.12294 23.2651 1 22.9998 1ZM1.0002 2.16692H22.9998V16.1681H1.0002V2.16692ZM15.0006 20.8331H9.0002V19.668H15.0006V20.8331ZM12.0008 18.5002H1.0002V17.3332H22.9998V18.5002H12.0008Z" fill="white" stroke="white" stroke-width="0.5"/>
</g>
<defs>
<clipPath id="clip0_205_50">
<rect width="24" height="24" fill="white"/>
</clipPath>
</defs>
</svg>
