<svg width="24" height="24" viewBox="0 0 24 24" fill="none" xmlns="http://www.w3.org/2000/svg">
<g clip-path="url(#clip0_205_80)">
<path d="M4.0705 5.99986C4.63395 5.99986 5.18475 5.82391 5.65325 5.49428C6.12174 5.16464 6.4869 4.69612 6.70252 4.14795C6.91815 3.59979 6.97456 2.9966 6.86463 2.41467C6.75471 1.83274 6.48338 1.29821 6.08496 0.878658C5.68653 0.45911 5.17892 0.173398 4.62629 0.057645C4.07367 -0.058108 3.50085 0.00129743 2.98028 0.228355C2.45972 0.455413 2.01478 0.839923 1.70174 1.33326C1.38871 1.8266 1.22163 2.4066 1.22163 2.99993C1.22246 3.7953 1.52287 4.55783 2.05696 5.12024C2.59105 5.68264 3.31518 5.99899 4.0705 5.99986ZM4.0705 0.85712C4.47296 0.85712 4.86639 0.982796 5.20103 1.21825C5.53567 1.45371 5.7965 1.78836 5.95052 2.17991C6.10453 2.57146 6.14483 3.00231 6.06631 3.41797C5.98779 3.83364 5.79398 4.21544 5.5094 4.51512C5.22481 4.8148 4.86223 5.01888 4.46749 5.10157C4.07276 5.18425 3.6636 5.14181 3.29177 4.97962C2.91994 4.81744 2.60213 4.54279 2.37853 4.19041C2.15493 3.83803 2.03559 3.42374 2.03559 2.99993C2.03614 2.4318 2.25072 1.88711 2.63222 1.48538C3.01372 1.08365 3.53097 0.857702 4.0705 0.85712Z" fill="white"/>
<path d="M6.5124 6.857H1.62861C1.41311 6.85031 1.19858 6.89009 0.998195 6.97387C0.797814 7.05765 0.615818 7.18368 0.463367 7.34421C0.310915 7.50475 0.191234 7.69639 0.111671 7.9074C0.0321081 8.11841 -0.00566457 8.34431 0.000686489 8.57124V14.5711C-0.00566457 14.798 0.0321081 15.0239 0.111671 15.235C0.191234 15.446 0.310915 15.6376 0.463367 15.7981C0.615818 15.9587 0.797814 16.0847 0.998195 16.1685C1.19858 16.2523 1.41311 16.292 1.62861 16.2854V22.7138C1.62385 22.884 1.65217 23.0534 1.71184 23.2117C1.77151 23.3699 1.86129 23.5137 1.97563 23.6341C2.08996 23.7545 2.22646 23.849 2.37675 23.9118C2.52703 23.9746 2.68792 24.0045 2.84955 23.9995H5.29146C5.45309 24.0045 5.61398 23.9746 5.76426 23.9118C5.91455 23.849 6.05105 23.7545 6.16539 23.6341C6.27972 23.5137 6.36948 23.3699 6.42915 23.2117C6.48883 23.0534 6.51716 22.884 6.5124 22.7138V16.2854C6.72791 16.292 6.94243 16.2523 7.14282 16.1685C7.3432 16.0847 7.52519 15.9587 7.67764 15.7981C7.8301 15.6376 7.94978 15.446 8.02934 15.235C8.1089 15.0239 8.14668 14.798 8.14032 14.5711V8.57124C8.14668 8.34431 8.1089 8.11841 8.02934 7.9074C7.94978 7.69639 7.8301 7.50475 7.67764 7.34421C7.52519 7.18368 7.3432 7.05765 7.14282 6.97387C6.94243 6.89009 6.72791 6.85031 6.5124 6.857ZM7.32636 14.5711C7.33342 14.6856 7.31719 14.8003 7.27878 14.9077C7.24037 15.0151 7.18067 15.1126 7.10363 15.1937C7.02659 15.2748 6.934 15.3377 6.83204 15.3781C6.73009 15.4186 6.62112 15.4357 6.5124 15.4282H5.69844V22.7094C5.70442 22.7674 5.69805 22.8262 5.67979 22.8813C5.66153 22.9365 5.63184 22.9867 5.59287 23.0282C5.5539 23.0698 5.50663 23.1017 5.45449 23.1216C5.40236 23.1416 5.34667 23.149 5.29146 23.1434H2.84955C2.79478 23.1491 2.7395 23.1419 2.68769 23.1223C2.63589 23.1028 2.58884 23.0714 2.54993 23.0304C2.51101 22.9894 2.48121 22.9399 2.46265 22.8853C2.44409 22.8308 2.43723 22.7726 2.44257 22.7149V15.4282H1.62861C1.51989 15.4357 1.41092 15.4186 1.30897 15.3781C1.20701 15.3377 1.11442 15.2748 1.03738 15.1937C0.960344 15.1126 0.900637 15.0151 0.862227 14.9077C0.823818 14.8003 0.807592 14.6856 0.814649 14.5711V8.57124C0.807592 8.45676 0.823818 8.34201 0.862227 8.23465C0.900637 8.12729 0.960344 8.02979 1.03738 7.94866C1.11442 7.86754 1.20701 7.80467 1.30897 7.76422C1.41092 7.72377 1.51989 7.70669 1.62861 7.71412H6.5124C6.62112 7.70669 6.73009 7.72377 6.83204 7.76422C6.934 7.80467 7.02659 7.86754 7.10363 7.94866C7.18067 8.02979 7.24037 8.12729 7.27878 8.23465C7.31719 8.34201 7.33342 8.45676 7.32636 8.57124V14.5711Z" fill="white"/>
<path d="M18.7219 5.99986C19.2853 5.99986 19.8361 5.82391 20.3046 5.49428C20.7731 5.16464 21.1382 4.69612 21.3539 4.14795C21.5695 3.59979 21.6259 2.9966 21.516 2.41467C21.406 1.83274 21.1347 1.29821 20.7363 0.878658C20.3379 0.45911 19.8303 0.173398 19.2776 0.057645C18.725 -0.058108 18.1522 0.00129743 17.6316 0.228355C17.1111 0.455413 16.6661 0.839923 16.3531 1.33326C16.0401 1.8266 15.873 2.4066 15.873 2.99993C15.8738 3.7953 16.1742 4.55783 16.7083 5.12024C17.2424 5.68264 17.9665 5.99899 18.7219 5.99986ZM18.7219 0.85712C19.1243 0.85712 19.5177 0.982796 19.8524 1.21825C20.187 1.45371 20.4478 1.78836 20.6019 2.17991C20.7559 2.57146 20.7962 3.00231 20.7176 3.41797C20.6391 3.83364 20.4453 4.21544 20.1607 4.51512C19.8762 4.8148 19.5136 5.01888 19.1188 5.10157C18.7241 5.18425 18.315 5.14181 17.9431 4.97962C17.5713 4.81744 17.2535 4.54279 17.0299 4.19041C16.8063 3.83803 16.6869 3.42374 16.6869 2.99993C16.6875 2.4318 16.9021 1.88711 17.2836 1.48538C17.6651 1.08365 18.1823 0.857702 18.7219 0.85712Z" fill="white"/>
<path d="M23.9594 16.5106L21.3505 8.03279C21.2496 7.6934 21.0489 7.39658 20.7772 7.18522C20.5056 6.97387 20.1772 6.85893 19.8395 6.857H17.6C17.2623 6.85893 16.9339 6.97387 16.6623 7.18522C16.3907 7.39658 16.1899 7.6934 16.089 8.03279L13.4801 16.5106C13.4273 16.6832 13.4139 16.8665 13.4409 17.0456C13.4679 17.2246 13.5346 17.3945 13.6356 17.5414C13.7324 17.6834 13.8599 17.799 14.0077 17.8787C14.1554 17.9584 14.3191 17.9999 14.4851 17.9996H16.3634L16.7266 22.7138C16.7205 22.8822 16.747 23.0502 16.8047 23.2074C16.8624 23.3647 16.9499 23.5078 17.062 23.6282C17.1741 23.7486 17.3082 23.8436 17.4564 23.9074C17.6045 23.9713 17.7635 24.0026 17.9235 23.9995H19.5035C19.661 24.0036 19.8177 23.9742 19.9641 23.9129C20.1105 23.8515 20.2436 23.7596 20.3553 23.6427C20.4671 23.5257 20.5552 23.3861 20.6143 23.2323C20.6734 23.0785 20.7024 22.9137 20.6994 22.7478L21.0646 17.9996H22.943C23.109 17.9999 23.2726 17.9584 23.4204 17.8787C23.5681 17.799 23.6956 17.6834 23.7924 17.5414C23.8933 17.3944 23.9598 17.2245 23.9866 17.0454C24.0135 16.8663 23.9998 16.6831 23.9469 16.5106H23.9594ZM23.1465 17.037C23.1255 17.0702 23.0971 17.0976 23.0639 17.1168C23.0306 17.1359 22.9934 17.1462 22.9555 17.1469H20.3227L19.8959 22.7182C19.902 22.7738 19.8965 22.8303 19.8798 22.8835C19.8631 22.9367 19.8355 22.9855 19.799 23.0263C19.7626 23.0671 19.718 23.099 19.6686 23.1198C19.6192 23.1406 19.566 23.1498 19.5129 23.1467H17.9329C17.6199 23.1467 17.5541 22.9116 17.5489 22.6841L17.1242 17.1469H14.4913C14.4534 17.1461 14.4163 17.1358 14.383 17.1166C14.3498 17.0975 14.3214 17.0702 14.3004 17.037C14.2745 16.9996 14.2575 16.9563 14.2508 16.9106C14.2441 16.8649 14.2478 16.8182 14.2617 16.7743L16.8706 8.29652C16.9189 8.1297 17.0162 7.98335 17.1487 7.87866C17.2811 7.77396 17.4417 7.71635 17.6073 7.71412H19.8489C20.0145 7.71635 20.1751 7.77396 20.3075 7.87866C20.44 7.98335 20.5374 8.1297 20.5856 8.29652L23.1945 16.7743C23.2084 16.8182 23.2121 16.8649 23.2054 16.9106C23.1987 16.9563 23.1817 16.9996 23.1559 17.037H23.1465Z" fill="white"/>
<path d="M10.9892 0H11.8032V23.9994H10.9892V0Z" fill="white"/>
<path d="M4.0705 5.99986C4.63395 5.99986 5.18475 5.82391 5.65325 5.49428C6.12174 5.16464 6.4869 4.69612 6.70252 4.14795C6.91815 3.59979 6.97456 2.9966 6.86463 2.41467C6.75471 1.83274 6.48338 1.29821 6.08496 0.878658C5.68653 0.45911 5.17892 0.173398 4.62629 0.057645C4.07367 -0.058108 3.50085 0.00129743 2.98028 0.228355C2.45972 0.455413 2.01478 0.839923 1.70174 1.33326C1.38871 1.8266 1.22163 2.4066 1.22163 2.99993C1.22246 3.7953 1.52287 4.55783 2.05696 5.12024C2.59105 5.68264 3.31518 5.99899 4.0705 5.99986ZM4.0705 0.85712C4.47296 0.85712 4.86639 0.982796 5.20103 1.21825C5.53567 1.45371 5.7965 1.78836 5.95052 2.17991C6.10453 2.57146 6.14483 3.00231 6.06631 3.41797C5.98779 3.83364 5.79398 4.21544 5.5094 4.51512C5.22481 4.8148 4.86223 5.01888 4.46749 5.10157C4.07276 5.18425 3.6636 5.14181 3.29177 4.97962C2.91994 4.81744 2.60213 4.54279 2.37853 4.19041C2.15493 3.83803 2.03559 3.42374 2.03559 2.99993C2.03614 2.4318 2.25072 1.88711 2.63222 1.48538C3.01372 1.08365 3.53097 0.857702 4.0705 0.85712Z" stroke="white" stroke-width="0.3"/>
<path d="M6.5124 6.857H1.62861C1.41311 6.85031 1.19858 6.89009 0.998195 6.97387C0.797814 7.05765 0.615818 7.18368 0.463367 7.34421C0.310915 7.50475 0.191234 7.69639 0.111671 7.9074C0.0321081 8.11841 -0.00566457 8.34431 0.000686489 8.57124V14.5711C-0.00566457 14.798 0.0321081 15.0239 0.111671 15.235C0.191234 15.446 0.310915 15.6376 0.463367 15.7981C0.615818 15.9587 0.797814 16.0847 0.998195 16.1685C1.19858 16.2523 1.41311 16.292 1.62861 16.2854V22.7138C1.62385 22.884 1.65217 23.0534 1.71184 23.2117C1.77151 23.3699 1.86129 23.5137 1.97563 23.6341C2.08996 23.7545 2.22646 23.849 2.37675 23.9118C2.52703 23.9746 2.68792 24.0045 2.84955 23.9995H5.29146C5.45309 24.0045 5.61398 23.9746 5.76426 23.9118C5.91455 23.849 6.05105 23.7545 6.16539 23.6341C6.27972 23.5137 6.36948 23.3699 6.42915 23.2117C6.48883 23.0534 6.51716 22.884 6.5124 22.7138V16.2854C6.72791 16.292 6.94243 16.2523 7.14282 16.1685C7.3432 16.0847 7.52519 15.9587 7.67764 15.7981C7.8301 15.6376 7.94978 15.446 8.02934 15.235C8.1089 15.0239 8.14668 14.798 8.14032 14.5711V8.57124C8.14668 8.34431 8.1089 8.11841 8.02934 7.9074C7.94978 7.69639 7.8301 7.50475 7.67764 7.34421C7.52519 7.18368 7.3432 7.05765 7.14282 6.97387C6.94243 6.89009 6.72791 6.85031 6.5124 6.857ZM7.32636 14.5711C7.33342 14.6856 7.31719 14.8003 7.27878 14.9077C7.24037 15.0151 7.18067 15.1126 7.10363 15.1937C7.02659 15.2748 6.934 15.3377 6.83204 15.3781C6.73009 15.4186 6.62112 15.4357 6.5124 15.4282H5.69844V22.7094C5.70442 22.7674 5.69805 22.8262 5.67979 22.8813C5.66153 22.9365 5.63184 22.9867 5.59287 23.0282C5.5539 23.0698 5.50663 23.1017 5.45449 23.1216C5.40236 23.1416 5.34667 23.149 5.29146 23.1434H2.84955C2.79478 23.1491 2.7395 23.1419 2.68769 23.1223C2.63589 23.1028 2.58884 23.0714 2.54993 23.0304C2.51101 22.9894 2.48121 22.9399 2.46265 22.8853C2.44409 22.8308 2.43723 22.7726 2.44257 22.7149V15.4282H1.62861C1.51989 15.4357 1.41092 15.4186 1.30897 15.3781C1.20701 15.3377 1.11442 15.2748 1.03738 15.1937C0.960344 15.1126 0.900637 15.0151 0.862227 14.9077C0.823818 14.8003 0.807592 14.6856 0.814649 14.5711V8.57124C0.807592 8.45676 0.823818 8.34201 0.862227 8.23465C0.900637 8.12729 0.960344 8.02979 1.03738 7.94866C1.11442 7.86754 1.20701 7.80467 1.30897 7.76422C1.41092 7.72377 1.51989 7.70669 1.62861 7.71412H6.5124C6.62112 7.70669 6.73009 7.72377 6.83204 7.76422C6.934 7.80467 7.02659 7.86754 7.10363 7.94866C7.18067 8.02979 7.24037 8.12729 7.27878 8.23465C7.31719 8.34201 7.33342 8.45676 7.32636 8.57124V14.5711Z" stroke="white" stroke-width="0.3"/>
<path d="M18.7219 5.99986C19.2853 5.99986 19.8361 5.82391 20.3046 5.49428C20.7731 5.16464 21.1382 4.69612 21.3539 4.14795C21.5695 3.59979 21.6259 2.9966 21.516 2.41467C21.406 1.83274 21.1347 1.29821 20.7363 0.878658C20.3379 0.45911 19.8303 0.173398 19.2776 0.057645C18.725 -0.058108 18.1522 0.00129743 17.6316 0.228355C17.1111 0.455413 16.6661 0.839923 16.3531 1.33326C16.0401 1.8266 15.873 2.4066 15.873 2.99993C15.8738 3.7953 16.1742 4.55783 16.7083 5.12024C17.2424 5.68264 17.9665 5.99899 18.7219 5.99986ZM18.7219 0.85712C19.1243 0.85712 19.5177 0.982796 19.8524 1.21825C20.187 1.45371 20.4478 1.78836 20.6019 2.17991C20.7559 2.57146 20.7962 3.00231 20.7176 3.41797C20.6391 3.83364 20.4453 4.21544 20.1607 4.51512C19.8762 4.8148 19.5136 5.01888 19.1188 5.10157C18.7241 5.18425 18.315 5.14181 17.9431 4.97962C17.5713 4.81744 17.2535 4.54279 17.0299 4.19041C16.8063 3.83803 16.6869 3.42374 16.6869 2.99993C16.6875 2.4318 16.9021 1.88711 17.2836 1.48538C17.6651 1.08365 18.1823 0.857702 18.7219 0.85712Z" stroke="white" stroke-width="0.3"/>
<path d="M23.9594 16.5106L21.3505 8.03279C21.2496 7.6934 21.0489 7.39658 20.7772 7.18522C20.5056 6.97387 20.1772 6.85893 19.8395 6.857H17.6C17.2623 6.85893 16.9339 6.97387 16.6623 7.18522C16.3907 7.39658 16.1899 7.6934 16.089 8.03279L13.4801 16.5106C13.4273 16.6832 13.4139 16.8665 13.4409 17.0456C13.4679 17.2246 13.5346 17.3945 13.6356 17.5414C13.7324 17.6834 13.8599 17.799 14.0077 17.8787C14.1554 17.9584 14.3191 17.9999 14.4851 17.9996H16.3634L16.7266 22.7138C16.7205 22.8822 16.747 23.0502 16.8047 23.2074C16.8624 23.3647 16.9499 23.5078 17.062 23.6282C17.1741 23.7486 17.3082 23.8436 17.4564 23.9074C17.6045 23.9713 17.7635 24.0026 17.9235 23.9995H19.5035C19.661 24.0036 19.8177 23.9742 19.9641 23.9129C20.1105 23.8515 20.2436 23.7596 20.3553 23.6427C20.4671 23.5257 20.5552 23.3861 20.6143 23.2323C20.6734 23.0785 20.7024 22.9137 20.6994 22.7478L21.0646 17.9996H22.943C23.109 17.9999 23.2726 17.9584 23.4204 17.8787C23.5681 17.799 23.6956 17.6834 23.7924 17.5414C23.8933 17.3944 23.9598 17.2245 23.9866 17.0454C24.0135 16.8663 23.9998 16.6831 23.9469 16.5106H23.9594ZM23.1465 17.037C23.1255 17.0702 23.0971 17.0976 23.0639 17.1168C23.0306 17.1359 22.9934 17.1462 22.9555 17.1469H20.3227L19.8959 22.7182C19.902 22.7738 19.8965 22.8303 19.8798 22.8835C19.8631 22.9367 19.8355 22.9855 19.799 23.0263C19.7626 23.0671 19.718 23.099 19.6686 23.1198C19.6192 23.1406 19.566 23.1498 19.5129 23.1467H17.9329C17.6199 23.1467 17.5541 22.9116 17.5489 22.6841L17.1242 17.1469H14.4913C14.4534 17.1461 14.4163 17.1358 14.383 17.1166C14.3498 17.0975 14.3214 17.0702 14.3004 17.037C14.2745 16.9996 14.2575 16.9563 14.2508 16.9106C14.2441 16.8649 14.2478 16.8182 14.2617 16.7743L16.8706 8.29652C16.9189 8.1297 17.0162 7.98335 17.1487 7.87866C17.2811 7.77396 17.4417 7.71635 17.6073 7.71412H19.8489C20.0145 7.71635 20.1751 7.77396 20.3075 7.87866C20.44 7.98335 20.5374 8.1297 20.5856 8.29652L23.1945 16.7743C23.2084 16.8182 23.2121 16.8649 23.2054 16.9106C23.1987 16.9563 23.1817 16.9996 23.1559 17.037H23.1465Z" stroke="white" stroke-width="0.3"/>
<path d="M10.9892 0H11.8032V23.9994H10.9892V0Z" stroke="white" stroke-width="0.3"/>
</g>
<defs>
<clipPath id="clip0_205_80">
<rect width="24" height="24" fill="white"/>
</clipPath>
</defs>
</svg>
