<svg width="56" height="56" viewBox="0 0 56 56" fill="none" xmlns="http://www.w3.org/2000/svg">
<path d="M14.262 44.589C14.385 44.591 14.5072 44.5687 14.6216 44.5234C14.7359 44.4781 14.8403 44.4108 14.9286 44.3251C15.0169 44.2395 15.0875 44.1373 15.1363 44.0244C15.1851 43.9114 15.2112 43.79 15.213 43.667V32.61H18.066C18.189 32.612 18.3112 32.5897 18.4256 32.5444C18.5399 32.4991 18.6443 32.4318 18.7326 32.3461C18.8209 32.2605 18.8915 32.1583 18.9403 32.0454C18.9891 31.9324 19.0152 31.811 19.017 31.688V25.236C18.9959 23.9951 18.4836 22.8131 17.5925 21.9493C16.7013 21.0855 15.504 20.6103 14.263 20.628H13.749C14.6868 19.629 15.2104 18.3112 15.214 16.941C15.1659 15.46 14.5438 14.0556 13.4792 13.025C12.4145 11.9943 10.9908 11.418 9.50898 11.418C8.02716 11.418 6.60342 11.9943 5.53877 13.025C4.47412 14.0556 3.85201 15.46 3.80398 16.941C3.80759 18.3112 4.33119 19.629 5.26897 20.628H4.75497C3.51399 20.6103 2.31665 21.0855 1.42548 21.9493C0.534302 22.8131 0.0220304 23.9951 0.000976562 25.236V31.688C0.00280059 31.811 0.0288572 31.9324 0.077652 32.0454C0.126447 32.1583 0.197022 32.2605 0.285347 32.3461C0.373672 32.4318 0.478014 32.4991 0.5924 32.5444C0.706786 32.5897 0.828976 32.612 0.951981 32.61H3.79898V43.67C3.8008 43.793 3.82685 43.9144 3.87565 44.0274C3.92444 44.1403 3.99503 44.2425 4.08335 44.3281C4.17168 44.4138 4.27601 44.4811 4.3904 44.5264C4.50478 44.5717 4.62697 44.594 4.74998 44.592L14.262 44.589ZM5.70498 16.94C5.68148 16.1826 5.88463 15.4355 6.28841 14.7943C6.6922 14.1532 7.27822 13.6472 7.97139 13.3411C8.66456 13.0351 9.43332 12.943 10.1792 13.0766C10.925 13.2102 11.614 13.5635 12.1578 14.0911C12.7016 14.6188 13.0755 15.2968 13.2316 16.0383C13.3876 16.7797 13.3188 17.5509 13.0338 18.253C12.7488 18.9551 12.2607 19.5561 11.632 19.9791C11.0033 20.402 10.2627 20.6276 9.50497 20.627C8.51261 20.6404 7.55541 20.2598 6.84312 19.5687C6.13084 18.8776 5.72156 17.9323 5.70498 16.94ZM8.55698 32.61V42.748H5.70498V25.235H3.79898V30.765H1.89898V25.235C1.91161 24.4903 2.21905 23.781 2.75388 23.2627C3.2887 22.7444 4.00726 22.4593 4.75198 22.47H14.261C15.0057 22.4593 15.7243 22.7444 16.2591 23.2627C16.7939 23.781 17.1013 24.4903 17.114 25.235V30.765H15.214V25.235H13.314V42.746H10.459V32.61H8.55698Z" fill="#00616E"/>
<path d="M51.246 20.626H50.732C51.6698 19.627 52.1934 18.3092 52.197 16.939C52.149 15.458 51.5268 14.0537 50.4622 13.023C49.3975 11.9923 47.9738 11.416 46.492 11.416C45.0102 11.416 43.5864 11.9923 42.5218 13.023C41.4571 14.0537 40.835 15.458 40.787 16.939C40.7906 18.3092 41.3142 19.627 42.252 20.626H41.738C40.497 20.6084 39.2997 21.0835 38.4085 21.9473C37.5173 22.8111 37.0051 23.9931 36.984 25.234V31.686C36.9858 31.809 37.0119 31.9305 37.0607 32.0434C37.1095 32.1563 37.18 32.2585 37.2684 32.3442C37.3567 32.4298 37.461 32.4972 37.5754 32.5424C37.6898 32.5877 37.812 32.61 37.935 32.608H40.782V43.668C40.7838 43.791 40.8099 43.9125 40.8587 44.0254C40.9075 44.1383 40.9781 44.2405 41.0664 44.3261C41.1547 44.4118 41.259 44.4792 41.3734 44.5244C41.4878 44.5697 41.61 44.592 41.733 44.59H51.242C51.365 44.592 51.4872 44.5697 51.6016 44.5244C51.7159 44.4792 51.8203 44.4118 51.9086 44.3261C51.997 44.2405 52.0675 44.1383 52.1163 44.0254C52.1651 43.9125 52.1912 43.791 52.193 43.668V32.61H55.046C55.169 32.612 55.2912 32.5897 55.4056 32.5444C55.52 32.4992 55.6243 32.4318 55.7126 32.3462C55.8009 32.2605 55.8715 32.1583 55.9203 32.0454C55.9691 31.9325 55.9952 31.811 55.997 31.688V25.236C55.9765 23.9953 55.4648 22.8133 54.5742 21.9491C53.6837 21.085 52.4868 20.6092 51.246 20.626ZM42.688 16.939C42.6645 16.1817 42.8676 15.4345 43.2714 14.7934C43.6752 14.1522 44.2612 13.6462 44.9544 13.3401C45.6476 13.0341 46.4163 12.942 47.1622 13.0756C47.908 13.2093 48.597 13.5625 49.1408 14.0902C49.6846 14.6178 50.0585 15.2958 50.2146 16.0373C50.3706 16.7787 50.3018 17.5499 50.0168 18.252C49.7318 18.9541 49.2437 19.5551 48.6151 19.9781C47.9864 20.401 47.2457 20.6266 46.488 20.626C45.4958 20.6394 44.5387 20.259 43.8265 19.5681C43.1142 18.8772 42.7048 17.9312 42.688 16.939ZM54.098 30.764H52.198V25.234H50.298V42.745H47.442V32.61H45.542V42.748H42.689V25.235H40.789V30.765H38.889V25.235C38.9016 24.4905 39.2089 23.7814 39.7435 23.2631C40.2781 22.7448 40.9965 22.4596 41.741 22.47H51.25C51.9945 22.4596 52.7128 22.7448 53.2474 23.2631C53.782 23.7814 54.0894 24.4905 54.102 25.235L54.098 30.764Z" fill="#02DEFC"/>
<path d="M45.54 4.754V6.262L43.36 4.082L42.016 5.426L45.816 9.226C45.9042 9.31429 46.009 9.38433 46.1243 9.43212C46.2396 9.4799 46.3632 9.5045 46.488 9.5045C46.6128 9.5045 46.7364 9.4799 46.8517 9.43212C46.967 9.38433 47.0717 9.31429 47.16 9.226L50.96 5.426L49.616 4.082L47.435 6.262V4.754C47.4337 3.49357 46.9324 2.28514 46.0411 1.39388C45.1498 0.502616 43.9414 0.00132357 42.681 0H20.818V1.9H42.687C43.4434 1.90079 44.1686 2.20163 44.7035 2.7365C45.2384 3.27137 45.5392 3.99758 45.54 4.754Z" fill="#00616E"/>
<path d="M10.464 4.754C10.4645 3.99827 10.7645 3.27356 11.2984 2.73862C11.8322 2.20368 12.5563 1.90212 13.312 1.9H19.968V0H13.312C12.0515 0.00132357 10.8431 0.502616 9.95186 1.39388C9.0606 2.28514 8.55931 3.49357 8.55798 4.754V9.508H10.458L10.464 4.754Z" fill="#00616E"/>
<path d="M45.493 51.245V49.737L43.313 51.917L41.969 50.572L45.769 46.772C45.8572 46.6837 45.962 46.6137 46.0773 46.5659C46.1926 46.5181 46.3162 46.4935 46.441 46.4935C46.5658 46.4935 46.6894 46.5181 46.8047 46.5659C46.92 46.6137 47.0248 46.6837 47.113 46.772L50.913 50.572L49.569 51.917L47.388 49.737V51.245C47.3867 52.5054 46.8854 53.7139 45.9941 54.6051C45.1028 55.4964 43.8944 55.9977 42.634 55.999H24.574V54.099H42.64C43.3964 54.0982 44.1216 53.7974 44.6565 53.2625C45.1913 52.7276 45.4922 52.0024 45.493 51.246V51.245Z" fill="#00616E"/>
<path d="M23.308 54.098H21.408V55.998H23.308V54.098Z" fill="#00616E"/>
<path d="M10.416 51.245C10.4168 52.0014 10.7176 52.7266 11.2525 53.2615C11.7874 53.7964 12.5126 54.0972 13.269 54.098H19.925V55.998H13.264C12.0036 55.9967 10.7951 55.4954 9.90387 54.6041C9.01261 53.7129 8.51133 52.5044 8.51001 51.244V46.491H10.41L10.416 51.245Z" fill="#00616E"/>
</svg>
