<svg width="24" height="24" viewBox="0 0 24 24" fill="none" xmlns="http://www.w3.org/2000/svg">
<g clip-path="url(#clip0_205_77)">
<path d="M4.85321 11.726V11.0922H13.0516C13.2027 11.0922 13.3523 11.1173 13.4919 11.1663C13.6314 11.2152 13.7582 11.2869 13.8648 11.3773C13.9715 11.4677 14.0559 11.575 14.1133 11.693C14.1707 11.811 14.1999 11.9374 14.1993 12.065V12.8089H13.8629C13.7373 12.8089 13.6168 12.851 13.5279 12.926C13.4391 13.001 13.3892 13.1027 13.3892 13.2088V14.8085C13.3892 14.9146 13.4391 15.0163 13.5279 15.0913C13.6168 15.1663 13.7373 15.2085 13.8629 15.2085H20.7762C20.9019 15.2085 21.0224 15.1663 21.1112 15.0913C21.2001 15.0163 21.25 14.9146 21.25 14.8085V13.2088C21.25 13.1027 21.2001 13.001 21.1112 12.926C21.0224 12.851 20.9019 12.8089 20.7762 12.8089H20.4351V10.6922C20.4326 9.40344 19.8247 8.16811 18.7447 7.25718C17.6648 6.34625 16.2009 5.83409 14.6742 5.83303H12.2462C12.1542 5.48714 11.9394 5.17319 11.6303 4.93318C11.6326 4.91056 11.6326 4.88781 11.6303 4.86519V2.17564H12.6454C12.821 2.18464 12.997 2.1632 13.1624 2.11265C13.3279 2.0621 13.4793 1.98351 13.6075 1.88171C13.7356 1.7799 13.8377 1.65704 13.9075 1.52069C13.9773 1.38433 14.0133 1.23736 14.0133 1.08882C14.0133 0.940278 13.9773 0.793307 13.9075 0.65695C13.8377 0.520594 13.7356 0.397734 13.6075 0.29593C13.4793 0.194127 13.3279 0.115534 13.1624 0.0649851C12.997 0.0144364 12.821 -0.00699864 12.6454 0.00199972H7.77393C7.59829 -0.00699864 7.42234 0.0144364 7.25688 0.0649851C7.09142 0.115534 6.93996 0.194127 6.81183 0.29593C6.68369 0.397734 6.58158 0.520594 6.51179 0.65695C6.44199 0.793307 6.40599 0.940278 6.40599 1.08882C6.40599 1.23736 6.44199 1.38433 6.51179 1.52069C6.58158 1.65704 6.68369 1.7799 6.81183 1.88171C6.93996 1.98351 7.09142 2.0621 7.25688 2.11265C7.42234 2.1632 7.59829 2.18464 7.77393 2.17564H8.78895V4.86119C8.78661 4.88381 8.78661 4.90656 8.78895 4.92918C8.47468 5.16755 8.25473 5.48167 8.15886 5.82903H4.84254V5.20013C4.84254 5.09406 4.79263 4.99234 4.70378 4.91734C4.61494 4.84234 4.49444 4.8002 4.36879 4.8002H2.47375C2.3481 4.8002 2.22761 4.84234 2.13876 4.91734C2.04991 4.99234 2 5.09406 2 5.20013V11.7201C2 11.8261 2.04991 11.9278 2.13876 12.0028C2.22761 12.0778 2.3481 12.12 2.47375 12.12H4.36879C4.43258 12.1221 4.49623 12.1134 4.55591 12.0943C4.6156 12.0751 4.67009 12.046 4.71611 12.0087C4.76213 11.9713 4.79873 11.9265 4.82371 11.8769C4.8487 11.8273 4.86155 11.7739 4.8615 11.7201L4.85321 11.726ZM20.3001 14.4116H14.3355V13.6117H20.3001V14.4116ZM7.42808 1.08682C7.42807 1.04919 7.43694 1.01194 7.45414 0.977223C7.47134 0.942509 7.49653 0.911027 7.52827 0.884606C7.56001 0.858186 7.59766 0.837354 7.63902 0.823322C7.68038 0.809289 7.72463 0.802337 7.7692 0.802867H12.643C12.6908 0.798082 12.7393 0.801907 12.7853 0.814092C12.8313 0.826277 12.8737 0.846545 12.9097 0.873561C12.9457 0.900577 12.9745 0.933728 12.9943 0.970831C13.014 1.00793 13.0242 1.04815 13.0242 1.08882C13.0242 1.12949 13.014 1.1697 12.9943 1.20681C12.9745 1.24391 12.9457 1.27706 12.9097 1.30407C12.8737 1.33109 12.8313 1.35136 12.7853 1.36355C12.7393 1.37573 12.6908 1.37956 12.643 1.37477H7.77393C7.72914 1.37477 7.68478 1.36732 7.64339 1.35285C7.60201 1.33838 7.56441 1.31717 7.53274 1.29043C7.50106 1.26369 7.47593 1.23195 7.45878 1.19701C7.44164 1.16208 7.43283 1.12463 7.43283 1.08682H7.42808ZM9.73174 4.46126V2.17564H10.6793V4.46126H9.73174ZM10.2055 5.26112C10.4267 5.26179 10.6431 5.31602 10.8289 5.4174C11.0147 5.51877 11.1621 5.66303 11.2537 5.83303H9.1585C9.25007 5.66303 9.39749 5.51877 9.58329 5.4174C9.76909 5.31602 9.98546 5.26179 10.2067 5.26112H10.2055ZM14.6719 6.63389C15.9469 6.63495 17.1695 7.06273 18.0715 7.82347C18.9736 8.58421 19.4815 9.61584 19.4841 10.6922V12.8099H15.1456V12.066C15.1456 11.5964 14.9251 11.146 14.5323 10.8136C14.1396 10.4811 13.6066 10.2936 13.0504 10.2923H4.85203V6.63489L14.6719 6.63389ZM3.90451 11.3251H2.95699V5.60607H3.90451V11.3251Z" fill="white"/>
<path d="M20.447 21.3584C20.447 20.0217 17.9763 17.2591 17.6921 16.9592C17.6478 16.9108 17.591 16.8717 17.526 16.8447C17.4611 16.8178 17.3896 16.8038 17.3172 16.8038C17.2448 16.8038 17.1734 16.8178 17.1084 16.8447C17.0434 16.8717 16.9866 16.9108 16.9424 16.9592C16.6581 17.2711 14.1874 20.0287 14.1874 21.3584C14.1874 22.059 14.5171 22.7309 15.104 23.2263C15.6908 23.7217 16.4867 24 17.3166 24C18.1465 24 18.9425 23.7217 19.5293 23.2263C20.1161 22.7309 20.4458 22.059 20.4458 21.3584H20.447ZM17.3178 23.1991C16.7395 23.1991 16.1849 23.0052 15.776 22.66C15.3671 22.3148 15.1373 21.8466 15.1373 21.3584C15.1373 20.6586 16.3513 18.9968 17.3178 17.868C18.2653 18.9968 19.4983 20.6675 19.4983 21.3584C19.4983 21.8466 19.2686 22.3148 18.8596 22.66C18.4507 23.0052 17.8961 23.1991 17.3178 23.1991Z" fill="white"/>
<path d="M4.85321 11.726V11.0922H13.0516C13.2027 11.0922 13.3523 11.1173 13.4919 11.1663C13.6314 11.2152 13.7582 11.2869 13.8648 11.3773C13.9715 11.4677 14.0559 11.575 14.1133 11.693C14.1707 11.811 14.1999 11.9374 14.1993 12.065V12.8089H13.8629C13.7373 12.8089 13.6168 12.851 13.5279 12.926C13.4391 13.001 13.3892 13.1027 13.3892 13.2088V14.8085C13.3892 14.9146 13.4391 15.0163 13.5279 15.0913C13.6168 15.1663 13.7373 15.2085 13.8629 15.2085H20.7762C20.9019 15.2085 21.0224 15.1663 21.1112 15.0913C21.2001 15.0163 21.25 14.9146 21.25 14.8085V13.2088C21.25 13.1027 21.2001 13.001 21.1112 12.926C21.0224 12.851 20.9019 12.8089 20.7762 12.8089H20.4351V10.6922C20.4326 9.40344 19.8247 8.16811 18.7447 7.25718C17.6648 6.34625 16.2009 5.83409 14.6742 5.83303H12.2462C12.1542 5.48714 11.9394 5.17319 11.6303 4.93318C11.6326 4.91056 11.6326 4.88781 11.6303 4.86519V2.17564H12.6454C12.821 2.18464 12.997 2.1632 13.1624 2.11265C13.3279 2.0621 13.4793 1.98351 13.6075 1.88171C13.7356 1.7799 13.8377 1.65704 13.9075 1.52069C13.9773 1.38433 14.0133 1.23736 14.0133 1.08882C14.0133 0.940278 13.9773 0.793307 13.9075 0.65695C13.8377 0.520594 13.7356 0.397734 13.6075 0.29593C13.4793 0.194127 13.3279 0.115534 13.1624 0.0649851C12.997 0.0144364 12.821 -0.00699864 12.6454 0.00199972H7.77393C7.59829 -0.00699864 7.42234 0.0144364 7.25688 0.0649851C7.09142 0.115534 6.93996 0.194127 6.81183 0.29593C6.68369 0.397734 6.58158 0.520594 6.51179 0.65695C6.44199 0.793307 6.40599 0.940278 6.40599 1.08882C6.40599 1.23736 6.44199 1.38433 6.51179 1.52069C6.58158 1.65704 6.68369 1.7799 6.81183 1.88171C6.93996 1.98351 7.09142 2.0621 7.25688 2.11265C7.42234 2.1632 7.59829 2.18464 7.77393 2.17564H8.78895V4.86119C8.78661 4.88381 8.78661 4.90656 8.78895 4.92918C8.47468 5.16755 8.25473 5.48167 8.15886 5.82903H4.84254V5.20013C4.84254 5.09406 4.79263 4.99234 4.70378 4.91734C4.61494 4.84234 4.49444 4.8002 4.36879 4.8002H2.47375C2.3481 4.8002 2.22761 4.84234 2.13876 4.91734C2.04991 4.99234 2 5.09406 2 5.20013V11.7201C2 11.8261 2.04991 11.9278 2.13876 12.0028C2.22761 12.0778 2.3481 12.12 2.47375 12.12H4.36879C4.43258 12.1221 4.49623 12.1134 4.55591 12.0943C4.6156 12.0751 4.67009 12.046 4.71611 12.0087C4.76213 11.9713 4.79873 11.9265 4.82371 11.8769C4.8487 11.8273 4.86155 11.7739 4.8615 11.7201L4.85321 11.726ZM20.3001 14.4116H14.3355V13.6117H20.3001V14.4116ZM7.42808 1.08682C7.42807 1.04919 7.43694 1.01194 7.45414 0.977223C7.47134 0.942509 7.49653 0.911027 7.52827 0.884606C7.56001 0.858186 7.59766 0.837354 7.63902 0.823322C7.68038 0.809289 7.72463 0.802337 7.7692 0.802867H12.643C12.6908 0.798082 12.7393 0.801907 12.7853 0.814092C12.8313 0.826277 12.8737 0.846545 12.9097 0.873561C12.9457 0.900577 12.9745 0.933728 12.9943 0.970831C13.014 1.00793 13.0242 1.04815 13.0242 1.08882C13.0242 1.12949 13.014 1.1697 12.9943 1.20681C12.9745 1.24391 12.9457 1.27706 12.9097 1.30407C12.8737 1.33109 12.8313 1.35136 12.7853 1.36355C12.7393 1.37573 12.6908 1.37956 12.643 1.37477H7.77393C7.72914 1.37477 7.68478 1.36732 7.64339 1.35285C7.60201 1.33838 7.56441 1.31717 7.53274 1.29043C7.50106 1.26369 7.47593 1.23195 7.45878 1.19701C7.44164 1.16208 7.43283 1.12463 7.43283 1.08682H7.42808ZM9.73174 4.46126V2.17564H10.6793V4.46126H9.73174ZM10.2055 5.26112C10.4267 5.26179 10.6431 5.31602 10.8289 5.4174C11.0147 5.51877 11.1621 5.66303 11.2537 5.83303H9.1585C9.25007 5.66303 9.39749 5.51877 9.58329 5.4174C9.76909 5.31602 9.98546 5.26179 10.2067 5.26112H10.2055ZM14.6719 6.63389C15.9469 6.63495 17.1695 7.06273 18.0715 7.82347C18.9736 8.58421 19.4815 9.61584 19.4841 10.6922V12.8099H15.1456V12.066C15.1456 11.5964 14.9251 11.146 14.5323 10.8136C14.1396 10.4811 13.6066 10.2936 13.0504 10.2923H4.85203V6.63489L14.6719 6.63389ZM3.90451 11.3251H2.95699V5.60607H3.90451V11.3251Z" stroke="white" stroke-width="0.3"/>
<path d="M20.447 21.3584C20.447 20.0217 17.9763 17.2591 17.6921 16.9592C17.6478 16.9108 17.591 16.8717 17.526 16.8447C17.4611 16.8178 17.3896 16.8038 17.3172 16.8038C17.2448 16.8038 17.1734 16.8178 17.1084 16.8447C17.0434 16.8717 16.9866 16.9108 16.9424 16.9592C16.6581 17.2711 14.1874 20.0287 14.1874 21.3584C14.1874 22.059 14.5171 22.7309 15.104 23.2263C15.6908 23.7217 16.4867 24 17.3166 24C18.1465 24 18.9425 23.7217 19.5293 23.2263C20.1161 22.7309 20.4458 22.059 20.4458 21.3584H20.447ZM17.3178 23.1991C16.7395 23.1991 16.1849 23.0052 15.776 22.66C15.3671 22.3148 15.1373 21.8466 15.1373 21.3584C15.1373 20.6586 16.3513 18.9968 17.3178 17.868C18.2653 18.9968 19.4983 20.6675 19.4983 21.3584C19.4983 21.8466 19.2686 22.3148 18.8596 22.66C18.4507 23.0052 17.8961 23.1991 17.3178 23.1991Z" stroke="white" stroke-width="0.3"/>
</g>
<defs>
<clipPath id="clip0_205_77">
<rect width="24" height="24" fill="white"/>
</clipPath>
</defs>
</svg>
