<svg width="24" height="24" viewBox="0 0 24 24" fill="none" xmlns="http://www.w3.org/2000/svg">
<g clip-path="url(#clip0_2710_1581)">
<path d="M21.2799 2.88542C20.7796 2.88186 20.2878 2.99663 19.8586 3.2171C19.4294 3.43757 19.0794 3.75521 18.8472 4.13509C18.6149 4.51498 18.5094 4.94239 18.5422 5.37036C18.5749 5.79831 18.7447 6.21024 19.0329 6.56085L17.7019 7.49856C16.3734 6.50199 14.7234 5.87435 12.9699 5.69856V4.66399C13.6319 4.53903 14.2167 4.20891 14.6121 3.73699C15.0075 3.26508 15.1856 2.68462 15.1123 2.10703C15.0389 1.52944 14.7193 0.995405 14.2147 0.607434C13.7102 0.219462 13.0562 0.00488281 12.3784 0.00488281C11.7006 0.00488281 11.0466 0.219462 10.542 0.607434C10.0375 0.995405 9.71788 1.52944 9.64455 2.10703C9.57122 2.68462 9.74935 3.26508 10.1447 3.73699C10.5401 4.20891 11.1249 4.53903 11.7869 4.66399V5.65228C9.80462 5.71205 7.90988 6.36708 6.4339 7.50286L5.04391 6.51457C5.41755 6.0302 5.56946 5.44466 5.4705 4.87021C5.37155 4.29576 5.02871 3.77284 4.5077 3.4017C3.98669 3.03054 3.32418 2.8373 2.6472 2.85901C1.97022 2.88072 1.32642 3.11585 0.839214 3.51932C0.352009 3.9228 0.0556959 4.46621 0.00709112 5.04539C-0.0415137 5.62457 0.161006 6.19874 0.575824 6.65783C0.990642 7.11692 1.58857 7.4286 2.25495 7.53314C2.92134 7.63767 3.60929 7.52769 4.1869 7.22428L5.60591 8.23828C4.46037 9.38479 3.81275 10.8357 3.7729 12.3449L0.93391 18.4794L3.5069 18.7074L3.5659 22.0023H7.4989V24.0046H8.6819V20.9583H4.7159L4.65691 17.7646L2.58691 17.5871L4.9229 12.5171V12.416C4.94042 11.1101 5.497 9.85168 6.49391 8.86399L9.0079 10.6383C8.72391 11.0901 8.58154 11.5973 8.59474 12.1104C8.60794 12.6235 8.77625 13.1249 9.08321 13.5654C9.39016 14.0061 9.82527 14.3709 10.346 14.6243C10.8667 14.8775 11.4552 15.0107 12.0539 15.0107C12.6526 15.0107 13.2411 14.8775 13.7618 14.6243C14.2825 14.3709 14.7176 14.0061 15.0246 13.5654C15.3315 13.1249 15.4999 12.6235 15.5131 12.1104C15.5263 11.5973 15.3839 11.0901 15.0999 10.6383L17.6159 8.86399C18.1081 9.35728 18.4892 9.92462 18.7399 10.5371V10.5877C19.3309 11.702 19.0059 14.162 18.7099 16.1386C18.6209 16.8731 18.5029 17.558 18.4729 18.1409V23.996H19.6559V18.1674C19.7149 17.6094 19.8039 16.9511 19.8929 16.2414C20.1929 14.036 20.5439 11.552 19.8039 10.1831C19.516 9.46116 19.0753 8.79079 18.5039 8.20571L19.8939 7.21742C20.2539 7.40172 20.6587 7.51222 21.0767 7.5403C21.4947 7.56837 21.9146 7.51326 22.3037 7.37926C22.6928 7.24527 23.0404 7.03602 23.3196 6.76784C23.5987 6.49967 23.8018 6.17982 23.9129 5.83328C24.024 5.48673 24.0402 5.12286 23.9602 4.77006C23.8802 4.41727 23.7061 4.0851 23.4516 3.79949C23.1971 3.51386 22.8691 3.28253 22.493 3.12352C22.117 2.96452 21.7032 2.88215 21.2839 2.88285L21.2799 2.88542ZM16.7549 8.13285L14.3299 9.83085C13.9242 9.51825 13.438 9.29231 12.9109 9.17171V6.71256C14.3237 6.86405 15.6562 7.35662 16.7549 8.13285ZM11.2549 1.44114C11.5077 1.22701 11.8393 1.09455 12.1932 1.06627C12.5471 1.038 12.9015 1.11566 13.1961 1.28606C13.4907 1.45645 13.7074 1.70906 13.8093 2.00093C13.9112 2.29279 13.8921 2.6059 13.7551 2.88701C13.6181 3.16812 13.3717 3.39989 13.0579 3.54289C12.744 3.6859 12.3821 3.73133 12.0336 3.67144C11.6851 3.61155 11.3715 3.45006 11.1463 3.21441C10.921 2.97876 10.7979 2.6835 10.7979 2.37885C10.7979 2.2044 10.8382 2.03168 10.9167 1.87071C10.9951 1.70974 11.1101 1.56372 11.2549 1.44114ZM11.7549 6.66285V9.09542C11.0089 9.14591 10.3027 9.40416 9.74391 9.83085L7.31891 8.13285C8.5643 7.2298 10.1277 6.71178 11.7579 6.66199L11.7549 6.66285ZM1.16791 5.21771C1.16766 4.91271 1.29081 4.61706 1.51637 4.38117C1.74192 4.14527 2.05594 3.9837 2.40489 3.92401C2.75385 3.86431 3.11616 3.91019 3.43008 4.05379C3.74401 4.19741 3.99012 4.42988 4.12649 4.7116C4.26285 4.99332 4.28104 5.30685 4.17793 5.59877C4.07483 5.89069 3.85682 6.14293 3.56106 6.31252C3.2653 6.48211 2.91008 6.55854 2.55594 6.5288C2.2018 6.49907 1.87064 6.36499 1.6189 6.14942C1.33151 5.90196 1.17039 5.56688 1.17091 5.21771H1.16791ZM12.0509 13.988C11.5241 13.988 11.0136 13.8315 10.6063 13.545C10.1991 13.2587 9.92033 12.86 9.81752 12.4172C9.71471 11.9743 9.79424 11.5146 10.0425 11.1164C10.2908 10.7182 10.6925 10.406 11.1792 10.2332C11.6659 10.0604 12.2075 10.0375 12.7116 10.1686C13.2157 10.2996 13.6512 10.5765 13.9439 10.9519C14.2366 11.3273 14.3684 11.7781 14.3168 12.2275C14.2652 12.6768 14.0334 13.097 13.6609 13.4163C13.2346 13.7817 12.6567 13.9873 12.0539 13.988H12.0509ZM21.2779 6.53599C20.922 6.53601 20.5772 6.43025 20.3021 6.23675C20.027 6.04324 19.8388 5.77396 19.7694 5.4748C19.7 5.17563 19.7538 4.8651 19.9215 4.59612C20.0893 4.32714 20.3608 4.11635 20.6896 3.99967C21.0183 3.88301 21.3842 3.86767 21.7247 3.95628C22.0652 4.0449 22.3593 4.23198 22.5569 4.48566C22.7545 4.73932 22.8434 5.04388 22.8084 5.34742C22.7734 5.65096 22.6166 5.93469 22.3649 6.15028C22.077 6.39683 21.6869 6.53553 21.2799 6.53599H21.2779Z" fill="white"/>
</g>
<defs>
<clipPath id="clip0_2710_1581">
<rect width="24" height="24" fill="white"/>
</clipPath>
</defs>
</svg>
