<svg width="31" height="31" viewBox="0 0 31 31" fill="none" xmlns="http://www.w3.org/2000/svg">
<g clip-path="url(#clip0_2104_6675)">
<path d="M0.585421 31.0011H3.20134C3.35534 31.0011 3.50303 30.9399 3.61193 30.831C3.72082 30.7221 3.782 30.5745 3.782 30.4205V30.0556C5.12215 30.0627 9.73043 30.114 13.7402 30.3465C13.9452 30.3584 14.1503 30.3656 14.3566 30.3656C16.1707 30.3643 17.9547 29.9015 19.5407 29.0207L29.9591 22.8278C30.2319 22.6767 30.4659 22.4644 30.6426 22.2075C30.8194 21.9507 30.934 21.6563 30.9776 21.3475C31.0212 21.0388 30.9925 20.7241 30.8937 20.4283C30.795 20.1326 30.6289 19.8638 30.4086 19.6432C30.1173 19.3549 29.7454 19.1618 29.342 19.0892C28.9387 19.0166 28.5227 19.068 28.1492 19.2366L21.3256 22.3485C21.2349 21.8355 20.9666 21.3707 20.5677 21.0357C20.1687 20.7006 19.6647 20.5167 19.1437 20.5159H15.7707C15.0395 20.5172 14.3148 20.3793 13.6352 20.1094C9.54681 18.4938 5.52158 20.2107 3.77008 21.1633C3.75243 21.0235 3.68449 20.8948 3.57897 20.8014C3.47345 20.7079 3.33754 20.6561 3.19658 20.6555H0.580654C0.426655 20.6555 0.278965 20.7166 0.170071 20.8255C0.0611773 20.9344 1.22443e-06 21.0821 1.22443e-06 21.2361V30.4168C-0.000155558 30.4932 0.0147455 30.5688 0.0438559 30.6394C0.0729663 30.71 0.115709 30.7742 0.169643 30.8282C0.223578 30.8822 0.287644 30.9251 0.35817 30.9544C0.428696 30.9836 0.504302 30.9987 0.580654 30.9987L0.585421 31.0011ZM3.782 22.5035C4.836 21.8597 9.07466 19.5549 13.2132 21.1919C14.0293 21.5161 14.8997 21.682 15.7778 21.6808H19.1532C19.4328 21.6808 19.7009 21.7919 19.8985 21.9895C20.0962 22.1872 20.2072 22.4552 20.2072 22.7348C20.2072 23.0143 20.0962 23.2825 19.8985 23.4801C19.7009 23.6778 19.4328 23.7888 19.1532 23.7888H10.9072C10.7531 23.7888 10.6052 23.85 10.4962 23.959C10.3872 24.068 10.326 24.2159 10.326 24.3701C10.326 24.5242 10.3872 24.6721 10.4962 24.7811C10.6052 24.8901 10.7531 24.9513 10.9072 24.9513H19.1532C19.5653 24.951 19.9691 24.8356 20.3191 24.6179C20.669 24.4003 20.9512 24.0891 21.1337 23.7196L28.6452 20.2941C28.8468 20.2053 29.075 20.1979 29.2819 20.2736C29.4889 20.3493 29.6585 20.5021 29.7551 20.7001C29.8518 20.8981 29.8681 21.1259 29.8005 21.3356C29.733 21.5453 29.5868 21.7207 29.3928 21.8251L18.9732 28.0167C17.3997 28.8887 15.6113 29.2972 13.8153 29.1947C9.76978 28.9563 5.12812 28.9122 3.78677 28.9002V22.5071L3.782 22.5035ZM1.16607 21.8179H2.6195V29.8326H1.16607V21.8155V21.8179Z" fill="white"/>
<path d="M22.5929 9.4956V6.74494H21.8775V8.77901H19.7683V6.23466H23.1938V3.23242H15.625V6.23346H19.0506V8.77785H16.9437V6.74374H16.2284V9.4944H22.6L22.5929 9.4956ZM22.4736 5.51566H19.7659V3.94898H22.4736V5.51566ZM16.3404 5.51566V3.94898H19.0482V5.51566H16.3404Z" fill="white"/>
<path d="M18.1829 2.89834H20.6295C21.3807 2.61229 22.0078 2.07205 22.402 1.37155C22.7961 0.671037 22.9323 -0.145443 22.7869 -0.935958C22.6414 -1.72647 22.2236 -2.44103 21.606 -2.95541C20.9883 -3.46979 20.21 -3.75146 19.4062 -3.75146C18.6024 -3.75146 17.8241 -3.46979 17.2064 -2.95541C16.5888 -2.44103 16.1709 -1.72647 16.0255 -0.935958C15.8801 -0.145443 16.0163 0.671037 16.4104 1.37155C16.8046 2.07205 17.4317 2.61229 18.1829 2.89834ZM19.8986 1.95999V1.44969C19.8988 1.30523 19.9419 1.16409 20.0223 1.04408C20.1027 0.924067 20.2169 0.830572 20.3504 0.775401C20.4839 0.72023 20.6307 0.705859 20.7724 0.734098C20.914 0.762337 21.0442 0.83192 21.1463 0.934064C21.2485 1.03621 21.318 1.16633 21.3463 1.308C21.3745 1.44966 21.3602 1.59652 21.305 1.73002C21.2498 1.86353 21.1563 1.97769 21.0363 2.05809C20.9163 2.13849 20.7751 2.18152 20.6307 2.18176H19.8986V1.95999ZM18.1829 0.716414C18.3771 0.716414 18.5632 0.793543 18.7005 0.930834C18.8378 1.06813 18.915 1.25434 18.915 1.44849V2.18057H18.1829C17.9887 2.18057 17.8026 2.10344 17.6653 1.96615C17.528 1.82886 17.4508 1.64265 17.4508 1.44849C17.4508 1.25434 17.528 1.06813 17.6653 0.930834C17.8026 0.793543 17.9887 0.716414 18.1829 0.716414Z" fill="white"/>
<path d="M11.9113 4.9419C11.3598 4.94134 10.8245 5.12821 10.3931 5.4719C9.96178 5.81559 9.66006 6.29568 9.53744 6.8334C9.41482 7.37112 9.47859 7.93456 9.71828 8.43127C9.95798 8.92799 10.3594 9.32851 10.8566 9.56711C11.3538 9.80571 11.9174 9.86822 12.4549 9.74442C12.9923 9.62062 13.4717 9.31783 13.8145 8.88574C14.1572 8.45364 14.3429 7.91788 14.3412 7.36635C14.3394 6.81483 14.1502 6.28031 13.8047 5.85043C13.5769 5.56729 13.2886 5.33871 12.961 5.1815C12.6334 5.02429 12.2747 4.94243 11.9113 4.9419ZM11.9113 9.0899C11.5723 9.08967 11.241 8.98897 10.9592 8.80049C10.6775 8.612 10.4579 8.34419 10.3283 8.03095C10.1986 7.71771 10.1648 7.37306 10.231 7.04059C10.2972 6.70811 10.4605 6.40273 10.7002 6.16302C10.9399 5.92331 11.2453 5.76005 11.5778 5.69386C11.9102 5.62766 12.2549 5.6615 12.5681 5.79112C12.8813 5.92074 13.1491 6.14032 13.3376 6.42209C13.5261 6.70386 13.6268 7.03518 13.6271 7.37418C13.6268 7.82912 13.4459 8.26535 13.1242 8.58704C12.8025 8.90874 12.3663 9.08959 11.9113 9.0899Z" fill="white"/>
<path d="M9.32952 13.1321C9.32952 12.5629 9.55563 12.017 9.95812 11.6145C10.3606 11.2121 10.9065 10.9859 11.4757 10.9859H19.6537C19.6459 11.4551 19.454 11.9024 19.1195 12.2314C18.7849 12.5603 18.3345 12.7447 17.8653 12.7446H14.1858V15.4762L9.32833 15.3963L14.1858 16.0235H14.9012V13.4588H17.8629C18.5269 13.4588 19.1638 13.195 19.6334 12.7254C20.1029 12.2559 20.3667 11.619 20.3667 10.9549V10.2622H11.4709C10.712 10.2622 9.98414 10.5637 9.4475 11.1003C8.91086 11.637 8.60938 12.3648 8.60938 13.1238V16.0222H14.1846L9.32714 15.3951V13.1297L9.32952 13.1321Z" fill="white"/>
</g>
<defs>
<clipPath id="clip0_2104_6675">
<rect width="31" height="31" fill="white"/>
</clipPath>
</defs>
</svg>
