<svg width="31" height="31" viewBox="0 0 31 31" fill="none" xmlns="http://www.w3.org/2000/svg">
<g clip-path="url(#clip0_2104_6654)">
<path d="M0.585421 31.0016H3.20134C3.35534 31.0016 3.50303 30.9404 3.61193 30.8315C3.72082 30.7226 3.782 30.5749 3.782 30.4209V30.0561C5.12215 30.0632 9.73043 30.1145 13.7402 30.347C13.9452 30.3589 14.1503 30.3661 14.3566 30.3661C16.1707 30.3648 17.9547 29.9019 19.5407 29.0212L29.9591 22.8283C30.2319 22.6772 30.4659 22.4649 30.6426 22.208C30.8194 21.9512 30.934 21.6568 30.9776 21.348C31.0212 21.0393 30.9925 20.7246 30.8937 20.4288C30.795 20.1331 30.6289 19.8643 30.4086 19.6437C30.1173 19.3554 29.7454 19.1622 29.342 19.0897C28.9387 19.0171 28.5227 19.0685 28.1492 19.2371L21.3256 22.349C21.2349 21.836 20.9666 21.3712 20.5677 21.0362C20.1687 20.7011 19.6647 20.5172 19.1437 20.5164H15.7707C15.0395 20.5177 14.3148 20.3797 13.6352 20.1099C9.54681 18.4943 5.52158 20.2112 3.77008 21.1638C3.75243 21.024 3.68449 20.8953 3.57897 20.8019C3.47345 20.7084 3.33754 20.6566 3.19658 20.6559H0.580654C0.426655 20.6559 0.278965 20.7171 0.170071 20.826C0.0611773 20.9349 1.22443e-06 21.0826 1.22443e-06 21.2366V30.4173C-0.000155558 30.4937 0.0147455 30.5693 0.0438559 30.6399C0.0729663 30.7105 0.115709 30.7746 0.169643 30.8287C0.223578 30.8827 0.287644 30.9256 0.35817 30.9549C0.428696 30.9841 0.504302 30.9992 0.580654 30.9992L0.585421 31.0016ZM3.782 22.504C4.836 21.8602 9.07466 19.5554 13.2132 21.1924C14.0293 21.5166 14.8997 21.6825 15.7778 21.6813H19.1532C19.4328 21.6813 19.7009 21.7923 19.8985 21.99C20.0962 22.1877 20.2072 22.4557 20.2072 22.7353C20.2072 23.0148 20.0962 23.283 19.8985 23.4806C19.7009 23.6783 19.4328 23.7893 19.1532 23.7893H10.9072C10.7531 23.7893 10.6052 23.8505 10.4962 23.9595C10.3872 24.0685 10.326 24.2164 10.326 24.3706C10.326 24.5247 10.3872 24.6726 10.4962 24.7816C10.6052 24.8906 10.7531 24.9518 10.9072 24.9518H19.1532C19.5653 24.9515 19.9691 24.836 20.3191 24.6184C20.669 24.4008 20.9512 24.0896 21.1337 23.7201L28.6452 20.2946C28.8468 20.2057 29.075 20.1984 29.2819 20.2741C29.4889 20.3498 29.6585 20.5026 29.7551 20.7006C29.8518 20.8986 29.8681 21.1264 29.8005 21.3361C29.733 21.5458 29.5868 21.7212 29.3928 21.8255L18.9732 28.0172C17.3997 28.8892 15.6113 29.2976 13.8153 29.1952C9.76978 28.9568 5.12812 28.9126 3.78677 28.9007V22.5076L3.782 22.504ZM1.16607 21.8184H2.6195V29.8331H1.16607V21.816V21.8184Z" fill="white"/>
<path d="M6.38281 7.6377L6.44124 8.33282C6.45436 8.56413 6.9432 14.0452 11.5932 15.9838L11.7124 16.0292H18.6481L18.7673 15.9838C23.4173 14.0452 23.9062 8.56532 23.9264 8.33282L23.9777 7.6377H6.38281ZM18.3941 14.7415H11.9724C9.04166 13.4538 8.10809 10.324 7.83147 8.92657H22.541C22.2644 10.3228 21.3332 13.4526 18.3941 14.7415Z" fill="white"/>
<path d="M20.628 0.437564L19.4166 0L16.9688 6.69718H18.3411L20.628 0.437564Z" fill="white"/>
<path d="M20.8977 6.69734L24.6261 1.40349L23.5769 0.663086L19.3203 6.69734H20.8977Z" fill="white"/>
<path d="M10.6893 5.29272C10.9018 5.28916 11.1118 5.33787 11.301 5.43459L12.0807 5.8209L12.2286 4.96484C12.2896 4.62046 12.4775 4.31141 12.7551 4.0987C13.0327 3.88599 13.38 3.78504 13.7284 3.81572C14.0768 3.8464 14.401 4.00648 14.6372 4.26444C14.8734 4.5224 15.0044 4.8595 15.0043 5.20925H16.292C16.2915 4.59977 16.084 4.0085 15.7035 3.53242C15.323 3.05633 14.792 2.72366 14.1976 2.58896C13.6032 2.45425 12.9806 2.52549 12.432 2.79101C11.8834 3.05653 11.4413 3.50056 11.1782 4.05031C11.0167 4.01894 10.8526 4.00377 10.6881 4.005C9.977 4.00753 9.29582 4.29155 8.79354 4.79495C8.29126 5.29835 8.00875 5.98018 8.00781 6.6913H9.29551C9.29613 6.32033 9.44337 5.96464 9.70513 5.70177C9.96688 5.4389 10.3219 5.29015 10.6929 5.28795L10.6893 5.29272Z" fill="white"/>
</g>
<defs>
<clipPath id="clip0_2104_6654">
<rect width="31" height="31" fill="white"/>
</clipPath>
</defs>
</svg>
