<svg width="31" height="31" viewBox="0 0 31 31" fill="none" xmlns="http://www.w3.org/2000/svg">
<g clip-path="url(#clip0_2104_6668)">
<path d="M0.585421 31.0001H3.20134C3.35534 31.0001 3.50303 30.939 3.61193 30.8301C3.72082 30.7212 3.782 30.5735 3.782 30.4195V30.0546C5.12215 30.0618 9.73043 30.113 13.7402 30.3455C13.9452 30.3575 14.1503 30.3646 14.3566 30.3646C16.1707 30.3633 17.9547 29.9005 19.5407 29.0197L29.9591 22.8268C30.2319 22.6758 30.4659 22.4635 30.6426 22.2066C30.8194 21.9497 30.934 21.6553 30.9776 21.3465C31.0212 21.0378 30.9925 20.7231 30.8937 20.4274C30.795 20.1316 30.6289 19.8629 30.4086 19.6422C30.1173 19.354 29.7454 19.1608 29.342 19.0882C28.9387 19.0156 28.5227 19.067 28.1492 19.2356L21.3256 22.3475C21.2349 21.8345 20.9666 21.3698 20.5677 21.0347C20.1687 20.6997 19.6647 20.5157 19.1437 20.515H15.7707C15.0395 20.5163 14.3148 20.3783 13.6352 20.1084C9.54681 18.4928 5.52158 20.2097 3.77008 21.1624C3.75243 21.0225 3.68449 20.8938 3.57897 20.8004C3.47345 20.7069 3.33754 20.6551 3.19658 20.6545H0.580654C0.426655 20.6545 0.278965 20.7157 0.170071 20.8245C0.0611773 20.9334 1.22443e-06 21.0811 1.22443e-06 21.2351V30.4158C-0.000155558 30.4922 0.0147455 30.5679 0.0438559 30.6385C0.0729663 30.709 0.115709 30.7732 0.169643 30.8272C0.223578 30.8813 0.287644 30.9242 0.35817 30.9534C0.428696 30.9827 0.504302 30.9977 0.580654 30.9977L0.585421 31.0001ZM3.782 22.5025C4.836 21.8587 9.07466 19.5539 13.2132 21.191C14.0293 21.5151 14.8997 21.681 15.7778 21.6798H19.1532C19.4328 21.6798 19.7009 21.7909 19.8985 21.9885C20.0962 22.1862 20.2072 22.4543 20.2072 22.7338C20.2072 23.0133 20.0962 23.2815 19.8985 23.4791C19.7009 23.6768 19.4328 23.7879 19.1532 23.7879H10.9072C10.7531 23.7879 10.6052 23.8491 10.4962 23.9581C10.3872 24.0671 10.326 24.2149 10.326 24.3691C10.326 24.5232 10.3872 24.6711 10.4962 24.7801C10.6052 24.8891 10.7531 24.9503 10.9072 24.9503H19.1532C19.5653 24.95 19.9691 24.8346 20.3191 24.617C20.669 24.3993 20.9512 24.0881 21.1337 23.7186L28.6452 20.2932C28.8468 20.2043 29.075 20.1969 29.2819 20.2726C29.4889 20.3483 29.6585 20.5012 29.7551 20.6992C29.8518 20.8972 29.8681 21.1249 29.8005 21.3346C29.733 21.5443 29.5868 21.7197 29.3928 21.8241L18.9732 28.0157C17.3997 28.8877 15.6113 29.2962 13.8153 29.1938C9.76978 28.9553 5.12812 28.9112 3.78677 28.8993V22.5061L3.782 22.5025ZM1.16607 21.8169H2.6195V29.8316H1.16607V21.8145V21.8169Z" fill="white"/>
<path d="M17.3588 7.12048H16.3918V6.15351C16.3918 5.91634 16.2976 5.68889 16.1299 5.52119C15.9622 5.35349 15.7347 5.25928 15.4976 5.25928C15.2604 5.25928 15.033 5.35349 14.8653 5.52119C14.6976 5.68889 14.6033 5.91634 14.6033 6.15351V7.12048H13.6364C13.3993 7.12048 13.1718 7.21468 13.0041 7.38238C12.8364 7.55008 12.7422 7.77754 12.7422 8.01471C12.7422 8.25187 12.8364 8.47931 13.0041 8.64701C13.1718 8.81471 13.3993 8.90894 13.6364 8.90894H14.6033V9.87589C14.6033 10.1131 14.6976 10.3405 14.8653 10.5082C15.033 10.6759 15.2604 10.7701 15.4976 10.7701C15.7347 10.7701 15.9622 10.6759 16.1299 10.5082C16.2976 10.3405 16.3918 10.1131 16.3918 9.87589V8.90894H17.3588C17.596 8.90894 17.8234 8.81471 17.9911 8.64701C18.1588 8.47931 18.253 8.25187 18.253 8.01471C18.253 7.77754 18.1588 7.55008 17.9911 7.38238C17.8234 7.21468 17.596 7.12048 17.3588 7.12048Z" fill="white"/>
<path d="M20.7792 2.6815C19.2346 2.39748 17.8159 1.64189 16.7182 0.518651C16.5597 0.354955 16.37 0.224716 16.1603 0.13563C15.9506 0.0465437 15.7251 0.000422507 15.4973 0C15.2694 0.000422507 15.044 0.0465437 14.8343 0.13563C14.6245 0.224716 14.4349 0.354955 14.2764 0.518651C13.1785 1.64133 11.7598 2.39647 10.2154 2.68031C9.84937 2.74893 9.51596 2.93573 9.26634 3.21206C9.01672 3.48838 8.86469 3.83897 8.83349 4.21004C8.66078 6.4696 9.10129 8.73387 10.1086 10.7638C11.1159 12.7938 12.6527 14.5141 14.5566 15.7432C14.8346 15.9293 15.1616 16.0286 15.4961 16.0286C15.8306 16.0286 16.1576 15.9293 16.4356 15.7432C18.3395 14.5141 19.8762 12.7938 20.8836 10.7638C21.8909 8.73387 22.3314 6.4696 22.1587 4.21004C22.1275 3.83897 21.9754 3.48838 21.7258 3.21206C21.4762 2.93573 21.1428 2.74893 20.7768 2.68031L20.7792 2.6815ZM15.4973 14.0084C13.9451 12.9954 12.6901 11.588 11.8609 9.93039C11.0317 8.27275 10.658 6.42447 10.7781 4.57488C12.5557 4.20564 14.1923 3.3404 15.4984 2.07938C16.8039 3.34063 18.4403 4.20592 20.2176 4.57488C20.3372 6.42448 19.963 8.27263 19.1334 9.93003C18.3037 11.5874 17.0485 12.9945 15.4961 14.0072L15.4973 14.0084Z" fill="white"/>
</g>
<defs>
<clipPath id="clip0_2104_6668">
<rect width="31" height="31" fill="white"/>
</clipPath>
</defs>
</svg>
