<svg width="31" height="31" viewBox="0 0 31 31" fill="none" xmlns="http://www.w3.org/2000/svg">
<g clip-path="url(#clip0_2104_6663)">
<path d="M0.585421 31.0011H3.20134C3.35534 31.0011 3.50303 30.9399 3.61193 30.831C3.72082 30.7221 3.782 30.5745 3.782 30.4205V30.0556C5.12215 30.0627 9.73043 30.114 13.7402 30.3465C13.9452 30.3584 14.1503 30.3656 14.3566 30.3656C16.1707 30.3643 17.9547 29.9015 19.5407 29.0207L29.9591 22.8278C30.2319 22.6767 30.4659 22.4644 30.6426 22.2075C30.8194 21.9507 30.934 21.6563 30.9776 21.3475C31.0212 21.0388 30.9925 20.7241 30.8937 20.4283C30.795 20.1326 30.6289 19.8638 30.4086 19.6432C30.1173 19.3549 29.7454 19.1618 29.342 19.0892C28.9387 19.0166 28.5227 19.068 28.1492 19.2366L21.3256 22.3485C21.2349 21.8355 20.9666 21.3707 20.5677 21.0357C20.1687 20.7006 19.6647 20.5167 19.1437 20.5159H15.7707C15.0395 20.5172 14.3148 20.3793 13.6352 20.1094C9.54681 18.4938 5.52158 20.2107 3.77008 21.1633C3.75243 21.0235 3.68449 20.8948 3.57897 20.8014C3.47345 20.7079 3.33754 20.6561 3.19658 20.6555H0.580654C0.426655 20.6555 0.278965 20.7166 0.170071 20.8255C0.0611773 20.9344 1.22443e-06 21.0821 1.22443e-06 21.2361V30.4168C-0.000155558 30.4932 0.0147455 30.5688 0.0438559 30.6394C0.0729663 30.71 0.115709 30.7742 0.169643 30.8282C0.223578 30.8822 0.287644 30.9251 0.35817 30.9544C0.428696 30.9836 0.504302 30.9987 0.580654 30.9987L0.585421 31.0011ZM3.782 22.5035C4.836 21.8597 9.07466 19.5549 13.2132 21.1919C14.0293 21.5161 14.8997 21.682 15.7778 21.6808H19.1532C19.4328 21.6808 19.7009 21.7919 19.8985 21.9895C20.0962 22.1872 20.2072 22.4552 20.2072 22.7348C20.2072 23.0143 20.0962 23.2825 19.8985 23.4801C19.7009 23.6778 19.4328 23.7888 19.1532 23.7888H10.9072C10.7531 23.7888 10.6052 23.85 10.4962 23.959C10.3872 24.068 10.326 24.2159 10.326 24.3701C10.326 24.5242 10.3872 24.6721 10.4962 24.7811C10.6052 24.8901 10.7531 24.9513 10.9072 24.9513H19.1532C19.5653 24.951 19.9691 24.8356 20.3191 24.6179C20.669 24.4003 20.9512 24.0891 21.1337 23.7196L28.6452 20.2941C28.8468 20.2053 29.075 20.1979 29.2819 20.2736C29.4889 20.3493 29.6585 20.5021 29.7551 20.7001C29.8518 20.8981 29.8681 21.1259 29.8005 21.3356C29.733 21.5453 29.5868 21.7207 29.3928 21.8251L18.9732 28.0167C17.3997 28.8887 15.6113 29.2972 13.8153 29.1947C9.76978 28.9563 5.12812 28.9122 3.78677 28.9002V22.5071L3.782 22.5035ZM1.16607 21.8179H2.6195V29.8326H1.16607V21.8155V21.8179Z" fill="white"/>
<path d="M24.0019 8.50234L15.682 0.169309C15.6294 0.115992 15.5667 0.0736554 15.4976 0.0447584C15.4286 0.0158614 15.3544 0.000976563 15.2796 0.000976562C15.2047 0.000976563 15.1305 0.0158614 15.0615 0.0447584C14.9924 0.0736554 14.9297 0.115992 14.8771 0.169309L6.54411 8.50234C6.44675 8.61088 6.39469 8.7526 6.39865 8.89836C6.4026 9.04411 6.46226 9.1828 6.56536 9.2859C6.66846 9.389 6.80716 9.44867 6.95291 9.45262C7.09866 9.45657 7.24038 9.40451 7.34892 9.30716L9.29596 7.36011V14.7524C9.29627 15.0901 9.43053 15.4138 9.66927 15.6525C9.90801 15.8912 10.2317 16.0255 10.5693 16.0258H19.9504C20.288 16.0255 20.6117 15.8912 20.8505 15.6525C21.0892 15.4138 21.2235 15.0901 21.2238 14.7524V7.36011L23.1708 9.30716C23.2808 9.41515 23.4287 9.47565 23.5828 9.47565C23.7369 9.47565 23.8848 9.41515 23.9947 9.30716C24.048 9.25458 24.0904 9.19193 24.1193 9.12285C24.1482 9.05377 24.163 8.97963 24.163 8.90475C24.163 8.82987 24.1482 8.75574 24.1193 8.68666C24.0904 8.61758 24.048 8.55492 23.9947 8.50234H24.0019ZM15.2754 10.6366C15.031 10.6356 14.7924 10.5623 14.5896 10.4258C14.3869 10.2893 14.2292 10.0958 14.1364 9.86974C14.0436 9.64367 14.0198 9.39515 14.0682 9.15559C14.1165 8.91603 14.2347 8.69617 14.408 8.52378C14.5812 8.35138 14.8016 8.2342 15.0414 8.18701C15.2812 8.13982 15.5296 8.16475 15.7552 8.25866C15.9809 8.35256 16.1736 8.51122 16.3091 8.7146C16.4446 8.91799 16.5168 9.15696 16.5166 9.40135C16.5134 9.72902 16.3815 10.0423 16.1492 10.2734C15.917 10.5046 15.6031 10.635 15.2754 10.6366ZM15.1633 11.7979H15.4018C15.8631 11.8001 16.3049 11.9843 16.6311 12.3105C16.9573 12.6367 17.1415 13.0785 17.1437 13.5399V14.8883H13.4166V13.5387C13.4153 13.3094 13.4597 13.0822 13.5471 12.8703C13.6346 12.6584 13.7634 12.466 13.926 12.3044C14.0886 12.1428 14.2817 12.0153 14.4942 11.9291C14.7066 11.8429 14.9341 11.8 15.1633 11.8027V11.7979ZM20.0875 14.756C20.088 14.7709 20.0855 14.7857 20.08 14.7995C20.0746 14.8133 20.0663 14.8259 20.0558 14.8364C20.0453 14.8469 20.0328 14.8551 20.0189 14.8606C20.0051 14.866 19.9903 14.8686 19.9755 14.8681H18.2907V13.5208C18.2896 13.0365 18.1674 12.5601 17.9352 12.1351C17.703 11.7101 17.3682 11.3499 16.9613 11.0873C17.2397 10.8122 17.4459 10.4726 17.5614 10.0986C17.6769 9.72464 17.6982 9.32792 17.6234 8.94374C17.5485 8.55956 17.3799 8.19982 17.1326 7.89652C16.8852 7.59322 16.5667 7.35575 16.2054 7.20524C15.8441 7.05474 15.4512 6.99585 15.0616 7.03383C14.6721 7.0718 14.2979 7.20546 13.9725 7.42292C13.6471 7.64037 13.3804 7.93488 13.1963 8.28025C13.0121 8.62562 12.9162 9.01115 12.917 9.40254C12.9156 9.71721 12.9784 10.0289 13.1013 10.3185C13.2243 10.6081 13.405 10.8697 13.6324 11.0873C13.2225 11.3471 12.8855 11.7068 12.6529 12.1328C12.4204 12.5587 12.2999 13.0367 12.303 13.522V14.8705H10.6135C10.5986 14.871 10.5838 14.8684 10.57 14.8629C10.5562 14.8575 10.5436 14.8493 10.5331 14.8387C10.5226 14.8282 10.5143 14.8157 10.5089 14.8019C10.5034 14.788 10.5009 14.7732 10.5014 14.7584V6.21788L15.2706 1.38666L20.0935 6.19881L20.0875 14.756Z" fill="white"/>
</g>
<defs>
<clipPath id="clip0_2104_6663">
<rect width="31" height="31" fill="white"/>
</clipPath>
</defs>
</svg>
