<svg width="24" height="24" viewBox="0 0 24 24" fill="none" xmlns="http://www.w3.org/2000/svg">
<g clip-path="url(#clip0_2206_6717)">
<path d="M23.8848 14.736L21.4848 5.25102C21.2597 4.4307 20.521 3.85618 19.6705 3.83984H17.2801V4.79984H19.6705C20.0891 4.81375 20.4505 5.09718 20.5633 5.50062L22.1665 11.8462C19.9725 9.94162 16.6499 10.1763 14.7453 12.3701C14.5029 12.6493 14.2907 12.9533 14.1122 13.2766C12.8502 12.3696 11.15 12.3696 9.88815 13.2766C8.48081 10.7286 5.27435 9.804 2.72655 11.2114C2.44131 11.3691 2.17131 11.5527 1.92007 11.7601L3.64803 5.51048C3.76373 5.07924 4.16163 4.78494 4.60803 4.80008H6.72003V3.84008H4.57923C3.71791 3.84368 2.96431 4.42062 2.73603 5.25126L0.26883 14.1985C0.135158 14.6823 0.0451498 15.1769 9.78513e-06 15.6768C-0.00553702 18.6094 2.34781 21.0012 5.28001 21.0432C8.18021 21.0591 10.5442 18.721 10.56 15.8208V15.8016C10.5602 15.2434 10.4695 14.6887 10.2912 14.16C11.3011 13.3918 12.6988 13.3918 13.7088 14.16C12.7903 16.9274 14.2891 19.9158 17.0568 20.8346C19.8242 21.7532 22.8126 20.2543 23.7312 17.4866C24.0267 16.5967 24.0797 15.6437 23.8848 14.7264L23.8848 14.736Z" fill="white"/>
</g>
<defs>
<clipPath id="clip0_2206_6717">
<rect width="24" height="24" fill="white"/>
</clipPath>
</defs>
</svg>
