<svg width="31" height="32" viewBox="0 0 31 32" fill="none" xmlns="http://www.w3.org/2000/svg">
<path d="M16.4608 8.99407C16.4608 11.1683 14.6981 12.931 12.5239 12.931C10.3496 12.931 8.58691 11.1683 8.58691 8.99407C8.58691 6.81959 10.3496 5.05713 12.5239 5.05713C14.6981 5.05713 16.4608 6.81959 16.4608 8.99407Z" fill="white"/>
<path d="M26.1949 23.2541C26.1949 23.874 25.6989 24.3702 25.0788 24.3702H24.2418C23.6219 24.3702 23.1257 23.8743 23.1257 23.2541V23.1921C22.0718 23.1302 20.8937 23.0372 19.8086 22.8821V25.982C19.8086 26.5399 20.2426 26.974 20.8005 26.974H28.5197C29.0776 26.974 29.5116 26.54 29.5116 25.982V22.8821C28.4265 23.068 27.2487 23.1612 26.2255 23.1921L26.2258 23.2541H26.1949Z" fill="white"/>
<path d="M29.233 19.1308H27.032V18.3868C27.032 17.6117 26.3808 16.9608 25.606 16.9608H23.7771C23.002 16.9608 22.3511 17.6119 22.3511 18.3868V19.1308H20.1501C19.5922 19.1308 19.1582 19.5648 19.1582 20.1228V21.6729C19.1582 21.8278 19.2512 21.952 19.3753 21.952C20.3673 22.1379 21.6073 22.293 23.1884 22.355C23.1884 21.7351 23.6843 21.2389 24.3045 21.2389H25.1098C25.7297 21.2389 26.226 21.7348 26.226 22.355C27.7761 22.293 29.0471 22.1379 30.008 21.921C30.1319 21.89 30.2251 21.7661 30.2251 21.6419V20.0918C30.2249 19.5958 29.7599 19.1308 29.233 19.1308ZM25.8849 19.1308H23.4358V18.3868C23.4358 18.2318 23.5598 18.0767 23.7459 18.0767H25.5748C25.7298 18.0767 25.8849 18.2006 25.8849 18.3868L25.8849 19.1308Z" fill="white"/>
<path d="M25.0792 23.5641C25.2651 23.5641 25.3893 23.4092 25.3893 23.254V22.417C25.3893 22.2311 25.2343 22.1069 25.0792 22.1069H24.2422C24.0563 22.1069 23.9321 22.2618 23.9321 22.417V23.254C23.9321 23.4399 24.087 23.5641 24.2422 23.5641H25.0792Z" fill="white"/>
<path d="M23.2499 12.7141L24.2108 9.893C24.5519 8.87006 23.9317 7.754 22.8159 7.56812C21.9479 7.41321 21.1109 8.00212 20.8318 8.83912L19.8708 11.6602C19.5298 12.7141 18.6618 13.5202 17.6079 13.7682C15.9958 14.1713 14.3528 14.3572 12.7099 14.3572H12.3999C10.7568 14.3572 9.08281 14.1713 7.50193 13.7682C6.41681 13.5201 5.58005 12.7144 5.23899 11.6602L4.40199 9.14918C4.02996 8.00212 3.19293 7.41318 2.32493 7.56812C1.20881 7.75402 0.588933 8.87012 0.929994 9.893L1.85993 12.6519C2.63499 14.9148 4.46393 16.6818 6.78881 17.2399C7.16084 17.3329 7.53287 17.3949 7.90493 17.488L8.05985 24.2772C8.05985 24.897 8.58679 25.3933 9.17597 25.3933H15.996C16.6158 25.3933 17.1121 24.8973 17.1121 24.2772L17.267 17.488C17.6081 17.4261 17.9801 17.3641 18.3209 17.2709C20.6148 16.6823 22.4747 14.9772 23.2498 12.7141L23.2499 12.7141ZM13.4849 21.7659L12.6789 22.6649C12.6169 22.7268 12.493 22.7268 12.4308 22.6649L11.6248 21.7659C11.5938 21.7349 11.5628 21.6729 11.5938 21.611L12.2759 16.713H11.9658C11.8729 16.713 11.78 16.6201 11.78 16.5271V15.5042C11.78 15.4112 11.8729 15.3183 11.9658 15.3183H13.2368C13.3298 15.3183 13.4227 15.4112 13.4227 15.5042V16.5271C13.4227 16.6201 13.3298 16.713 13.2368 16.713H12.9268L13.6089 21.611C13.516 21.6729 13.516 21.7349 13.485 21.7659H13.4849Z" fill="white"/>
</svg>
