<svg width="31" height="31" viewBox="0 0 31 31" fill="none" xmlns="http://www.w3.org/2000/svg">
<g clip-path="url(#clip0_523_4035)">
<path d="M15.4999 0.775024C7.37814 0.775024 0.774902 7.37766 0.774902 15.5C0.774902 23.6224 7.37754 30.225 15.4999 30.225C23.6223 30.225 30.2249 23.6224 30.2249 15.5C30.2249 7.37766 23.6223 0.775024 15.4999 0.775024ZM25.0481 23.3741L22.3822 20.7082C22.0721 21.4523 21.3903 22.0412 20.5843 22.2273L23.3741 25.0172C21.1422 26.8461 18.3521 27.8693 15.5 27.8693C8.68002 27.8693 3.1309 22.3203 3.1309 15.5001C3.1309 12.6481 4.15384 9.82721 5.98296 7.62602L8.98996 10.633C9.36199 10.4159 9.79596 10.292 10.292 10.292H11.3771C11.4081 10.1371 11.47 9.98191 11.532 9.82699L7.626 5.98299C9.85794 4.15405 12.6481 3.13093 15.5001 3.13093C22.3201 3.13093 27.8692 8.67993 27.8692 15.5001C27.8692 18.3521 26.8771 21.142 25.0481 23.3741Z" fill="white"/>
<path d="M17.2664 16.5226C17.2664 17.2357 16.6775 17.7936 15.9954 17.7936H15.0345C14.3214 17.7936 13.7635 17.2047 13.7635 16.5226V16.4607C12.5544 16.3987 11.2215 16.3057 9.98145 16.0886V19.6226C9.98145 20.2424 10.4774 20.7696 11.1285 20.7696H19.9011C20.521 20.7696 21.0482 20.2737 21.0482 19.6226V16.1196C19.8082 16.3055 18.4752 16.4297 17.2661 16.4917L17.2664 16.5226Z" fill="white"/>
<path d="M20.7082 11.8424H18.1662V11.0054C18.1662 10.1064 17.4221 9.3623 16.5231 9.3623H14.4151C13.5161 9.3623 12.7721 10.1064 12.7721 11.0054V11.8424H10.2301C9.61019 11.8424 9.08301 12.3383 9.08301 12.9894V14.7564C9.08301 14.9113 9.20694 15.0665 9.36209 15.0975C10.4782 15.3146 11.9351 15.5005 13.7021 15.5625C13.7021 14.8494 14.26 14.2915 14.9731 14.2915H15.934C16.6162 14.2915 17.205 14.8494 17.205 15.5625C18.972 15.5005 20.4289 15.3144 21.545 15.0665C21.6999 15.0355 21.8241 14.9116 21.8241 14.7254V12.9584C21.8553 12.3383 21.3594 11.8423 20.7082 11.8423L20.7082 11.8424ZM16.8951 11.8424H14.1053V11.0054C14.1053 10.8195 14.2602 10.6643 14.4463 10.6643H16.5543C16.7402 10.6643 16.8953 10.8192 16.8953 11.0054L16.8951 11.8424Z" fill="white"/>
<path d="M15.9956 16.8949C16.2127 16.8949 16.3676 16.74 16.3676 16.5229V15.562C16.3676 15.3449 16.2127 15.1899 15.9956 15.1899H15.0346C14.8175 15.1899 14.6626 15.3449 14.6626 15.562V16.5229C14.6626 16.74 14.8175 16.8949 15.0346 16.8949H15.9956Z" fill="white"/>
</g>
<defs>
<clipPath id="clip0_523_4035">
<rect width="31" height="31" fill="white"/>
</clipPath>
</defs>
</svg>
