<svg width="24" height="24" viewBox="0 0 24 24" fill="none" xmlns="http://www.w3.org/2000/svg">
<path d="M22.632 6.04797L12.336 0.431967C12.2338 0.372983 12.118 0.341888 12 0.341888C11.882 0.341888 11.7661 0.372983 11.664 0.431967L1.36794 6.04797C1.2263 6.12422 1.11535 6.24719 1.05411 6.39593C0.992873 6.54467 0.985049 6.71007 1.032 6.86397C1.07029 7.01827 1.16021 7.15475 1.28684 7.25077C1.41341 7.34686 1.56911 7.39671 1.72795 7.39202H3.21591V8.92807C3.21348 9.07023 3.25333 9.20983 3.3302 9.32935C3.40707 9.44895 3.51763 9.54311 3.64794 9.59999L3.23998 16.8C3.09427 16.8418 2.96616 16.9301 2.87514 17.0514C2.7842 17.1726 2.7353 17.3204 2.736 17.472V19.272H1.96796C1.77898 19.2779 1.59928 19.3558 1.46554 19.4895C1.3318 19.6233 1.25398 19.803 1.24796 19.992V22.944C1.25398 23.133 1.33179 23.3128 1.46554 23.4465C1.59929 23.5802 1.77898 23.658 1.96796 23.664H22.032C22.2209 23.658 22.4007 23.5802 22.5344 23.4465C22.6681 23.3127 22.746 23.133 22.752 22.944V19.992C22.746 19.803 22.6681 19.6233 22.5344 19.4895C22.4006 19.3558 22.2209 19.2779 22.032 19.272H21.264V17.472C21.2646 17.3204 21.2157 17.1726 21.1248 17.0514C21.0338 16.9301 20.9056 16.8418 20.76 16.8L20.352 9.59999C20.4823 9.54311 20.5928 9.44895 20.6697 9.32935C20.7466 9.20983 20.7864 9.07015 20.784 8.92799V7.39202H22.272C22.4308 7.39671 22.5865 7.34687 22.7131 7.25077C22.8397 7.15475 22.9296 7.01827 22.968 6.86397C23.0148 6.71007 23.0071 6.54467 22.9458 6.39593C22.8846 6.24719 22.7736 6.12421 22.632 6.04797ZM9.71995 16.8C9.57427 16.8418 9.44619 16.9301 9.35515 17.0514C9.26419 17.1726 9.21531 17.3203 9.21603 17.472V19.272H8.30395V17.472C8.30467 17.3203 8.25571 17.1726 8.16483 17.0514C8.07379 16.9301 7.94567 16.8418 7.79998 16.8L7.39202 9.59999C7.52233 9.54311 7.63287 9.44895 7.70975 9.32935C7.78663 9.20983 7.82639 9.07015 7.82397 8.92791V7.39201H9.69603V8.92799C9.69355 9.07023 9.73339 9.20983 9.81019 9.32935C9.88707 9.44895 9.99763 9.54311 10.128 9.59999L9.71995 16.8ZM16.2 16.8C16.0543 16.8418 15.9262 16.9301 15.8352 17.0514C15.7442 17.1726 15.6953 17.3203 15.696 17.472V19.272H14.784V17.472C14.7847 17.3203 14.7357 17.1726 14.6448 17.0514C14.5538 16.9301 14.4257 16.8418 14.28 16.8L13.872 9.59999C14.0024 9.54311 14.1129 9.44895 14.1898 9.32935C14.2666 9.20983 14.3064 9.07015 14.304 8.92791V7.39201H16.176V8.92799C16.1736 9.07023 16.2134 9.20983 16.2902 9.32935C16.3671 9.44895 16.4776 9.54311 16.608 9.59999L16.2 16.8Z" fill="white"/>
</svg>
