<svg width="38" height="38" viewBox="0 0 38 38" fill="none" xmlns="http://www.w3.org/2000/svg">
<path fill-rule="evenodd" clip-rule="evenodd" d="M32.8703 8.72336C31.8876 9.02703 30.9512 9.32306 29.9378 9.59504C29.945 9.24126 29.9275 8.73694 29.9378 8.4976C27.3192 8.19393 24.3559 7.88887 21.6513 7.61217C21.2412 7.56999 20.7845 7.59473 20.4471 7.50616C20.1978 7.43998 19.9915 7.1786 19.7038 7.08053C18.9715 6.83313 17.2744 6.97143 17.26 7.68283C17.2459 8.36528 18.555 8.54204 19.385 8.39074C19.716 8.33112 19.9751 8.10846 20.2346 8.07271C20.5375 8.03053 20.9965 8.14037 21.4035 8.17872C23.9772 8.425 26.7786 8.76541 29.3353 8.99265V9.80819C26.2456 10.686 23.1309 11.6539 19.9867 12.6054C19.5546 12.7358 18.9831 12.9839 18.6411 12.9949C18.2052 13.009 17.4308 12.6305 16.9056 12.4633C12.9628 11.2145 8.99244 9.91877 5.07812 8.67497V7.22264C9.54154 6.00854 14.1326 4.87769 18.5342 3.68136C19.0001 3.55481 19.9255 3.9128 20.5175 4.07089C24.5284 5.14521 28.8661 6.31254 32.876 7.36391L32.8703 8.72336Z" fill="white"/>
<path fill-rule="evenodd" clip-rule="evenodd" d="M29.8728 10.0856H29.9438V12.5992C30.5522 12.7991 30.9421 13.7906 30.404 14.334C31.3802 14.6318 30.8874 16.3992 31.0059 17.5554C30.2224 17.8883 29.0193 17.8697 28.208 17.5554C28.3254 16.4094 27.8394 14.6614 28.8103 14.3691C28.3247 13.8097 28.6245 12.7161 29.3416 12.634V10.2617C29.4974 10.1812 29.7126 10.1607 29.8728 10.0854L29.8728 10.0856Z" fill="white"/>
<path fill-rule="evenodd" clip-rule="evenodd" d="M26.7153 11.6844C23.9564 12.4433 21.2848 13.2891 18.57 14.092C15.7884 13.1797 12.9846 12.2885 10.1774 11.4009C10.1363 11.4066 10.139 11.4572 10.1423 11.5069C10.1409 13.8792 10.1451 16.1432 10.1423 18.446C13.1603 21.1482 21.029 21.7336 25.1568 19.5442C25.6124 19.3025 26.6684 18.7477 26.7155 18.3754L26.7156 11.6842L26.7153 11.6844Z" fill="white"/>
<path fill-rule="evenodd" clip-rule="evenodd" d="M18.9628 34.4531C13.1792 31.7388 7.32722 29.0916 1.50435 26.4148C0.261308 25.1989 0.178183 21.8716 1.22121 20.3589C3.80787 19.1565 6.39744 17.9577 9.01184 16.7834C9.04412 17.4754 8.87466 18.284 9.01184 18.9426C9.10573 19.3914 10.4213 20.0173 10.8533 20.2535C12.8221 21.327 15.5853 22.0596 18.4312 22.0596C22.6859 22.0596 25.8598 20.9812 27.8507 18.9786V18.483C29.1567 19.007 31.145 18.74 32.171 18.1643V15.6152C33.8825 16.5359 35.5593 17.4912 37.2703 18.412C31.0003 21.5034 24.6784 24.5411 18.396 27.6191C12.9889 25.3657 7.6268 23.0664 2.24854 20.7845C1.25066 21.76 1.25785 24.5019 2.10678 25.6358C7.26718 27.9815 18.5589 33.2476 18.7498 33.2491C18.9679 33.2506 19.592 32.855 19.9186 32.683C25.4875 29.7422 31.2005 26.8161 36.7745 23.9008C36.9106 23.8598 36.8185 23.5911 36.846 23.4399C37.0352 23.5935 37.2852 23.6855 37.4471 23.8656C37.4749 24.141 37.3932 24.3075 37.4118 24.5739L18.9628 34.4531Z" fill="white"/>
<path fill-rule="evenodd" clip-rule="evenodd" d="M18.4219 29.2428L2.50151 22.197L2.46094 21.9014L18.381 28.9472L18.4219 29.2428Z" fill="white"/>
<path fill-rule="evenodd" clip-rule="evenodd" d="M18.5467 30.7415L2.62664 23.6957L2.58594 23.4004L18.506 30.4459L18.5467 30.7415Z" fill="white"/>
<path fill-rule="evenodd" clip-rule="evenodd" d="M18.6327 32.1449L2.71257 25.0993L2.67188 24.8037L18.592 31.8492L18.6327 32.1449Z" fill="white"/>
</svg>
