<svg width="24" height="24" viewBox="0 0 24 24" fill="none" xmlns="http://www.w3.org/2000/svg">
<g clip-path="url(#clip0_431_40)">
<mask id="mask0_431_40" style="mask-type:luminance" maskUnits="userSpaceOnUse" x="0" y="0" width="24" height="24">
<path d="M24 0H0V24H24V0Z" fill="white"/>
</mask>
<g mask="url(#mask0_431_40)">
<path d="M15.4386 16.0023C15.169 15.8669 14.8682 15.8056 14.5671 15.8248C14.4031 15.8408 14.2427 15.883 14.0922 15.9498L15.6117 16.5634C15.1632 17.098 14.7531 17.6637 14.3846 18.2563C14.1212 18.67 13.9082 19.1137 13.7501 19.5778C13.6091 19.9479 13.5542 20.3453 13.5897 20.7398C14.3146 20.5778 15.0817 19.7798 15.5771 18.8248C15.929 18.2158 16.0986 17.5185 16.0662 16.8158C16.0028 16.4582 15.7683 16.1545 15.4386 16.0023Z" fill="white"/>
<path d="M5.18604 8.31696V10.7746L13.6174 13.78H13.6224C14.2675 13.7808 14.9121 13.7441 15.5529 13.67C17.1964 13.43 18.2609 12.97 18.2609 12.486V8.436L13.0849 10.19L5.18604 8.31696Z" fill="white"/>
<path d="M11.16 3.22998L0 6.28758L5.186 7.5136L13.0484 9.37656L18.2608 7.61304L23.9998 5.66656L11.16 3.22998Z" fill="white"/>
<path d="M12.85 19.884C12.8604 19.834 12.871 19.7745 12.881 19.7119C12.891 19.6494 12.9124 19.5765 12.9384 19.5034L12.9545 19.4564C13.1454 18.8932 13.4011 18.3542 13.7164 17.85C13.9049 17.5322 14.114 17.2274 14.3424 16.937C14.3504 16.9272 14.3575 16.9166 14.3635 16.9055L13.3355 16.4934C13.0938 16.7473 12.8884 17.0334 12.725 17.3435C12.5007 17.7285 12.3141 18.1342 12.168 18.555L0.26593 13.25L0.192962 13.5686C0.0929619 14.059 0.119994 14.5806 0.438422 14.711L12.9914 20.6874C12.8189 20.557 12.7775 20.27 12.85 19.884Z" fill="white"/>
<path d="M0.0230467 12.2854L0.0243163 12.2829L0.0205078 12.281L0.0230467 12.2854Z" fill="white"/>
<path d="M12.029 16.9836C12.738 15.6181 13.9825 14.8336 14.9404 15.0881L14.9029 15.0741L1.7905 10.3931C1.303 10.1856 0.604484 10.7377 0.220044 11.6431C0.131605 11.8487 0.0657476 12.0633 0.0235596 12.2831L11.7895 17.5261C11.8578 17.3404 11.9378 17.1592 12.029 16.9836Z" fill="white"/>
<path d="M22.6281 8.82296V6.96045L21.8451 7.22147V8.82144C21.6786 8.89552 21.5374 9.01632 21.4384 9.1692C21.3393 9.322 21.2867 9.5004 21.2871 9.68248V10.345C21.2871 10.6834 21.4676 10.9959 21.7606 11.1651C22.0536 11.3343 22.4146 11.3343 22.7076 11.1651C23.0006 10.9959 23.1811 10.6834 23.1811 10.345V9.684C23.1824 9.50224 23.1309 9.32416 23.0326 9.1712C22.9345 9.01832 22.7939 8.89736 22.6281 8.82296Z" fill="white"/>
</g>
</g>
<defs>
<clipPath id="clip0_431_40">
<rect width="24" height="24" fill="white"/>
</clipPath>
</defs>
</svg>
