<svg width="24" height="24" viewBox="0 0 24 24" fill="none" xmlns="http://www.w3.org/2000/svg">
<path d="M22.536 1.29606H8.78403C8.30403 1.29606 7.92004 1.68004 7.92004 2.16004V6.69604C8.11211 7.03206 8.40003 7.48808 8.59211 7.77604L10.8961 7.65604H10.944C11.328 7.65604 11.664 7.96808 11.688 8.35202L11.712 8.76002C11.736 9.16794 11.472 9.50402 11.064 9.57602C10.2001 9.69602 8.18403 9.96002 8.06403 9.98402H7.94406V12.12C7.94406 12.6 8.32803 12.9839 8.80803 12.9839H22.56C23.04 12.9839 23.424 12.6 23.424 12.12V2.16C23.4 1.68 23.016 1.29606 22.536 1.29606Z" fill="white"/>
<path d="M6.21596 3.672C6.21596 4.59983 5.46377 5.352 4.53596 5.352C3.60805 5.352 2.85596 4.59983 2.85596 3.672C2.85596 2.74411 3.60805 1.992 4.53596 1.992C5.46377 1.992 6.21596 2.74411 6.21596 3.672Z" fill="white"/>
<path d="M6.93596 17.8561H6.50392C6.43189 17.8561 6.38392 17.88 6.33595 17.9281C5.92799 18.3121 5.39993 18.5281 4.79993 18.5281C4.19993 18.5281 3.67197 18.2881 3.26391 17.9281C3.21594 17.8801 3.14391 17.8561 3.09594 17.8561H2.6639C2.20788 17.8561 1.87186 18.24 1.91992 18.6961L1.63196 21.5521C1.65594 21.9121 1.89594 22.2481 2.25594 22.3681C2.92798 22.5841 4.07992 22.7041 4.84794 22.7041C5.6159 22.7041 6.76794 22.5841 7.43994 22.3681C7.79994 22.2481 8.03996 21.936 8.06396 21.5521L7.77596 18.6961C7.72784 18.24 7.39198 17.8561 6.93596 17.8561Z" fill="white"/>
<path d="M6.50397 16.272C6.50397 17.2263 5.73029 17.9999 4.77601 17.9999C3.82163 17.9999 3.04797 17.2263 3.04797 16.272C3.04797 15.3176 3.82165 14.5439 4.77601 14.5439C5.73031 14.5439 6.50397 15.3176 6.50397 16.272Z" fill="white"/>
<path d="M14.6401 17.8561H14.2081C14.136 17.8561 14.0881 17.88 14.0401 17.9281C13.6321 18.3121 13.1041 18.5281 12.5041 18.5281C11.9041 18.5281 11.3761 18.2881 10.968 17.9281C10.9201 17.8801 10.848 17.8561 10.8001 17.8561H10.368C9.91198 17.8561 9.57598 18.24 9.62406 18.6961L9.33606 21.5521C9.36006 21.9121 9.60006 22.2481 9.96006 22.3681C10.6321 22.5841 11.7841 22.7041 12.5521 22.7041C13.32 22.7041 14.4721 22.5841 15.1441 22.3681C15.5041 22.2481 15.7441 21.936 15.7681 21.5521L15.4801 18.6961C15.456 18.24 15.0961 17.8561 14.6401 17.8561Z" fill="white"/>
<path d="M14.232 16.272C14.232 17.2263 13.4583 17.9999 12.504 17.9999C11.5497 17.9999 10.776 17.2263 10.776 16.272C10.776 15.3176 11.5497 14.5439 12.504 14.5439C13.4583 14.5439 14.232 15.3176 14.232 16.272Z" fill="white"/>
<path d="M22.368 17.8561H21.9359C21.8639 17.8561 21.8159 17.88 21.768 17.9281C21.36 18.3121 20.832 18.5281 20.232 18.5281C19.632 18.5281 19.104 18.2881 18.6959 17.9281C18.648 17.8801 18.5759 17.8561 18.528 17.8561H18.0959C17.6399 17.8561 17.3039 18.24 17.352 18.6961L17.064 21.5521C17.088 21.9121 17.328 22.2481 17.688 22.3681C18.36 22.5841 19.512 22.7041 20.28 22.7041C21.0479 22.7041 22.2 22.5841 22.872 22.3681C23.232 22.2481 23.472 21.936 23.496 21.5521L23.208 18.6961C23.1599 18.24 22.8 17.8561 22.368 17.8561Z" fill="white"/>
<path d="M21.936 16.272C21.936 17.2263 21.1623 17.9999 20.208 17.9999C19.2537 17.9999 18.48 17.2263 18.48 16.272C18.48 15.3176 19.2537 14.5439 20.208 14.5439C21.1623 14.5439 21.936 15.3176 21.936 16.272Z" fill="white"/>
<path d="M2.03996 9.31202L2.66393 8.01602L2.4719 12.528C2.4719 12.816 2.68793 13.056 2.97589 13.056H6.07189C6.35985 13.056 6.57586 12.816 6.57586 12.552L6.43188 7.72801L7.46392 9.12002L7.67994 9.40802C7.75197 9.50402 7.84791 9.55202 7.99198 9.52802C8.11196 9.50402 10.248 9.24002 10.992 9.12002C11.136 9.09602 11.232 8.97602 11.232 8.8321L11.208 8.4241C11.184 8.2801 11.064 8.16018 10.92 8.1841L8.32804 8.3041C8.32804 8.3041 7.416 6.79209 7.296 6.62413C7.19998 6.48014 6.936 6.09617 6.83997 6.00014C6.76794 5.95217 6.69599 5.90413 6.62396 5.85616L5.75997 5.52014C5.39997 5.76014 4.99201 5.88014 4.536 5.88014C4.07997 5.88014 3.67201 5.73616 3.31201 5.52014L2.44804 5.83218C2.25601 5.90421 2.08804 6.07218 2.016 6.26422L0.983957 8.73618C0.911925 8.88018 0.887941 9.02418 0.863957 9.19226L0.599976 12.2163C0.599976 12.3363 0.672008 12.4323 0.792008 12.4563L1.39201 12.5042C1.51201 12.5042 1.60803 12.4322 1.63201 12.3122L2.03996 9.31202Z" fill="white"/>
</svg>
