<svg width="24" height="24" viewBox="0 0 24 24" fill="none" xmlns="http://www.w3.org/2000/svg">
<path d="M3.95166 4.83281C4.28449 5.00625 4.50949 5.33437 4.55166 5.70937L4.66885 6.74999H7.33125L7.44844 5.70937C7.49063 5.33437 7.71562 5.00625 8.04845 4.83281C8.17973 4.76718 8.25469 4.62657 8.24997 4.48125C8.23597 4.28906 8.08597 4.13907 7.89376 4.12501C7.68752 4.11563 7.50938 4.27501 7.5 4.48125V4.5H6.75V4.125C6.75 3.7125 6.4125 3.375 6 3.375C5.5875 3.375 5.25 3.7125 5.25 4.125V4.5H4.5C4.5 4.29376 4.33125 4.125 4.125 4.125H4.10625C3.91406 4.13906 3.76407 4.28906 3.75001 4.48124C3.74064 4.62655 3.82041 4.76718 3.95166 4.83281Z" fill="white"/>
<path d="M6.00002 10.5H10.8328L10.6594 10.1531C10.5562 9.94688 10.5 9.7172 10.5 9.4828V6C10.5 3.5156 8.4844 1.5 6 1.5C3.5156 1.5 1.5 3.5156 1.5 6C1.5 8.4844 3.51562 10.5 6.00002 10.5ZM3.00002 4.4484C3.03282 3.86716 3.49219 3.40778 4.07346 3.37496C4.27033 3.36558 4.46251 3.40777 4.64063 3.49683C4.98751 2.74683 5.87814 2.41402 6.62814 2.7609C6.95158 2.9109 7.21407 3.17339 7.36407 3.49683C7.53751 3.40778 7.73439 3.36558 7.93126 3.37496C8.55 3.40308 9.0328 3.93278 9 4.55152C8.98128 4.94996 8.7516 5.3109 8.4 5.4937C8.28752 5.54995 8.20784 5.66245 8.19376 5.78902L7.83754 9H4.16254L3.8063 5.78902C3.79223 5.66246 3.71254 5.55464 3.60006 5.4937C3.21567 5.29214 2.98126 4.88434 3.00002 4.4484Z" fill="white"/>
<path d="M10.9172 11.789L10.4578 11.9718C10.0313 12.1406 9.75 12.553 9.75 13.0171V13.8749H14.25V13.0171C14.25 12.5577 13.9688 12.1406 13.5422 11.9718L13.0828 11.789C12.6562 11.6155 12.375 11.203 12.375 10.7437V10.678C12.375 10.5046 12.4172 10.3311 12.4922 10.1765L12.6703 9.82024C12.7218 9.71712 12.75 9.59992 12.75 9.48272V8.24992C12.75 7.8374 12.4125 7.49991 12 7.49991C11.5875 7.49991 11.25 7.8374 11.25 8.24992V9.48272C11.25 9.59992 11.2781 9.7124 11.3297 9.82024L11.5078 10.1765C11.5874 10.3311 11.625 10.5046 11.625 10.678V10.7437C11.625 11.203 11.3438 11.6155 10.9172 11.789Z" fill="white"/>
<path d="M22.5 6C22.5 3.5156 20.4844 1.5 18 1.5C15.5156 1.5 13.5 3.5156 13.5 6V9.4828C13.5 9.7172 13.4438 9.94688 13.3407 10.1531L13.1672 10.5H18C20.4844 10.4953 22.4955 8.4844 22.5 6ZM14.6251 7.5V6.375H15V4.125C15 3.50624 15.5063 3 16.1251 3H19.8751C20.4938 3 21 3.50624 21 4.125V6.375H21.3751V7.5C21.3751 8.11872 20.8688 8.62496 20.25 8.62496H15.75C15.1313 8.62496 14.6251 8.11872 14.6251 7.5Z" fill="white"/>
<path d="M4.8376 8.25H7.1626L7.24697 7.5H4.75317L4.8376 8.25Z" fill="white"/>
<path d="M7.65463 18H5.99995V16.3454L6.86713 15.4782L6.31401 15.2016C6.1687 15.1313 5.99524 15.1594 5.88276 15.2719L5.35776 15.797C5.28745 15.8672 5.24996 15.961 5.24996 16.0641V18.1595L5.14215 18.2673C5.14215 18.2673 4.38276 19.0267 3.82964 19.5751C3.74996 19.6548 3.70776 19.7626 3.70776 19.8705C3.70776 19.983 3.75464 20.0954 3.83433 20.1751L3.8484 20.1892C3.9234 20.2642 4.02652 20.3064 4.12964 20.3064C4.23744 20.3064 4.34057 20.2642 4.41088 20.1892L5.84056 18.7502H7.93596C8.0344 18.7502 8.1328 18.7126 8.20312 18.6423L8.72816 18.1174C8.84064 18.0048 8.86872 17.8267 8.79848 17.6861L8.52192 17.133L7.65463 18Z" fill="white"/>
<path d="M15.75 16.5V17.625C15.75 17.8313 15.9187 18 16.125 18C16.3313 18 16.5 17.8313 16.5 17.625V16.125H16.125C15.9188 16.125 15.75 16.2938 15.75 16.5Z" fill="white"/>
<path d="M20.25 4.125C20.25 3.91876 20.0813 3.75 19.875 3.75H16.125C15.9188 3.75 15.75 3.91875 15.75 4.125V6.375H20.25V4.125Z" fill="white"/>
<path d="M18 13.5H15V14.625H13.5V18C13.5 20.4844 15.5156 22.5 18 22.5C20.4844 22.5 22.5 20.4844 22.5 18C22.5 15.5156 20.4844 13.5 18 13.5ZM21 19.875C21 20.4938 20.4938 21 19.875 21H15.375V20.25H18.75V18C18.75 17.7938 18.5813 17.625 18.375 17.625H17.25C17.25 18.1031 16.95 18.525 16.5 18.6844V19.5H15.75V18.6844C15.3 18.525 15 18.0985 15 17.625V16.5C15 15.8813 15.5062 15.375 16.125 15.375H18.75V14.625H19.5V15.375H19.875C20.4938 15.375 21 15.8813 21 16.5V19.875Z" fill="white"/>
<path d="M19.875 16.125H17.25V16.875H18.375C18.8531 16.875 19.275 17.175 19.4344 17.625H20.25V16.5C20.25 16.2938 20.0813 16.125 19.875 16.125Z" fill="white"/>
<path d="M9 13.5H6C3.5156 13.5 1.5 15.5156 1.5 18C1.5 20.4844 3.5156 22.5 6 22.5C8.4844 22.5 10.5 20.4844 10.5 18V14.625H9V13.5ZM9.46872 17.3484C9.6844 17.7796 9.6 18.3046 9.25784 18.6468L8.7328 19.1718C8.52184 19.3828 8.23592 19.4999 7.93594 19.4999H6.1547L4.94064 20.7187C4.72502 20.9343 4.4344 21.0562 4.12502 21.0562C3.82034 21.0562 3.52502 20.9343 3.3094 20.7187L3.29534 20.7046C2.83596 20.25 2.83596 19.5046 3.29065 19.0453L3.29534 19.0406C3.7219 18.6187 4.26566 18.0702 4.49534 17.8406V16.0546C4.49534 15.7546 4.61253 15.4687 4.82346 15.2578L5.34846 14.7328C5.69064 14.3906 6.21564 14.3062 6.6469 14.5218L8.12816 15.2625L6.75002 16.6546V17.2499H7.34534L8.72816 15.8671L9.46872 17.3484Z" fill="white"/>
<path d="M19.5 20.25H19.875C20.0813 20.25 20.25 20.0813 20.25 19.875V18.375H19.5V20.25Z" fill="white"/>
<path d="M20.624 7.5V7.125H15.374V7.5C15.374 7.70624 15.5428 7.875 15.7491 7.875H20.2491C20.4553 7.875 20.624 7.70625 20.624 7.5Z" fill="white"/>
</svg>
