<svg width="24" height="24" viewBox="0 0 24 24" fill="none" xmlns="http://www.w3.org/2000/svg">
<path d="M23 6.80694C23.0002 6.56259 22.9029 6.32837 22.7296 6.15611L21.9916 5.41818C21.8195 5.24468 21.5853 5.14699 21.3408 5.14699C21.0964 5.14699 20.8621 5.24467 20.69 5.41818L19.4662 6.63277L17.5 8.59903V6.04166C17.5006 5.91982 17.4528 5.80275 17.3671 5.71625L12.7837 1.13292C12.6972 1.04718 12.5802 0.99934 12.4583 1.00001H1.45834C1.33678 1.00001 1.2202 1.04832 1.13425 1.13426C1.04832 1.2202 1 1.33679 1 1.45834V22.5417C1 22.6632 1.04832 22.7798 1.13425 22.8657C1.22019 22.9517 1.33678 23 1.45834 23H17.0417C17.1632 23 17.2798 22.9517 17.3657 22.8657C17.4517 22.7798 17.5 22.6632 17.5 22.5417V12.6783L21.1667 9.01167L21.5517 9.39208C21.6385 9.47811 21.6873 9.59527 21.6873 9.71748C21.6873 9.83969 21.6385 9.95687 21.5517 10.0429L18.5313 13.0588C18.415 13.1751 18.3696 13.3445 18.4122 13.5033C18.4547 13.6622 18.5788 13.7863 18.7376 13.8287C18.8964 13.8713 19.0658 13.826 19.1821 13.7097L22.1981 10.6893C22.4556 10.4315 22.6002 10.082 22.6002 9.71765C22.6002 9.35328 22.4556 9.0038 22.1981 8.74598L21.836 8.33348L22.7298 7.44432C22.8997 7.2755 22.9967 7.0468 23.0002 6.80725L23 6.80694ZM11.3353 17.5366L10.3362 17.7886L10.5882 16.7941L16.1249 11.2711L16.8674 11.9998L11.3353 17.5366ZM12.9166 2.5629L15.937 5.58325H12.9166V2.5629ZM16.5833 22.0832H1.91661V1.91659H11.9999V6.04158C11.9999 6.16314 12.0483 6.27973 12.1342 6.36567C12.2201 6.4516 12.3367 6.49992 12.4583 6.49992H16.5833V9.51588L9.8503 16.2352C9.79072 16.2929 9.74794 16.3658 9.72655 16.446L9.29571 18.1831L8.92445 18.5497C8.80815 18.666 8.7628 18.8354 8.80538 18.9942C8.84787 19.1531 8.97191 19.2771 9.13079 19.3196C9.28958 19.3622 9.45898 19.3169 9.57528 19.2006L9.94195 18.8293L11.679 18.4168C11.7586 18.3938 11.831 18.3513 11.8899 18.293L16.5832 13.5951L16.5833 22.0832ZM17.4999 11.3673L16.7712 10.6248L19.7915 7.60884L20.5386 8.333L17.4999 11.3673ZM21.1666 7.70063L20.4424 6.95813L21.3362 6.06896L22.0832 6.81146L21.1666 7.70063Z" fill="#1B1B1B"/>
<path d="M4.2083 5.58463H9.7083C9.87206 5.58463 10.0233 5.49727 10.1052 5.35547C10.1871 5.21367 10.1871 5.03894 10.1052 4.89714C10.0233 4.75534 9.87205 4.66797 9.7083 4.66797H4.2083C4.04455 4.66797 3.89329 4.75534 3.81137 4.89714C3.72954 5.03893 3.72954 5.21367 3.81137 5.35547C3.8933 5.49727 4.04455 5.58463 4.2083 5.58463Z" fill="#1B1B1B"/>
<path d="M4.2083 8.33463H14.2916C14.4554 8.33463 14.6066 8.24727 14.6886 8.10547C14.7704 7.96367 14.7704 7.78894 14.6886 7.64714C14.6066 7.50534 14.4554 7.41797 14.2916 7.41797H4.2083C4.04455 7.41797 3.89329 7.50534 3.81137 7.64714C3.72954 7.78893 3.72954 7.96367 3.81137 8.10547C3.8933 8.24727 4.04455 8.33463 4.2083 8.33463Z" fill="#1B1B1B"/>
<path d="M4.2083 11.0846H13.375C13.5387 11.0846 13.69 10.9973 13.7719 10.8555C13.8537 10.7137 13.8537 10.5389 13.7719 10.3971C13.69 10.2553 13.5387 10.168 13.375 10.168H4.2083C4.04455 10.168 3.89329 10.2553 3.81137 10.3971C3.72954 10.5389 3.72954 10.7137 3.81137 10.8555C3.8933 10.9973 4.04455 11.0846 4.2083 11.0846Z" fill="#1B1B1B"/>
<path d="M4.2083 13.8346H10.625C10.7887 13.8346 10.94 13.7473 11.0219 13.6055C11.1037 13.4637 11.1037 13.2889 11.0219 13.1471C10.94 13.0053 10.7887 12.918 10.625 12.918H4.2083C4.04455 12.918 3.89329 13.0053 3.81137 13.1471C3.72954 13.2889 3.72954 13.4637 3.81137 13.6055C3.8933 13.7473 4.04455 13.8346 4.2083 13.8346Z" fill="#1B1B1B"/>
<path d="M7.87497 15.668H4.2083C4.04455 15.668 3.89329 15.7553 3.81137 15.8971C3.72954 16.0389 3.72954 16.2137 3.81137 16.3555C3.8933 16.4973 4.04455 16.5846 4.2083 16.5846H7.87497C8.03873 16.5846 8.18998 16.4973 8.2719 16.3555C8.35373 16.2137 8.35373 16.0389 8.2719 15.8971C8.18997 15.7553 8.03872 15.668 7.87497 15.668Z" fill="#1B1B1B"/>
<path d="M6.49997 18.418H4.2083C4.04455 18.418 3.89329 18.5053 3.81137 18.6471C3.72954 18.7889 3.72954 18.9637 3.81137 19.1055C3.8933 19.2473 4.04455 19.3346 4.2083 19.3346H6.49997C6.66373 19.3346 6.81498 19.2473 6.8969 19.1055C6.97873 18.9637 6.97873 18.7889 6.8969 18.6471C6.81497 18.5053 6.66372 18.418 6.49997 18.418Z" fill="#1B1B1B"/>
</svg>
