<svg width="9" height="22" viewBox="0 0 9 22" fill="none" xmlns="http://www.w3.org/2000/svg">
<g clip-path="url(#clip0_2794_1740)">
<path d="M2.35698 1.21595C1.79013 1.76979 1.47301 2.51939 1.47274 3.2994C1.47248 4.07941 1.78909 4.82922 2.35556 5.38342C2.92185 5.93744 3.69154 6.25039 4.49595 6.25115C4.49692 6.25115 4.4979 6.25115 4.49887 6.25116C4.49984 6.25115 4.50082 6.25115 4.50179 6.25115C5.30547 6.25039 6.07456 5.938 6.64076 5.38481C7.20762 4.83098 7.52473 4.08138 7.525 3.30136C7.52526 2.52135 7.20866 1.77154 6.64218 1.21734C6.07544 0.662882 5.30498 0.349872 4.49988 0.34961C3.69479 0.349347 2.92411 0.661855 2.35698 1.21595ZM2.35698 1.21595L2.11239 0.965606M4.50212 6.95115H5.71498C6.49591 6.95115 7.2433 7.25452 7.79315 7.79209C8.34272 8.3294 8.64997 9.05645 8.64997 9.81283V13.2005C8.64997 13.6885 8.45177 14.1581 8.09629 14.5057C7.74054 14.8535 7.25641 15.0503 6.74998 15.0503C6.55668 15.0503 6.39998 15.207 6.39998 15.4003V21.6496H2.59998V15.4003C2.59998 15.207 2.44328 15.0503 2.24998 15.0503C1.74355 15.0503 1.25942 14.8535 0.903667 14.5057C0.548191 14.1581 0.349976 13.6885 0.349976 13.2005V9.81283C0.349976 9.05645 0.657234 8.3294 1.20681 7.79209C1.75666 7.25452 2.50405 6.95115 3.28498 6.95115H4.49529C4.49637 6.95115 4.49779 6.95114 4.49887 6.95113C4.49995 6.95114 4.50104 6.95115 4.50212 6.95115Z" stroke="#03DEFC" stroke-width="0.7" stroke-linejoin="round"/>
</g>
<defs>
<clipPath id="clip0_2794_1740">
<rect width="9" height="22" fill="white"/>
</clipPath>
</defs>
</svg>
