<svg width="26" height="26" viewBox="0 0 26 26" fill="none" xmlns="http://www.w3.org/2000/svg">
<rect x="0.5" y="0.5" width="25" height="25" rx="3.5" fill="url(#paint0_linear_2144_1559)"/>
<rect x="0.5" y="0.5" width="25" height="25" rx="3.5" stroke="url(#paint1_linear_2144_1559)"/>
<path d="M19.3334 5H7.23343C6.73343 5 6.3001 5.43333 6.3001 5.96667V7.26667H5.93343C5.73343 7.26667 5.6001 7.4 5.6001 7.6C5.6001 7.8 5.73343 7.93333 5.93343 7.93333H6.3001V8.73333H5.93343C5.73343 8.73333 5.6001 8.86667 5.6001 9.06667C5.6001 9.26667 5.73343 9.4 5.93343 9.4H6.3001V12H5.93343C5.73343 12 5.6001 12.1333 5.6001 12.3333C5.6001 12.5333 5.73343 12.6667 5.93343 12.6667H6.3001V13.4667H5.93343C5.73343 13.4667 5.6001 13.6 5.6001 13.8C5.6001 14 5.73343 14.1333 5.93343 14.1333H6.3001V16.3667H5.93343C5.73343 16.3667 5.6001 16.5 5.6001 16.7C5.6001 16.9 5.73343 17.0333 5.93343 17.0333H6.3001V17.8333H5.93343C5.73343 17.8333 5.6001 17.9667 5.6001 18.1667C5.6001 18.3667 5.73343 18.5 5.93343 18.5H6.3001V20.0333C6.3001 20.5667 6.73343 21 7.26676 21H19.3334C19.9334 21 20.4001 20.5333 20.4001 19.9333V6.06667C20.4001 5.46667 19.9334 5 19.3334 5ZM9.56676 17.3667H19.7334V18.4333H9.56676V17.3667ZM19.7334 6.06667V16.7H9.56676V5.66667H19.3334C19.5668 5.66667 19.7334 5.86667 19.7334 6.06667ZM6.96676 20.0333V18.5H7.33343C7.53343 18.5 7.66676 18.3667 7.66676 18.1667C7.66676 17.9667 7.53343 17.8333 7.33343 17.8333H6.96676V17.0333H7.33343C7.53343 17.0333 7.66676 16.9 7.66676 16.7C7.66676 16.5 7.53343 16.3667 7.33343 16.3667H6.96676V14.1333H7.33343C7.53343 14.1333 7.66676 14 7.66676 13.8C7.66676 13.6 7.53343 13.4667 7.33343 13.4667H6.96676V12.6667H7.33343C7.53343 12.6667 7.66676 12.5333 7.66676 12.3333C7.66676 12.1333 7.53343 12 7.33343 12H6.96676V9.4H7.33343C7.53343 9.4 7.66676 9.26667 7.66676 9.06667C7.66676 8.86667 7.53343 8.73333 7.33343 8.73333H6.96676V7.93333H7.33343C7.53343 7.93333 7.66676 7.8 7.66676 7.6C7.66676 7.4 7.53343 7.26667 7.33343 7.26667H6.96676V5.96667C6.96676 5.8 7.1001 5.66667 7.23343 5.66667H8.9001V20.3333H7.23343C7.1001 20.3333 6.96676 20.2 6.96676 20.0333ZM19.3334 20.3333H9.56676V19.1H19.7334V19.9333C19.7334 20.1333 19.5668 20.3333 19.3334 20.3333Z" fill="white"/>
<path d="M12.2668 14.7667H17.0334C17.2334 14.7667 17.3668 14.6333 17.3668 14.4333V12.3333C17.3668 11.7 16.8334 11.1667 16.2001 11.1667H16.1001C16.4001 10.8333 16.6001 10.3667 16.6001 9.86667C16.6001 8.8 15.7334 7.9 14.6334 7.9C13.5334 7.9 12.6668 8.76667 12.6668 9.86667C12.6668 10.3667 12.8668 10.8333 13.1668 11.1667H13.0668C12.4334 11.1667 11.9001 11.7 11.9001 12.3333V14.4333C11.9334 14.6 12.1001 14.7667 12.2668 14.7667ZM13.3668 9.86667C13.3668 9.16667 13.9334 8.56667 14.6668 8.56667C15.4001 8.56667 15.9668 9.13333 15.9668 9.86667C15.9668 10.6 15.4001 11.1667 14.6668 11.1667C13.9334 11.1667 13.3668 10.6 13.3668 9.86667ZM12.6001 12.3333C12.6001 12.0667 12.8334 11.8333 13.1001 11.8333H16.2334C16.5001 11.8333 16.7334 12.0667 16.7334 12.3333V14.1H12.6001V12.3333Z" fill="white"/>
<defs>
<linearGradient id="paint0_linear_2144_1559" x1="12.9999" y1="0.9999" x2="12.9999" y2="24.9999" gradientUnits="userSpaceOnUse">
<stop stop-color="#0072E0"/>
<stop offset="1" stop-color="#00376C"/>
</linearGradient>
<linearGradient id="paint1_linear_2144_1559" x1="12.9999" y1="0.9999" x2="12.9999" y2="24.9999" gradientUnits="userSpaceOnUse">
<stop offset="0.258333" stop-color="#04E0FF"/>
<stop offset="1" stop-color="#0D7684"/>
</linearGradient>
</defs>
</svg>
