<svg width="110" height="54" viewBox="0 0 110 54" fill="none" xmlns="http://www.w3.org/2000/svg">
<g clip-path="url(#clip0_206_97)">
<path d="M5.33866 34.57C5.94753 34.3926 6.47651 33.9797 6.82696 33.4083C7.17741 32.8369 7.32541 32.146 7.24341 31.4643C7.1614 30.7826 6.85497 30.1568 6.38124 29.7034C5.9075 29.2499 5.2988 28.9999 4.66858 28.9999C4.03837 28.9999 3.42965 29.2499 2.95592 29.7034C2.48219 30.1568 2.17575 30.7826 2.09375 31.4643C2.01174 32.146 2.15975 32.8369 2.5102 33.4083C2.86065 33.9797 3.38962 34.3926 3.9985 34.57C2.88863 34.7471 1.87412 35.3536 1.14007 36.2788C0.406027 37.204 0.00139035 38.3864 0 39.61V44.42C0 44.5653 0.0529259 44.7047 0.147131 44.8075C0.241337 44.9103 0.369096 44.968 0.502323 44.968H1.54275L2.27608 52.168C2.32733 52.672 2.54721 53.1376 2.89363 53.4756C3.24005 53.8137 3.68862 54.0004 4.15341 54H5.17641C5.6414 54.0006 6.09021 53.8138 6.43669 53.4755C6.78316 53.1372 7.0029 52.6712 7.05374 52.167L7.78709 44.942H8.82749C8.96072 44.942 9.0885 44.8843 9.18271 44.7815C9.27694 44.6787 9.32983 44.5393 9.32983 44.394V39.61C9.32846 38.3864 8.92381 37.204 8.18976 36.2788C7.45572 35.3536 6.4412 34.7471 5.33132 34.57H5.33866ZM3.07542 31.833C3.07542 31.4893 3.16885 31.1532 3.34391 30.8674C3.51897 30.5816 3.76778 30.3588 4.0589 30.2273C4.35 30.0958 4.67035 30.0613 4.9794 30.1284C5.28844 30.1955 5.57231 30.361 5.79512 30.6041C6.01793 30.8471 6.16967 31.1568 6.23114 31.4939C6.29261 31.8311 6.26106 32.1805 6.14048 32.4981C6.01989 32.8157 5.81569 33.0871 5.5537 33.2781C5.29171 33.4691 4.98369 33.571 4.66858 33.571C4.2462 33.5705 3.84125 33.3872 3.54257 33.0614C3.2439 32.7355 3.0759 32.2938 3.07542 31.833ZM8.33248 43.847H7.3489C7.2254 43.8469 7.10622 43.8966 7.01421 43.9865C6.92218 44.0763 6.86379 44.2001 6.85024 44.334L6.06283 52.046C6.03911 52.2822 5.93625 52.5005 5.77401 52.6591C5.61177 52.8176 5.40156 52.9052 5.18375 52.905H4.16075C3.94313 52.905 3.73316 52.8175 3.57098 52.6592C3.4088 52.5009 3.30579 52.2829 3.28167 52.047L2.49058 44.359C2.47704 44.2251 2.41865 44.1013 2.32664 44.0115C2.23461 43.9216 2.11542 43.8719 1.99191 43.872H1.00466V39.61C0.98725 39.0731 1.06915 38.538 1.24547 38.0364C1.42178 37.5348 1.6889 37.0771 2.03089 36.6906C2.37287 36.3041 2.78272 35.9967 3.23597 35.7868C3.68923 35.5768 4.17661 35.4686 4.66903 35.4686C5.16146 35.4686 5.64884 35.5768 6.10209 35.7868C6.55535 35.9967 6.9652 36.3041 7.30719 36.6906C7.64918 37.0771 7.91629 37.5348 8.0926 38.0364C8.26892 38.538 8.35082 39.0731 8.33341 39.61L8.33248 43.847Z" fill="white"/>
<path d="M61.1884 34.57C61.7972 34.3926 62.3263 33.9797 62.6767 33.4083C63.0271 32.8369 63.1752 32.146 63.0931 31.4643C63.0111 30.7826 62.7047 30.1568 62.231 29.7034C61.7572 29.2499 61.1485 28.9999 60.5183 28.9999C59.8881 28.9999 59.2794 29.2499 58.8056 29.7034C58.3319 30.1568 58.0254 30.7826 57.9435 31.4643C57.8615 32.146 58.0095 32.8369 58.3599 33.4083C58.7104 33.9797 59.2394 34.3926 59.8482 34.57C58.7383 34.7471 57.7239 35.3536 56.9898 36.2788C56.2557 37.204 55.8511 38.3864 55.8497 39.61V44.42C55.8497 44.5653 55.9026 44.7047 55.9969 44.8075C56.0911 44.9103 56.2189 44.968 56.3521 44.968H57.3925L58.1258 52.168C58.1771 52.672 58.397 53.1376 58.7434 53.4756C59.0898 53.8137 59.5383 54.0004 60.0031 54H61.0261C61.4911 54.0006 61.94 53.8138 62.2864 53.4755C62.6329 53.1372 62.8526 52.6712 62.9035 52.167L63.6368 44.942H64.6772C64.8104 44.942 64.9382 44.8843 65.0324 44.7815C65.1267 44.6787 65.1796 44.5393 65.1796 44.394V39.61C65.1782 38.3864 64.7736 37.204 64.0395 36.2788C63.3054 35.3536 62.291 34.7471 61.1811 34.57H61.1884ZM58.9251 31.833C58.9251 31.4893 59.0186 31.1532 59.1936 30.8674C59.3687 30.5816 59.6175 30.3588 59.9086 30.2273C60.1998 30.0958 60.5201 30.0613 60.8292 30.1284C61.1382 30.1955 61.4221 30.361 61.6448 30.6041C61.8677 30.8471 62.0194 31.1568 62.0809 31.4939C62.1424 31.8311 62.1108 32.1805 61.9902 32.4981C61.8697 32.8157 61.6654 33.0871 61.4035 33.2781C61.1415 33.4691 60.8334 33.571 60.5183 33.571C60.0959 33.5705 59.6909 33.3872 59.3923 33.0614C59.0936 32.7355 58.9256 32.2938 58.9251 31.833ZM64.1822 43.847H63.1986C63.0751 43.8469 62.9559 43.8966 62.864 43.9865C62.7719 44.0763 62.7136 44.2001 62.7 44.334L61.9126 52.046C61.8888 52.2822 61.786 52.5005 61.6237 52.6591C61.4615 52.8176 61.2513 52.9052 61.0335 52.905H60.0105C59.7929 52.905 59.5829 52.8175 59.4207 52.6592C59.2585 52.5009 59.1555 52.2829 59.1314 52.047L58.3403 44.359C58.3268 44.2251 58.2684 44.1013 58.1763 44.0115C58.0844 43.9216 57.9651 43.8719 57.8416 43.872H56.8544V39.61C56.837 39.0731 56.9188 38.538 57.0952 38.0364C57.2715 37.5348 57.5386 37.0771 57.8806 36.6906C58.2226 36.3041 58.6325 35.9967 59.0857 35.7868C59.5389 35.5768 60.0263 35.4686 60.5188 35.4686C61.0112 35.4686 61.4986 35.5768 61.9518 35.7868C62.4051 35.9967 62.8149 36.3041 63.1569 36.6906C63.4989 37.0771 63.7661 37.5348 63.9423 38.0364C64.1186 38.538 64.2006 39.0731 64.1831 39.61L64.1822 43.847Z" fill="white"/>
<path d="M16.5092 34.57C17.1181 34.3926 17.647 33.9797 17.9975 33.4083C18.3479 32.8369 18.496 32.146 18.4139 31.4643C18.332 30.7826 18.0255 30.1568 17.5518 29.7034C17.0781 29.2499 16.4693 28.9999 15.8391 28.9999C15.2089 28.9999 14.6002 29.2499 14.1265 29.7034C13.6527 30.1568 13.3463 30.7826 13.2643 31.4643C13.1823 32.146 13.3303 32.8369 13.6807 33.4083C14.0311 33.9797 14.5602 34.3926 15.169 34.57C14.0592 34.7471 13.0446 35.3536 12.3106 36.2788C11.5766 37.204 11.172 38.3864 11.1705 39.61V44.42C11.1705 44.5653 11.2235 44.7047 11.3176 44.8075C11.4119 44.9103 11.5396 44.968 11.6728 44.968H12.7133L13.4466 52.168C13.4978 52.672 13.7177 53.1376 14.0641 53.4756C14.4106 53.8137 14.8592 54.0004 15.3239 54H16.3469C16.8119 54.0006 17.2607 53.8138 17.6072 53.4755C17.9537 53.1372 18.1735 52.6712 18.2243 52.167L18.9576 44.942H19.998C20.1313 44.942 20.2591 44.8843 20.3532 44.7815C20.4474 44.6787 20.5003 44.5393 20.5003 44.394V39.61C20.499 38.3864 20.0943 37.204 19.3603 36.2788C18.6262 35.3536 17.6117 34.7471 16.5018 34.57H16.5092ZM14.2459 31.833C14.2459 31.4893 14.3394 31.1532 14.5144 30.8674C14.6895 30.5816 14.9383 30.3588 15.2294 30.2273C15.5205 30.0958 15.8409 30.0613 16.1499 30.1284C16.4589 30.1955 16.7428 30.361 16.9657 30.6041C17.1884 30.8471 17.3402 31.1568 17.4016 31.4939C17.4631 31.8311 17.4316 32.1805 17.311 32.4981C17.1904 32.8157 16.9862 33.0871 16.7242 33.2781C16.4622 33.4691 16.1542 33.571 15.8391 33.571C15.4168 33.5705 15.0118 33.3872 14.7131 33.0614C14.4144 32.7355 14.2465 32.2938 14.2459 31.833ZM19.503 43.847H18.5194C18.3959 43.8469 18.2768 43.8966 18.1847 43.9865C18.0927 44.0763 18.0343 44.2001 18.0208 44.334L17.2333 52.046C17.2097 52.2822 17.1067 52.5005 16.9446 52.6591C16.7823 52.8176 16.5721 52.9052 16.3543 52.905H15.3313C15.1136 52.905 14.9037 52.8175 14.7415 52.6592C14.5793 52.5009 14.4764 52.2829 14.4522 52.047L13.6611 44.359C13.6476 44.2251 13.5892 44.1013 13.4972 44.0115C13.4052 43.9216 13.286 43.8719 13.1624 43.872H12.1752V39.61C12.1578 39.0731 12.2397 38.538 12.416 38.0364C12.5923 37.5348 12.8595 37.0771 13.2015 36.6906C13.5434 36.3041 13.9532 35.9967 14.4065 35.7868C14.8597 35.5768 15.3471 35.4686 15.8395 35.4686C16.332 35.4686 16.8194 35.5768 17.2727 35.7868C17.7259 35.9967 18.1357 36.3041 18.4777 36.6906C18.8197 37.0771 19.0868 37.5348 19.2631 38.0364C19.4395 38.538 19.5213 39.0731 19.5039 39.61L19.503 43.847Z" fill="white"/>
<path d="M72.358 34.57C72.9669 34.3926 73.4959 33.9797 73.8463 33.4083C74.1968 32.8369 74.3448 32.146 74.2628 31.4643C74.1807 30.7826 73.8744 30.1568 73.4005 29.7034C72.9268 29.2499 72.3181 28.9999 71.6879 28.9999C71.0577 28.9999 70.449 29.2499 69.9752 29.7034C69.5015 30.1568 69.1951 30.7826 69.1131 31.4643C69.0311 32.146 69.1791 32.8369 69.5296 33.4083C69.88 33.9797 70.409 34.3926 71.0178 34.57C69.9079 34.7471 68.8935 35.3536 68.1594 36.2788C67.4253 37.204 67.0207 38.3864 67.0193 39.61V44.42C67.0193 44.5653 67.0722 44.7047 67.1665 44.8075C67.2607 44.9103 67.3884 44.968 67.5217 44.968H68.5621L69.2954 52.168C69.3467 52.672 69.5666 53.1376 69.913 53.4756C70.2594 53.8137 70.7079 54.0004 71.1728 54H72.1958C72.6607 54.0006 73.1096 53.8138 73.456 53.4755C73.8025 53.1372 74.0222 52.6712 74.0731 52.167L74.8064 44.942H75.8468C75.98 44.942 76.1078 44.8843 76.2021 44.7815C76.2963 44.6787 76.3492 44.5393 76.3492 44.394V39.61C76.3478 38.3864 75.9432 37.204 75.2091 36.2788C74.4751 35.3536 73.4606 34.7471 72.3507 34.57H72.358ZM70.0948 31.833C70.0948 31.4893 70.1882 31.1532 70.3633 30.8674C70.5383 30.5816 70.7871 30.3588 71.0783 30.2273C71.3694 30.0958 71.6897 30.0613 71.9988 30.1284C72.3078 30.1955 72.5917 30.361 72.8144 30.6041C73.0373 30.8471 73.189 31.1568 73.2505 31.4939C73.312 31.8311 73.2804 32.1805 73.1598 32.4981C73.0393 32.8157 72.835 33.0871 72.5731 33.2781C72.3111 33.4691 72.003 33.571 71.6879 33.571C71.2655 33.5705 70.8605 33.3872 70.5619 33.0614C70.2632 32.7355 70.0952 32.2938 70.0948 31.833ZM75.3519 43.847H74.3683C74.2447 43.8469 74.1255 43.8966 74.0336 43.9865C73.9416 44.0763 73.8832 44.2001 73.8696 44.334L73.0822 52.046C73.0584 52.2822 72.9556 52.5005 72.7933 52.6591C72.6311 52.8176 72.4209 52.9052 72.2031 52.905H71.1801C70.9625 52.905 70.7525 52.8175 70.5903 52.6592C70.4282 52.5009 70.3251 52.2829 70.301 52.047L69.5099 44.359C69.4964 44.2251 69.438 44.1013 69.3459 44.0115C69.254 43.9216 69.1347 43.8719 69.0113 43.872H68.024V39.61C68.0066 39.0731 68.0885 38.538 68.2648 38.0364C68.4411 37.5348 68.7082 37.0771 69.0502 36.6906C69.3922 36.3041 69.8021 35.9967 70.2554 35.7868C70.7086 35.5768 71.196 35.4686 71.6884 35.4686C72.1808 35.4686 72.6682 35.5768 73.1214 35.7868C73.5747 35.9967 73.9846 36.3041 74.3266 36.6906C74.6686 37.0771 74.9357 37.5348 75.112 38.0364C75.2882 38.538 75.3702 39.0731 75.3528 39.61L75.3519 43.847Z" fill="white"/>
<path d="M27.6788 34.57C28.2876 34.3926 28.8165 33.9797 29.1671 33.4083C29.5175 32.8369 29.6654 32.146 29.5835 31.4643C29.5015 30.7826 29.195 30.1568 28.7213 29.7034C28.2475 29.2499 27.6389 28.9999 27.0087 28.9999C26.3785 28.9999 25.7697 29.2499 25.296 29.7034C24.8222 30.1568 24.5158 30.7826 24.4338 31.4643C24.3518 32.146 24.4998 32.8369 24.8503 33.4083C25.2007 33.9797 25.7296 34.3926 26.3386 34.57C25.2287 34.7471 24.2142 35.3536 23.4801 36.2788C22.7461 37.204 22.3415 38.3864 22.3401 39.61V44.42C22.3401 44.5653 22.393 44.7047 22.4872 44.8075C22.5814 44.9103 22.7091 44.968 22.8424 44.968H23.8828L24.6162 52.168C24.6674 52.672 24.8873 53.1376 25.2337 53.4756C25.5801 53.8137 26.0287 54.0004 26.4935 54H27.5165C27.9814 54.0006 28.4302 53.8138 28.7767 53.4755C29.1232 53.1372 29.343 52.6712 29.3938 52.167L30.1272 44.942H31.1676C31.3008 44.942 31.4286 44.8843 31.5228 44.7815C31.6169 44.6787 31.6699 44.5393 31.6699 44.394V39.61C31.6685 38.3864 31.2638 37.204 30.5299 36.2788C29.7958 35.3536 28.7812 34.7471 27.6714 34.57H27.6788ZM25.4155 31.833C25.4155 31.4893 25.5089 31.1532 25.684 30.8674C25.859 30.5816 26.1079 30.3588 26.399 30.2273C26.69 30.0958 27.0104 30.0613 27.3194 30.1284C27.6285 30.1955 27.9124 30.361 28.1352 30.6041C28.358 30.8471 28.5097 31.1568 28.5712 31.4939C28.6326 31.8311 28.6011 32.1805 28.4806 32.4981C28.3599 32.8157 28.1558 33.0871 27.8938 33.2781C27.6317 33.4691 27.3237 33.571 27.0087 33.571C26.5863 33.5705 26.1813 33.3872 25.8826 33.0614C25.584 32.7355 25.416 32.2938 25.4155 31.833ZM30.6726 43.847H29.689C29.5654 43.8469 29.4463 43.8966 29.3542 43.9865C29.2622 44.0763 29.2038 44.2001 29.1903 44.334L28.4029 52.046C28.3792 52.2822 28.2763 52.5005 28.1141 52.6591C27.9518 52.8176 27.7416 52.9052 27.5238 52.905H26.5008C26.2832 52.905 26.0732 52.8175 25.9111 52.6592C25.7489 52.5009 25.6459 52.2829 25.6218 52.047L24.8307 44.359C24.8171 44.2251 24.7587 44.1013 24.6667 44.0115C24.5746 43.9216 24.4555 43.8719 24.332 43.872H23.3448V39.61C23.3273 39.0731 23.4092 38.538 23.5856 38.0364C23.7618 37.5348 24.029 37.0771 24.371 36.6906C24.713 36.3041 25.1228 35.9967 25.576 35.7868C26.0293 35.5768 26.5167 35.4686 27.0091 35.4686C27.5016 35.4686 27.9889 35.5768 28.4422 35.7868C28.8954 35.9967 29.3053 36.3041 29.6473 36.6906C29.9892 37.0771 30.2563 37.5348 30.4327 38.0364C30.609 38.538 30.6908 39.0731 30.6735 39.61L30.6726 43.847Z" fill="white"/>
<path d="M83.5285 34.57C84.1373 34.3926 84.6663 33.9797 85.0168 33.4083C85.3672 32.8369 85.5152 32.146 85.4332 31.4643C85.3512 30.7826 85.0447 30.1568 84.571 29.7034C84.0973 29.2499 83.4886 28.9999 82.8584 28.9999C82.2282 28.9999 81.6194 29.2499 81.1457 29.7034C80.672 30.1568 80.3655 30.7826 80.2836 31.4643C80.2015 32.146 80.3496 32.8369 80.7 33.4083C81.0505 33.9797 81.5794 34.3926 82.1883 34.57C81.0784 34.7471 80.0639 35.3536 79.3299 36.2788C78.5958 37.204 78.1912 38.3864 78.1898 39.61V44.42C78.1898 44.5653 78.2427 44.7047 78.337 44.8075C78.4312 44.9103 78.5589 44.968 78.6922 44.968H79.7326L80.4659 52.168C80.5171 52.672 80.7371 53.1376 81.0835 53.4756C81.4299 53.8137 81.8784 54.0004 82.3432 54H83.3662C83.8312 54.0006 84.28 53.8138 84.6265 53.4755C84.973 53.1372 85.1927 52.6712 85.2436 52.167L85.9769 44.942H87.0173C87.1505 44.942 87.2783 44.8843 87.3725 44.7815C87.4667 44.6787 87.5197 44.5393 87.5197 44.394V39.61C87.5183 38.3864 87.1136 37.204 86.3796 36.2788C85.6455 35.3536 84.631 34.7471 83.5212 34.57H83.5285ZM81.2652 31.833C81.2652 31.4893 81.3586 31.1532 81.5337 30.8674C81.7088 30.5816 81.9576 30.3588 82.2487 30.2273C82.5398 30.0958 82.8602 30.0613 83.1692 30.1284C83.4783 30.1955 83.7622 30.361 83.9849 30.6041C84.2077 30.8471 84.3594 31.1568 84.421 31.4939C84.4824 31.8311 84.4508 32.1805 84.3303 32.4981C84.2097 32.8157 84.0055 33.0871 83.7435 33.2781C83.4815 33.4691 83.1735 33.571 82.8584 33.571C82.436 33.5705 82.031 33.3872 81.7324 33.0614C81.4337 32.7355 81.2657 32.2938 81.2652 31.833ZM86.5223 43.847H85.5387C85.4152 43.8469 85.296 43.8966 85.204 43.9865C85.1119 44.0763 85.0536 44.2001 85.0401 44.334L84.2527 52.046C84.2289 52.2822 84.1261 52.5005 83.9638 52.6591C83.8016 52.8176 83.5914 52.9052 83.3736 52.905H82.3506C82.133 52.905 81.923 52.8175 81.7608 52.6592C81.5986 52.5009 81.4956 52.2829 81.4715 52.047L80.6804 44.359C80.6668 44.2251 80.6084 44.1013 80.5164 44.0115C80.4244 43.9216 80.3052 43.8719 80.1817 43.872H79.1945V39.61C79.1771 39.0731 79.2589 38.538 79.4353 38.0364C79.6116 37.5348 79.8787 37.0771 80.2207 36.6906C80.5627 36.3041 80.9725 35.9967 81.4257 35.7868C81.879 35.5768 82.3664 35.4686 82.8589 35.4686C83.3513 35.4686 83.8386 35.5768 84.2919 35.7868C84.7452 35.9967 85.155 36.3041 85.497 36.6906C85.8389 37.0771 86.1061 37.5348 86.2824 38.0364C86.4587 38.538 86.5407 39.0731 86.5232 39.61L86.5223 43.847Z" fill="white"/>
<path d="M38.8483 34.57C39.4572 34.3926 39.9862 33.9797 40.3366 33.4083C40.6871 32.8369 40.8351 32.146 40.7531 31.4643C40.6711 30.7826 40.3647 30.1568 39.891 29.7034C39.4172 29.2499 38.8085 28.9999 38.1783 28.9999C37.548 28.9999 36.9394 29.2499 36.4656 29.7034C35.9919 30.1568 35.6855 30.7826 35.6034 31.4643C35.5215 32.146 35.6694 32.8369 36.0199 33.4083C36.3703 33.9797 36.8993 34.3926 37.5082 34.57C36.3984 34.7471 35.3838 35.3536 34.6497 36.2788C33.9158 37.204 33.511 38.3864 33.5097 39.61V44.42C33.5097 44.5653 33.5627 44.7047 33.6568 44.8075C33.751 44.9103 33.8788 44.968 34.012 44.968H35.0524L35.7858 52.168C35.837 52.672 36.0569 53.1376 36.4033 53.4756C36.7497 53.8137 37.1983 54.0004 37.6631 54H38.6861C39.1511 54.0006 39.5999 53.8138 39.9464 53.4755C40.2928 53.1372 40.5126 52.6712 40.5634 52.167L41.2968 44.942H42.3372C42.4705 44.942 42.5982 44.8843 42.6924 44.7815C42.7866 44.6787 42.8395 44.5393 42.8395 44.394V39.61C42.8381 38.3864 42.4335 37.204 41.6994 36.2788C40.9654 35.3536 39.9509 34.7471 38.841 34.57H38.8483ZM36.5851 31.833C36.5851 31.4893 36.6786 31.1532 36.8536 30.8674C37.0287 30.5816 37.2774 30.3588 37.5686 30.2273C37.8597 30.0958 38.1801 30.0613 38.4891 30.1284C38.7981 30.1955 39.082 30.361 39.3048 30.6041C39.5276 30.8471 39.6794 31.1568 39.7408 31.4939C39.8023 31.8311 39.7708 32.1805 39.6501 32.4981C39.5296 32.8157 39.3254 33.0871 39.0634 33.2781C38.8014 33.4691 38.4934 33.571 38.1783 33.571C37.7559 33.5705 37.351 33.3872 37.0523 33.0614C36.7536 32.7355 36.5856 32.2938 36.5851 31.833ZM41.8422 43.847H40.8586C40.7351 43.8469 40.616 43.8966 40.5239 43.9865C40.4319 44.0763 40.3735 44.2001 40.3599 44.334L39.5725 52.046C39.5488 52.2822 39.4459 52.5005 39.2837 52.6591C39.1215 52.8176 38.9112 52.9052 38.6934 52.905H37.6704C37.4528 52.905 37.2429 52.8175 37.0806 52.6592C36.9185 52.5009 36.8155 52.2829 36.7913 52.047L36.0003 44.359C35.9867 44.2251 35.9284 44.1013 35.8364 44.0115C35.7443 43.9216 35.6252 43.8719 35.5016 43.872H34.5143V39.61C34.4969 39.0731 34.5789 38.538 34.7551 38.0364C34.9315 37.5348 35.1986 37.0771 35.5405 36.6906C35.8826 36.3041 36.2924 35.9967 36.7457 35.7868C37.1989 35.5768 37.6863 35.4686 38.1787 35.4686C38.6712 35.4686 39.1585 35.5768 39.6118 35.7868C40.065 35.9967 40.4749 36.3041 40.8169 36.6906C41.1589 37.0771 41.426 37.5348 41.6023 38.0364C41.7786 38.538 41.8605 39.0731 41.8431 39.61L41.8422 43.847Z" fill="white"/>
<path d="M94.6981 34.57C95.3068 34.3926 95.8357 33.9797 96.1868 33.4083C96.5369 32.8369 96.6845 32.146 96.6029 31.4643C96.5204 30.7826 96.2143 30.1568 95.7404 29.7034C95.2674 29.2499 94.6587 28.9999 94.028 28.9999C93.3983 28.9999 92.7887 29.2499 92.3157 29.7034C91.8418 30.1568 91.5352 30.7826 91.4532 31.4643C91.3712 32.146 91.5192 32.8369 91.8693 33.4083C92.2204 33.9797 92.7493 34.3926 93.3579 34.57C92.2479 34.7471 91.2336 35.3536 90.4995 36.2788C89.7655 37.204 89.3608 38.3864 89.3594 39.61V44.42C89.3594 44.5653 89.4124 44.7047 89.5066 44.8075C89.6008 44.9103 89.7286 44.968 89.8618 44.968H90.9022L91.6355 52.168C91.6869 52.672 91.9069 53.1376 92.2534 53.4756C92.5999 53.8137 93.0481 54.0004 93.5129 54H94.5358C95.0006 54.0006 95.4498 53.8138 95.7963 53.4755C96.1428 53.1372 96.3628 52.6712 96.4132 52.167L97.1465 44.942H98.1869C98.3199 44.942 98.4482 44.8843 98.5426 44.7815C98.6361 44.6787 98.6893 44.5393 98.6893 44.394V39.61C98.6884 38.3864 98.2832 37.204 97.5489 36.2788C96.8156 35.3536 95.8009 34.7471 94.6908 34.57H94.6981ZM92.4348 31.833C92.4348 31.4893 92.5283 31.1532 92.7034 30.8674C92.8785 30.5816 93.1269 30.3588 93.4184 30.2273C93.709 30.0958 94.0299 30.0613 94.3388 30.1284C94.6477 30.1955 94.9319 30.361 95.1546 30.6041C95.3774 30.8471 95.5295 31.1568 95.5909 31.4939C95.6523 31.8311 95.6203 32.1805 95.5002 32.4981C95.3792 32.8157 95.1748 33.0871 94.9135 33.2781C94.6514 33.4691 94.3433 33.571 94.028 33.571C93.6054 33.5705 93.2003 33.3872 92.9024 33.0614C92.6035 32.7355 92.4358 32.2938 92.4348 31.833ZM97.6919 43.847H96.7084C96.5846 43.8469 96.4654 43.8966 96.3738 43.9865C96.2821 44.0763 96.2234 44.2001 96.2097 44.334L95.4223 52.046C95.3984 52.2822 95.2958 52.5005 95.1335 52.6591C94.9713 52.8176 94.7614 52.9052 94.5432 52.905H93.5202C93.3029 52.905 93.093 52.8175 92.9308 52.6592C92.7685 52.5009 92.6649 52.2829 92.6411 52.047L91.85 44.359C91.8363 44.2251 91.7785 44.1013 91.6859 44.0115C91.5941 43.9216 91.4749 43.8719 91.3513 43.872H90.3641V39.61C90.3467 39.0731 90.4286 38.538 90.6049 38.0364C90.7813 37.5348 91.0484 37.0771 91.3903 36.6906C91.7327 36.3041 92.1424 35.9967 92.5953 35.7868C93.049 35.5768 93.5358 35.4686 94.0289 35.4686C94.5212 35.4686 95.0079 35.5768 95.4617 35.7868C95.9145 35.9967 96.3243 36.3041 96.6671 36.6906C97.009 37.0771 97.2758 37.5348 97.4518 38.0364C97.6287 38.538 97.7103 39.0731 97.6928 39.61L97.6919 43.847Z" fill="white"/>
<path d="M50.0188 34.57C50.6277 34.3926 51.1567 33.9797 51.5071 33.4083C51.8576 32.8369 52.0056 32.146 51.9236 31.4643C51.8415 30.7826 51.5352 30.1568 51.0615 29.7034C50.5877 29.2499 49.979 28.9999 49.3488 28.9999C48.7185 28.9999 48.1098 29.2499 47.6361 29.7034C47.1623 30.1568 46.856 30.7826 46.7739 31.4643C46.6919 32.146 46.8399 32.8369 47.1904 33.4083C47.5408 33.9797 48.0698 34.3926 48.6787 34.57C47.5688 34.7471 46.5543 35.3536 45.8202 36.2788C45.0862 37.204 44.6816 38.3864 44.6802 39.61V44.42C44.6802 44.5653 44.7331 44.7047 44.8273 44.8075C44.9215 44.9103 45.0493 44.968 45.1825 44.968H46.2229L46.9563 52.168C47.0075 52.672 47.2274 53.1376 47.5738 53.4756C47.9202 53.8137 48.3688 54.0004 48.8336 54H49.8566C50.3216 54.0006 50.7704 53.8138 51.1168 53.4755C51.4633 53.1372 51.6831 52.6712 51.7339 52.167L52.4673 44.942H53.5077C53.6409 44.942 53.7686 44.8843 53.8629 44.7815C53.9571 44.6787 54.01 44.5393 54.01 44.394V39.61C54.0086 38.3864 53.604 37.204 52.87 36.2788C52.1359 35.3536 51.1214 34.7471 50.0115 34.57H50.0188ZM47.7556 31.833C47.7556 31.4893 47.849 31.1532 48.0241 30.8674C48.1992 30.5816 48.4479 30.3588 48.7391 30.2273C49.0302 30.0958 49.3505 30.0613 49.6596 30.1284C49.9686 30.1955 50.2525 30.361 50.4753 30.6041C50.6981 30.8471 50.8499 31.1568 50.9113 31.4939C50.9728 31.8311 50.9412 32.1805 50.8207 32.4981C50.7001 32.8157 50.4959 33.0871 50.2339 33.2781C49.9719 33.4691 49.6639 33.571 49.3488 33.571C48.9264 33.5705 48.5215 33.3872 48.2227 33.0614C47.9241 32.7355 47.7561 32.2938 47.7556 31.833ZM53.0127 43.847H52.0291C51.9056 43.8469 51.7864 43.8966 51.6944 43.9865C51.6024 44.0763 51.544 44.2001 51.5304 44.334L50.743 52.046C50.7193 52.2822 50.6164 52.5005 50.4542 52.6591C50.2919 52.8176 50.0817 52.9052 49.8639 52.905H48.8409C48.6233 52.905 48.4133 52.8175 48.2511 52.6592C48.089 52.5009 47.9859 52.2829 47.9618 52.047L47.1708 44.359C47.1572 44.2251 47.0988 44.1013 47.0069 44.0115C46.9148 43.9216 46.7956 43.8719 46.6721 43.872H45.6848V39.61C45.6674 39.0731 45.7494 38.538 45.9257 38.0364C46.1019 37.5348 46.369 37.0771 46.7111 36.6906C47.0531 36.3041 47.4629 35.9967 47.9162 35.7868C48.3694 35.5768 48.8568 35.4686 49.3492 35.4686C49.8416 35.4686 50.329 35.5768 50.7822 35.7868C51.2355 35.9967 51.6454 36.3041 51.9874 36.6906C52.3294 37.0771 52.5965 37.5348 52.7728 38.0364C52.9491 38.538 53.031 39.0731 53.0136 39.61L53.0127 43.847Z" fill="white"/>
<path d="M105.868 34.57C106.476 34.3926 107.005 33.9797 107.356 33.4083C107.706 32.8369 107.854 32.146 107.772 31.4643C107.69 30.7826 107.384 30.1568 106.91 29.7034C106.437 29.2499 105.827 28.9999 105.198 28.9999C104.567 28.9999 103.958 29.2499 103.485 29.7034C103.011 30.1568 102.705 30.7826 102.623 31.4643C102.541 32.146 102.689 32.8369 103.039 33.4083C103.39 33.9797 103.919 34.3926 104.527 34.57C103.417 34.7471 102.403 35.3536 101.669 36.2788C100.935 37.204 100.53 38.3864 100.529 39.61V44.42C100.529 44.5653 100.582 44.7047 100.676 44.8075C100.77 44.9103 100.898 44.968 101.031 44.968H102.072L102.805 52.168C102.856 52.672 103.076 53.1376 103.423 53.4756C103.769 53.8137 104.218 54.0004 104.682 54H105.705C106.17 54.0006 106.619 53.8138 106.966 53.4755C107.312 53.1372 107.532 52.6712 107.583 52.167L108.316 44.942H109.356C109.489 44.942 109.618 44.8843 109.711 44.7815C109.806 44.6787 109.859 44.5393 109.859 44.394V39.61C109.857 38.3864 109.453 37.204 108.718 36.2788C107.984 35.3536 106.97 34.7471 105.86 34.57H105.868ZM103.604 31.833C103.604 31.4893 103.698 31.1532 103.873 30.8674C104.048 30.5816 104.296 30.3588 104.588 30.2273C104.879 30.0958 105.199 30.0613 105.508 30.1284C105.817 30.1955 106.101 30.361 106.324 30.6041C106.547 30.8471 106.699 31.1568 106.76 31.4939C106.822 31.8311 106.79 32.1805 106.67 32.4981C106.549 32.8157 106.344 33.0871 106.083 33.2781C105.821 33.4691 105.513 33.571 105.198 33.571C104.775 33.5705 104.37 33.3872 104.072 33.0614C103.773 32.7355 103.604 32.2938 103.604 31.833ZM108.861 43.847H107.878C107.754 43.8469 107.635 43.8966 107.543 43.9865C107.451 44.0763 107.393 44.2001 107.379 44.334L106.592 52.046C106.568 52.2822 106.465 52.5005 106.303 52.6591C106.141 52.8176 105.931 52.9052 105.713 52.905H104.69C104.472 52.905 104.263 52.8175 104.1 52.6592C103.938 52.5009 103.834 52.2829 103.811 52.047L103.02 44.359C103.006 44.2251 102.948 44.1013 102.855 44.0115C102.764 43.9216 102.645 43.8719 102.521 43.872H101.534V39.61C101.516 39.0731 101.598 38.538 101.775 38.0364C101.951 37.5348 102.217 37.0771 102.559 36.6906C102.902 36.3041 103.312 35.9967 103.765 35.7868C104.219 35.5768 104.705 35.4686 105.198 35.4686C105.691 35.4686 106.177 35.5768 106.631 35.7868C107.084 35.9967 107.494 36.3041 107.836 36.6906C108.179 37.0771 108.445 37.5348 108.621 38.0364C108.798 38.538 108.88 39.0731 108.862 39.61L108.861 43.847Z" fill="white"/>
<path d="M5.33866 5.57007C5.94753 5.39267 6.47651 4.97978 6.82696 4.40837C7.17741 3.83696 7.32541 3.14603 7.24341 2.46436C7.1614 1.7827 6.85497 1.15683 6.38124 0.703419C5.9075 0.250008 5.2988 0 4.66858 0C4.03837 0 3.42965 0.250008 2.95592 0.703419C2.48219 1.15683 2.17575 1.7827 2.09375 2.46436C2.01174 3.14603 2.15975 3.83696 2.5102 4.40837C2.86065 4.97978 3.38962 5.39267 3.9985 5.57007C2.88863 5.74713 1.87412 6.35362 1.14007 7.27886C0.406027 8.2041 0.00139035 9.38642 0 10.6101V15.4201C0 15.5654 0.0529259 15.7048 0.147131 15.8076C0.241337 15.9104 0.369096 15.9681 0.502323 15.9681H1.54275L2.27608 23.1681C2.32733 23.6721 2.54721 24.1377 2.89363 24.4757C3.24005 24.8138 3.68862 25.0005 4.15341 25.0001H5.17641C5.6414 25.0007 6.09021 24.8139 6.43669 24.4756C6.78316 24.1373 7.0029 23.6713 7.05374 23.1671L7.78709 15.9421H8.82749C8.96072 15.9421 9.0885 15.8844 9.18271 15.7816C9.27694 15.6788 9.32983 15.5394 9.32983 15.3941V10.6101C9.32846 9.38642 8.92381 8.2041 8.18976 7.27886C7.45572 6.35362 6.4412 5.74713 5.33132 5.57007H5.33866ZM3.07542 2.83307C3.07542 2.48932 3.16885 2.15329 3.34391 1.86748C3.51897 1.58167 3.76778 1.35891 4.0589 1.22736C4.35 1.09582 4.67035 1.0614 4.9794 1.12846C5.28844 1.19552 5.57231 1.36105 5.79512 1.60411C6.01793 1.84718 6.16967 2.15686 6.23114 2.494C6.29261 2.83114 6.26106 3.18059 6.14048 3.49817C6.01989 3.81575 5.81569 4.08718 5.5537 4.27816C5.29171 4.46913 4.98369 4.57106 4.66858 4.57106C4.2462 4.57054 3.84125 4.38726 3.54257 4.06143C3.2439 3.73561 3.0759 3.29385 3.07542 2.83307ZM8.33248 14.8471H7.3489C7.2254 14.847 7.10622 14.8967 7.01421 14.9866C6.92218 15.0764 6.86379 15.2002 6.85024 15.3341L6.06283 23.0461C6.03911 23.2823 5.93625 23.5006 5.77401 23.6592C5.61177 23.8177 5.40156 23.9053 5.18375 23.9051H4.16075C3.94313 23.9051 3.73316 23.8176 3.57098 23.6593C3.4088 23.501 3.30579 23.283 3.28167 23.0471L2.49058 15.3591C2.47704 15.2252 2.41865 15.1014 2.32664 15.0116C2.23461 14.9217 2.11542 14.872 1.99191 14.8721H1.00466V10.6101C0.98725 10.0732 1.06915 9.53803 1.24547 9.03645C1.42178 8.53488 1.6889 8.07718 2.03089 7.69068C2.37287 7.30417 2.78272 6.99677 3.23597 6.78682C3.68923 6.57687 4.17661 6.46867 4.66903 6.46867C5.16146 6.46867 5.64884 6.57687 6.10209 6.78682C6.55535 6.99677 6.9652 7.30417 7.30719 7.69068C7.64918 8.07718 7.91629 8.53488 8.0926 9.03645C8.26892 9.53803 8.35082 10.0732 8.33341 10.6101L8.33248 14.8471Z" fill="white"/>
<path d="M61.1884 5.57001C61.7972 5.39261 62.3263 4.97972 62.6767 4.40831C63.0271 3.8369 63.1752 3.14597 63.0931 2.4643C63.0111 1.78264 62.7047 1.15677 62.231 0.703358C61.7572 0.249947 61.1485 -6.10352e-05 60.5183 -6.10352e-05C59.8881 -6.10352e-05 59.2794 0.249947 58.8056 0.703358C58.3319 1.15677 58.0254 1.78264 57.9435 2.4643C57.8615 3.14597 58.0095 3.8369 58.3599 4.40831C58.7104 4.97972 59.2394 5.39261 59.8482 5.57001C58.7383 5.74707 57.7239 6.35356 56.9898 7.2788C56.2557 8.20404 55.8511 9.38636 55.8497 10.61V15.42C55.8497 15.5653 55.9026 15.7047 55.9969 15.8075C56.0911 15.9103 56.2189 15.968 56.3521 15.968H57.3925L58.1258 23.168C58.1771 23.672 58.397 24.1376 58.7434 24.4756C59.0898 24.8137 59.5383 25.0004 60.0031 25H61.0261C61.4911 25.0006 61.94 24.8138 62.2864 24.4755C62.6329 24.1372 62.8526 23.6712 62.9035 23.167L63.6368 15.942H64.6772C64.8104 15.942 64.9382 15.8843 65.0324 15.7815C65.1267 15.6787 65.1796 15.5393 65.1796 15.394V10.61C65.1782 9.38636 64.7736 8.20404 64.0395 7.2788C63.3054 6.35356 62.291 5.74707 61.1811 5.57001H61.1884ZM58.9251 2.83301C58.9251 2.48926 59.0186 2.15323 59.1936 1.86742C59.3687 1.58161 59.6175 1.35885 59.9086 1.2273C60.1998 1.09576 60.5201 1.06134 60.8292 1.1284C61.1382 1.19546 61.4221 1.36099 61.6448 1.60405C61.8677 1.84712 62.0194 2.1568 62.0809 2.49394C62.1424 2.83108 62.1108 3.18053 61.9902 3.49811C61.8697 3.81569 61.6654 4.08712 61.4035 4.2781C61.1415 4.46907 60.8334 4.571 60.5183 4.571C60.0959 4.57048 59.6909 4.3872 59.3923 4.06137C59.0936 3.73555 58.9256 3.29379 58.9251 2.83301ZM64.1822 14.847H63.1986C63.0751 14.8469 62.9559 14.8966 62.864 14.9865C62.7719 15.0763 62.7136 15.2001 62.7 15.334L61.9126 23.046C61.8888 23.2822 61.786 23.5005 61.6237 23.6591C61.4615 23.8176 61.2513 23.9052 61.0335 23.905H60.0105C59.7929 23.905 59.5829 23.8175 59.4207 23.6592C59.2585 23.5009 59.1555 23.2829 59.1314 23.047L58.3403 15.359C58.3268 15.2251 58.2684 15.1013 58.1763 15.0115C58.0844 14.9216 57.9651 14.8719 57.8416 14.872H56.8544V10.61C56.837 10.0731 56.9188 9.53797 57.0952 9.03639C57.2715 8.53482 57.5386 8.07712 57.8806 7.69062C58.2226 7.30411 58.6325 6.99671 59.0857 6.78676C59.5389 6.57681 60.0263 6.46861 60.5188 6.46861C61.0112 6.46861 61.4986 6.57681 61.9518 6.78676C62.4051 6.99671 62.8149 7.30411 63.1569 7.69062C63.4989 8.07712 63.7661 8.53482 63.9423 9.03639C64.1186 9.53797 64.2006 10.0731 64.1831 10.61L64.1822 14.847Z" fill="white"/>
<path d="M16.5092 5.57001C17.1181 5.39261 17.647 4.97972 17.9975 4.40831C18.3479 3.8369 18.496 3.14597 18.4139 2.4643C18.332 1.78264 18.0255 1.15677 17.5518 0.703358C17.0781 0.249947 16.4693 -6.10352e-05 15.8391 -6.10352e-05C15.2089 -6.10352e-05 14.6002 0.249947 14.1265 0.703358C13.6527 1.15677 13.3463 1.78264 13.2643 2.4643C13.1823 3.14597 13.3303 3.8369 13.6807 4.40831C14.0311 4.97972 14.5602 5.39261 15.169 5.57001C14.0592 5.74707 13.0446 6.35356 12.3106 7.2788C11.5766 8.20404 11.172 9.38636 11.1705 10.61V15.42C11.1705 15.5653 11.2235 15.7047 11.3176 15.8075C11.4119 15.9103 11.5396 15.968 11.6728 15.968H12.7133L13.4466 23.168C13.4978 23.672 13.7177 24.1376 14.0641 24.4756C14.4106 24.8137 14.8592 25.0004 15.3239 25H16.3469C16.8119 25.0006 17.2607 24.8138 17.6072 24.4755C17.9537 24.1372 18.1735 23.6712 18.2243 23.167L18.9576 15.942H19.998C20.1313 15.942 20.2591 15.8843 20.3532 15.7815C20.4474 15.6787 20.5003 15.5393 20.5003 15.394V10.61C20.499 9.38636 20.0943 8.20404 19.3603 7.2788C18.6262 6.35356 17.6117 5.74707 16.5018 5.57001H16.5092ZM14.2459 2.83301C14.2459 2.48926 14.3394 2.15323 14.5144 1.86742C14.6895 1.58161 14.9383 1.35885 15.2294 1.2273C15.5205 1.09576 15.8409 1.06134 16.1499 1.1284C16.4589 1.19546 16.7428 1.36099 16.9657 1.60405C17.1884 1.84712 17.3402 2.1568 17.4016 2.49394C17.4631 2.83108 17.4316 3.18053 17.311 3.49811C17.1904 3.81569 16.9862 4.08712 16.7242 4.2781C16.4622 4.46907 16.1542 4.571 15.8391 4.571C15.4168 4.57048 15.0118 4.3872 14.7131 4.06137C14.4144 3.73555 14.2465 3.29379 14.2459 2.83301ZM19.503 14.847H18.5194C18.3959 14.8469 18.2768 14.8966 18.1847 14.9865C18.0927 15.0763 18.0343 15.2001 18.0208 15.334L17.2333 23.046C17.2097 23.2822 17.1067 23.5005 16.9446 23.6591C16.7823 23.8176 16.5721 23.9052 16.3543 23.905H15.3313C15.1136 23.905 14.9037 23.8175 14.7415 23.6592C14.5793 23.5009 14.4764 23.2829 14.4522 23.047L13.6611 15.359C13.6476 15.2251 13.5892 15.1013 13.4972 15.0115C13.4052 14.9216 13.286 14.8719 13.1624 14.872H12.1752V10.61C12.1578 10.0731 12.2397 9.53797 12.416 9.03639C12.5923 8.53482 12.8595 8.07712 13.2015 7.69062C13.5434 7.30411 13.9532 6.99671 14.4065 6.78676C14.8597 6.57681 15.3471 6.46861 15.8395 6.46861C16.332 6.46861 16.8194 6.57681 17.2727 6.78676C17.7259 6.99671 18.1357 7.30411 18.4777 7.69062C18.8197 8.07712 19.0868 8.53482 19.2631 9.03639C19.4395 9.53797 19.5213 10.0731 19.5039 10.61L19.503 14.847Z" fill="white"/>
<path d="M72.358 5.57001C72.9669 5.39261 73.4959 4.97972 73.8463 4.40831C74.1968 3.8369 74.3448 3.14597 74.2628 2.4643C74.1807 1.78264 73.8744 1.15677 73.4005 0.703358C72.9268 0.249947 72.3181 -6.10352e-05 71.6879 -6.10352e-05C71.0577 -6.10352e-05 70.449 0.249947 69.9752 0.703358C69.5015 1.15677 69.1951 1.78264 69.1131 2.4643C69.0311 3.14597 69.1791 3.8369 69.5296 4.40831C69.88 4.97972 70.409 5.39261 71.0178 5.57001C69.9079 5.74707 68.8935 6.35356 68.1594 7.2788C67.4253 8.20404 67.0207 9.38636 67.0193 10.61V15.42C67.0193 15.5653 67.0722 15.7047 67.1665 15.8075C67.2607 15.9103 67.3884 15.968 67.5217 15.968H68.5621L69.2954 23.168C69.3467 23.672 69.5666 24.1376 69.913 24.4756C70.2594 24.8137 70.7079 25.0004 71.1728 25H72.1958C72.6607 25.0006 73.1096 24.8138 73.456 24.4755C73.8025 24.1372 74.0222 23.6712 74.0731 23.167L74.8064 15.942H75.8468C75.98 15.942 76.1078 15.8843 76.2021 15.7815C76.2963 15.6787 76.3492 15.5393 76.3492 15.394V10.61C76.3478 9.38636 75.9432 8.20404 75.2091 7.2788C74.4751 6.35356 73.4606 5.74707 72.3507 5.57001H72.358ZM70.0948 2.83301C70.0948 2.48926 70.1882 2.15323 70.3633 1.86742C70.5383 1.58161 70.7871 1.35885 71.0783 1.2273C71.3694 1.09576 71.6897 1.06134 71.9988 1.1284C72.3078 1.19546 72.5917 1.36099 72.8144 1.60405C73.0373 1.84712 73.189 2.1568 73.2505 2.49394C73.312 2.83108 73.2804 3.18053 73.1598 3.49811C73.0393 3.81569 72.835 4.08712 72.5731 4.2781C72.3111 4.46907 72.003 4.571 71.6879 4.571C71.2655 4.57048 70.8605 4.3872 70.5619 4.06137C70.2632 3.73555 70.0952 3.29379 70.0948 2.83301ZM75.3519 14.847H74.3683C74.2447 14.8469 74.1255 14.8966 74.0336 14.9865C73.9416 15.0763 73.8832 15.2001 73.8696 15.334L73.0822 23.046C73.0584 23.2822 72.9556 23.5005 72.7933 23.6591C72.6311 23.8176 72.4209 23.9052 72.2031 23.905H71.1801C70.9625 23.905 70.7525 23.8175 70.5903 23.6592C70.4282 23.5009 70.3251 23.2829 70.301 23.047L69.5099 15.359C69.4964 15.2251 69.438 15.1013 69.3459 15.0115C69.254 14.9216 69.1347 14.8719 69.0113 14.872H68.024V10.61C68.0066 10.0731 68.0885 9.53797 68.2648 9.03639C68.4411 8.53482 68.7082 8.07712 69.0502 7.69062C69.3922 7.30411 69.8021 6.99671 70.2554 6.78676C70.7086 6.57681 71.196 6.46861 71.6884 6.46861C72.1808 6.46861 72.6682 6.57681 73.1214 6.78676C73.5747 6.99671 73.9846 7.30411 74.3266 7.69062C74.6686 8.07712 74.9357 8.53482 75.112 9.03639C75.2882 9.53797 75.3702 10.0731 75.3528 10.61L75.3519 14.847Z" fill="white"/>
<path d="M27.6788 5.57001C28.2876 5.39261 28.8165 4.97972 29.1671 4.40831C29.5175 3.8369 29.6654 3.14597 29.5835 2.4643C29.5015 1.78264 29.195 1.15677 28.7213 0.703358C28.2475 0.249947 27.6389 -6.10352e-05 27.0087 -6.10352e-05C26.3785 -6.10352e-05 25.7697 0.249947 25.296 0.703358C24.8222 1.15677 24.5158 1.78264 24.4338 2.4643C24.3518 3.14597 24.4998 3.8369 24.8503 4.40831C25.2007 4.97972 25.7296 5.39261 26.3386 5.57001C25.2287 5.74707 24.2142 6.35356 23.4801 7.2788C22.7461 8.20404 22.3415 9.38636 22.3401 10.61V15.42C22.3401 15.5653 22.393 15.7047 22.4872 15.8075C22.5814 15.9103 22.7091 15.968 22.8424 15.968H23.8828L24.6162 23.168C24.6674 23.672 24.8873 24.1376 25.2337 24.4756C25.5801 24.8137 26.0287 25.0004 26.4935 25H27.5165C27.9814 25.0006 28.4302 24.8138 28.7767 24.4755C29.1232 24.1372 29.343 23.6712 29.3938 23.167L30.1272 15.942H31.1676C31.3008 15.942 31.4286 15.8843 31.5228 15.7815C31.6169 15.6787 31.6699 15.5393 31.6699 15.394V10.61C31.6685 9.38636 31.2638 8.20404 30.5299 7.2788C29.7958 6.35356 28.7812 5.74707 27.6714 5.57001H27.6788ZM25.4155 2.83301C25.4155 2.48926 25.5089 2.15323 25.684 1.86742C25.859 1.58161 26.1079 1.35885 26.399 1.2273C26.69 1.09576 27.0104 1.06134 27.3194 1.1284C27.6285 1.19546 27.9124 1.36099 28.1352 1.60405C28.358 1.84712 28.5097 2.1568 28.5712 2.49394C28.6326 2.83108 28.6011 3.18053 28.4806 3.49811C28.3599 3.81569 28.1558 4.08712 27.8938 4.2781C27.6317 4.46907 27.3237 4.571 27.0087 4.571C26.5863 4.57048 26.1813 4.3872 25.8826 4.06137C25.584 3.73555 25.416 3.29379 25.4155 2.83301ZM30.6726 14.847H29.689C29.5654 14.8469 29.4463 14.8966 29.3542 14.9865C29.2622 15.0763 29.2038 15.2001 29.1903 15.334L28.4029 23.046C28.3792 23.2822 28.2763 23.5005 28.1141 23.6591C27.9518 23.8176 27.7416 23.9052 27.5238 23.905H26.5008C26.2832 23.905 26.0732 23.8175 25.9111 23.6592C25.7489 23.5009 25.6459 23.2829 25.6218 23.047L24.8307 15.359C24.8171 15.2251 24.7587 15.1013 24.6667 15.0115C24.5746 14.9216 24.4555 14.8719 24.332 14.872H23.3448V10.61C23.3273 10.0731 23.4092 9.53797 23.5856 9.03639C23.7618 8.53482 24.029 8.07712 24.371 7.69062C24.713 7.30411 25.1228 6.99671 25.576 6.78676C26.0293 6.57681 26.5167 6.46861 27.0091 6.46861C27.5016 6.46861 27.9889 6.57681 28.4422 6.78676C28.8954 6.99671 29.3053 7.30411 29.6473 7.69062C29.9892 8.07712 30.2563 8.53482 30.4327 9.03639C30.609 9.53797 30.6908 10.0731 30.6735 10.61L30.6726 14.847Z" fill="white"/>
<path d="M83.5285 5.57001C84.1373 5.39261 84.6663 4.97972 85.0168 4.40831C85.3672 3.8369 85.5152 3.14597 85.4332 2.4643C85.3512 1.78264 85.0447 1.15677 84.571 0.703358C84.0973 0.249947 83.4886 -6.10352e-05 82.8584 -6.10352e-05C82.2282 -6.10352e-05 81.6194 0.249947 81.1457 0.703358C80.672 1.15677 80.3655 1.78264 80.2836 2.4643C80.2015 3.14597 80.3496 3.8369 80.7 4.40831C81.0505 4.97972 81.5794 5.39261 82.1883 5.57001C81.0784 5.74707 80.0639 6.35356 79.3299 7.2788C78.5958 8.20404 78.1912 9.38636 78.1898 10.61V15.42C78.1898 15.5653 78.2427 15.7047 78.337 15.8075C78.4312 15.9103 78.5589 15.968 78.6922 15.968H79.7326L80.4659 23.168C80.5171 23.672 80.7371 24.1376 81.0835 24.4756C81.4299 24.8137 81.8784 25.0004 82.3432 25H83.3662C83.8312 25.0006 84.28 24.8138 84.6265 24.4755C84.973 24.1372 85.1927 23.6712 85.2436 23.167L85.9769 15.942H87.0173C87.1505 15.942 87.2783 15.8843 87.3725 15.7815C87.4667 15.6787 87.5197 15.5393 87.5197 15.394V10.61C87.5183 9.38636 87.1136 8.20404 86.3796 7.2788C85.6455 6.35356 84.631 5.74707 83.5212 5.57001H83.5285ZM81.2652 2.83301C81.2652 2.48926 81.3586 2.15323 81.5337 1.86742C81.7088 1.58161 81.9576 1.35885 82.2487 1.2273C82.5398 1.09576 82.8602 1.06134 83.1692 1.1284C83.4783 1.19546 83.7622 1.36099 83.9849 1.60405C84.2077 1.84712 84.3594 2.1568 84.421 2.49394C84.4824 2.83108 84.4508 3.18053 84.3303 3.49811C84.2097 3.81569 84.0055 4.08712 83.7435 4.2781C83.4815 4.46907 83.1735 4.571 82.8584 4.571C82.436 4.57048 82.031 4.3872 81.7324 4.06137C81.4337 3.73555 81.2657 3.29379 81.2652 2.83301ZM86.5223 14.847H85.5387C85.4152 14.8469 85.296 14.8966 85.204 14.9865C85.1119 15.0763 85.0536 15.2001 85.0401 15.334L84.2527 23.046C84.2289 23.2822 84.1261 23.5005 83.9638 23.6591C83.8016 23.8176 83.5914 23.9052 83.3736 23.905H82.3506C82.133 23.905 81.923 23.8175 81.7608 23.6592C81.5986 23.5009 81.4956 23.2829 81.4715 23.047L80.6804 15.359C80.6668 15.2251 80.6084 15.1013 80.5164 15.0115C80.4244 14.9216 80.3052 14.8719 80.1817 14.872H79.1945V10.61C79.1771 10.0731 79.2589 9.53797 79.4353 9.03639C79.6116 8.53482 79.8787 8.07712 80.2207 7.69062C80.5627 7.30411 80.9725 6.99671 81.4257 6.78676C81.879 6.57681 82.3664 6.46861 82.8589 6.46861C83.3513 6.46861 83.8386 6.57681 84.2919 6.78676C84.7452 6.99671 85.155 7.30411 85.497 7.69062C85.8389 8.07712 86.1061 8.53482 86.2824 9.03639C86.4587 9.53797 86.5407 10.0731 86.5232 10.61L86.5223 14.847Z" fill="white"/>
<path d="M38.8483 5.57001C39.4572 5.39261 39.9862 4.97972 40.3366 4.40831C40.6871 3.8369 40.8351 3.14597 40.7531 2.4643C40.6711 1.78264 40.3647 1.15677 39.891 0.703358C39.4172 0.249947 38.8085 -6.10352e-05 38.1783 -6.10352e-05C37.548 -6.10352e-05 36.9394 0.249947 36.4656 0.703358C35.9919 1.15677 35.6855 1.78264 35.6034 2.4643C35.5215 3.14597 35.6694 3.8369 36.0199 4.40831C36.3703 4.97972 36.8993 5.39261 37.5082 5.57001C36.3984 5.74707 35.3838 6.35356 34.6497 7.2788C33.9158 8.20404 33.511 9.38636 33.5097 10.61V15.42C33.5097 15.5653 33.5627 15.7047 33.6568 15.8075C33.751 15.9103 33.8788 15.968 34.012 15.968H35.0524L35.7858 23.168C35.837 23.672 36.0569 24.1376 36.4033 24.4756C36.7497 24.8137 37.1983 25.0004 37.6631 25H38.6861C39.1511 25.0006 39.5999 24.8138 39.9464 24.4755C40.2928 24.1372 40.5126 23.6712 40.5634 23.167L41.2968 15.942H42.3372C42.4705 15.942 42.5982 15.8843 42.6924 15.7815C42.7866 15.6787 42.8395 15.5393 42.8395 15.394V10.61C42.8381 9.38636 42.4335 8.20404 41.6994 7.2788C40.9654 6.35356 39.9509 5.74707 38.841 5.57001H38.8483ZM36.5851 2.83301C36.5851 2.48926 36.6786 2.15323 36.8536 1.86742C37.0287 1.58161 37.2774 1.35885 37.5686 1.2273C37.8597 1.09576 38.1801 1.06134 38.4891 1.1284C38.7981 1.19546 39.082 1.36099 39.3048 1.60405C39.5276 1.84712 39.6794 2.1568 39.7408 2.49394C39.8023 2.83108 39.7708 3.18053 39.6501 3.49811C39.5296 3.81569 39.3254 4.08712 39.0634 4.2781C38.8014 4.46907 38.4934 4.571 38.1783 4.571C37.7559 4.57048 37.351 4.3872 37.0523 4.06137C36.7536 3.73555 36.5856 3.29379 36.5851 2.83301ZM41.8422 14.847H40.8586C40.7351 14.8469 40.616 14.8966 40.5239 14.9865C40.4319 15.0763 40.3735 15.2001 40.3599 15.334L39.5725 23.046C39.5488 23.2822 39.4459 23.5005 39.2837 23.6591C39.1215 23.8176 38.9112 23.9052 38.6934 23.905H37.6704C37.4528 23.905 37.2429 23.8175 37.0806 23.6592C36.9185 23.5009 36.8155 23.2829 36.7913 23.047L36.0003 15.359C35.9867 15.2251 35.9284 15.1013 35.8364 15.0115C35.7443 14.9216 35.6252 14.8719 35.5016 14.872H34.5143V10.61C34.4969 10.0731 34.5789 9.53797 34.7551 9.03639C34.9315 8.53482 35.1986 8.07712 35.5405 7.69062C35.8826 7.30411 36.2924 6.99671 36.7457 6.78676C37.1989 6.57681 37.6863 6.46861 38.1787 6.46861C38.6712 6.46861 39.1585 6.57681 39.6118 6.78676C40.065 6.99671 40.4749 7.30411 40.8169 7.69062C41.1589 8.07712 41.426 8.53482 41.6023 9.03639C41.7786 9.53797 41.8605 10.0731 41.8431 10.61L41.8422 14.847Z" fill="white"/>
<path d="M94.6981 5.57001C95.3068 5.39261 95.8357 4.97972 96.1868 4.40831C96.5369 3.8369 96.6845 3.14597 96.6029 2.4643C96.5204 1.78264 96.2143 1.15677 95.7404 0.703358C95.2674 0.249947 94.6587 -6.10352e-05 94.028 -6.10352e-05C93.3983 -6.10352e-05 92.7887 0.249947 92.3157 0.703358C91.8418 1.15677 91.5352 1.78264 91.4532 2.4643C91.3712 3.14597 91.5192 3.8369 91.8693 4.40831C92.2204 4.97972 92.7493 5.39261 93.3579 5.57001C92.2479 5.74707 91.2336 6.35356 90.4995 7.2788C89.7655 8.20404 89.3608 9.38636 89.3594 10.61V15.42C89.3594 15.5653 89.4124 15.7047 89.5066 15.8075C89.6008 15.9103 89.7286 15.968 89.8618 15.968H90.9022L91.6355 23.168C91.6869 23.672 91.9069 24.1376 92.2534 24.4756C92.5999 24.8137 93.0481 25.0004 93.5129 25H94.5358C95.0006 25.0006 95.4498 24.8138 95.7963 24.4755C96.1428 24.1372 96.3628 23.6712 96.4132 23.167L97.1465 15.942H98.1869C98.3199 15.942 98.4482 15.8843 98.5426 15.7815C98.6361 15.6787 98.6893 15.5393 98.6893 15.394V10.61C98.6884 9.38636 98.2832 8.20404 97.5489 7.2788C96.8156 6.35356 95.8009 5.74707 94.6908 5.57001H94.6981ZM92.4348 2.83301C92.4348 2.48926 92.5283 2.15323 92.7034 1.86742C92.8785 1.58161 93.1269 1.35885 93.4184 1.2273C93.709 1.09576 94.0299 1.06134 94.3388 1.1284C94.6477 1.19546 94.9319 1.36099 95.1546 1.60405C95.3774 1.84712 95.5295 2.1568 95.5909 2.49394C95.6523 2.83108 95.6203 3.18053 95.5002 3.49811C95.3792 3.81569 95.1748 4.08712 94.9135 4.2781C94.6514 4.46907 94.3433 4.571 94.028 4.571C93.6054 4.57048 93.2003 4.3872 92.9024 4.06137C92.6035 3.73555 92.4358 3.29379 92.4348 2.83301ZM97.6919 14.847H96.7084C96.5846 14.8469 96.4654 14.8966 96.3738 14.9865C96.2821 15.0763 96.2234 15.2001 96.2097 15.334L95.4223 23.046C95.3984 23.2822 95.2958 23.5005 95.1335 23.6591C94.9713 23.8176 94.7614 23.9052 94.5432 23.905H93.5202C93.3029 23.905 93.093 23.8175 92.9308 23.6592C92.7685 23.5009 92.6649 23.2829 92.6411 23.047L91.85 15.359C91.8363 15.2251 91.7785 15.1013 91.6859 15.0115C91.5941 14.9216 91.4749 14.8719 91.3513 14.872H90.3641V10.61C90.3467 10.0731 90.4286 9.53797 90.6049 9.03639C90.7813 8.53482 91.0484 8.07712 91.3903 7.69062C91.7327 7.30411 92.1424 6.99671 92.5953 6.78676C93.049 6.57681 93.5358 6.46861 94.0289 6.46861C94.5212 6.46861 95.0079 6.57681 95.4617 6.78676C95.9145 6.99671 96.3243 7.30411 96.6671 7.69062C97.009 8.07712 97.2758 8.53482 97.4518 9.03639C97.6287 9.53797 97.7103 10.0731 97.6928 10.61L97.6919 14.847Z" fill="white"/>
<path d="M50.0188 5.57001C50.6277 5.39261 51.1567 4.97972 51.5071 4.40831C51.8576 3.8369 52.0056 3.14597 51.9236 2.4643C51.8415 1.78264 51.5352 1.15677 51.0615 0.703358C50.5877 0.249947 49.979 -6.10352e-05 49.3488 -6.10352e-05C48.7185 -6.10352e-05 48.1098 0.249947 47.6361 0.703358C47.1623 1.15677 46.856 1.78264 46.7739 2.4643C46.6919 3.14597 46.8399 3.8369 47.1904 4.40831C47.5408 4.97972 48.0698 5.39261 48.6787 5.57001C47.5688 5.74707 46.5543 6.35356 45.8202 7.2788C45.0862 8.20404 44.6816 9.38636 44.6802 10.61V15.42C44.6802 15.5653 44.7331 15.7047 44.8273 15.8075C44.9215 15.9103 45.0493 15.968 45.1825 15.968H46.2229L46.9563 23.168C47.0075 23.672 47.2274 24.1376 47.5738 24.4756C47.9202 24.8137 48.3688 25.0004 48.8336 25H49.8566C50.3216 25.0006 50.7704 24.8138 51.1168 24.4755C51.4633 24.1372 51.6831 23.6712 51.7339 23.167L52.4673 15.942H53.5077C53.6409 15.942 53.7686 15.8843 53.8629 15.7815C53.9571 15.6787 54.01 15.5393 54.01 15.394V10.61C54.0086 9.38636 53.604 8.20404 52.87 7.2788C52.1359 6.35356 51.1214 5.74707 50.0115 5.57001H50.0188ZM47.7556 2.83301C47.7556 2.48926 47.849 2.15323 48.0241 1.86742C48.1992 1.58161 48.4479 1.35885 48.7391 1.2273C49.0302 1.09576 49.3505 1.06134 49.6596 1.1284C49.9686 1.19546 50.2525 1.36099 50.4753 1.60405C50.6981 1.84712 50.8499 2.1568 50.9113 2.49394C50.9728 2.83108 50.9412 3.18053 50.8207 3.49811C50.7001 3.81569 50.4959 4.08712 50.2339 4.2781C49.9719 4.46907 49.6639 4.571 49.3488 4.571C48.9264 4.57048 48.5215 4.3872 48.2227 4.06137C47.9241 3.73555 47.7561 3.29379 47.7556 2.83301ZM53.0127 14.847H52.0291C51.9056 14.8469 51.7864 14.8966 51.6944 14.9865C51.6024 15.0763 51.544 15.2001 51.5304 15.334L50.743 23.046C50.7193 23.2822 50.6164 23.5005 50.4542 23.6591C50.2919 23.8176 50.0817 23.9052 49.8639 23.905H48.8409C48.6233 23.905 48.4133 23.8175 48.2511 23.6592C48.089 23.5009 47.9859 23.2829 47.9618 23.047L47.1708 15.359C47.1572 15.2251 47.0988 15.1013 47.0069 15.0115C46.9148 14.9216 46.7956 14.8719 46.6721 14.872H45.6848V10.61C45.6674 10.0731 45.7494 9.53797 45.9257 9.03639C46.1019 8.53482 46.369 8.07712 46.7111 7.69062C47.0531 7.30411 47.4629 6.99671 47.9162 6.78676C48.3694 6.57681 48.8568 6.46861 49.3492 6.46861C49.8416 6.46861 50.329 6.57681 50.7822 6.78676C51.2355 6.99671 51.6454 7.30411 51.9874 7.69062C52.3294 8.07712 52.5965 8.53482 52.7728 9.03639C52.9491 9.53797 53.031 10.0731 53.0136 10.61L53.0127 14.847Z" fill="white"/>
<path d="M105.868 5.57001C106.476 5.39261 107.005 4.97972 107.356 4.40831C107.706 3.8369 107.854 3.14597 107.772 2.4643C107.69 1.78264 107.384 1.15677 106.91 0.703358C106.437 0.249947 105.827 -6.10352e-05 105.198 -6.10352e-05C104.567 -6.10352e-05 103.958 0.249947 103.485 0.703358C103.011 1.15677 102.705 1.78264 102.623 2.4643C102.541 3.14597 102.689 3.8369 103.039 4.40831C103.39 4.97972 103.919 5.39261 104.527 5.57001C103.417 5.74707 102.403 6.35356 101.669 7.2788C100.935 8.20404 100.53 9.38636 100.529 10.61V15.42C100.529 15.5653 100.582 15.7047 100.676 15.8075C100.77 15.9103 100.898 15.968 101.031 15.968H102.072L102.805 23.168C102.856 23.672 103.076 24.1376 103.423 24.4756C103.769 24.8137 104.218 25.0004 104.682 25H105.705C106.17 25.0006 106.619 24.8138 106.966 24.4755C107.312 24.1372 107.532 23.6712 107.583 23.167L108.316 15.942H109.356C109.489 15.942 109.618 15.8843 109.711 15.7815C109.806 15.6787 109.859 15.5393 109.859 15.394V10.61C109.857 9.38636 109.453 8.20404 108.718 7.2788C107.984 6.35356 106.97 5.74707 105.86 5.57001H105.868ZM103.604 2.83301C103.604 2.48926 103.698 2.15323 103.873 1.86742C104.048 1.58161 104.296 1.35885 104.588 1.2273C104.879 1.09576 105.199 1.06134 105.508 1.1284C105.817 1.19546 106.101 1.36099 106.324 1.60405C106.547 1.84712 106.699 2.1568 106.76 2.49394C106.822 2.83108 106.79 3.18053 106.67 3.49811C106.549 3.81569 106.344 4.08712 106.083 4.2781C105.821 4.46907 105.513 4.571 105.198 4.571C104.775 4.57048 104.37 4.3872 104.072 4.06137C103.773 3.73555 103.604 3.29379 103.604 2.83301ZM108.861 14.847H107.878C107.754 14.8469 107.635 14.8966 107.543 14.9865C107.451 15.0763 107.393 15.2001 107.379 15.334L106.592 23.046C106.568 23.2822 106.465 23.5005 106.303 23.6591C106.141 23.8176 105.931 23.9052 105.713 23.905H104.69C104.472 23.905 104.263 23.8175 104.1 23.6592C103.938 23.5009 103.834 23.2829 103.811 23.047L103.02 15.359C103.006 15.2251 102.948 15.1013 102.855 15.0115C102.764 14.9216 102.645 14.8719 102.521 14.872H101.534V10.61C101.516 10.0731 101.598 9.53797 101.775 9.03639C101.951 8.53482 102.217 8.07712 102.559 7.69062C102.902 7.30411 103.312 6.99671 103.765 6.78676C104.219 6.57681 104.705 6.46861 105.198 6.46861C105.691 6.46861 106.177 6.57681 106.631 6.78676C107.084 6.99671 107.494 7.30411 107.836 7.69062C108.179 8.07712 108.445 8.53482 108.621 9.03639C108.798 9.53797 108.88 10.0731 108.862 10.61L108.861 14.847Z" fill="white"/>
</g>
<defs>
<clipPath id="clip0_206_97">
<rect width="110" height="54" fill="white"/>
</clipPath>
</defs>
</svg>
