<svg width="47" height="25" viewBox="0 0 47 25" fill="none" xmlns="http://www.w3.org/2000/svg">
<path d="M5.82399 5.57007C6.48822 5.39267 7.06528 4.97978 7.44759 4.40837C7.8299 3.83696 7.99136 3.14603 7.9019 2.46437C7.81244 1.7827 7.47815 1.15683 6.96135 0.703419C6.44455 0.250008 5.78051 0 5.093 0C4.40549 0 3.74144 0.250008 3.22464 0.703419C2.70784 1.15683 2.37355 1.7827 2.28409 2.46437C2.19463 3.14603 2.35609 3.83696 2.7384 4.40837C3.12071 4.97978 3.69777 5.39267 4.362 5.57007C3.15123 5.74713 2.04449 6.35362 1.24371 7.27886C0.442938 8.20411 0.00151675 9.38642 0 10.6101V15.4201C0 15.5654 0.0577373 15.7048 0.160507 15.8076C0.263277 15.9103 0.40265 15.9681 0.547989 15.9681H1.683L2.483 23.1681C2.5389 23.672 2.77878 24.1376 3.15669 24.4757C3.5346 24.8137 4.02395 25.0004 4.53099 25.0001H5.64699C6.15425 25.0006 6.64386 24.8139 7.02184 24.4756C7.39981 24.1373 7.63953 23.6713 7.69499 23.1671L8.49501 15.9421H9.62999C9.77533 15.9421 9.91473 15.8843 10.0175 15.7816C10.1203 15.6788 10.178 15.5394 10.178 15.3941V10.6101C10.1765 9.38642 9.73506 8.20411 8.93428 7.27886C8.13351 6.35362 7.02676 5.74713 5.81599 5.57007H5.82399ZM3.355 2.83307C3.355 2.48932 3.45693 2.1533 3.6479 1.86748C3.83888 1.58167 4.11031 1.35891 4.42789 1.22736C4.74546 1.09582 5.09493 1.0614 5.43207 1.12846C5.76921 1.19552 6.07888 1.36105 6.32195 1.60411C6.56501 1.84718 6.73055 2.15686 6.79761 2.494C6.86467 2.83114 6.83025 3.18059 6.6987 3.49817C6.56715 3.81575 6.34439 4.08718 6.05858 4.27816C5.77277 4.46913 5.43675 4.57107 5.093 4.57107C4.63222 4.57054 4.19045 4.38726 3.86462 4.06143C3.5388 3.73561 3.35553 3.29385 3.355 2.83307ZM9.08998 14.8471H8.01698C7.88225 14.847 7.75224 14.8966 7.65186 14.9865C7.55147 15.0764 7.48777 15.2001 7.47299 15.3341L6.614 23.0461C6.58812 23.2823 6.47591 23.5006 6.29892 23.6591C6.12193 23.8177 5.89261 23.9052 5.655 23.9051H4.539C4.3016 23.9051 4.07254 23.8175 3.89561 23.6592C3.71869 23.501 3.60632 23.283 3.58 23.0471L2.717 15.3591C2.70222 15.2251 2.63853 15.1014 2.53815 15.0115C2.43776 14.9216 2.30773 14.872 2.17299 14.8721H1.09599V10.6101C1.077 10.0732 1.16635 9.53803 1.35869 9.03646C1.55103 8.53488 1.84244 8.07719 2.21552 7.69068C2.58859 7.30417 3.03569 6.99677 3.53015 6.78682C4.02461 6.57687 4.5563 6.46867 5.09349 6.46867C5.63068 6.46867 6.16237 6.57687 6.65683 6.78682C7.15129 6.99677 7.5984 7.30417 7.97148 7.69068C8.34456 8.07719 8.63595 8.53488 8.82829 9.03646C9.02064 9.53803 9.10998 10.0732 9.09099 10.6101L9.08998 14.8471Z" fill="white"/>
<path d="M18.01 5.57007C18.6743 5.39267 19.2513 4.97978 19.6336 4.40837C20.0159 3.83696 20.1774 3.14603 20.0879 2.46437C19.9985 1.7827 19.6642 1.15683 19.1474 0.703419C18.6306 0.250008 17.9665 0 17.279 0C16.5915 0 15.9275 0.250008 15.4107 0.703419C14.8939 1.15683 14.5596 1.7827 14.4701 2.46437C14.3807 3.14603 14.5421 3.83696 14.9244 4.40837C15.3067 4.97978 15.8838 5.39267 16.548 5.57007C15.3373 5.74713 14.2305 6.35362 13.4297 7.27886C12.629 8.20411 12.1876 9.38642 12.186 10.6101V15.4201C12.186 15.5654 12.2438 15.7048 12.3465 15.8076C12.4493 15.9103 12.5887 15.9681 12.734 15.9681H13.869L14.669 23.1681C14.7249 23.672 14.9648 24.1376 15.3427 24.4757C15.7206 24.8137 16.21 25.0004 16.717 25.0001H17.833C18.3403 25.0006 18.8299 24.8139 19.2079 24.4756C19.5858 24.1373 19.8256 23.6713 19.881 23.1671L20.681 15.9421H21.816C21.9614 15.9421 22.1008 15.8843 22.2035 15.7816C22.3063 15.6788 22.364 15.5394 22.364 15.3941V10.6101C22.3625 9.38642 21.9211 8.20411 21.1203 7.27886C20.3195 6.35362 19.2128 5.74713 18.002 5.57007H18.01ZM15.541 2.83307C15.541 2.48932 15.643 2.1533 15.8339 1.86748C16.0249 1.58167 16.2963 1.35891 16.6139 1.22736C16.9315 1.09582 17.281 1.0614 17.6181 1.12846C17.9552 1.19552 18.2649 1.36105 18.508 1.60411C18.751 1.84718 18.9166 2.15686 18.9836 2.494C19.0507 2.83114 19.0163 3.18059 18.8847 3.49817C18.7532 3.81575 18.5304 4.08718 18.2446 4.27816C17.9588 4.46913 17.6228 4.57107 17.279 4.57107C16.8183 4.57054 16.3765 4.38726 16.0507 4.06143C15.7248 3.73561 15.5416 3.29385 15.541 2.83307ZM21.276 14.8471H20.203C20.0683 14.847 19.9383 14.8966 19.8379 14.9865C19.7375 15.0764 19.6738 15.2001 19.659 15.3341L18.8 23.0461C18.7742 23.2823 18.6619 23.5006 18.485 23.6591C18.308 23.8177 18.0786 23.9052 17.841 23.9051H16.725C16.4876 23.9051 16.2586 23.8175 16.0816 23.6592C15.9047 23.501 15.7924 23.283 15.766 23.0471L14.903 15.3591C14.8883 15.2251 14.8246 15.1014 14.7242 15.0115C14.6238 14.9216 14.4938 14.872 14.359 14.8721H13.282V10.6101C13.263 10.0732 13.3524 9.53803 13.5447 9.03646C13.7371 8.53488 14.0285 8.07719 14.4016 7.69068C14.7746 7.30417 15.2217 6.99677 15.7162 6.78682C16.2106 6.57687 16.7423 6.46867 17.2795 6.46867C17.8167 6.46867 18.3484 6.57687 18.8429 6.78682C19.3373 6.99677 19.7844 7.30417 20.1575 7.69068C20.5306 8.07719 20.822 8.53488 21.0143 9.03646C21.2067 9.53803 21.296 10.0732 21.277 10.6101L21.276 14.8471Z" fill="white"/>
<path d="M30.195 5.57007C30.8592 5.39267 31.4362 4.97978 31.8186 4.40837C32.2009 3.83696 32.3623 3.14603 32.2729 2.46437C32.1834 1.7827 31.8491 1.15683 31.3323 0.703419C30.8155 0.250008 30.1515 0 29.464 0C28.7765 0 28.1124 0.250008 27.5956 0.703419C27.0788 1.15683 26.7445 1.7827 26.6551 2.46437C26.5656 3.14603 26.7271 3.83696 27.1094 4.40837C27.4917 4.97978 28.0687 5.39267 28.733 5.57007C27.5222 5.74713 26.4155 6.35362 25.6147 7.27886C24.8139 8.20411 24.3725 9.38642 24.371 10.6101V15.4201C24.371 15.5654 24.4287 15.7048 24.5315 15.8076C24.6342 15.9103 24.7736 15.9681 24.919 15.9681H26.054L26.854 23.1681C26.9099 23.672 27.1498 24.1376 27.5277 24.4757C27.9056 24.8137 28.3949 25.0004 28.902 25.0001H30.018C30.5252 25.0006 31.0148 24.8139 31.3928 24.4756C31.7708 24.1373 32.0105 23.6713 32.066 23.1671L32.866 15.9421H34.001C34.1463 15.9421 34.2857 15.8843 34.3885 15.7816C34.4912 15.6788 34.549 15.5394 34.549 15.3941V10.6101C34.5474 9.38642 34.106 8.20411 33.3053 7.27886C32.5045 6.35362 31.3977 5.74713 30.187 5.57007H30.195ZM27.726 2.83307C27.726 2.48932 27.8279 2.1533 28.0189 1.86748C28.2098 1.58167 28.4813 1.35891 28.7989 1.22736C29.1164 1.09582 29.4659 1.0614 29.803 1.12846C30.1402 1.19552 30.4499 1.36105 30.6929 1.60411C30.936 1.84718 31.1015 2.15686 31.1686 2.494C31.2356 2.83114 31.2012 3.18059 31.0697 3.49817C30.9381 3.81575 30.7154 4.08718 30.4296 4.27816C30.1437 4.46913 29.8077 4.57107 29.464 4.57107C29.0032 4.57054 28.5614 4.38726 28.2356 4.06143C27.9098 3.73561 27.7265 3.29385 27.726 2.83307ZM33.461 14.8471H32.388C32.2532 14.847 32.1232 14.8966 32.0228 14.9865C31.9224 15.0764 31.8587 15.2001 31.844 15.3341L30.985 23.0461C30.9591 23.2823 30.8469 23.5006 30.6699 23.6591C30.4929 23.8177 30.2636 23.9052 30.026 23.9051H28.91C28.6726 23.9051 28.4435 23.8175 28.2666 23.6592C28.0897 23.501 27.9773 23.283 27.951 23.0471L27.088 15.3591C27.0732 15.2251 27.0095 15.1014 26.9091 15.0115C26.8087 14.9216 26.6787 14.872 26.544 14.8721H25.467V10.6101C25.448 10.0732 25.5373 9.53803 25.7297 9.03646C25.922 8.53488 26.2134 8.07719 26.5865 7.69068C26.9596 7.30417 27.4067 6.99677 27.9011 6.78682C28.3956 6.57687 28.9273 6.46867 29.4645 6.46867C30.0017 6.46867 30.5333 6.57687 31.0278 6.78682C31.5223 6.99677 31.9694 7.30417 32.3425 7.69068C32.7155 8.07719 33.0069 8.53488 33.1993 9.03646C33.3916 9.53803 33.4809 10.0732 33.462 10.6101L33.461 14.8471Z" fill="white"/>
<path d="M42.38 5.57007C43.0442 5.39267 43.6213 4.97978 44.0036 4.40837C44.3859 3.83696 44.5474 3.14603 44.4579 2.46437C44.3685 1.7827 44.0342 1.15683 43.5174 0.703419C43.0006 0.250008 42.3365 0 41.649 0C40.9615 0 40.2975 0.250008 39.7807 0.703419C39.2639 1.15683 38.9296 1.7827 38.8401 2.46437C38.7507 3.14603 38.9121 3.83696 39.2944 4.40837C39.6767 4.97978 40.2538 5.39267 40.918 5.57007C39.7073 5.74713 38.6005 6.35362 37.7997 7.27886C36.999 8.20411 36.5575 9.38642 36.556 10.6101V15.4201C36.556 15.5654 36.6138 15.7048 36.7165 15.8076C36.8193 15.9103 36.9587 15.9681 37.104 15.9681H38.239L39.039 23.1681C39.0949 23.672 39.3348 24.1376 39.7127 24.4757C40.0906 24.8137 40.58 25.0004 41.087 25.0001H42.203C42.7103 25.0006 43.1999 24.8139 43.5779 24.4756C43.9558 24.1373 44.1956 23.6713 44.251 23.1671L45.051 15.9421H46.186C46.3314 15.9421 46.4708 15.8843 46.5735 15.7816C46.6763 15.6788 46.734 15.5394 46.734 15.3941V10.6101C46.7325 9.38642 46.2911 8.20411 45.4903 7.27886C44.6895 6.35362 43.5828 5.74713 42.372 5.57007H42.38ZM39.911 2.83307C39.911 2.48932 40.013 2.1533 40.2039 1.86748C40.3949 1.58167 40.6663 1.35891 40.9839 1.22736C41.3015 1.09582 41.651 1.0614 41.9881 1.12846C42.3252 1.19552 42.6349 1.36105 42.878 1.60411C43.121 1.84718 43.2866 2.15686 43.3536 2.494C43.4207 2.83114 43.3863 3.18059 43.2547 3.49817C43.1232 3.81575 42.9004 4.08718 42.6146 4.27816C42.3288 4.46913 41.9928 4.57107 41.649 4.57107C41.1882 4.57054 40.7465 4.38726 40.4207 4.06143C40.0948 3.73561 39.9116 3.29385 39.911 2.83307ZM45.646 14.8471H44.573C44.4383 14.847 44.3083 14.8966 44.2079 14.9865C44.1075 15.0764 44.0438 15.2001 44.029 15.3341L43.17 23.0461C43.1441 23.2823 43.0319 23.5006 42.8549 23.6591C42.678 23.8177 42.4486 23.9052 42.211 23.9051H41.095C40.8576 23.9051 40.6286 23.8175 40.4516 23.6592C40.2747 23.501 40.1624 23.283 40.136 23.0471L39.273 15.3591C39.2582 15.2251 39.1946 15.1014 39.0942 15.0115C38.9938 14.9216 38.8638 14.872 38.729 14.8721H37.652V10.6101C37.633 10.0732 37.7224 9.53803 37.9147 9.03646C38.1071 8.53488 38.3985 8.07719 38.7715 7.69068C39.1446 7.30417 39.5917 6.99677 40.0862 6.78682C40.5806 6.57687 41.1123 6.46867 41.6495 6.46867C42.1867 6.46867 42.7184 6.57687 43.2129 6.78682C43.7073 6.99677 44.1544 7.30417 44.5275 7.69068C44.9006 8.07719 45.192 8.53488 45.3843 9.03646C45.5767 9.53803 45.666 10.0732 45.647 10.6101L45.646 14.8471Z" fill="white"/>
</svg>
