<svg xmlns="http://www.w3.org/2000/svg" xmlns:xlink="http://www.w3.org/1999/xlink" width="455" height="160" viewBox="0 0 455 160">
  <defs>
    <linearGradient id="linear-gradient" x1="0.644" y1="0.98" x2="0.696" y2="-0.395" gradientUnits="objectBoundingBox">
      <stop offset="0" stop-color="#303841"/>
      <stop offset="1" stop-color="#8a8e93"/>
    </linearGradient>
    <linearGradient id="linear-gradient-2" x1="1.291" y1="0.882" x2="-0.064" y2="0.168" gradientUnits="objectBoundingBox">
      <stop offset="0" stop-color="#055782"/>
      <stop offset="1" stop-color="#032c41"/>
    </linearGradient>
    <linearGradient id="linear-gradient-3" x1="0.5" x2="0.598" y2="1.087" gradientUnits="objectBoundingBox">
      <stop offset="0" stop-color="#0897e3"/>
      <stop offset="1" stop-color="#044c72"/>
    </linearGradient>
    <linearGradient id="linear-gradient-4" x1="0.412" y1="-0.074" x2="0.5" y2="1.188" gradientUnits="objectBoundingBox">
      <stop offset="0" stop-color="#fff"/>
      <stop offset="1" stop-color="#0787cb"/>
    </linearGradient>
    <filter id="Polygon_1" x="352.61" y="46.543" width="61.473" height="72.913" filterUnits="userSpaceOnUse">
      <feOffset dy="3" input="SourceAlpha"/>
      <feGaussianBlur stdDeviation="3" result="blur"/>
      <feFlood flood-opacity="0.525"/>
      <feComposite operator="in" in2="blur"/>
      <feComposite in="SourceGraphic"/>
    </filter>
    <filter id="Polygon_1-2" x="352.61" y="46.543" width="61.473" height="72.913" filterUnits="userSpaceOnUse">
      <feOffset dy="3" input="SourceAlpha"/>
      <feGaussianBlur stdDeviation="3" result="blur-2"/>
      <feFlood flood-opacity="0.263" result="color"/>
      <feComposite operator="out" in="SourceGraphic" in2="blur-2"/>
      <feComposite operator="in" in="color"/>
      <feComposite operator="in" in2="SourceGraphic"/>
    </filter>
  </defs>
  <g id="Group_424" data-name="Group 424" transform="translate(-705 -457)">
    <g id="Path_4018" data-name="Path 4018" transform="translate(705 457)" fill="url(#linear-gradient)">
      <path d="M 375 158 L 80 158 C 69.46917724609375 158 59.25447082519531 155.9380035400391 49.63953018188477 151.8711700439453 C 45.01811599731445 149.9165344238281 40.56064605712891 147.4970550537109 36.3908805847168 144.6799926757812 C 32.26017761230469 141.889404296875 28.37582397460938 138.6844635009766 24.84570503234863 135.154296875 C 21.31552886962891 131.6241760253906 18.11058807373047 127.7398223876953 15.31999969482422 123.6091156005859 C 12.5029411315918 119.4393539428711 10.08347034454346 114.9818801879883 8.128823280334473 110.3604736328125 C 4.061999797821045 100.7455291748047 2 90.53082275390625 2 80 C 2 69.46917724609375 4.061999797821045 59.25447082519531 8.128823280334473 49.63953018188477 C 10.08347034454346 45.01811599731445 12.5029411315918 40.56064605712891 15.31999969482422 36.3908805847168 C 18.11058807373047 32.26017761230469 21.31552886962891 28.37582397460938 24.84570503234863 24.84570503234863 C 28.37582397460938 21.31552886962891 32.26017761230469 18.11058807373047 36.3908805847168 15.31999969482422 C 40.56064605712891 12.5029411315918 45.01811599731445 10.08347034454346 49.63953018188477 8.128823280334473 C 59.25447082519531 4.061999797821045 69.46917724609375 2 80 2 L 375 2 C 385.5308227539062 2 395.7455444335938 4.061999797821045 405.3604736328125 8.128823280334473 C 409.9818725585938 10.08347034454346 414.4393615722656 12.5029411315918 418.609130859375 15.31999969482422 C 422.7398376464844 18.11058807373047 426.6241760253906 21.31552886962891 430.154296875 24.84570503234863 C 433.6844787597656 28.37582397460938 436.889404296875 32.26017761230469 439.6799926757812 36.3908805847168 C 442.4970703125 40.56064605712891 444.9165344238281 45.01811599731445 446.8711853027344 49.63953018188477 C 450.93798828125 59.25447082519531 453 69.46917724609375 453 80 C 453 90.53082275390625 450.93798828125 100.7455291748047 446.8711853027344 110.3604736328125 C 444.9165344238281 114.9818801879883 442.4970703125 119.4393539428711 439.6799926757812 123.6091156005859 C 436.889404296875 127.7398223876953 433.6844787597656 131.6241760253906 430.154296875 135.154296875 C 426.6241760253906 138.6844635009766 422.7398376464844 141.889404296875 418.609130859375 144.6799926757812 C 414.4393615722656 147.4970550537109 409.9818725585938 149.9165344238281 405.3604736328125 151.8711700439453 C 395.7455444335938 155.9380035400391 385.5308227539062 158 375 158 Z" stroke="none"/>
      <path d="M 80 4 C 69.73828125 4 59.78570556640625 6.008880615234375 50.4185791015625 9.9708251953125 C 45.91616821289062 11.87518310546875 41.5732421875 14.23246765136719 37.51046752929688 16.97723388671875 C 33.48529052734375 19.69659423828125 29.7000732421875 22.81976318359375 26.2598876953125 26.2598876953125 C 22.81976318359375 29.70005798339844 19.69659423828125 33.48529052734375 16.97723388671875 37.51046752929688 C 14.23248291015625 41.57323455810547 11.87518310546875 45.91617584228516 9.9708251953125 50.41858673095703 C 6.008880615234375 59.78570556640625 4 69.73829650878906 4 80 C 4 90.26170349121094 6.008880615234375 100.2142944335938 9.9708251953125 109.581413269043 C 11.87518310546875 114.0838241577148 14.23248291015625 118.4267654418945 16.97723388671875 122.4895324707031 C 19.69659423828125 126.5147094726562 22.81976318359375 130.2999420166016 26.2598876953125 133.7401123046875 C 29.7000732421875 137.1802368164062 33.48529052734375 140.3034057617188 37.51046752929688 143.0227661132812 C 41.5732421875 145.7675323486328 45.91616821289062 148.1248168945312 50.4185791015625 150.0291748046875 C 59.78570556640625 153.9911193847656 69.73828125 156 80 156 L 375 156 C 385.26171875 156 395.2142944335938 153.9911193847656 404.5814208984375 150.0291748046875 C 409.0838317871094 148.1248168945312 413.4267578125 145.7675323486328 417.4895324707031 143.0227661132812 C 421.5147094726562 140.3034057617188 425.2999267578125 137.1802368164062 428.7401123046875 133.7401123046875 C 432.1802368164062 130.2999420166016 435.3034057617188 126.5147094726562 438.0227661132812 122.4895324707031 C 440.7675170898438 118.4267654418945 443.1248168945312 114.0838241577148 445.0291748046875 109.581413269043 C 448.9911193847656 100.2142944335938 451 90.26170349121094 451 80 C 451 69.73829650878906 448.9911193847656 59.78570556640625 445.0291748046875 50.41858673095703 C 443.1248168945312 45.91617584228516 440.7675170898438 41.57323455810547 438.0227661132812 37.51046752929688 C 435.3034057617188 33.48529052734375 432.1802368164062 29.70005798339844 428.7401123046875 26.2598876953125 C 425.2999267578125 22.81976318359375 421.5147094726562 19.69659423828125 417.4895324707031 16.97723388671875 C 413.4267578125 14.23246765136719 409.0838317871094 11.87518310546875 404.5814208984375 9.9708251953125 C 395.2142944335938 6.008880615234375 385.26171875 4 375 4 L 80 4 M 80 0 L 375 0 C 419.1827697753906 0 455 35.81723785400391 455 80 C 455 124.1827697753906 419.1827697753906 160 375 160 L 80 160 C 35.81723022460938 160 0 124.1827697753906 0 80 C 0 35.81723785400391 35.81723022460938 0 80 0 Z" stroke="none" fill="#4f5862"/>
    </g>
    <g id="Group_430" data-name="Group 430" transform="translate(10)">
      <g id="Group_426" data-name="Group 426" transform="translate(1012 479)">
        <circle id="Ellipse_1" data-name="Ellipse 1" cx="58" cy="58" r="58" fill="url(#linear-gradient-2)"/>
        <circle id="Ellipse_3" data-name="Ellipse 3" cx="55" cy="55" r="55" transform="translate(3 1)" fill="url(#linear-gradient-3)"/>
        <ellipse id="Ellipse_2" data-name="Ellipse 2" cx="43" cy="30.5" rx="43" ry="30.5" transform="translate(15 4)" fill="url(#linear-gradient-4)"/>
      </g>
      <g data-type="innerShadowGroup">
        <g transform="matrix(1, 0, 0, 1, 695, 457)" filter="url(#Polygon_1)">
          <path id="Polygon_1-3" data-name="Polygon 1" d="M27.457,0,54.913,43.473H0Z" transform="translate(405.08 52.54) rotate(90)" fill="#fff"/>
        </g>
        <g transform="matrix(1, 0, 0, 1, 695, 457)" filter="url(#Polygon_1-2)">
          <path id="Polygon_1-4" data-name="Polygon 1" d="M27.457,0,54.913,43.473H0Z" transform="translate(405.08 52.54) rotate(90)" fill="#fff"/>
        </g>
      </g>
    </g>
    <g id="Group_429" data-name="Group 429" transform="translate(25 -3)">
      <text id="Live_a" data-name="Live a" transform="translate(747 555)" fill="#fff" font-size="46" font-family="Avenir-Light, Avenir" font-weight="300"><tspan x="0" y="0">Live a</tspan></text>
      <text id="Life" transform="translate(876 555)" fill="#10dcf3" font-size="46" font-family="Avenir-Light, Avenir" font-weight="300"><tspan x="0" y="0">Life</tspan></text>
    </g>
  </g>
</svg>
