<svg width="80" height="80" viewBox="0 0 80 80" fill="none" xmlns="http://www.w3.org/2000/svg">
<path d="M80 40C80 62.0914 62.0914 80 40 80C17.9086 80 0 62.0914 0 40C0 17.9086 17.9086 0 40 0C62.0914 0 80 17.9086 80 40Z" fill="url(#paint0_radial_22_2)"/>
<path d="M8 40C8 58.7777 23.2223 74 42 74C60.7777 74 76 58.7777 76 40C76 21.2223 60.7777 6 42 6C23.2223 6 8 21.2223 8 40Z" fill="url(#paint1_linear_22_2)"/>
<path d="M61.7056 50C60.5299 50 59.4737 49.8073 58.537 49.4218C57.6002 49.0364 56.8021 48.5015 56.1425 47.8173C55.4925 47.1235 54.9907 46.3189 54.6371 45.4034C54.2929 44.4783 54.1209 43.4858 54.1209 42.4258V41.8476C54.1209 40.643 54.2929 39.5493 54.6371 38.5664C54.9812 37.5738 55.4687 36.721 56.0995 36.0079C56.7304 35.2948 57.4855 34.7455 58.3649 34.3601C59.2443 33.9746 60.2145 33.7819 61.2755 33.7819C62.3748 33.7819 63.345 33.9698 64.1861 34.3456C65.0273 34.7118 65.7298 35.2322 66.2938 35.9067C66.8577 36.5813 67.2831 37.3907 67.5699 38.3351C67.8566 39.2698 68 40.3057 68 41.4428V43.0473H55.8414V40.4166H64.2721V40.1275C64.253 39.5204 64.1383 38.9663 63.928 38.4652C63.7177 37.9544 63.3927 37.5497 62.9531 37.251C62.5134 36.9426 61.9446 36.7884 61.2468 36.7884C60.6829 36.7884 60.1906 36.9137 59.77 37.1643C59.359 37.4052 59.0149 37.7521 58.7377 38.205C58.4701 38.6483 58.2693 39.1783 58.1355 39.795C58.0017 40.4117 57.9348 41.0959 57.9348 41.8476V42.4258C57.9348 43.081 58.0208 43.6881 58.1929 44.247C58.3745 44.806 58.6373 45.2926 58.9814 45.707C59.3351 46.1117 59.7557 46.4297 60.2432 46.661C60.7402 46.8826 61.3042 46.9934 61.9351 46.9934C62.7284 46.9934 63.4453 46.8392 64.0857 46.5309C64.7357 46.2129 65.2997 45.7455 65.7776 45.1288L67.6846 47.1235C67.3596 47.6053 66.9199 48.0679 66.3655 48.5112C65.8206 48.9544 65.1611 49.3158 64.3868 49.5953C63.6126 49.8651 62.7189 50 61.7056 50Z" fill="white"/>
<path d="M45.3748 46.82L48.9879 34.071H52.9452L47.6258 49.7109H45.217L45.3748 46.82ZM42.7366 34.071L46.3927 46.8489L46.5218 49.7109H44.0987L38.765 34.071H42.7366Z" fill="white"/>
<path d="M36.6143 34.071V49.7109H32.8147V34.071H36.6143ZM32.5566 29.9803C32.5566 29.4117 32.7478 28.9396 33.1302 28.5637C33.5221 28.1879 34.0478 28 34.7073 28C35.3669 28 35.8878 28.1879 36.2702 28.5637C36.6621 28.9396 36.858 29.4117 36.858 29.9803C36.858 30.5392 36.6621 31.0066 36.2702 31.3824C35.8878 31.7582 35.3669 31.9461 34.7073 31.9461C34.0478 31.9461 33.5221 31.7582 33.1302 31.3824C32.7478 31.0066 32.5566 30.5392 32.5566 29.9803Z" fill="white"/>
<path d="M30.2482 46.5887V49.7109H19.7529V46.5887H30.2482ZM20.9429 28.6649V49.7109H17V28.6649H20.9429Z" fill="white"/>
<defs>
<radialGradient id="paint0_radial_22_2" cx="0" cy="0" r="1" gradientUnits="userSpaceOnUse" gradientTransform="translate(39.9995 39.9997) rotate(90) scale(40 42.3416)">
<stop stop-color="#04E0FF"/>
<stop offset="1" stop-color="#0D7684"/>
</radialGradient>
<linearGradient id="paint1_linear_22_2" x1="42.0026" y1="5.99935" x2="42.0026" y2="73.9994" gradientUnits="userSpaceOnUse">
<stop stop-color="white" stop-opacity="0.5"/>
<stop offset="0.400706" stop-color="white" stop-opacity="0"/>
</linearGradient>
</defs>
</svg>
