<svg width="24" height="24" viewBox="0 0 24 24" fill="none" xmlns="http://www.w3.org/2000/svg">
<path d="M21.3041 22.9786H2.73256C2.2846 22.978 1.85517 22.7997 1.53842 22.483C1.22167 22.1662 1.04343 21.7368 1.04279 21.2888V17.2727C1.04261 17.0316 1.09409 16.7932 1.19378 16.5735C1.29347 16.3539 1.43904 16.1582 1.6207 15.9996L7.42921 10.9254C7.73714 10.6573 8.13153 10.5093 8.53984 10.5088H15.3172C15.72 10.5075 16.1099 10.6501 16.4169 10.9107L22.4038 15.9923C22.5907 16.151 22.7409 16.3485 22.8439 16.5711C22.9469 16.7937 23.0001 17.036 23 17.2813V21.2901C23.0003 21.512 22.957 21.7318 22.8723 21.9369C22.7877 22.142 22.6635 22.3285 22.5068 22.4856C22.3501 22.6428 22.164 22.7675 21.9592 22.8527C21.7543 22.9379 21.5346 22.982 21.3127 22.9823L21.3041 22.9786ZM8.54229 11.5632C8.38761 11.5625 8.23806 11.6186 8.12198 11.7208L2.31347 16.7913C2.24393 16.8521 2.18846 16.9273 2.1509 17.0117C2.11335 17.0961 2.09461 17.1877 2.09599 17.2801V21.2901C2.09631 21.4598 2.16387 21.6224 2.28387 21.7424C2.40387 21.8624 2.56652 21.93 2.73622 21.9303H21.3078C21.4775 21.93 21.6402 21.8624 21.7602 21.7424C21.8802 21.6224 21.9477 21.4598 21.948 21.2901V17.285C21.9484 17.1919 21.9283 17.0999 21.8892 17.0155C21.8502 16.9311 21.7931 16.8562 21.722 16.7962L15.7351 11.7147C15.6192 11.6168 15.4726 11.5627 15.3209 11.562L8.54229 11.5632Z" fill="white" stroke="white" stroke-width="0.3"/>
<path d="M11.9744 19.7713C11.376 19.7715 10.7911 19.5943 10.2934 19.2621C9.79581 18.9299 9.40787 18.4576 9.17867 17.9049C8.94948 17.3522 8.88932 16.744 9.00581 16.1571C9.1223 15.5702 9.41022 15.0311 9.83313 14.6078C10.256 14.1846 10.7949 13.8962 11.3817 13.7793C11.9685 13.6623 12.5768 13.722 13.1297 13.9507C13.6826 14.1794 14.1552 14.567 14.4878 15.0643C14.8204 15.5617 14.9981 16.1465 14.9983 16.7449C14.998 17.547 14.6794 18.3162 14.1124 18.8837C13.5455 19.4511 12.7765 19.7703 11.9744 19.7713ZM11.9744 14.2463C11.4802 14.2463 10.9971 14.3928 10.5862 14.6674C10.1753 14.9419 9.85505 15.3321 9.66594 15.7887C9.47682 16.2452 9.42735 16.7476 9.52376 17.2323C9.62017 17.717 9.85813 18.1622 10.2076 18.5117C10.557 18.8611 11.0022 19.0991 11.4869 19.1955C11.9716 19.2919 12.474 19.2424 12.9305 19.0533C13.3871 18.8642 13.7773 18.5439 14.0519 18.133C14.3264 17.7221 14.473 17.239 14.473 16.7449C14.4723 16.0824 14.2089 15.4473 13.7404 14.9788C13.272 14.5104 12.6368 14.2469 11.9744 14.2463Z" fill="white" stroke="white" stroke-width="0.3"/>
<path d="M21.3945 8.93869H17.2526C16.9345 8.93837 16.6295 8.81185 16.4045 8.58691C16.1796 8.36197 16.0531 8.05698 16.0528 7.73886V6.16761C16.0521 6.10948 16.0287 6.05391 15.9876 6.0128C15.9465 5.97169 15.891 5.94832 15.8328 5.94768H8.11585C8.05772 5.94832 8.00215 5.97169 7.96104 6.0128C7.91993 6.05391 7.89656 6.10948 7.89592 6.16761V7.74008C7.8956 8.0582 7.76909 8.36319 7.54415 8.58813C7.31921 8.81307 7.01422 8.93959 6.6961 8.93991H2.55659C2.14386 8.93959 1.74812 8.77548 1.45627 8.48364C1.16442 8.19179 1.00032 7.79605 1 7.38332V5.42841C1.00097 4.51944 1.36249 3.64797 2.00523 3.00523C2.64798 2.36249 3.51944 2.00097 4.42841 2H19.5203C20.4292 2.00097 21.3007 2.36249 21.9435 3.00523C22.5862 3.64797 22.9477 4.51944 22.9487 5.42841V7.38332C22.9487 7.79573 22.785 8.19128 22.4936 8.48313C22.2023 8.77498 21.8069 8.93804 21.3945 8.93869ZM8.11585 4.89692H15.8328C16.1697 4.89725 16.4927 5.03122 16.731 5.26945C16.9692 5.50768 17.1032 5.8307 17.1035 6.16761V7.74008C17.1035 7.77962 17.1192 7.81754 17.1472 7.84549C17.1751 7.87344 17.2131 7.88915 17.2526 7.88915H21.3945C21.529 7.88915 21.658 7.83573 21.7531 7.74063C21.8482 7.64554 21.9016 7.51657 21.9016 7.38209V5.42719C21.9006 4.7969 21.6498 4.19269 21.2041 3.747C20.7584 3.30132 20.1542 3.05051 19.5239 3.04954H4.43085C3.80056 3.05051 3.19636 3.30132 2.75067 3.747C2.30499 4.19269 2.05417 4.7969 2.0532 5.42719V7.38209C2.0532 7.51657 2.10663 7.64554 2.20172 7.74063C2.29681 7.83573 2.42578 7.88915 2.56026 7.88915H6.6961C6.73564 7.88915 6.77355 7.87344 6.8015 7.84549C6.82946 7.81754 6.84516 7.77962 6.84516 7.74008V6.16761C6.84548 5.8307 6.97946 5.50768 7.21769 5.26945C7.45592 5.03122 7.77894 4.89725 8.11585 4.89692Z" fill="white" stroke="white" stroke-width="0.3"/>
</svg>
