<svg width="226" height="95" viewBox="0 0 226 95" fill="none" xmlns="http://www.w3.org/2000/svg">
<path d="M74.7923 21.4259C76.299 22.0626 77.6625 22.9954 78.802 24.169C76.787 22.0194 74.3912 20.2617 71.7358 18.9849L52.7027 9.79055C47.3746 7.47974 41.8544 7.70704 36.1422 10.4724C28.3931 14.607 21.3781 19.99 15.3791 26.4053C11.4678 30.6256 10.3722 36.1323 12.0923 42.9254L16.4095 62.8036C17.0299 64.9221 17.7651 67.0053 18.6116 69.0441C17.2822 65.5048 18.1618 60.6873 21.2504 54.5916C21.9656 53.398 22.7063 52.2316 23.4725 51.0925C27.3827 45.601 31.9363 40.5974 37.0361 36.1887C40.0092 33.4817 43.1665 30.9843 46.4851 28.7142C49.9837 26.3563 53.662 24.2769 57.4861 22.4951C58.5734 21.9828 59.694 21.5442 60.8401 21.1822C61.7801 20.8878 62.7364 20.6483 63.7043 20.465C65.6516 20.0884 67.6417 19.9826 69.618 20.1506C71.4004 20.293 73.1479 20.7237 74.7923 21.4259Z" fill="url(#paint0_linear_177_2)"/>
<path d="M77.0205 75.6745C77.877 75.2872 78.6905 74.8111 79.4477 74.2542C75.9144 75.8551 70.732 74.8163 63.9005 71.1379L23.4743 51.0942C22.7106 52.2341 21.9699 53.4005 21.2521 54.5933C18.1622 60.6887 17.2828 65.5069 18.6138 69.048C18.8221 69.5303 19.0484 69.9971 19.2926 70.4483L19.3103 70.4789C20.442 72.5075 21.9586 74.2958 23.775 75.7436C26.5981 77.9719 29.7 79.8222 33.002 81.2477C36.5133 82.7604 40.106 84.0764 43.7635 85.1897C45.9303 85.9299 48.1805 86.3985 50.4627 86.5848C52.6645 86.7036 54.868 86.3858 56.9465 85.6497L77.0205 75.6745Z" fill="url(#paint1_linear_177_2)"/>
<path d="M78.8013 24.1676C77.6619 22.9946 76.2986 22.0622 74.7923 21.4258C73.1472 20.7235 71.399 20.2929 69.6159 20.1509C67.6398 19.9831 65.6501 20.089 63.703 20.4655C62.7352 20.6488 61.7789 20.8883 60.8389 21.1828C66.2829 38.5346 67.3054 55.1853 63.9063 71.135C70.7344 74.8131 75.9152 75.8528 79.4486 74.254C81.9983 72.3289 83.7046 69.4922 84.2103 66.3376C85.2487 60.2815 85.548 54.1217 85.1016 47.9934C84.844 42.3258 84.0751 36.693 82.8043 31.1637C82.5615 30.169 82.1965 29.2081 81.7175 28.3031C81.2517 27.4387 80.7251 26.6085 80.1417 25.8187C79.7276 25.2426 79.28 24.6913 78.8013 24.1676Z" fill="url(#paint2_linear_177_2)"/>
<path d="M82.9219 31.2431C82.6826 30.2433 82.3212 29.2767 81.8459 28.3651C81.3865 27.4938 80.8623 26.6581 80.2779 25.8651C79.8648 25.281 79.4181 24.7214 78.9399 24.1891C77.8004 23.0089 76.4381 22.0664 74.9319 21.4161C73.287 20.7026 71.536 20.2641 69.7489 20.1181C69.1483 20.0635 68.5516 20.0361 67.9589 20.0361C66.5692 20.04 65.1828 20.1739 63.8179 20.4361C62.8466 20.6216 61.8859 20.8589 60.9399 21.1471C66.3606 38.6331 67.3589 55.3388 63.9349 71.2641C68.6683 73.7975 72.6069 75.0571 75.7509 75.0431C77.0035 75.0561 78.2456 74.8131 79.4009 74.3291C81.9414 72.403 83.6456 69.5752 84.1619 66.4291C84.923 62.3203 85.295 58.1488 85.2729 53.9701C85.2729 52.0981 85.2263 50.1521 85.1329 48.1321C84.8983 42.448 84.1584 36.7961 82.9219 31.2431Z" fill="url(#paint3_linear_177_2)"/>
<path d="M210.786 36.55C211.377 36.057 212.055 35.6801 212.786 35.439C213.623 35.1555 214.502 35.0172 215.386 35.03C216.287 35.0108 217.186 35.125 218.053 35.369L219.913 36.106L221.113 36.855L221.85 37.155C221.973 37.158 222.094 37.1267 222.2 37.0647C222.306 37.0027 222.392 36.9124 222.45 36.804L222.988 35.927C222.004 35.0116 220.852 34.2963 219.595 33.821C218.232 33.3552 216.8 33.1296 215.36 33.154C214.128 33.1367 212.902 33.3267 211.733 33.716C210.739 34.0749 209.817 34.6056 209.007 35.284C208.291 35.9165 207.706 36.6837 207.287 37.542C206.901 38.3822 206.701 39.2962 206.702 40.221C206.668 41.1667 206.877 42.1054 207.31 42.947C207.733 43.6729 208.302 44.3024 208.983 44.795C209.694 45.3251 210.473 45.7588 211.298 46.085L216.644 47.828L218.972 48.857C219.617 49.2253 220.179 49.7231 220.622 50.319C221.068 50.9594 221.293 51.7272 221.265 52.507C221.267 53.2805 221.12 54.0473 220.832 54.765C220.537 55.4644 220.099 56.094 219.545 56.613C218.945 57.1719 218.236 57.6017 217.463 57.876C216.517 58.1941 215.524 58.3483 214.527 58.332C213.527 58.3593 212.529 58.2128 211.579 57.899L209.543 56.999L208.268 56.099C208.043 55.8588 207.741 55.7055 207.414 55.666L206.958 55.771L206.666 56.099L206.081 56.976C207.138 57.9309 208.343 58.7077 209.649 59.276C211.166 59.8958 212.795 60.1944 214.434 60.153C215.763 60.1766 217.085 59.9668 218.341 59.533C219.407 59.1603 220.386 58.5752 221.219 57.813C221.997 57.1099 222.608 56.2426 223.009 55.274C223.416 54.2587 223.619 53.1736 223.609 52.08C223.635 51.1525 223.421 50.234 222.989 49.413C222.566 48.6872 222.006 48.0512 221.339 47.541C220.626 47.007 219.842 46.5739 219.011 46.254L213.665 44.476L211.325 43.482C210.689 43.13 210.129 42.6571 209.675 42.09C209.252 41.4887 209.039 40.7654 209.067 40.031C209.065 39.3729 209.213 38.7231 209.5 38.131C209.811 37.5155 210.25 36.9732 210.787 36.54M198.258 36.131C197.337 35.1535 196.216 34.3873 194.971 33.885C193.656 33.3857 192.259 33.1358 190.853 33.148C189.142 33.1207 187.444 33.4514 185.869 34.119C184.454 34.7401 183.192 35.6614 182.169 36.819C181.13 38.01 180.342 39.3988 179.853 40.902C179.292 42.5839 179.016 44.3473 179.034 46.12C179.001 48.1232 179.293 50.1185 179.9 52.028C180.404 53.6422 181.228 55.1386 182.322 56.428C183.366 57.6095 184.666 58.5377 186.122 59.142C187.668 59.78 189.327 60.0984 191 60.078L193.96 59.786L196.686 59.026L198.986 57.833C199.623 57.4453 200.189 56.9507 200.659 56.371L199.992 55.529L199.454 55.272L197.04 56.692L194.63 57.663C193.515 57.9532 192.366 58.0908 191.214 58.072C189.841 58.0909 188.478 57.8405 187.201 57.335C186.015 56.8254 184.968 56.0392 184.148 55.042C183.257 53.933 182.594 52.6584 182.198 51.292C181.728 49.6135 181.503 47.8758 181.531 46.133V45.618H200.565L201.103 45.407L201.267 44.607C201.294 42.9462 201.023 41.294 200.467 39.729C199.969 38.4002 199.218 37.1806 198.256 36.138M196.735 37.413C197.481 38.2322 198.05 39.1957 198.408 40.244C198.814 41.4617 199.012 42.7394 198.993 44.023H181.657C181.79 42.7396 182.109 41.4824 182.605 40.291C183.039 39.2383 183.675 38.2806 184.477 37.472C185.271 36.6802 186.218 36.0591 187.261 35.647C188.413 35.2015 189.641 34.9831 190.876 35.004C192.004 34.9895 193.123 35.2084 194.163 35.647C195.138 36.0443 196.016 36.647 196.737 37.414M172.837 33.741L172.498 34.209L163.818 54.869L163.151 57.15L162.508 54.869L153.874 34.209L153.535 33.764L152.95 33.564H150.973L162.017 59.746H164.228L175.283 33.564H173.376L172.838 33.739M145.338 33.564H142.846V59.749H145.338V33.567M146.238 23.647L145.723 22.875L144.974 22.395L144.085 22.208L143.208 22.395L142.459 22.875L141.944 23.647L141.769 24.547L141.944 25.424L142.459 26.138L143.208 26.653L144.085 26.828L144.974 26.653L145.723 26.138L146.238 25.424L146.413 24.547L146.238 23.647ZM133.685 21.459H131.17V59.749H133.685V21.459Z" fill="#10DCF6"/>
<path d="M122.064 21.459H119.549V59.749H122.064V21.459ZM93.1099 37.292L93.5779 38.041L93.8779 38.404L94.3459 38.533C94.7247 38.4791 95.0704 38.2876 95.3169 37.995L96.8379 36.837L99.0799 35.673C100.12 35.3047 101.218 35.1301 102.321 35.158C103.19 35.0997 104.061 35.2461 104.864 35.5855C105.666 35.9248 106.378 36.4477 106.942 37.112C108.084 38.7396 108.635 40.7082 108.505 42.692V45.441C105.955 45.4622 103.412 45.7088 100.905 46.178C99.1024 46.4839 97.3532 47.0473 95.7109 47.851C94.5273 48.4135 93.5022 49.2616 92.7279 50.319C92.1107 51.2306 91.7805 52.3061 91.7799 53.407C91.7537 54.4641 91.9584 55.5142 92.3799 56.484C92.7431 57.2911 93.2875 58.0036 93.9709 58.566C94.626 59.1141 95.3862 59.5225 96.2049 59.766C97.0473 60.0247 97.9238 60.1548 98.8049 60.152C99.7957 60.1623 100.785 60.0617 101.753 59.852C102.616 59.6511 103.453 59.349 104.245 58.952L106.479 57.536L108.62 55.636L109.006 58.994C109.043 59.2184 109.164 59.4205 109.344 59.5595C109.524 59.6984 109.75 59.764 109.977 59.743H110.983V42.692C110.999 41.3507 110.818 40.0144 110.445 38.726C110.141 37.6238 109.607 36.5988 108.877 35.719C108.175 34.873 107.275 34.2137 106.257 33.8C105.09 33.3325 103.841 33.1056 102.584 33.133C100.808 33.1032 99.0474 33.4648 97.4269 34.192C95.819 34.967 94.3582 36.016 93.1099 37.292ZM95.0399 50.816C95.7414 49.9871 96.6336 49.341 97.6399 48.933C99.0603 48.3264 100.552 47.9039 102.08 47.676C104.207 47.3467 106.352 47.1464 108.503 47.076V53.943L106.657 55.692L104.598 57.108C103.85 57.5097 103.057 57.82 102.235 58.032C101.319 58.2576 100.378 58.3678 99.4349 58.36L97.4459 58.06C96.8337 57.8835 96.2671 57.5765 95.7849 57.16C95.2883 56.7289 94.8929 56.1935 94.6269 55.592C94.3238 54.8706 94.1762 54.0933 94.1939 53.311C94.1849 52.409 94.4817 51.5306 95.0359 50.819M84.0359 36.149C83.1186 35.1684 81.9996 34.3984 80.7559 33.892C79.441 33.3927 78.0445 33.1428 76.6379 33.155C74.9271 33.1277 73.2294 33.4584 71.6539 34.126C70.2395 34.7471 68.977 35.6684 67.9539 36.826C66.9147 38.017 66.127 39.4058 65.6379 40.909C65.0774 42.5909 64.8006 44.3543 64.8189 46.127C64.7859 48.1302 65.0784 50.1255 65.6849 52.035C66.189 53.6493 67.0127 55.1456 68.1069 56.435C69.151 57.6165 70.4506 58.5447 71.9069 59.149C73.4531 59.787 75.1124 60.1054 76.7849 60.085L79.7449 59.793L82.4709 59.033L84.7709 57.84C85.4084 57.4523 85.9743 56.9577 86.4439 56.378L85.7769 55.536L85.2389 55.279L82.8269 56.692L80.4169 57.663C79.302 57.9532 78.1529 58.0908 77.0009 58.072C75.628 58.0909 74.2646 57.8405 72.9879 57.335C71.8018 56.8254 70.7549 56.0392 69.9349 55.042C69.042 53.9334 68.3776 52.6588 67.9799 51.292C67.5101 49.6135 67.2854 47.8758 67.3129 46.133V45.618H86.3479L86.8859 45.407L87.0499 44.607C87.0772 42.9462 86.8063 41.294 86.2499 39.729C85.7522 38.4002 85.0013 37.1807 84.0389 36.138M82.5179 37.413C83.2635 38.2322 83.833 39.1957 84.1909 40.244C84.5972 41.4617 84.795 42.7394 84.7759 44.023H67.4429C67.5762 42.7396 67.8955 41.4824 68.3909 40.291C68.8252 39.2383 69.4611 38.2806 70.2629 37.472C71.0568 36.6802 72.0042 36.0591 73.0469 35.647C74.1992 35.2015 75.4267 34.9831 76.6619 35.004C77.7902 34.9895 78.9093 35.2084 79.9489 35.647C80.9239 36.0443 81.8018 36.647 82.5229 37.414M58.0609 35.567L60.7399 35.93C60.8552 35.929 60.9665 35.8875 61.0543 35.8127C61.142 35.7379 61.2007 35.6347 61.2199 35.521L61.4309 33.766L60.0389 33.266L58.4479 33.137C57.5038 33.1225 56.5647 33.2769 55.6749 33.593C54.8513 33.894 54.087 34.3374 53.4169 34.903C52.7091 35.514 52.1017 36.2324 51.6169 37.032C51.0637 37.9372 50.5976 38.8928 50.2249 39.886L50.0499 34.386L49.8159 33.743L49.1729 33.568H47.8359V59.749H50.3509V42.821L51.6379 39.686C52.0465 38.8451 52.5919 38.078 53.2519 37.416C53.8596 36.8207 54.5791 36.3517 55.3689 36.036C56.2285 35.7107 57.142 35.5516 58.0609 35.567Z" fill="white"/>
<path d="M202.361 70.03C201.786 70.0044 201.212 70.1079 200.681 70.3328C200.151 70.5578 199.678 70.8985 199.296 71.33C198.492 72.3032 198.083 73.5432 198.15 74.804C198.09 75.9863 198.479 77.1477 199.238 78.056C199.608 78.4596 200.062 78.7768 200.568 78.9849C201.074 79.193 201.62 79.2869 202.167 79.26C202.779 79.3097 203.394 79.2113 203.96 78.973C204.526 78.7347 205.027 78.3635 205.419 77.891C206.147 76.8913 206.516 75.6755 206.467 74.44C206.51 73.837 206.427 73.2317 206.221 72.6633C206.015 72.0948 205.693 71.5758 205.274 71.14C204.486 70.4021 203.44 70.0041 202.361 70.03ZM200.325 72.32C200.532 71.9845 200.826 71.7123 201.177 71.5328C201.528 71.3533 201.921 71.2734 202.314 71.302C202.754 71.2664 203.194 71.3604 203.581 71.5724C203.968 71.7844 204.284 72.1052 204.49 72.495C204.78 73.1125 204.917 73.7905 204.89 74.472C204.9 75.3149 204.712 76.1485 204.34 76.905C204.148 77.2694 203.852 77.5686 203.489 77.7644C203.127 77.9603 202.714 78.044 202.304 78.005C201.923 78.0354 201.54 77.9663 201.193 77.8043C200.847 77.6423 200.548 77.3931 200.327 77.081C199.894 76.3939 199.678 75.5925 199.707 74.781C199.681 73.9203 199.896 73.0695 200.327 72.324M189.574 78.956L191.352 72.241L193.177 78.956H194.745L197.354 70.276H195.845L194.008 77.076L192.242 70.276H190.542L188.802 77.12L187.067 70.276H185.417L188.002 78.956H189.57M212.722 71.668V70.12L212.371 70.085H212.231C211.642 70.0805 211.075 70.3075 210.652 70.717C210.293 71.0033 209.997 71.362 209.786 71.77V70.27H208.347V78.95H209.856V73.95C209.85 73.3492 210.072 72.7684 210.476 72.324C210.694 72.0813 210.964 71.891 211.266 71.7674C211.568 71.6437 211.893 71.5899 212.219 71.61L212.719 71.657M215.573 67.048H214.067V78.948H215.576V67.048M225.134 67.001H223.683V71.388C223.427 71.0555 223.119 70.767 222.77 70.534C222.247 70.2371 221.651 70.0913 221.05 70.113C220.496 70.0875 219.944 70.2016 219.445 70.4448C218.947 70.688 218.517 71.0525 218.196 71.505C217.523 72.4667 217.175 73.6184 217.202 74.792C217.143 75.9729 217.537 77.1318 218.302 78.033C218.617 78.4134 219.012 78.7197 219.459 78.93C219.905 79.1404 220.393 79.2496 220.887 79.25C221.457 79.2602 222.021 79.1401 222.537 78.899C223.044 78.628 223.472 78.2287 223.777 77.741V78.941H225.134V67.012M219.507 72.241C219.728 71.9686 220.008 71.751 220.327 71.6049C220.646 71.4589 220.994 71.3884 221.344 71.399C221.671 71.3954 221.994 71.4655 222.289 71.604C222.585 71.7425 222.846 71.9459 223.052 72.199C223.567 72.8965 223.812 73.7568 223.742 74.621C223.8 75.5049 223.565 76.3833 223.075 77.121C222.881 77.3961 222.623 77.6198 222.324 77.7726C222.024 77.9255 221.691 78.0028 221.355 77.998C220.976 78.0286 220.596 77.9568 220.254 77.79C219.912 77.6232 219.622 77.3676 219.413 77.05C218.979 76.3529 218.763 75.5424 218.793 74.722C218.73 73.8369 218.983 72.9571 219.507 72.241ZM177.607 70.52C177.036 70.2364 176.407 70.0883 175.77 70.087C175.197 70.0654 174.626 70.1708 174.098 70.3955C173.57 70.6202 173.099 70.9588 172.717 71.387C171.912 72.3293 171.494 73.5417 171.547 74.78C171.51 75.3811 171.594 75.9836 171.792 76.5521C171.991 77.1207 172.302 77.6438 172.705 78.091C173.069 78.4694 173.507 78.7686 173.992 78.9699C174.478 79.1712 174.999 79.2703 175.524 79.261C175.937 79.266 176.349 79.2227 176.752 79.132C177.385 79.0038 177.969 78.6999 178.437 78.255C178.736 77.981 178.989 77.661 179.186 77.307C179.381 76.9757 179.512 76.6107 179.572 76.231H178.086C177.985 76.612 177.797 76.9643 177.536 77.26C177.295 77.5108 177.004 77.7074 176.681 77.8365C176.358 77.9657 176.011 78.0245 175.664 78.009C175.312 78.0369 174.958 77.978 174.633 77.8373C174.309 77.6966 174.024 77.4784 173.804 77.202C173.377 76.5793 173.152 75.84 173.161 75.085H179.701C179.72 74.4422 179.673 73.7992 179.561 73.166C179.472 72.622 179.267 72.1034 178.961 71.645C178.617 71.1568 178.15 70.7686 177.607 70.52ZM175.677 71.351C176.082 71.319 176.489 71.4005 176.85 71.5865C177.212 71.7725 177.514 72.0556 177.724 72.404C177.968 72.8763 178.112 73.3943 178.145 73.925H173.196C173.2 73.2414 173.464 72.5849 173.933 72.088C174.155 71.849 174.425 71.6598 174.726 71.5328C175.026 71.4058 175.351 71.3438 175.677 71.351ZM164.024 67.011H162.515V78.956H164.024V74.356C163.971 73.9305 164.012 73.4986 164.143 73.0905C164.274 72.6823 164.493 72.3078 164.784 71.993C165.259 71.5908 165.862 71.371 166.484 71.373C166.782 71.3376 167.084 71.3856 167.357 71.5116C167.63 71.6377 167.862 71.8368 168.028 72.087C168.228 72.5252 168.316 73.0062 168.285 73.487V78.95H169.841V73.388C169.874 72.7 169.742 72.0141 169.455 71.388C169.191 70.9344 168.8 70.5678 168.33 70.333C167.86 70.0982 167.333 70.0054 166.811 70.066C166.17 70.0436 165.537 70.2061 164.986 70.534C164.622 70.7922 164.299 71.1036 164.027 71.458V67.012M158.037 67.854V70.276H156.818V71.469H158.035V77.213C158.014 77.6951 158.149 78.1711 158.421 78.57C158.599 78.7659 158.822 78.916 159.07 79.0076C159.319 79.0991 159.585 79.1294 159.848 79.096L160.468 79.061L161.006 78.956V77.798L160.468 77.833C160.268 77.8461 160.068 77.814 159.883 77.739C159.775 77.6812 159.687 77.5923 159.631 77.4838C159.575 77.3753 159.552 77.2524 159.567 77.131V71.469H161.006V70.276H159.567V67.854H158.035M148.98 70.52C148.409 70.2364 147.78 70.0883 147.143 70.087C146.57 70.0654 145.999 70.1708 145.471 70.3955C144.943 70.6202 144.472 70.9588 144.09 71.387C143.285 72.3293 142.867 73.5417 142.92 74.78C142.883 75.3811 142.967 75.9836 143.165 76.5521C143.364 77.1207 143.675 77.6438 144.078 78.091C144.442 78.4694 144.88 78.7686 145.365 78.9699C145.851 79.1712 146.372 79.2703 146.897 79.261C147.31 79.266 147.722 79.2227 148.125 79.132C148.758 79.0038 149.342 78.6999 149.81 78.255C150.109 77.981 150.362 77.661 150.559 77.307C150.754 76.9757 150.885 76.6107 150.945 76.231H149.46C149.359 76.612 149.171 76.9643 148.91 77.26C148.669 77.5108 148.378 77.7074 148.055 77.8365C147.732 77.9657 147.385 78.0245 147.038 78.009C146.686 78.0369 146.332 77.978 146.007 77.8373C145.683 77.6966 145.398 77.4784 145.178 77.202C144.751 76.5793 144.526 75.84 144.535 75.085H151.075C151.094 74.4422 151.047 73.7992 150.935 73.166C150.846 72.622 150.641 72.1034 150.335 71.645C149.991 71.1567 149.523 70.7684 148.98 70.52ZM147.05 71.351C147.455 71.319 147.862 71.4005 148.223 71.5865C148.585 71.7725 148.887 72.0556 149.097 72.404C149.341 72.8763 149.485 73.3943 149.518 73.925H144.567C144.571 73.2414 144.835 72.5849 145.304 72.088C145.526 71.849 145.796 71.6598 146.097 71.5328C146.397 71.4058 146.721 71.3438 147.047 71.351M139.186 70.275H137.749V78.955H139.258V73.955C139.252 73.3542 139.474 72.7734 139.878 72.329C140.096 72.0863 140.366 71.896 140.668 71.7724C140.97 71.6487 141.295 71.5949 141.621 71.615L142.121 71.662V70.12L141.77 70.085H141.63C141.041 70.0805 140.474 70.3075 140.051 70.717C139.692 71.0032 139.396 71.362 139.185 71.77V70.27M133.767 72.72C133.778 72.912 133.746 73.1039 133.673 73.282C133.604 73.4079 133.503 73.5133 133.38 73.5873C133.257 73.6613 133.117 73.7012 132.973 73.703L130.563 73.995C129.814 74.0583 129.102 74.3434 128.516 74.814C128.256 75.0463 128.052 75.3341 127.918 75.6561C127.785 75.978 127.725 76.3259 127.744 76.674C127.736 77.0214 127.804 77.3664 127.942 77.6854C128.08 78.0043 128.285 78.2897 128.544 78.522C129.103 79.019 129.833 79.279 130.58 79.247C131.241 79.2547 131.894 79.1063 132.487 78.814C132.998 78.5842 133.449 78.2408 133.807 77.81C133.84 78.0909 133.927 78.3627 134.064 78.61C134.19 78.7903 134.361 78.9347 134.56 79.029C134.759 79.1233 134.979 79.1643 135.199 79.148L135.699 79.125L136.237 78.996V77.915L135.968 77.962L135.746 77.974C135.535 77.974 135.399 77.9273 135.337 77.834C135.27 77.725 135.238 77.5986 135.243 77.471V72.463C135.264 72.1 135.184 71.7383 135.012 71.4182C134.84 71.098 134.582 70.8321 134.267 70.65C133.476 70.2293 132.588 70.0274 131.693 70.065C130.85 70.0482 130.019 70.267 129.293 70.697C128.935 70.9436 128.647 71.2794 128.459 71.6712C128.27 72.063 128.187 72.4972 128.217 72.931H129.617C129.65 72.5664 129.775 72.2161 129.98 71.913C130.198 71.6921 130.462 71.5228 130.753 71.4176C131.045 71.3124 131.357 71.2739 131.665 71.305C132.209 71.2754 132.75 71.3925 133.233 71.644C133.412 71.7577 133.556 71.918 133.65 72.1076C133.744 72.2973 133.784 72.509 133.767 72.72ZM133.732 74.545V75.72C133.748 76.133 133.635 76.5408 133.409 76.8866C133.182 77.2325 132.854 77.4993 132.469 77.65C131.989 77.8875 131.461 78.0117 130.925 78.013C130.517 78.0221 130.117 77.8944 129.79 77.65C129.638 77.5341 129.516 77.3833 129.434 77.2103C129.353 77.0372 129.314 76.8471 129.322 76.656C129.309 76.4072 129.368 76.16 129.492 75.9441C129.616 75.7282 129.8 75.5528 130.022 75.439C130.409 75.2587 130.825 75.1476 131.25 75.111L133.016 74.83C133.267 74.7747 133.508 74.6798 133.73 74.549M120.92 70.279H119.418V74.549C119.444 75.2279 119.345 75.9058 119.126 76.549C118.971 76.9716 118.683 77.3324 118.306 77.5772C117.928 77.8219 117.481 77.9373 117.032 77.906C116.737 77.9374 116.44 77.8793 116.178 77.739C115.917 77.5988 115.704 77.3831 115.567 77.12C115.415 76.7824 115.342 76.4141 115.356 76.044V70.276H113.814V76.176C113.787 76.7895 113.911 77.4003 114.177 77.954C114.446 78.3822 114.83 78.7259 115.285 78.9453C115.741 79.1647 116.249 79.2509 116.751 79.194C117.496 79.2161 118.225 78.9757 118.81 78.515C119.1 78.2873 119.343 78.005 119.524 77.684L119.512 78.959H120.927V70.279M107.894 70.03C107.319 70.0044 106.745 70.1079 106.214 70.3328C105.684 70.5578 105.211 70.8985 104.829 71.33C104.025 72.3032 103.616 73.5432 103.683 74.804C103.622 75.9854 104.009 77.1464 104.767 78.055C105.137 78.4574 105.59 78.7735 106.096 78.9809C106.601 79.1883 107.146 79.2819 107.692 79.255C108.304 79.3047 108.919 79.2063 109.485 78.968C110.051 78.7297 110.552 78.3585 110.944 77.886C111.673 76.887 112.045 75.671 111.997 74.435C112.04 73.832 111.957 73.2267 111.751 72.6583C111.545 72.0898 111.223 71.5708 110.804 71.135C110.016 70.3971 108.97 69.9981 107.891 70.024M105.859 72.32C106.066 71.9845 106.36 71.7123 106.711 71.5328C107.062 71.3533 107.455 71.2734 107.848 71.302C108.288 71.2664 108.728 71.3604 109.115 71.5724C109.502 71.7844 109.818 72.1052 110.024 72.495C110.314 73.1125 110.451 73.7905 110.424 74.472C110.434 75.3149 110.246 76.1485 109.874 76.905C109.682 77.2694 109.386 77.5686 109.023 77.7644C108.661 77.9603 108.248 78.044 107.838 78.005C107.457 78.0354 107.074 77.9663 106.727 77.8043C106.381 77.6423 106.082 77.3931 105.861 77.081C105.428 76.3939 105.212 75.5925 105.241 74.781C105.215 73.9203 105.43 73.0695 105.861 72.324M100.211 77.724L103.011 70.272H101.331L98.91 77.342L96.5 70.276H94.792L98.114 79.214L97.435 80.758L97.096 81.097C96.9092 81.1955 96.6987 81.2402 96.488 81.226L96.172 81.203L95.599 81.074V82.396L96.02 82.49L96.511 82.513C96.8546 82.5491 97.2018 82.5021 97.5234 82.3759C97.8451 82.2498 98.1316 82.0481 98.359 81.788C99.0969 80.4934 99.7158 79.1345 100.208 77.728L100.211 77.724Z" fill="white"/>
<defs>
<linearGradient id="paint0_linear_177_2" x1="17.8581" y1="60.7459" x2="68.169" y2="24.1227" gradientUnits="userSpaceOnUse">
<stop stop-color="#0C6D7A"/>
<stop offset="0.008" stop-color="#0C6F7C"/>
<stop offset="0.239" stop-color="#14BCD4"/>
<stop offset="0.482" stop-color="#06DEFC"/>
<stop offset="0.545" stop-color="#04E0FF"/>
<stop offset="0.831" stop-color="#0FBBD4"/>
<stop offset="1" stop-color="#0D7684"/>
</linearGradient>
<linearGradient id="paint1_linear_177_2" x1="13.2132" y1="14.6792" x2="2.61846" y2="92.8687" gradientUnits="userSpaceOnUse">
<stop stop-color="#0C6D7A"/>
<stop offset="0.008" stop-color="#0C6F7C"/>
<stop offset="0.239" stop-color="#14BCD4"/>
<stop offset="0.51" stop-color="#04E0FF"/>
<stop offset="0.831" stop-color="#0FBBD4"/>
<stop offset="1" stop-color="#0D7684"/>
</linearGradient>
<linearGradient id="paint2_linear_177_2" x1="63.674" y1="-7.57303" x2="101.577" y2="61.4238" gradientUnits="userSpaceOnUse">
<stop stop-color="#0C6D7A"/>
<stop offset="0.008" stop-color="#0C6F7C"/>
<stop offset="0.239" stop-color="#14BCD4"/>
<stop offset="0.51" stop-color="#04E0FF"/>
<stop offset="0.831" stop-color="#0FBBD4"/>
<stop offset="1" stop-color="#0D7684"/>
</linearGradient>
<linearGradient id="paint3_linear_177_2" x1="73.4476" y1="24.1617" x2="73.4476" y2="68.5527" gradientUnits="userSpaceOnUse">
<stop stop-opacity="0"/>
<stop offset="0.325" stop-color="#080000" stop-opacity="0.267"/>
<stop offset="0.631" stop-color="#090101" stop-opacity="0.271"/>
<stop offset="1" stop-opacity="0"/>
</linearGradient>
</defs>
</svg>
