<svg width="670" height="210" viewBox="0 0 670 210" fill="none" xmlns="http://www.w3.org/2000/svg">
<rect width="9.45711" height="209.511" rx="4.72856" fill="#EEEEEE"/>
<rect y="96.9111" width="9.45711" height="112.347" rx="4.72856" fill="#2258BF"/>
<rect x="32.7379" width="9.45711" height="209.511" rx="4.72856" fill="#EEEEEE"/>
<rect x="32.7379" y="34.9189" width="9.45711" height="174.593" rx="4.72856" fill="#2258BF"/>
<rect x="65.472" width="9.45711" height="209.511" rx="4.72856" fill="#EEEEEE"/>
<rect x="65.472" y="97.4814" width="9.45711" height="112.347" rx="4.72856" fill="#2258BF"/>
<rect x="98.2099" width="9.45711" height="209.511" rx="4.72856" fill="#EEEEEE"/>
<rect x="98.2099" y="127.308" width="9.45711" height="81.9827" rx="4.72856" fill="#2258BF"/>
<rect x="130.944" width="9.45711" height="209.511" rx="4.72856" fill="#EEEEEE"/>
<rect x="130.944" y="104.756" width="9.45711" height="104.756" rx="4.72856" fill="#2258BF"/>
<rect x="163.682" width="9.45711" height="209.511" rx="4.72856" fill="#EEEEEE"/>
<rect x="163.682" y="112.03" width="9.45711" height="97.1647" rx="4.72856" fill="#2258BF"/>
<rect x="196.416" width="9.45711" height="209.511" rx="4.72856" fill="#EEEEEE"/>
<rect x="196.416" y="138.22" width="9.45711" height="71.3553" rx="4.72856" fill="#2258BF"/>
<rect x="229.154" width="9.45711" height="209.511" rx="4.72856" fill="#EEEEEE"/>
<rect x="229.154" y="121.487" width="9.45711" height="88.0555" rx="4.72856" fill="#2258BF"/>
<rect x="261.888" width="9.45711" height="209.511" rx="4.72856" fill="#EEEEEE"/>
<rect x="261.888" y="145.494" width="9.45711" height="63.7643" rx="4.72856" fill="#2258BF"/>
<rect x="294.626" width="9.45711" height="209.511" rx="4.72856" fill="#EEEEEE"/>
<rect x="294.626" y="97.4814" width="9.45711" height="112.347" rx="4.72856" fill="#2258BF"/>
<rect x="327.36" width="9.45711" height="209.511" rx="4.72856" fill="#EEEEEE"/>
<rect x="327.36" y="97.4814" width="9.45711" height="112.347" rx="4.72856" fill="#2258BF"/>
<rect x="360.098" width="9.45711" height="209.511" rx="4.72856" fill="#EEEEEE"/>
<rect x="360.098" y="115.668" width="9.45711" height="94.1283" rx="4.72856" fill="#2258BF"/>
<rect x="392.836" width="9.45711" height="209.511" rx="4.72856" fill="#EEEEEE"/>
<rect x="392.836" y="159.316" width="9.45711" height="50.1954" rx="4.72856" fill="#2258BF"/>
<rect x="426.298" width="9.45711" height="209.511" rx="4.72856" fill="#EEEEEE"/>
<rect x="426.298" y="82.2041" width="9.45711" height="127.307" rx="4.72856" fill="#2258BF"/>
<rect x="459.761" width="9.45711" height="209.511" rx="4.72856" fill="#EEEEEE"/>
<rect x="459.761" y="127.308" width="9.45711" height="82.2041" rx="4.72856" fill="#2258BF"/>
<rect x="493.223" width="9.45711" height="209.511" rx="4.72856" fill="#EEEEEE"/>
<rect x="493.223" y="177.503" width="9.45711" height="32.0087" rx="4.72856" fill="#2258BF"/>
<rect x="526.689" width="9.45711" height="209.511" rx="4.72856" fill="#EEEEEE"/>
<rect x="526.689" y="133.127" width="9.45711" height="76.3844" rx="4.72856" fill="#2258BF"/>
<rect x="560.152" width="9.45711" height="209.511" rx="4.72856" fill="#EEEEEE"/>
<rect x="560.152" y="96.7539" width="9.45711" height="112.758" rx="4.72856" fill="#2258BF"/>
<rect x="593.614" width="9.45711" height="209.511" rx="4.72856" fill="#EEEEEE"/>
<rect x="593.614" y="188.415" width="9.45711" height="21.0966" rx="4.72856" fill="#2258BF"/>
<rect x="627.08" width="9.45711" height="209.511" rx="4.72856" fill="#EEEEEE"/>
<rect x="627.08" y="112.03" width="9.45711" height="97.481" rx="4.72856" fill="#2258BF"/>
<rect x="660.543" width="9.45711" height="209.511" rx="4.72856" fill="#EEEEEE"/>
<rect x="660.543" y="76.3848" width="9.45711" height="133.127" rx="4.72856" fill="#2258BF"/>
</svg>
