<svg width="942" height="168" viewBox="0 0 942 168" fill="none" xmlns="http://www.w3.org/2000/svg">
<path d="M96.4576 127.746L156.07 46.5171C167.216 31.3306 189.772 21.7604 214.421 21.7604H224.873C239.375 21.7604 253.466 25.0889 264.931 31.2226L309.041 54.8209L375.142 89.5344L412.228 107.813C437.37 120.206 471.634 118.763 494.411 104.353L588.608 44.761C610.132 31.1441 642.111 29.0235 666.992 39.5631L697.094 52.314C724.442 63.8983 759.915 60.0756 780.855 43.2878L809.036 20.6945C830.414 3.55523 866.847 -0.0226936 894.293 12.3216L896.302 13.2251C921.07 24.3645 937 48.9961 937 76.1535V98.2666C937 136.374 906.108 167.267 868 167.267H19.9421C11.6898 167.267 5 160.577 5 152.324V140.947C5 132.784 14.5265 128.329 20.7915 133.563V133.563C41.6833 151.018 81.6328 147.947 96.4576 127.746Z" fill="url(#paint0_linear_23_79)"/>
<path d="M5 120.37L20.3147 135.587C40.2546 155.399 83.7382 152.949 98.7654 131.166L156.475 47.5104C167.327 31.7796 190.306 21.7604 215.533 21.7604H224.873C239.375 21.7604 253.466 25.0889 264.931 31.2226L309.041 54.8209L375.142 89.5344L412.228 107.813C437.37 120.206 471.634 118.763 494.411 104.353L588.608 44.761C610.132 31.1441 642.111 29.0235 666.992 39.5631L697.094 52.314C724.442 63.8983 759.915 60.0756 780.855 43.2878L809.036 20.6945C830.414 3.55524 866.847 -0.0226942 894.293 12.3216L937 31.5291" stroke="#627EEA" stroke-width="10" stroke-linecap="round"/>
<defs>
<linearGradient id="paint0_linear_23_79" x1="471" y1="-9.23379" x2="471" y2="170.541" gradientUnits="userSpaceOnUse">
<stop stop-color="#627EEA" stop-opacity="0.36"/>
<stop offset="1" stop-color="#627EEA" stop-opacity="0.11"/>
</linearGradient>
</defs>
</svg>
