<?xml version="1.0" encoding="UTF-8"?>
<svg width="512pt" height="512pt" version="1.1" viewBox="0 0 512 512" xmlns="http://www.w3.org/2000/svg">
 <g fill="#fff">
  <path d="m104 504h304c2.1211 0 4.1562-0.84375 5.6562-2.3438s2.3438-3.5352 2.3438-5.6562v-195.5l20.297 10.594c1.1445 0.58984 2.4141 0.89844 3.7031 0.90234 2.1211 0 4.1562-0.84375 5.6562-2.3438s2.3438-3.5352 2.3438-5.6562v-32c0-2.9805-1.6523-5.7148-4.2969-7.0977l-134.9-70.352-9.3906 13.152 132.59 69.145v13.953l-139.82-72.961-9.3906 13.145 117.21 61.168v195.85h-288v-195.84l97.977-51.105 8.4141-22.398-138.39 72.145v-13.953l144.89-75.602 8.4141-22.398-165.01 86.055c-2.6445 1.3828-4.2969 4.1172-4.2969 7.0977v32c0 2.1211 0.84375 4.1562 2.3438 5.6562s3.5352 2.3438 5.6562 2.3438c1.2891-0.003906 2.5586-0.3125 3.7031-0.90234l20.297-10.594v195.5c0 2.1211 0.84375 4.1562 2.3438 5.6562s3.5352 2.3438 5.6562 2.3438z"/>
  <path d="m302.73 11.664c-1.4727-2.2852-4.0078-3.6641-6.7266-3.6641h-72c-3.4922 0-6.582 2.2656-7.6328 5.6016l-40 128c-0.76172 2.4297-0.32422 5.0781 1.1836 7.1328 1.5078 2.0508 3.9023 3.2656 6.4492 3.2656h76.457l-43.953 117.19c-1.4062 3.7617 0.19141 7.9805 3.7344 9.8633 3.5391 1.8867 7.9297 0.85937 10.266-2.3984l120-168c1.7461-2.4375 1.9805-5.6484 0.60938-8.3125-1.3711-2.668-4.1172-4.3438-7.1133-4.3438h-75.574l34.855-76.688c1.1289-2.4766 0.92188-5.3594-0.55469-7.6484zm-54.008 89.023c-1.125 2.4766-0.91406 5.3555 0.55469 7.6406 1.4727 2.2891 4.0078 3.6719 6.7266 3.6719h72.457l-75.609 105.84 26.648-71.031c0.92188-2.457 0.57812-5.2109-0.91797-7.3672s-3.9531-3.4414-6.5781-3.4414h-77.121l35-112h53.695z"/>
  <path d="m464 80c-7.2734-0.007812-14.328 2.4727-20 7.0234-8.0508-6.4453-18.719-8.6172-28.648-5.8281-9.9336 2.7891-17.91 10.191-21.43 19.891-3.5195 9.6953-2.1523 20.492 3.6797 29.004l-19.863 24.93 12.512 9.9688 24-30.113-0.003906-0.003906c2.6484-3.3164 2.2461-8.1211-0.91797-10.949-3.4531-3.0625-5.418-7.4648-5.3867-12.078 0.027344-4.6133 2.0469-8.9883 5.5391-12.004 3.4922-3.0156 8.1133-4.3789 12.684-3.7383 4.5664 0.64063 8.6367 3.2227 11.164 7.082 1.5664 2.1094 4.0352 3.3555 6.6641 3.3555 2.6289 0 5.0977-1.2461 6.6641-3.3555 2.8047-4.3242 7.5156-7.0312 12.664-7.2773 5.1484-0.24609 10.098 2.0039 13.297 6.0391 3.2031 4.0391 4.2656 9.3711 2.8516 14.328-1.4102 4.9531-5.125 8.9258-9.9727 10.672-2.6133 0.96094-4.5352 3.2109-5.082 5.9375-0.54297 2.7305 0.36719 5.5469 2.4102 7.4375 3.293 2.9883 5.1719 7.2305 5.1758 11.68 0.011719 5.082-2.3945 9.8672-6.4766 12.891-4.082 3.0234-9.3594 3.9297-14.219 2.4414-4.8555-1.4922-8.7188-5.2031-10.402-9.9961-0.79297-2.2422-2.543-4.0156-4.7734-4.8398-2.2344-0.82422-4.7188-0.60938-6.7773 0.58203l-41.367 24 8 13.84 34.266-19.879h-0.003906c5.3711 7.2812 13.574 11.949 22.578 12.848 9 0.89844 17.965-2.0586 24.668-8.1328 6.7031-6.0781 10.52-14.707 10.508-23.754 0.007812-5.3125-1.3242-10.539-3.8711-15.199 6.9141-5.5664 11.203-13.762 11.828-22.617 0.625-8.8594-2.4609-17.574-8.5273-24.059-6.0625-6.4883-14.551-10.156-23.43-10.125z"/>
  <path d="m24 152c0 9.0352 3.8203 17.652 10.516 23.719 6.6992 6.0664 15.648 9.0156 24.641 8.125s17.188-5.5391 22.562-12.805l34.281 19.883 8-13.84-41.367-24v-0.003906c-2.0586-1.1914-4.543-1.4062-6.7773-0.58203-2.2305 0.82422-3.9805 2.5977-4.7773 4.8398-1.6914 4.7773-5.5508 8.4727-10.402 9.9531-4.8477 1.4844-10.113 0.57813-14.188-2.4336-4.0781-3.0156-6.4844-7.7852-6.4883-12.855 0-4.4492 1.8789-8.6875 5.168-11.68 2.043-1.8906 2.9531-4.707 2.4102-7.4375-0.54688-2.7266-2.4727-4.9766-5.082-5.9375-4.8555-1.7422-8.5703-5.7148-9.9844-10.672-1.4141-4.9609-0.35156-10.297 2.8516-14.336 3.207-4.0391 8.1602-6.2852 13.309-6.0352 5.1523 0.25 9.8672 2.9688 12.664 7.2969 1.5664 2.1094 4.0352 3.3555 6.6641 3.3555s5.0977-1.2461 6.6641-3.3555c2.5273-3.8594 6.5977-6.4414 11.164-7.082 4.5703-0.64063 9.1914 0.72266 12.684 3.7383 3.4922 3.0156 5.5117 7.3906 5.5391 12.004 0.03125 4.6133-1.9336 9.0156-5.3867 12.078-3.1641 2.8281-3.5664 7.6328-0.92187 10.949l24 30.113 12.512-9.9688-19.855-24.941c5.832-8.5117 7.1992-19.309 3.6797-29.004-3.5195-9.6992-11.496-17.102-21.43-19.891-9.9297-2.7891-20.598-0.61719-28.648 5.8281-6.6016-5.3203-15.047-7.8008-23.477-6.8984-8.4297 0.90625-16.152 5.1211-21.477 11.723-5.3203 6.6016-7.8008 15.047-6.8984 23.477 0.90625 8.4297 5.1211 16.156 11.723 21.477-2.5469 4.6602-3.8789 9.8867-3.8711 15.199z"/>
  <path d="m248.57 362.45-10.309-26.051c-0.50391-1.2422-1.3086-2.3438-2.3477-3.1992l-18.984-15.664h0.003907c-10.066-8.2305-22.945-12.199-35.898-11.066-12.949 1.1328-24.945 7.2852-33.422 17.141-8.4414 9.8242-12.562 22.641-11.434 35.543 1.1289 12.906 7.4102 24.809 17.426 33.023l82.137 67.785h-0.003906c1.4375 1.1797 3.2383 1.8242 5.0977 1.8242 1.293 0.003906 2.5703-0.3125 3.7109-0.92188 2.8555-1.4961 4.5352-4.5625 4.2578-7.7734l-1.2812-14.641 5.6016-23.344c0.57031-2.4062 0.003906-4.9375-1.5469-6.8672l-14.695-18.352 11.297-20.625v0.003906c1.1406-2.1016 1.2852-4.6016 0.39062-6.8164zm-16.879 73.383-67.895-56c-6.7109-5.4844-10.918-13.445-11.672-22.078-0.75391-8.6289 2.0156-17.199 7.6719-23.762 5.7422-6.6797 13.867-10.848 22.641-11.617 8.7773-0.76562 17.504 1.9258 24.32 7.5039l17.398 14.352 8.168 20.648-12.047 22.008c-1.543 2.8398-1.2266 6.3281 0.79687 8.8398l15.555 19.473z"/>
  <path d="m261.77 393.14 12 21.863-8.5117 19.625c-0.33984 0.78906-0.55078 1.6289-0.625 2.4883l-1.4336 15.934c-0.27734 3.2148 1.4023 6.2812 4.2578 7.7773 1.1406 0.60938 2.418 0.92578 3.7109 0.92188 1.8594 0 3.6602-0.64453 5.0977-1.8242l82.133-67.785c10.016-8.2148 16.297-20.121 17.426-33.023 1.1289-12.902-2.9922-25.719-11.434-35.547-8.4766-9.8516-20.473-16.004-33.422-17.137-12.953-1.1367-25.832 2.8359-35.898 11.066l-18.984 15.664h0.003906c-2.2891 1.8867-3.3438 4.8828-2.7461 7.7852l4.8711 23.77-15.68 19.586v-0.003906c-2.0156 2.5195-2.3203 6.0078-0.76562 8.8398zm28.215-50.695 15.273-12.602c6.8164-5.5742 15.543-8.2656 24.316-7.4961 8.7695 0.76563 16.898 4.9336 22.641 11.609 5.6562 6.5625 8.4258 15.133 7.6719 23.762-0.75391 8.6328-4.9609 16.594-11.672 22.078l-65.016 53.695 6.8086-15.703c0.98047-2.2656 0.85938-4.8594-0.32812-7.0234l-11.281-20.625 14.695-18.352h0.003906c1.4883-1.8594 2.0781-4.2852 1.5977-6.6172z"/>
 </g>
</svg>
