<?xml version="1.0" encoding="UTF-8"?>
<svg width="512pt" height="512pt" version="1.1" viewBox="0 0 512 512" xmlns="http://www.w3.org/2000/svg">
 <g fill="#fff">
  <path d="m290.2 303.21c-1.6328 0-3.2734-0.49609-4.6953-1.5273-3.5742-2.5938-4.3672-7.5938-1.7695-11.168 2.0547-2.832 2.7617-5.7109 2.0898-8.5508-0.63281-2.6641-2.4648-5.2578-5.0312-7.1289-0.96875-0.71094-9.5664-6.5742-15.832 2.0469-2.6016 3.5742-7.5938 4.3906-11.176 1.7695-3.5742-2.5938-4.3672-7.5938-1.7695-11.168 5.8477-8.0547 14.602-12.152 24.031-11.113 10.246 1.0703 19.586 7.8555 23.777 17.273 3.8477 8.6562 2.7031 18.23-3.1445 26.289-1.5664 2.1328-4.0078 3.2773-6.4805 3.2773z"/>
  <path d="m317.32 332.59c-1.6328 0-3.2734-0.49609-4.6875-1.5195-3.5742-2.5938-4.3672-7.6016-1.7773-11.168 6.2656-8.625-1.9922-15-2.9531-15.695-0.96094-0.6875-9.5586-6.543-15.824 2.0547-2.6016 3.5742-7.5859 4.375-11.176 1.7773-3.5742-2.6016-4.3672-7.6016-1.7695-11.176 10.406-14.32 27.078-13.656 38.168-5.5938 11.105 8.0547 16.895 23.711 6.5039 38.031-1.5742 2.1367-4.0117 3.2891-6.4844 3.2891z"/>
  <path d="m344.43 361.97c-1.6328 0-3.2734-0.49609-4.6953-1.5273-3.5742-2.5938-4.3672-7.5938-1.7695-11.168 2.5039-3.4492 3-6.9375 1.4727-10.367-1.8477-4.1602-6.3047-7.3906-10.832-7.8633-3.8086-0.41406-6.9102 1.168-9.4141 4.6094-2.5938 3.5742-7.6016 4.3672-11.168 1.7773-3.5742-2.6016-4.3672-7.6016-1.7773-11.176 5.8398-8.0547 14.566-12.145 24.031-11.121 10.258 1.0781 19.586 7.8477 23.777 17.266 3.8555 8.6562 2.7109 18.23-3.1445 26.289-1.5703 2.1367-4.0117 3.2812-6.4805 3.2812z"/>
  <path d="m303.34 418.54c-1.6328 0-3.2734-0.49609-4.6875-1.5195-3.5742-2.6016-4.3672-7.6016-1.7773-11.176l41.078-56.574c2.5938-3.5742 7.6016-4.375 11.168-1.7773 3.5742 2.6016 4.3672 7.6016 1.7773 11.176l-41.078 56.574c-1.5586 2.1523-4 3.2969-6.4805 3.2969z"/>
  <path d="m275.54 390.11c-1.6328 0-3.2734-0.49609-4.6875-1.5195-3.5742-2.6016-4.3672-7.6016-1.7773-11.176l41.777-57.52c2.6016-3.5742 7.6016-4.375 11.168-1.7773 3.5742 2.6016 4.3672 7.6016 1.7773 11.176l-41.777 57.52c-1.5664 2.1602-4.0078 3.2969-6.4805 3.2969z"/>
  <path d="m247.73 361.67c-1.6328 0-3.2734-0.49609-4.6875-1.5195-3.5742-2.6016-4.3672-7.6016-1.7773-11.176l42.465-58.473c2.5938-3.5742 7.5938-4.3672 11.168-1.7773 3.5742 2.6016 4.3672 7.6016 1.7773 11.176l-42.465 58.473c-1.5586 2.1602-4 3.2969-6.4805 3.2969z"/>
  <path d="m219.94 333.25c-1.6328 0-3.2734-0.49609-4.6875-1.5195-3.5742-2.6016-4.3672-7.6016-1.7773-11.176l106.93-147.23c2.6016-3.5742 7.6016-4.3672 11.168-1.7773 3.5742 2.6016 4.3672 7.6016 1.7773 11.168l-106.93 147.24c-1.5664 2.1523-4.0078 3.293-6.4766 3.293z"/>
  <path d="m273.7 471.59c-21.215 0-41.496-8.2891-56.414-23.551-3.0898-3.1602-3.0312-8.2227 0.12891-11.312 3.168-3.0898 8.2227-3.0234 11.312 0.12891 15.008 15.352 36.887 21.824 58.559 17.336 21.641-4.5039 39.129-19.168 46.777-39.238 1.5859-4.1289 6.1836-6.1992 10.328-4.625 4.1289 1.5742 6.1992 6.1914 4.625 10.328-9.6094 25.191-31.473 43.586-58.48 49.199-5.6289 1.1562-11.266 1.7344-16.836 1.7344z"/>
  <path d="m193.86 196.14c-3.5117 0-6.7344-2.3359-7.7109-5.8867-2.2656-8.2305 0.054688-16.809 6.1914-22.938 6.1523-6.1367 14.742-8.4258 22.969-6.168 4.2578 1.1758 6.7539 5.5938 5.5742 9.8477-1.1758 4.2578-5.5938 6.7422-9.8477 5.5742-2.6016-0.71875-5.3672 0.054687-7.3828 2.0703-0.96875 0.96094-3.1055 3.6094-2.0703 7.3672 1.168 4.2578-1.3359 8.6641-5.6016 9.832-0.70312 0.20312-1.418 0.30078-2.1211 0.30078z"/>
  <path d="m223 450.43c-2.0781 0-4.1523-0.80859-5.7188-2.4062l-41.367-42.297c-3.0898-3.1602-3.0312-8.2227 0.12891-11.312 3.1602-3.0977 8.2227-3.0234 11.312 0.12891l41.367 42.297c3.0898 3.1602 3.0312 8.2227-0.12891 11.312-1.5547 1.5156-3.5703 2.2773-5.5938 2.2773z"/>
  <path d="m181.63 408.14c-2.0781 0-4.1523-0.80859-5.7188-2.4062-24.191-24.734-26.992-63.016-6.6641-91.016 2.5938-3.5664 7.6016-4.375 11.168-1.7773 3.5664 2.6016 4.3672 7.6016 1.7773 11.176-15.727 21.664-13.559 51.281 5.1602 70.426 3.0898 3.1602 3.0312 8.2227-0.12891 11.312-1.5625 1.5234-3.5703 2.2852-5.5938 2.2852z"/>
  <path d="m175.71 327.41c-1.6719 0-3.3594-0.51953-4.8086-1.6094-3.5273-2.6562-4.2305-7.6719-1.5742-11.199l122.27-162.34c2.6641-3.5352 7.6719-4.2305 11.199-1.5742 3.5273 2.6641 4.2305 7.6719 1.5742 11.199l-122.26 162.34c-1.5781 2.0898-3.9688 3.1836-6.4023 3.1836z"/>
  <path d="m326.86 186.01c-1.5742 0-3.1758-0.46484-4.5664-1.4414-3.625-2.5273-4.5117-7.5117-1.9922-11.137 4.9531-7.0977-1.3125-12.176-2.6172-13.129-1.3125-0.94531-8.0977-5.3203-13.305 1.5859-2.6641 3.5273-7.6719 4.2383-11.199 1.5742-3.5273-2.6641-4.2305-7.6719-1.5742-11.199 9.8086-13.008 25.266-12.32 35.48-4.9102 10.199 7.3984 15.664 21.871 6.3438 35.223-1.5547 2.2422-4.043 3.4336-6.5703 3.4336z"/>
  <path d="m249.83 229.01c-3.6406 0-6.9297-2.4961-7.7852-6.1836-6.1992-26.672-16.641-42.23-31.031-46.246-4.2578-1.1836-6.7422-5.6016-5.5508-9.8555 1.1836-4.2578 5.5859-6.7344 9.8555-5.5508 20.449 5.7109 34.688 25.238 42.312 58.039 1 4.3047-1.6797 8.6094-5.9844 9.6094-0.60156 0.125-1.207 0.1875-1.8164 0.1875z"/>
  <path d="m206.55 286.49c-4.3594 0-7.9297-3.5039-8-7.8711l-0.023437-1.4961c-0.44141-29.336-4.6094-58.566-12.383-86.863-1.168-4.2656 1.3359-8.6641 5.5938-9.832 4.2891-1.1836 8.6641 1.3359 9.832 5.5938 8.1367 29.602 12.496 60.168 12.953 90.863l0.023437 1.4883c0.070313 4.4141-3.457 8.0547-7.8711 8.1289-0.035156-0.011719-0.082031-0.011719-0.125-0.011719z"/>
  <path d="m341.54 425.79c-0.95312 0-1.9102-0.16797-2.8477-0.51953-4.1289-1.5664-6.1992-6.1914-4.6328-10.32 0.83203-2.1992 1.3359-4.5039 1.4883-6.8477 0.28125-4.4062 3.9766-7.7422 8.4961-7.4805 4.4062 0.28125 7.7539 4.0781 7.4805 8.4961-0.24609 3.9453-1.0977 7.832-2.5039 11.52-1.2148 3.1914-4.2539 5.1523-7.4805 5.1523z"/>
  <path d="m257.04 156.36c-2.2734 0-4.4414-0.96875-5.9609-2.6641-5.457-6.0977-13.016-11.617-21.023-17.457-18.129-13.223-38.672-28.215-38.688-54.754-1.0977-15.785 8.168-31.281 23.055-38.031 13.176-5.9766 30-2.9023 42.617 7.0703 12.609-9.9766 29.426-13.047 42.617-7.0703 14.887 6.7539 24.152 22.246 23.031 38.574 0 25.992-20.535 40.984-38.664 54.207-8.0078 5.8398-15.566 11.359-21.023 17.457-1.5117 1.6992-3.6797 2.668-5.9609 2.668zm-27.855-100.04c-2.8945 0-5.6406 0.57422-8.1523 1.7109-8.7031 3.9453-14.336 13.367-13.68 22.91 0.03125 18.953 15.625 30.336 32.137 42.375 5.9922 4.3672 12.129 8.8477 17.551 13.762 5.4258-4.9102 11.559-9.3828 17.551-13.762 16.512-12.047 32.105-23.426 32.121-41.832 0.67187-10.09-4.9609-19.504-13.664-23.457-9.1367-4.1211-21.93-0.15234-30.113 8.793-3.0312 3.3125-8.7773 3.3125-11.809 0-5.918-6.4766-14.324-10.5-21.941-10.5z"/>
 </g>
</svg>
