<?xml version="1.0" encoding="UTF-8"?>
<svg width="512pt" height="512pt" version="1.1" viewBox="0 0 512 512" xmlns="http://www.w3.org/2000/svg">
 <g fill="#fff">
  <path d="m373.26 105.04c-1.8125 0-3.5703-0.61328-4.9844-1.7422l-30.152-24c-4.2188-3.2344-7.3438-7.6875-8.9453-12.758-1.6016-5.0703-1.6055-10.508-0.007812-15.578 1.6289-5.1953 4.7969-9.7773 9.082-13.137 4.2812-3.3633 9.4844-5.3477 14.918-5.6953 0.96094-0.0625 1.8398-0.10547 2.7266-0.10547 7.875-0.019532 15.512 2.6992 21.602 7.6875 2.75 2.2695 3.6641 6.082 2.2461 9.3516l-2.9023 6.7188 6.3594 12.645c0.875 1.75 1.0781 3.7578 0.57031 5.6445l-3.8945 14.527 1.2969 6.9844-0.003906 0.003907c0.43359 2.3359-0.19531 4.7461-1.7188 6.5742-1.5195 1.8242-3.7773 2.8828-6.1523 2.8789zm-17.336-57.039c-0.52734 0-1.0547 0-1.6016 0.0625-4.5664 0.16406-8.5352 3.1953-9.8867 7.5625-1.293 4.1055 0.16016 8.5781 3.6211 11.137l17.336 13.809 2.0625-7.7109-6.6484-13.281 0.003906-0.003906c-1.0547-2.1133-1.1172-4.582-0.17578-6.75l1.6016-3.6875h-0.003906c-2.0195-0.75-4.1562-1.1367-6.3086-1.1367z"/>
  <path d="m410.56 105.09c-3.9609 0-7.3242-2.9023-7.9102-6.8164l-2.5586-17.09c-0.24609-1.625 0.015625-3.2891 0.75-4.7578l6.7031-13.414-3.6328-15.504v-0.003906c-0.69922-2.9922 0.37891-6.1211 2.7695-8.0469 6.7891-5.3281 15.312-7.9492 23.922-7.3594 5.4531 0.33203 10.676 2.3125 14.98 5.6758 4.3047 3.3633 7.4883 7.9531 9.1289 13.164 1.5938 5.0703 1.5898 10.508-0.011719 15.578-1.6016 5.0664-4.7227 9.5195-8.9375 12.758l-30.215 24.07h-0.003906c-1.4141 1.1328-3.1719 1.75-4.9844 1.7461zm5.7266-23.777 0.13672 0.87891 19.367-15.434 0.003907 0.003907c3.4531-2.5625 4.9102-7.0312 3.6211-11.137-1.3711-4.3867-5.3711-7.4258-9.9648-7.5703-2.9492-0.18359-5.9023 0.29297-8.6406 1.3945l2.9844 12.719c0.42188 1.8203 0.19922 3.7344-0.63281 5.4062z"/>
  <path d="m504 440h-120c-4.418 0-8-3.582-8-8s3.582-8 8-8h120c4.418 0 8 3.582 8 8s-3.582 8-8 8z"/>
  <path d="m56 440h-48c-4.418 0-8-3.582-8-8s3.582-8 8-8h48c4.418 0 8 3.582 8 8s-3.582 8-8 8z"/>
  <path d="m200 440h-52c-4.418 0-8-3.582-8-8s3.582-8 8-8h52c4.418 0 8 3.582 8 8s-3.582 8-8 8z"/>
  <path d="m208 208c-3.0312 0-5.8047-1.7109-7.1602-4.4258l-5.3828-10.773c-9.5195 0.66797-18.938-2.293-26.359-8.2852-7.4219-5.9961-12.297-14.582-13.641-24.027l-3.3359-23.344c-0.35938-2.4961 0.48047-5.0117 2.2617-6.793l16-16c1.8047-1.8438 4.3984-2.6797 6.9375-2.2383 2.5391 0.41016 4.7305 2.0156 5.8789 4.3203l4.4141 8.8008 1.6875-0.80078h0.003907c6.7578-3.3633 14.703-3.3633 21.465 0 3.9883 1.9844 7.3398 5.0469 9.6758 8.8359 2.3398 3.793 3.5703 8.1641 3.5547 12.617v1.168l11.574 5.7852c1.2422 0.62891 2.3047 1.5664 3.082 2.7188l16 24c1.3398 2.0078 1.7031 4.5117 0.98438 6.8164-0.71484 2.3047-2.4336 4.1641-4.6719 5.0586l-40 16c-0.94531 0.375-1.9531 0.56641-2.9688 0.56641zm-8-32c3.0312 0 5.8047 1.7109 7.1602 4.4258l4.7031 9.4062 24-9.6016-9.3516-14.031-14.098-7.0391c-2.707-1.3594-4.418-4.1289-4.4141-7.1602v-6.1133c0-2.7734-1.4375-5.3477-3.7969-6.8047s-5.3086-1.5898-7.7891-0.34766l-8.8398 4.4258c-1.8984 0.94922-4.0938 1.1055-6.1094 0.43359-2.0117-0.67188-3.6758-2.1172-4.625-4.0195l-3.0312-6.0703-5.3203 5.3281 2.7695 19.375c0.86719 6.0977 4.2812 11.543 9.3906 14.98 5.1133 3.4375 11.441 4.5469 17.414 3.0508 0.63281-0.15625 1.2852-0.23828 1.9375-0.23828z"/>
  <path d="m360 416c-0.79688-0.003906-1.5898-0.12109-2.3516-0.35156l-104-32c-3.0742-0.94922-5.2812-3.6484-5.6016-6.8477l-5.1367-51.297c-1.3945-13.887-5.4727-27.367-12-39.703l-13.734 16.48c-8.3359 10.008-18.352 18.488-29.602 25.062-3.8125 2.2344-8.7188 0.95703-10.953-2.8594-2.2383-3.8164-0.95703-8.7227 2.8594-10.957 9.6445-5.6328 18.23-12.902 25.375-21.488l20.969-25.168c1.5898-1.9922 4.0664-3.0664 6.6094-2.8711 2.5156 0.13672 4.8242 1.4531 6.2227 3.5508 11.215 16.859 18.141 36.199 20.176 56.344l4.6016 46.008 89.305 27.488 3.8555-53.953v0.003906c2.4219-33.941-6.9414-67.68-26.508-95.52-19.57-27.836-48.145-48.07-80.902-57.281l-2.0781-0.58594-32.801 15.793-17.938 44.84c-6.2695 15.719-17.062 29.219-31.016 38.793-12.984 8.9453-28.75 12.922-44.422 11.199l-31.793-3.5742 4.5742 39.465 31.016-6.7773c4.2617-0.82031 8.3984 1.9023 9.3281 6.1406 0.92969 4.2383-1.6914 8.4453-5.9023 9.4805l-39.656 8.6719v0.003906c-2.2109 0.49219-4.5312 0.023437-6.375-1.2891-1.8477-1.3125-3.0508-3.3477-3.3125-5.6016l-6.7539-58.246c-0.28125-2.4219 0.55859-4.8398 2.2812-6.5703 1.7266-1.7188 4.1367-2.5664 6.5586-2.3047l41.793 4.7031v0.003906c11.746 1.3125 23.57-1.6406 33.312-8.3281 11.449-7.7891 20.316-18.809 25.48-31.656l19.09-47.727-0.003906-0.003907c0.74609-1.8555 2.1562-3.3711 3.9609-4.2383l38.398-18.465h0.003907c1.7461-0.82422 3.7305-1 5.5977-0.49609l4.9922 1.4062v0.003906c36.293 10.207 67.957 32.629 89.641 63.473s32.062 68.223 29.383 105.83l-4.5664 64c-0.30469 4.1758-3.7852 7.4141-7.9766 7.4141z"/>
  <path d="m273.45 481.82c-14.945-0.027344-29.609-4.0781-42.449-11.73-12.836-7.6484-23.379-18.617-30.512-31.75l-24.223-44.984-41.066 82.215c-1.3594 2.7266-4.1523 4.4414-7.1992 4.4258h-64c-2.7422-0.007812-5.2891-1.418-6.7461-3.7383-1.4609-2.3203-1.6328-5.2266-0.45312-7.7031l65.098-136.68h-0.003907c5.3164-11.652 15.586-20.301 27.973-23.559 12.387-3.2539 25.582-0.77344 35.941 6.7578l73.832 53.695 102.73 31.609c3.7852 1.1484 6.1641 4.8867 5.6016 8.8008-2.6016 17.824-10.926 34.316-23.723 46.992s-29.367 20.848-47.215 23.281l-12.801 1.7031c-3.5742 0.45703-7.1758 0.67969-10.781 0.66406zm-97.449-113.82c2.9453 0 5.6523 1.6133 7.0469 4.207l31.527 58.551v0.003907c6.4609 11.895 16.367 21.555 28.422 27.711 12.055 6.1562 25.691 8.5195 39.117 6.7734l12.762-1.7031h-0.003906c13.246-1.8008 25.652-7.5312 35.613-16.445 9.9648-8.9141 17.031-20.605 20.293-33.57l-97.129-29.879c-0.84375-0.26172-1.6367-0.66016-2.3516-1.1758l-74.914-54.473c-6.4883-4.7266-14.77-6.2773-22.531-4.2148-7.7617 2.0586-14.18 7.5117-17.469 14.84l-59.711 125.38h46.398l45.785-91.574c1.332-2.668 4.0352-4.375 7.0156-4.4258z"/>
  <path d="m119.01 512h-12.879c-2.625 0-5.2148-0.60938-7.5703-1.7773l-8.957-4.4883-3.9219 3.9219c-1.5039 1.5078-3.5508 2.3516-5.6797 2.3438h-56c-4.418 0-8-3.582-8-8 0.015625-8.6094 3.0078-16.953 8.4688-23.609 5.457-6.6602 13.051-11.23 21.492-12.934l16.438-3.2969c0.52734-0.10547 1.0625-0.16016 1.6016-0.16016h64c2.1211 0 4.1562 0.84375 5.6562 2.3438s2.3438 3.5352 2.3438 5.6562v23.008c-0.007812 4.5039-1.7969 8.8242-4.9844 12.008-3.1836 3.1875-7.5039 4.9766-12.008 4.9844zm-31.008-24c1.2383-0.015625 2.4609 0.25781 3.5742 0.80078l14.551 7.1992h12.883c0.54688-0.003906 0.98828-0.44531 0.99219-0.99219v-15.008h-55.199l-15.688 3.1445c-7 1.4141-12.824 6.2422-15.512 12.855h43.121l5.6562-5.6562h-0.003906c1.4922-1.4922 3.5156-2.3359 5.625-2.3438z"/>
  <path d="m240 176c-2.7734 0-5.3438-1.4375-6.8008-3.7969-1.457-2.3555-1.5898-5.3008-0.35156-7.7773l1.9688-3.9297c5.6797-11.383 6.6055-24.555 2.5781-36.621-4.0273-12.066-12.68-22.043-24.055-27.734-11.379-5.6914-24.547-6.6328-36.621-2.6211l-18.543 6.1836c-3.8164 1.3047-6.9102 4.1445-8.5312 7.8359-1.6211 3.6914-1.6211 7.8945 0 11.586 1.6211 3.6914 4.7148 6.5312 8.5312 7.8359l4.3516 1.457v-0.003907c4.1992 1.3984 6.4688 5.9336 5.0742 10.129-1.3984 4.1992-5.9336 6.4688-10.129 5.0742l-4.3516-1.4492c-8.0859-2.7305-14.648-8.7344-18.09-16.543-3.4375-7.8086-3.4375-16.703 0-24.512 3.4414-7.8086 10.004-13.812 18.09-16.547l18.535-6.1758c16.09-5.3438 33.641-4.0859 48.805 3.5 15.16 7.5859 26.695 20.875 32.07 36.953 5.3711 16.082 4.1445 33.637-3.4102 48.812l-1.9609 3.9219v-0.003906c-1.3555 2.7148-4.1289 4.4258-7.1602 4.4258z"/>
  <path d="m59.695 348.74c-9.4219 0.007812-18.199-4.7773-23.301-12.699-5.1016-7.9219-5.8242-17.895-1.9219-26.469 3.9023-8.5781 11.898-14.578 21.223-15.934l24.305-3.5117c2.1445-0.32812 4.3281 0.25391 6.0312 1.5977 1.7148 1.3203 2.8164 3.2773 3.0664 5.4258l4.5039 38.938c0.47656 4.2617-2.4922 8.1445-6.7305 8.7969l-22.984 3.543v0.003906c-1.3867 0.20703-2.7891 0.3125-4.1914 0.30859zm14.473-41.602-16.145 2.3359v0.003907c-6.3867 0.95312-10.793 6.9062-9.8398 13.297 0.95312 6.3867 6.9062 10.793 13.297 9.8398l15.352-2.3984z"/>
  <path d="m392 136c-67.289 0-120-29.863-120-68s52.711-68 120-68 120 29.863 120 68-52.711 68-120 68zm0-120c-56.375 0-104 23.816-104 52s47.625 52 104 52 104-23.816 104-52-47.625-52-104-52z"/>
  <path d="m296 168c-5.8398 0.54688-11.652-1.2578-16.156-5.0117-4.5078-3.7539-7.3281-9.1484-7.8438-14.988 0.51562-5.8398 3.3359-11.234 7.8438-14.988 4.5039-3.7539 10.316-5.5586 16.156-5.0117 5.8398-0.54688 11.652 1.2578 16.156 5.0117 4.5078 3.7539 7.3281 9.1484 7.8438 14.988-0.51562 5.8398-3.3359 11.234-7.8438 14.988-4.5039 3.7539-10.316 5.5586-16.156 5.0117zm0-24c-4.9609 0-8 2.5859-8 4s3.0391 4 8 4 8-2.5859 8-4-3.0391-4-8-4z"/>
 </g>
</svg>
