<?xml version="1.0" encoding="UTF-8"?>
<svg width="512pt" height="512pt" version="1.1" viewBox="0 0 512 512" xmlns="http://www.w3.org/2000/svg">
 <g fill="#fff">
  <path d="m411.37 1.332c26.98 6.2812 43.758 33.246 37.477 60.227-6.2852 26.98-33.25 43.758-60.23 37.477-26.98-6.2852-43.758-33.25-37.473-60.23 6.2812-26.98 33.246-43.758 60.227-37.473"/>
  <path d="m380.35 245.05c-16.715-12.43-26.41-26.551-31.621-36.324-9.8047-18.133-15.035-39.305-15.121-61.203 0.003906-5.1016 0.31641-8.4922 0.44531-9.707 1.293-11.293 10.805-19.793 22.133-19.793 0.84375 0 1.6953 0.046875 2.5547 0.14453 12.215 1.3828 21.02 12.457 19.633 24.672-0.023438 0.25781-0.039063 0.46875-0.054688 0.75781-0.050781 0.83984-0.10547 2.1758-0.10547 3.9102-0.027344 5.082 0.58984 22.594 9.1875 38.906 2.0742-10.918 4.2539-21.195 6.0391-30.305 6.3984-22.191-1.9727-48.754-21.004-53.5-10.918-2.7227-24.648-0.46875-36.496 8.0977-9.1328 4.8867-21.305 12.508-34.152 23.691-25.629 22.234-53.844 59.371-63.461 115.49-0.95312 5.5117 0.74219 10.863 4.1484 14.773l-23.773 56.477-78.441-33.023c-9.0781-3.8203-19.539 0.4375-23.359 9.5234l-57.102 135.64c-3.8242 9.0781 0.4375 19.539 9.5234 23.363l82.938 34.914c2.8398 11.727 13.379 20.449 25.977 20.449 14.777 0 26.758-11.98 26.758-26.758 0-6.0664-2.043-11.637-5.4414-16.125l48.883-116.11c3.8242-9.0781-0.4375-19.543-9.5234-23.363l-7.1953-3.0273 23.523-55.879c0.23047 0.007812 0.45703 0.027343 0.68359 0.027343 8.5234 0 16.066-6.1289 17.566-14.809 5.2227-30 16.305-52.711 29.031-69.984-4.2852 24.184-4.2578 47.391-0.61328 78.676 3.4258 17.633 11.113 27.484 20.465 32.926 1.5664 9.3594 2.8359 20.895 2.8281 33.652 0.003906 19.535-2.9297 41.758-11.797 63.859-8.9102 22.121-23.52 44.305-48.445 64.879-11.891 9.7812-13.598 27.344-3.8125 39.234 5.5156 6.6953 13.496 10.164 21.539 10.164 6.2344 0 12.504-2.082 17.691-6.3516v-0.003906c32.164-26.41 52.754-57.066 64.77-87.188 4.082-10.188 7.2031-20.297 9.5547-30.176 8.5039 27.23 15.492 59.883 18.422 97.98 1.1797 15.348 14.582 26.832 29.93 25.656 15.352-1.1836 26.832-14.582 25.656-29.93-8.1602-105.99-44.637-176.08-67.211-210.13-0.98828-7.8672-1.3047-15.977-1.1484-24.176zm-202.12 253.57c-7.3867 0-13.379-5.9883-13.379-13.379 0-7.3906 5.9922-13.379 13.379-13.379 7.3906 0 13.379 5.9883 13.379 13.379 0 7.3906-5.9844 13.379-13.379 13.379z"/>
  <path d="m373.86 143.31c0.027344-0.44922 0.050781-0.76562 0.070313-0.93359l0.003906-0.046875c1.1133-9.793-5.9141-18.629-15.703-19.742-9.793-1.1172-18.629 5.9102-19.742 15.703-0.058594 0.55859-0.41797 3.8828-0.42188 9.207 0.046876 12.258 1.7539 35.371 14.598 59.125 12.676 23.781 37.883 47.238 79.051 56.609 1.3633 0.32031 2.7305 0.47266 4.0703 0.47266 8.1016 0 15.434-5.5586 17.355-13.789 2.2383-9.5938-3.7227-19.184-13.316-21.422-32.18-7.7578-46.906-23.031-55.828-38.926-8.75-15.93-10.301-33.43-10.254-42.066 0-1.8672 0.0625-3.2969 0.11719-4.1914z"/>
 </g>
</svg>
