<svg width="26" height="26" viewBox="0 0 26 26" fill="none" xmlns="http://www.w3.org/2000/svg">
<g clip-path="url(#clip0_2943_1563)">
<rect x="1" y="1" width="24" height="24" rx="3" fill="url(#paint0_linear_2943_1563)"/>
<path d="M14.3815 6.80513C14.1829 6.94636 14.1388 7.22222 14.28 7.42083C14.4235 7.61947 14.6993 7.66357 14.8957 7.52234C16.2507 6.55131 18.089 6.70138 19.2719 7.88203C20.596 9.20614 20.596 11.3578 19.2719 12.6819L13.5738 18.3777L7.87579 12.6819C6.55169 11.3578 6.55169 9.20614 7.87579 7.88203C9.19989 6.55793 11.3516 6.55793 12.6757 7.88203L13.2605 8.46686C13.4326 8.63899 13.7129 8.63899 13.885 8.46686C14.0572 8.29474 14.0572 8.01443 13.885 7.84231L13.3002 7.25748C11.634 5.58913 8.91964 5.58913 7.25348 7.25748C6.44574 8.06522 6 9.13991 6 10.2808C6 11.4218 6.44574 12.4965 7.25348 13.3042L13.2605 19.3112C13.3267 19.3775 13.4062 19.4172 13.4922 19.4326C13.5209 19.437 13.5496 19.4415 13.5783 19.4415C13.6909 19.4415 13.8034 19.3974 13.8895 19.3113L19.8965 13.3043C20.7043 12.4965 21.15 11.4219 21.15 10.2809C21.15 9.14 20.7043 8.06526 19.8965 7.25755C18.4068 5.77009 16.0875 5.5803 14.3816 6.80512L14.3815 6.80513Z" fill="white"/>
</g>
<rect x="0.5" y="0.5" width="25" height="25" rx="3.5" stroke="url(#paint1_linear_2943_1563)"/>
<defs>
<linearGradient id="paint0_linear_2943_1563" x1="12.9999" y1="0.9999" x2="12.9999" y2="24.9999" gradientUnits="userSpaceOnUse">
<stop stop-color="#0072E0"/>
<stop offset="1" stop-color="#00376C"/>
</linearGradient>
<linearGradient id="paint1_linear_2943_1563" x1="12.9999" y1="0.9999" x2="12.9999" y2="24.9999" gradientUnits="userSpaceOnUse">
<stop offset="0.258333" stop-color="#04E0FF"/>
<stop offset="1" stop-color="#0D7684"/>
</linearGradient>
<clipPath id="clip0_2943_1563">
<rect x="1" y="1" width="24" height="24" rx="3" fill="white"/>
</clipPath>
</defs>
</svg>
