<svg width="17" height="14" viewBox="0 0 17 14" fill="none" xmlns="http://www.w3.org/2000/svg">
<g clip-path="url(#clip0_21_3)">
<path d="M1.66667 13.6663C1.20833 13.6663 0.815972 13.5031 0.489583 13.1767C0.163194 12.8504 0 12.458 0 11.9997V1.99967C0 1.54134 0.163194 1.14898 0.489583 0.822591C0.815972 0.496203 1.20833 0.333008 1.66667 0.333008H15C15.4583 0.333008 15.8507 0.496203 16.1771 0.822591C16.5035 1.14898 16.6667 1.54134 16.6667 1.99967V11.9997C16.6667 12.458 16.5035 12.8504 16.1771 13.1767C15.8507 13.5031 15.4583 13.6663 15 13.6663H1.66667ZM8.33333 7.83301L1.66667 3.66634V11.9997H15V3.66634L8.33333 7.83301ZM8.33333 6.16634L15 1.99967H1.66667L8.33333 6.16634ZM1.66667 3.66634V1.99967V11.9997V3.66634Z" fill="white"/>
</g>
<defs>
<clipPath id="clip0_21_3">
<rect width="17" height="14" fill="white"/>
</clipPath>
</defs>
</svg>
