<?xml version="1.0" encoding="UTF-8"?>
<svg width="128pt" height="128pt" version="1.1" viewBox="0 0 128 128" xmlns="http://www.w3.org/2000/svg">
 <g fill="#fff">
  <path d="m96.691 29.422-4.6016 15.398h-85.68l14.801 49.52 22.238 0.12109c0.5-5.8906 4.0312-10.684 8.6797-12.281-9.3945-4.7734-15.207-14.078-15.559-25.52 9.0117 7.4297 16.309 15.043 15.559 25.52 1.0742-0.36719 2.1875-0.60156 3.3594-0.60156 1.207 0 2.3789 0.25 3.4805 0.64062-5.0625-8.6875-5.5547-18.383-0.082031-28.602 2.5039 8.0625 6.7734 19.34 0.082031 28.602 4.582 1.6289 8.0234 6.3867 8.5195 12.242h17.441l14.078-47.078 0.76172-2.5586 2.5195-8.4414h19.316v-6.9609h-24.922"/>
  <path d="m83.062 105.23c0 4.0938-3.3164 7.4141-7.4141 7.4141-4.0938 0-7.4141-3.3203-7.4141-7.4141s3.3203-7.4141 7.4141-7.4141c4.0977 0 7.4141 3.3203 7.4141 7.4141"/>
  <path d="m40.488 105.23c0 4.0938-3.3164 7.4141-7.4141 7.4141-4.0938 0-7.4141-3.3203-7.4141-7.4141s3.3203-7.4141 7.4141-7.4141c4.0977 0 7.4141 3.3203 7.4141 7.4141"/>
  <path d="m54.137 89.449c0 0.74609-0.28125 1.4609-0.78906 1.9883-0.50781 0.52734-1.1992 0.82422-1.918 0.82422s-1.4062-0.29688-1.9141-0.82422-0.79297-1.2422-0.79297-1.9883c0.003906-1.5469 1.2148-2.8008 2.707-2.8008 1.4961 0 2.707 1.2539 2.707 2.8008" fill-rule="evenodd"/>
  <path d="m62.258 89.449c0 0.74609-0.28516 1.4609-0.79297 1.9883-0.50781 0.52734-1.1953 0.82422-1.9141 0.82422s-1.4062-0.29688-1.9141-0.82422c-0.50781-0.52734-0.79297-1.2422-0.79297-1.9883 0.003906-1.5469 1.2148-2.8008 2.707-2.8008 1.4922 0 2.7031 1.2539 2.707 2.8008" fill-rule="evenodd"/>
 </g>
</svg>
