<?xml version="1.0" encoding="utf-8"?>
<!-- Generator: Adobe Illustrator 21.1.0, SVG Export Plug-In . SVG Version: 6.00 Build 0)  -->
<svg version="1.1" id="Layer_1" xmlns="http://www.w3.org/2000/svg" xmlns:xlink="http://www.w3.org/1999/xlink" x="0px" y="0px"
	 viewBox="0 0 100 100" style="enable-background:new 0 0 100 100;" xml:space="preserve">
<style type="text/css">
	.st0{fill:#FFFFFF;}
</style>
<g transform="matrix( 1.8195953369140625, 0, 0, 1.8195953369140625, 254.75,0.35) ">
	<g transform="matrix( 1.663116455078125, 0, 0, 1.663116455078125, -130.3,0) ">
		<g>
			<g id="Layer0_0_FILL">
				<path class="st0" d="M16.6,29.6l2.8,3.3l2.8-3.2V0H0v29.6l2.8,3.3l2.8-3.3l2.8,3.3l2.8-3.3l2.8,3.3L16.6,29.6 M18.8,4v1.4H3.7V4
					H18.8 M18.8,6.8v1.4H3.7V6.8H18.8 M18.8,9.5v1.4H3.7V9.5H18.8 M3.7,22v-1.4h8V22H3.7 M3.7,16.5v-1.4h15.1v1.4H3.7 M3.7,19.2
					v-1.4h15.1v1.4H3.7 M3.7,12.3h15.1v1.4H3.7V12.3z"/>
			</g>
		</g>
	</g>
</g>
</svg>
