<?xml version="1.0" encoding="utf-8"?>
<!-- Generator: Adobe Illustrator 21.1.0, SVG Export Plug-In . SVG Version: 6.00 Build 0)  -->
<svg version="1.1" id="Layer_1" xmlns="http://www.w3.org/2000/svg" xmlns:xlink="http://www.w3.org/1999/xlink" x="0px" y="0px"
	 viewBox="0 0 100 100" style="enable-background:new 0 0 100 100;" xml:space="preserve">
<style type="text/css">
	.st0{fill:#FFFFFF;}
</style>
<g transform="matrix( 0.27130126953125, 0, 0, 0.27130126953125, 0,182.6) ">
	<g>
		
			<image style="overflow:visible;enable-background:new    ;" width="3885" height="236" id="Bitmap_1" xlink:href="B1B29C1AF1C0DF98.png" >
		</image>
	</g>
</g>
<g transform="matrix( 2.4595947265625, 0, 0, 2.4583740234375, -432.45,20) ">
	<g transform="matrix( 1, 0, 0, 1, 0,0) ">
		<g>
			<g id="Symbol_1_0_Layer0_0_FILL">
				<path d="M33.8,28.8c1.4-1.8,3.4-3.1,6-4c-1.7-0.8-3.5-0.4-5.2,1.2c0.7-2.7,1.9-4.9,3.5-6.8c-1.9,0.7-3.6,2.6-5.2,5.5
					c-0.1-2.2-0.6-4.1-1.4-5.6V28L33.8,28.8 M4.8,26.3c-1.6-1.5-3.2-1.9-4.8-1.1c2.5,0.9,4.3,2.2,5.6,4l2-0.8v-8.9
					c-0.8,1.5-1.2,3.4-1.3,5.6c-1.5-3-3.1-4.8-4.8-5.6C3.1,21.4,4.2,23.7,4.8,26.3 M2.8,31.7c-0.5,0.3-1,0.5-1.4,0.8h37.9
					c-0.5-0.3-1-0.6-1.5-0.8c-4.8-2.7-10.7-4-17.5-4C13.5,27.7,7.6,29,2.8,31.7 M30.4,10.6c0-2.9-1.1-5.4-3.2-7.5S22.6,0,19.6,0
					S14.1,1.1,12,3.2c-2.1,2.1-3.1,4.6-3.1,7.5V28c3.4-1,7.2-1.5,11.4-1.5c3.7,0,7.1,0.4,10.2,1.2V10.6 M22.5,8.4h2.3
					c0.5,0,0.9,0.1,1.3,0.2c0.4,0.1,0.7,0.3,0.9,0.5c0.3,0.2,0.5,0.5,0.6,0.8c0.1,0.3,0.2,0.6,0.2,1c0,0.3-0.1,0.7-0.2,1
					c-0.1,0.3-0.3,0.6-0.6,0.8c-0.3,0.2-0.6,0.4-0.9,0.5c-0.4,0.1-0.8,0.2-1.3,0.2h-1.2v2.9h-1.1V8.4 M25.3,21v1H14.1v-1H25.3
					 M28.6,18.9v1H10.8v-1H28.6 M20.6,8.4v7.8h-1.1V8.4H20.6 M12.7,8.4h2.2c0.5,0,0.9,0.1,1.3,0.2c0.3,0.1,0.6,0.2,0.9,0.4
					c0.3,0.2,0.5,0.4,0.5,0.6c0.1,0.3,0.1,0.6,0.1,0.9c0,0.3,0,0.5-0.1,0.8c0,0.3-0.1,0.5-0.4,0.6c-0.2,0.2-0.4,0.4-0.6,0.5
					c-0.2,0.1-0.5,0.2-0.8,0.3c0.1,0.1,0.2,0.2,0.4,0.3l2.2,3.1h-0.9c-0.2,0-0.4-0.1-0.5-0.2l-2-2.8l-0.2-0.2
					c-0.1,0-0.2-0.1-0.3-0.1h-0.8v3.2h-1.1V8.4 M13.8,9.3v2.9h1.1c0.3,0,0.6,0,0.9-0.1c0.2-0.1,0.4-0.2,0.5-0.3
					c0.2-0.1,0.3-0.3,0.4-0.5c0.1-0.2,0.1-0.4,0.1-0.6c0-0.5-0.1-0.8-0.4-1.1c-0.3-0.2-0.8-0.3-1.4-0.3H13.8 M24.8,9.3h-1.2v3.1h1.2
					c0.3,0,0.6,0,0.8-0.1c0.2-0.1,0.4-0.2,0.5-0.3c0.2-0.2,0.3-0.3,0.4-0.5c0.1-0.2,0.1-0.5,0.1-0.7c0-0.5-0.1-0.9-0.5-1.2
					C26,9.4,25.5,9.3,24.8,9.3z"/>
			</g>
		</g>
	</g>
</g>
<g transform="matrix( 1.8195953369140625, 0, 0, 1.8195953369140625, -48.7,0.35) ">
	<g transform="matrix( 1.663116455078125, 0, 0, 1.663116455078125, -130.3,0) ">
		<g>
			<g id="Symbol_2_0_Layer0_0_FILL">
				<path d="M16.6,29.6l2.8,3.3l2.8-3.2V0H0v29.6l2.8,3.3l2.8-3.3l2.8,3.3l2.8-3.3l2.8,3.3L16.6,29.6 M18.8,4v1.4H3.7V4H18.8
					 M18.8,6.8v1.4H3.7V6.8H18.8 M18.8,9.5v1.4H3.7V9.5H18.8 M3.7,22v-1.4h8V22H3.7 M3.7,16.5v-1.4h15.1v1.4H3.7 M3.7,19.2v-1.4
					h15.1v1.4H3.7 M3.7,12.3h15.1v1.4H3.7V12.3z"/>
			</g>
		</g>
	</g>
</g>
<g transform="matrix( 2.9329071044921875, 0, 0, 2.9329071044921875, -192.35,-7.3) ">
	<g transform="matrix( 1, 0, 0, 1, 0,0) ">
		<g>
			<g id="Symbol_3_0_Layer0_0_FILL">
				<path d="M17.9,17.1L16.3,22l4-2.7L17.9,17.1 M25,7.2c-0.4,0.5-0.9,1.1-1.3,1.6c-0.5,0.6-1,1.3-1.5,2c-0.3,0.4-0.6,0.8-1,1.2
					c0,0-0.1,0.1-0.1,0.1c-0.4,0.5-0.7,0.9-1.1,1.4c-0.4,0.5-0.8,0.9-1.1,1.4c0,0.1-0.1,0.1-0.1,0.1l-0.8,0.9
					c2.3,1.6,3.4,2.4,3.4,2.2l1.1-1.4c0.5-0.6,1-1.3,1.5-1.9c0.2-0.3,0.4-0.6,0.6-0.9c0.6-0.8,1.1-1.6,1.8-2.4
					c0.8-1.1,1.7-2.1,2.5-3.2c-0.4-0.3-0.9-0.7-1.4-1c-0.6-0.5-1.2-0.9-1.9-1.3C25.5,6.6,25.3,6.9,25,7.2 M24.9,5.2
					c-0.2-1.9-0.5-3.6-0.9-5.1H0.2c0.5,1.5,0.9,3.2,1.1,5.1c0,0.3,0.1,0.5,0.1,0.8c0,0.2,0.1,0.5,0.1,0.7c0,0.5,0.1,1,0.1,1.5
					c0,0.2,0,0.5,0,0.8c0,0.2,0,0.4,0.1,0.6c0,0.5,0,0.9,0,1.4c0,0.5-0.1,0.9-0.1,1.4c0,0.5-0.1,0.9-0.1,1.4c0,0.3,0,0.5-0.1,0.8
					c0,0.2,0,0.4,0,0.6c0,0.5-0.1,0.9-0.1,1.4c0,0.1-0.1,0.2-0.1,0.3c0,0.1,0,0.2,0,0.2c0,0.3-0.1,0.6-0.1,0.9
					c-0.1,0.4-0.1,0.9-0.1,1.4c0,0.1,0,0.2,0,0.4c0,0.3-0.1,0.7-0.2,1.1c0,0.4-0.1,0.9-0.1,1.4c0,0.3-0.1,0.6-0.1,0.9
					c0,0.1,0,0.3,0,0.5c-0.1,0.5-0.1,1.1-0.2,1.7c-0.3,3.1-0.3,5.7,0,7.8H24c-0.5-2.1-0.6-4.6-0.4-7.6c0-0.8,0.2-2.4,0.4-4.7
					c0.1-0.5,0.1-0.9,0.2-1.4c0.1-0.5,0.1-0.9,0.2-1.4c0-0.3,0-0.5,0.1-0.8c0-0.2,0-0.4,0-0.6l0.2-1.1l-2.9,3.9h0.5l-0.1,1.4h-1.4
					H20c-2.8,1.7-4.5,2.7-5.1,2.9l0.2-0.9c0.2-0.7,0.4-1.4,0.6-2l0.1,0H4.1H3.2H2.8c0-0.4,0.1-0.7,0.1-1.1c0-0.1,0-0.2,0-0.4h0.2
					h0.9h12.2c0.2-0.5,0.3-0.9,0.4-1.4H3.2v-0.4c0-0.2,0.1-0.3,0.1-0.5c0-0.1,0-0.1,0-0.2c0-0.1,0-0.2,0-0.3H17
					c0.4-0.5,0.8-0.9,1.2-1.4H3.4c0-0.2,0.1-0.4,0.1-0.6c0-0.3,0-0.5,0-0.8h15.7c0.1-0.1,0.2-0.2,0.3-0.3c0.2-0.4,0.5-0.7,0.8-1.1
					H3.6c0-0.5,0.1-0.9,0.1-1.4h17.1h0.7c0.2-0.3,0.4-0.5,0.5-0.8c0.2-0.2,0.4-0.4,0.5-0.7h-1.8H3.7c0-0.2,0-0.4,0-0.6
					c0-0.3,0-0.5-0.1-0.8h17.2h2.4v0.6c0.4-0.6,0.9-1.1,1.3-1.7c0.2-0.2,0.3-0.4,0.5-0.6C25,5.9,24.9,5.5,24.9,5.2 M20.8,5.2H23
					l0.1,1.4h-2.4H3.5c0-0.2,0-0.4,0-0.7c0-0.2-0.1-0.5-0.1-0.8H20.8 M2.7,22.5c0-0.1,0-0.3,0-0.4h0.2h0.8h8.1h1.6l-0.2,1.4h-1.4
					H3.8H2.9H2.5C2.6,23.1,2.6,22.8,2.7,22.5 M26.5,5.3c0,0.1,0.2,0.2,0.6,0.5c0.2,0.1,0.5,0.3,0.9,0.6c0.6,0.5,1.2,1,1.8,1.4V7.8
					c0.4-0.5,0.8-1,1.2-1.6c-0.4-0.4-0.9-0.7-1.4-1c-0.4-0.3-0.7-0.6-1.1-0.9c-0.2-0.2-0.5-0.3-0.7-0.5c-0.3,0.4-0.6,0.8-1,1.1
					C26.6,5.1,26.6,5.2,26.5,5.3 M33.8,2.1c0-0.1,0-0.2,0-0.2l-1.9-1.8C31.6,0,31.4,0,31.3,0c-0.3,0-0.5,0.1-0.7,0.3h0
					c0,0-0.1,0.1-0.1,0.1h0c-0.1,0.1-0.1,0.1-0.1,0.2c-0.7,0.7-1.3,1.5-1.9,2.2c0,0.1,0.2,0.2,0.6,0.5c0.3,0.3,0.6,0.5,0.8,0.6
					c0.6,0.5,1.3,1,1.9,1.4l0,0c0.1-0.1,0.1-0.2,0.2-0.2l0-0.1c0.4-0.6,0.8-1,1.1-1.3c0-0.1,0.1-0.1,0.1-0.2
					c0.2-0.3,0.3-0.4,0.4-0.5c0.2-0.2,0.3-0.4,0.3-0.8C33.8,2.2,33.8,2.2,33.8,2.1z"/>
			</g>
		</g>
	</g>
</g>
<g transform="matrix( 2.7344512939453125, 0, 0, 2.7344512939453125, -26.15,-175.85) ">
	<g transform="matrix( 1, 0, 0, 1, 0.25,0.05) ">
		<g>
			<g id="Symbol_4_0_Layer0_0_FILL">
				<path d="M36.1,3.3C36.1,1.1,35,0,32.9,0H3.3C1.1,0,0,1.1,0,3.3v20.3c0,2.2,1.1,3.2,3.3,3.2h12.1l-5.8,6.3l13.8-6.3h9.5
					c2.2,0,3.2-1.1,3.2-3.2V3.3 M30.2,5.8v1.7H5.9V5.8H30.2 M30.2,9.1v1.6H5.9V9.1H30.2 M30.2,15.6v1.6H5.9v-1.6H30.2 M30.2,18.8
					v1.6H5.9v-1.6H30.2 M30.2,12.3V14H5.9v-1.7H30.2z"/>
			</g>
		</g>
	</g>
</g>
<g transform="matrix( 1.8195953369140625, 0, 0, 1.8195953369140625, 660.65,0.35) ">
	<g transform="matrix( 1, 0, 0, 1, 0,0) ">
		<g>
			<g id="Symbol_6_0_Layer0_0_FILL">
				<path d="M21.6,22.9L21.6,22.9L21.6,22.9c0.1,0.1,0.1,0.1,0.1,0.1c0,1.3,0,2.7,0,4c0,1.3,0,2.7,0,4c0,0.6,0,1.2,0,1.8
					c0.7,0,1.3,0,1.9,0c1.2,0,2.4,0,3.6,0c1.1,0,2.2,0,3.3,0c1,0,1.4-0.7,1.4-2c0,0,0-0.1,0-0.1c0-1.3,0-2.7,0-4c0-1.3,0-2.7,0-4
					c0-1.3,0-2.6,0-3.9L18.6,6.7L5.4,18.9c0,1.3,0,2.6,0,3.9c0,1.3,0,2.7,0,4c0,1.3,0,2.7,0,4c0,0.1,0,0.1,0,0.1
					c-0.1,1.3,0.4,1.9,1.3,1.9c1.1,0,2.2,0,3.3,0c1.2,0,2.4,0,3.6,0c0.6,0,1.3,0,1.9,0c0-0.6,0-1.2,0-1.8c0-1.3,0-2.7,0-4
					c0-1.3,0-2.7,0-4.1v0h0.1v-0.1c1,0,2,0,3,0S20.6,22.9,21.6,22.9 M31.8,1c0-0.7-0.3-1-0.9-1h-4.8c-0.6,0-0.9,0.3-0.9,1v4.3
					l-4.8-4.5c-0.1,0-0.1-0.1-0.2-0.2c-1-0.9-2.2-0.9-3.5,0c0,0-0.1,0.1-0.1,0.2L0,16.5l2,2.8c0,0,0.1,0,0.1,0c0,0,0.1,0,0.1,0h0
					L18.6,3.8v0l16.4,15.5h0c0,0,0.1,0,0.1,0c0,0,0.1,0,0.1,0l1.9-2.8l-5.3-5V1z"/>
			</g>
		</g>
	</g>
</g>
<g transform="matrix( 1, 0, 0, 1, 332.35,-61) ">
	<g transform="matrix( 1.63946533203125, 0, 0, 1.63946533203125, -2.8,0.5) ">
		<g>
			<g id="Symbol_7_0_Layer0_0_FILL">
				<path d="M49.6,30c-0.1-0.1-0.3-0.2-0.5-0.2c0,0-0.1,0-0.1,0c-0.2,0-0.4,0.1-0.6,0.2l-0.8,0.6l-0.6,0.7l-0.7,0.8l-1.4-0.2
					c-0.1,0-0.3,0-0.4,0.1L44.4,0H0v60.1h44.5v-0.8c-2.6-0.1-4.8-1-6.5-2.8h-3v-0.1l-1,1l-0.7,0.8l-0.8,0.6C32.3,59,32.1,59,31.9,59
					c-0.2,0-0.4,0-0.5-0.2l-0.3-0.2c-0.2-0.2-0.3-0.5-0.2-0.9c0-0.2,0.1-0.5,0.2-0.8l0.2,0l0.2-0.4l0.8-0.7l1.5-1.4l0.2-0.2h1.8
					c-0.9-1.3-1.4-2.8-1.5-4.5h-0.4h-0.1h-0.1h-2.2h-0.1h-0.5h-0.1h-0.8c-0.4,0-0.6-0.1-0.8-0.3c-0.2-0.2-0.4-0.5-0.4-0.9
					c0-0.4,0.1-0.6,0.4-0.8c0.2-0.2,0.4-0.3,0.8-0.3l4.2-0.1c0-0.5,0-1,0.1-1.4l0.2-0.8c0.3-1.2,0.8-2.3,1.6-3.2h-2.9l-0.1-0.1
					l-1.7-1.7l-0.6-0.6L30.4,39v0H22h-2.4h-2.1h-0.7H14v-2.8h2.9h2.8h1.9H28h1.9H31V37l0.2,0l0.6,0.1l0.7,0.8l0.7,0.7l1.1,1v-0.1
					h10.1V39h0v-1.2h-6.6c0.1-1.5,0.7-2.8,1.9-4l0.6-0.5l-0.2-0.2l-0.8-0.6l-0.4-0.6c-0.2-0.2-0.2-0.5-0.2-0.8
					c-0.1-0.3,0-0.6,0.2-0.9v0l0.3-0.2c0.2-0.1,0.4-0.2,0.6-0.2c0.1,0,0.2,0,0.4,0.1c0.1-0.1,0.3-0.1,0.4-0.1c0.2,0,0.4,0.1,0.5,0.2
					l0.4,0.2l0.5,0.4l0.7,0.7l0.7,0.8c0.1,0,0.3,0,0.4,0c0.2,0,0.4-0.1,0.6-0.1v0.1c0,0,0.1,0,0.1,0v5.8h4.7h1.7
					c-0.1-1.4-0.7-2.7-1.7-3.8c-0.1-0.1-0.1-0.2-0.2-0.2l-0.5-0.4l0.3-0.2l0.4-0.4l0.2-0.3l0.5-0.5c0.2-0.2,0.4-0.5,0.4-0.9
					s-0.1-0.6-0.4-0.8L49.6,30 M31,14.3V17H14v-2.7H31 M5.2,12.6c0.2,0,0.3,0.1,0.5,0.2l1.8,1.9l2.1-2.2c0.1-0.1,0.3-0.1,0.4-0.1
					c0.2,0,0.3,0,0.4,0.1v0.1c0.1,0.1,0.2,0.3,0.2,0.4c0,0.2-0.1,0.3-0.2,0.4l-2.1,2.1l2,1.9c0.2,0.2,0.3,0.4,0.2,0.5
					c0,0.1-0.1,0.2-0.2,0.4c-0.1,0.1-0.3,0.2-0.5,0.3c-0.1,0-0.2-0.1-0.4-0.3l-1.9-1.9l-2.2,2.1c-0.1,0.1-0.2,0.2-0.4,0.2
					c-0.2,0-0.3-0.1-0.5-0.2v-0.1c-0.1-0.1-0.1-0.2-0.1-0.4c0-0.2,0.1-0.4,0.1-0.6l2.1-2.1l-1.8-1.8c-0.1-0.1-0.2-0.3-0.3-0.4
					c0.1-0.2,0.2-0.4,0.3-0.4C4.9,12.6,5,12.6,5.2,12.6 M10.7,22.9c0.1-0.1,0.3-0.1,0.5-0.1c0.2,0,0.3,0.1,0.5,0.1l0.1,0.1
					c0,0.1,0,0.2,0.1,0.4c0,0.2,0,0.4-0.1,0.5l-4.4,4.3c-0.6,0.5-1.3,0.5-1.9-0.1l-1.8-1.9c-0.1-0.1-0.2-0.3-0.2-0.4l0.2-0.5
					c0.1-0.1,0.2-0.2,0.4-0.2c0.2,0,0.4,0.1,0.4,0.2l1.9,1.8L10.7,22.9 M14,28v-2.7h16.6V28H14 M11.7,35c0,0.1,0,0.2,0.1,0.5
					c0,0.2,0,0.3-0.1,0.5l-4.4,4.2c-0.6,0.6-1.3,0.5-1.9-0.1l-1.8-1.8c-0.1-0.1-0.2-0.3-0.2-0.5l0.2-0.4c0.1-0.1,0.2-0.2,0.4-0.2
					c0.2,0,0.4,0.1,0.4,0.2l1.9,1.9l4.3-4.3c0.1-0.1,0.3-0.2,0.5-0.2C11.3,34.9,11.4,34.9,11.7,35L11.7,35 M57.9,36.9
					c-0.2,0-0.5,0-0.6,0.1l-0.6,0.7l-0.8,0.7l-1.1,1h-6.5h-3.7v20c1.3,0,2.5-0.3,3.7-0.8c1-0.5,2-1.1,3-2h2.9v-0.1l1,1l0.8,0.8
					l0.8,0.6l0.6,0.2c0.1,0,0.2,0,0.5-0.2l0.3-0.3c0.2-0.2,0.4-0.4,0.4-0.8c0-0.3-0.1-0.5-0.4-0.8l-0.5-0.5l-0.8-0.6l-1.5-1.5
					l-0.1-0.1h-2c1-1.3,1.5-2.8,1.7-4.5h0.3h0.2h2.3h0.5h0.5h0.7c0.3,0,0.6-0.1,0.9-0.4c0.2-0.2,0.3-0.5,0.2-0.8
					c0-0.4-0.1-0.6-0.2-0.8c-0.3-0.2-0.5-0.4-0.9-0.4h-0.7h-0.5h-0.5h-2.3h-0.2h-0.2l-0.2-1.5c-0.1-0.4-0.2-0.7-0.2-0.8
					c-0.2-1.1-0.7-2.2-1.5-3.2h2.9v-0.1l1.7-1.7l0.7-0.8l0.5-0.4c0.2-0.2,0.3-0.5,0.3-0.9c0-0.2-0.1-0.5-0.3-0.7v-0.1L58.4,37
					C58.3,36.9,58.1,36.9,57.9,36.9z"/>
			</g>
		</g>
	</g>
</g>
<g transform="matrix( 1, 0, 0, 1, 0,0) ">
	<g>
		<g id="Layer0_7_FILL">
			<path class="st0" d="M75.3,26.1c-6.8-6.8-15.1-10.2-24.8-10.2c-9.6,0-17.9,3.4-24.7,10.2C19,33,15.6,41.2,15.6,50.9
				c0,9.7,3.4,17.9,10.3,24.7c6.8,6.8,15.1,10.2,24.7,10.2c9.7,0,17.9-3.4,24.8-10.2c6.8-6.8,10.2-15,10.2-24.7S82.2,33,75.3,26.1
				 M44,5.4c6.3-1,13.1-1,20.3,0.1c4.9,0.7,9.4,2,13.6,3.9c-6-4-12.8-6.6-20.6-7.8c-13.4-2-25.6,0.9-36.5,8.5
				C9.8,17.7,3.3,27.9,1.2,40.7c-2,12.8,1,24.4,9.1,34.9c2.6,3.3,5.4,6.2,8.5,8.7c3.1,2.5,6.5,4.5,10.2,6.1
				c-1.2-0.8-2.4-1.6-3.5-2.5c6.5,4.7,14,7,22.5,7c10.4,0,19.4-3.5,26.8-10.6c0.3-0.3,0.6-0.6,0.9-0.9c4.9-4.9,8.2-10.4,10-16.5
				c-1.9,3.8-4.5,7.3-7.7,10.6c-2.8,2.8-5.7,5-8.9,6.8C63.6,87.4,57.3,89,50.4,89c-6.9,0-13.2-1.6-18.8-4.7c-3.2-1.8-6.1-4-8.9-6.8
				c-7.6-7.6-11.5-16.9-11.5-27.7c0-4,0.5-7.7,1.5-11.2c-2.6,5.2-3.9,10.9-3.9,17.2c0,4.6,0.7,9,2.1,13c-1.7-4-2.9-8.3-3.6-13
				C6.6,50.7,6.5,46.1,7.2,42c1-6.4,3-12,5.9-16.6c2.9-4.7,7.1-9,12.6-12.8C30.8,8.9,36.9,6.6,44,5.4 M86.7,81.4
				c8.2-8.3,12.4-18.2,12.5-29.8c0.1-11.6-3.9-21.5-12-29.7C79,13.9,69.1,9.8,57.5,9.9c-7.4,0.1-14.1,1.8-20.2,5.2
				c4.3-1.5,9-2.2,13.9-2.3c11.6-0.1,21.5,3.9,29.6,12c8.1,8.1,12.2,18,12.1,29.7C92.8,66,88.6,76,80.3,84.2v0.1
				c-3,3-6.3,5.5-9.7,7.4c4.6-1.6,8.9-4.1,12.9-7.4C84.6,83.4,85.7,82.4,86.7,81.4z"/>
		</g>
	</g>
</g>
</svg>
