<?xml version="1.0" encoding="utf-8"?>
<!-- Generator: Adobe Illustrator 21.1.0, SVG Export Plug-In . SVG Version: 6.00 Build 0)  -->
<svg version="1.1" id="Layer_1" xmlns="http://www.w3.org/2000/svg" xmlns:xlink="http://www.w3.org/1999/xlink" x="0px" y="0px"
	 viewBox="0 0 115.4 107" style="enable-background:new 0 0 115.4 107;" xml:space="preserve">
<style type="text/css">
	.st0{fill:#FFFFFF;}
	.st1{fill:#FFFFFF;fill-opacity:0.9804;}
	.st2{fill:#FBFCFC;}
</style>
<g transform="matrix( 0.27130126953125, 0, 0, 0.27130126953125, 0,182.6) ">
	<g>
		
			<image style="overflow:visible;enable-background:new    ;" width="3885" height="236" id="Bitmap_1" xlink:href="171C7A703290AB8.png"  transform="matrix(1 0 0 1 35.7711 0)">
		</image>
	</g>
</g>
<g transform="matrix( 2.4595947265625, 0, 0, 2.4583740234375, 0,20) ">
	<g transform="matrix( 1, 0, 0, 1, 0,0) ">
		<g>
			<g id="Symbol_1_0_Layer0_0_FILL">
				<path class="st0" d="M40,30.6c1.6-2.3,3.9-4,7-5.2c-2-1-4.1-0.5-6,1.6c0.8-3.5,2.2-6.3,4.1-8.8c-2.2,0.9-4.2,3.4-6,7.1
					c-0.1-2.9-0.7-5.3-1.6-7.3v11.5L40,30.6 M6.3,27.4c-1.9-1.9-3.7-2.5-5.6-1.4c2.9,1.2,5,2.9,6.5,5.2l2.3-1V18.6
					c-0.9,1.9-1.4,4.4-1.5,7.3c-1.7-3.9-3.6-6.2-5.6-7.3C4.4,21,5.6,24,6.3,27.4 M4,34.4c-0.6,0.4-1.2,0.6-1.6,1h43.9
					c-0.6-0.4-1.2-0.8-1.7-1c-5.6-3.5-12.4-5.2-20.3-5.2S9.6,30.9,4,34.4 M36,7c0-3.8-1.3-7-3.7-9.7s-5.3-4-8.8-4s-6.4,1.4-8.8,4.1
					s-3.6,6-3.6,9.7v22.4c3.9-1.3,8.3-1.9,13.2-1.9c4.3,0,8.2,0.5,11.8,1.6V7 M26.9,4.2h2.7c0.6,0,1,0.1,1.5,0.3
					c0.5,0.1,0.8,0.4,1,0.6c0.3,0.3,0.6,0.6,0.7,1C32.9,6.5,33,6.9,33,7.4c0,0.4-0.1,0.9-0.2,1.3c-0.1,0.4-0.3,0.8-0.7,1
					c-0.3,0.3-0.7,0.5-1,0.6c-0.5,0.1-0.9,0.3-1.5,0.3h-1.4v3.8h-1.3L26.9,4.2 M30.1,20.5v1.3h-13v-1.3H30.1 M33.9,17.8v1.3H13.3
					v-1.3H33.9 M24.7,4.2v10.1h-1.3V4.2H24.7 M15.5,4.2H18c0.6,0,1,0.1,1.5,0.3c0.3,0.1,0.7,0.3,1,0.5s0.6,0.5,0.6,0.8
					c0.1,0.4,0.1,0.8,0.1,1.2c0,0.4,0,0.6-0.1,1c0,0.4-0.1,0.6-0.5,0.8C20.5,9,20.3,9.2,20,9.4c-0.2,0.1-0.6,0.3-0.9,0.4
					c0.1,0.1,0.2,0.3,0.5,0.4l2.6,4h-1c-0.2,0-0.5-0.1-0.6-0.3l-2.3-3.6L17.9,10c-0.1,0-0.2-0.1-0.3-0.1h-0.9V14h-1.2V4.2 M16.8,5.3
					v3.8H18c0.3,0,0.7,0,1-0.1c0.2-0.1,0.5-0.3,0.6-0.4c0.2-0.1,0.3-0.4,0.5-0.6c0.1-0.3,0.1-0.5,0.1-0.8c0-0.6-0.1-1-0.5-1.4
					c-0.3-0.3-0.9-0.4-1.6-0.4L16.8,5.3 M29.5,5.3h-1.4v4h1.4c0.3,0,0.7,0,1-0.1C30.8,9.1,31,9,31.2,8.8c0.2-0.3,0.3-0.4,0.5-0.6
					c0.1-0.3,0.1-0.6,0.1-0.9c0-0.6-0.1-1.2-0.6-1.6C30.9,5.5,30.3,5.3,29.5,5.3z"/>
			</g>
		</g>
	</g>
</g>
<g transform="matrix( 1.8195953369140625, 0, 0, 1.8195953369140625, 254.75,0.35) ">
	<g transform="matrix( 1, 0, 0, 1, 0,0) ">
		<g>
			<g id="Symbol_2_0_Layer0_0_FILL">
				<path class="st0" d="M22,29.6l2.8,3.3l2.8-3.2V0H5.3v29.6l2.8,3.3l2.8-3.3l2.8,3.3l2.8-3.3l2.8,3.3L22,29.6 M24.1,4v1.4h-15V4
					H24.1 M24.1,6.8v1.4h-15V6.8H24.1 M24.1,9.5v1.4h-15V9.5H24.1 M9.1,22v-1.4h8V22H9.1 M9.1,16.5v-1.4h15.1v1.4H9.1 M9.1,19.2
					v-1.4h15.1v1.4H9.1 M9.1,12.3h15.1v1.4H9.1V12.3z"/>
			</g>
		</g>
	</g>
</g>
<g transform="matrix( 1.8195953369140625, 0, 0, 1.8195953369140625, 341.6,0.1) ">
	<g transform="matrix( 1, 0, 0, 1, 0,0) ">
		<g>
			<g id="Symbol_3_0_Layer0_0_FILL">
				<path class="st0" d="M23.2,17.2L21.6,22l4-2.7L23.2,17.2 M30.4,7.3C30,7.8,29.5,8.4,29.1,9c-0.5,0.6-1,1.3-1.5,2
					c-0.3,0.4-0.6,0.8-1,1.2l-0.1,0.1c-0.4,0.5-0.7,0.9-1.1,1.4s-0.8,0.9-1.1,1.4c0,0.1-0.1,0.1-0.1,0.1l-0.8,1
					c2.3,1.6,3.4,2.4,3.4,2.2l1.1-1.4c0.5-0.6,1-1.3,1.5-1.9c0.2-0.3,0.4-0.6,0.6-0.9c0.6-0.8,1.2-1.6,1.8-2.4
					c0.8-1.1,1.6-2.1,2.5-3.2c-0.4-0.3-0.9-0.7-1.4-1.1C32.3,7,31.7,6.6,31,6.2C30.8,6.6,30.6,6.9,30.4,7.3 M30.2,5.2
					c-0.2-1.9-0.5-3.6-0.9-5.1H5.5C6,1.6,6.4,3.3,6.6,5.2c0,0.3,0.1,0.5,0.1,0.8c0,0.2,0.1,0.5,0.1,0.7c0,0.5,0.1,1,0.1,1.5
					c0,0.2,0,0.5,0,0.8c0,0.2,0,0.4,0.1,0.6c0,0.5,0,0.9,0,1.4s-0.1,0.9-0.1,1.4c0,0.5-0.1,0.9-0.1,1.4c0,0.3,0,0.5-0.1,0.8
					c0,0.2,0,0.4,0,0.6c0,0.5-0.1,0.9-0.1,1.4c0,0.1-0.1,0.2-0.1,0.3c0,0.1,0,0.2,0,0.2c0,0.3-0.1,0.6-0.1,0.9
					c-0.1,0.4-0.1,0.9-0.1,1.4c0,0.1,0,0.2,0,0.4c0,0.3-0.1,0.7-0.2,1.1c0,0.4-0.1,0.9-0.1,1.4c0,0.3-0.1,0.6-0.1,0.9
					c0,0.1-0.1,0.3-0.1,0.5c-0.1,0.5-0.1,1.1-0.2,1.7c-0.3,3.1-0.3,5.7,0,7.9h23.7c-0.5-2.1-0.6-4.7-0.4-7.7c0-0.8,0.2-2.4,0.4-4.7
					c0.1-0.5,0.1-0.9,0.2-1.4s0.1-0.9,0.2-1.4c0-0.3,0-0.5,0.1-0.8c0-0.2,0-0.4,0-0.6l0.2-1.1l-2.9,3.9h0.5l-0.1,1.4h-1.4h-0.8
					c-2.8,1.7-4.6,2.7-5.2,2.9l0.2-0.9c0.2-0.7,0.4-1.4,0.6-2H21H9.4H8.5H8.1c0-0.4,0.1-0.7,0.1-1.1c0-0.1,0.1-0.2,0.1-0.4h0.2h0.9
					h12.2c0.2-0.5,0.3-0.9,0.4-1.4H8.5v-0.4c0-0.2,0.1-0.3,0.1-0.5c0-0.1,0-0.1,0-0.2s0-0.2,0-0.3h13.8c0.4-0.5,0.8-0.9,1.2-1.4H8.7
					c0-0.2,0.1-0.4,0.1-0.6c0-0.3,0-0.5,0-0.8h15.8c0.1-0.1,0.2-0.2,0.3-0.3c0.2-0.4,0.5-0.7,0.8-1.1H8.9C8.9,11.9,9,11.5,9,11h17.1
					h0.7c0.2-0.3,0.4-0.5,0.5-0.8c0.2-0.2,0.4-0.4,0.5-0.7H26H9c0-0.2,0-0.4,0-0.6c0-0.3,0-0.5-0.1-0.8h17.2h2.4v0.6
					c0.4-0.6,0.9-1.1,1.3-1.7c0.2-0.2,0.3-0.4,0.5-0.6C30.3,5.9,30.2,5.5,30.2,5.2 M26.1,5.2h2.2l0.1,1.4H26H8.9c0-0.2,0-0.4,0-0.7
					c0-0.2-0.1-0.5-0.1-0.8L26.1,5.2 M8,22.5c0-0.1,0-0.3,0-0.4h0.2h0.9h8.1h1.6l-0.2,1.4h-1.4H9.1H8.2H7.8
					C7.9,23.1,7.9,22.8,8,22.5 M31.8,5.3c0,0.1,0.2,0.2,0.6,0.5c0.2,0.1,0.5,0.3,0.9,0.6c0.6,0.5,1.2,1,1.8,1.5V7.8
					c0.4-0.5,0.8-1,1.2-1.6c-0.4-0.4-0.9-0.7-1.4-1c-0.4-0.3-0.7-0.6-1.1-0.9c-0.2-0.2-0.5-0.3-0.7-0.5c-0.3,0.4-0.6,0.8-1,1.2
					C32,5.1,31.9,5.2,31.8,5.3 M39.1,2.1c0-0.1,0-0.2,0-0.2l-2-1.8c-0.2,0-0.4-0.1-0.5-0.1c-0.3,0-0.5,0.1-0.7,0.3l0,0
					c0,0-0.1,0.1-0.1,0.2l0,0c-0.1,0.1-0.1,0.1-0.1,0.2c-0.7,0.7-1.3,1.5-1.9,2.2c0,0.1,0.2,0.2,0.6,0.5C34.7,3.7,35,3.9,35.2,4
					c0.6,0.5,1.3,1,1.9,1.5l0,0c0.1-0.1,0.1-0.2,0.2-0.2V5.2c0.4-0.6,0.8-1,1.1-1.4c0-0.1,0.1-0.1,0.1-0.2c0.2-0.3,0.3-0.4,0.4-0.5
					c0.2-0.2,0.3-0.4,0.3-0.8C39.1,2.2,39.1,2.2,39.1,2.1z"/>
			</g>
		</g>
	</g>
</g>
<g transform="matrix( 1.8195953369140625, 0, 0, 1.8195953369140625, 430.7,0.35) ">
	<g transform="matrix( 1, 0, 0, 1, 0,0) ">
		<g>
			<g id="Symbol_4_0_Layer0_0_FILL">
				<path class="st0" d="M41.4,3.3c0-2.2-1.1-3.3-3.2-3.3H8.6C6.4,0,5.3,1.1,5.3,3.3v20.3c0,2.2,1.1,3.2,3.3,3.3h12.1l-5.8,6.3
					l13.8-6.3h9.5c2.2,0,3.2-1.1,3.2-3.3L41.4,3.3 M35.5,5.8v1.7H11.2V5.8H35.5 M35.5,9.1v1.6H11.2V9.1H35.5 M35.5,15.6v1.6H11.2
					v-1.6H35.5 M35.5,18.8v1.6H11.2v-1.6H35.5 M35.5,12.3V14H11.2v-1.7H35.5z"/>
			</g>
		</g>
	</g>
</g>
<g transform="matrix( 1.8195953369140625, 0, 0, 1.8195953369140625, 613.65,0.45) ">
	<g transform="matrix( 1, 0, 0, 1, 0,0) ">
		<g>
			<g id="Symbol_6_0_Layer0_0_FILL">
				<path class="st0" d="M26.9,22.9L26.9,22.9L26.9,22.9C27,23,27,23,27,23c0,1.3,0,2.7,0,4c0,1.3,0,2.7,0,4c0,0.6,0,1.2,0,1.8
					c0.7,0,1.3,0,1.9,0c1.2,0,2.4,0,3.6,0c1.1,0,2.2,0,3.3,0c1,0,1.4-0.7,1.4-2v-0.1c0-1.3,0-2.7,0-4c0-1.3,0-2.7,0-4s0-2.6,0-3.9
					L23.9,6.7L10.7,18.9c0,1.3,0,2.6,0,3.9s0,2.7,0,4c0,1.3,0,2.7,0,4c0,0.1,0,0.1,0,0.1c-0.1,1.3,0.4,1.9,1.3,1.9
					c1.1,0,2.2,0,3.3,0c1.2,0,2.4,0,3.6,0c0.6,0,1.3,0,1.9,0c0-0.6,0-1.2,0-1.8c0-1.3,0-2.7,0-4c0-1.3,0-2.7,0-4.1l0,0h0.1v-0.1
					c1,0,2,0,3,0S25.9,22.9,26.9,22.9 M37.1,1c0-0.7-0.3-1-0.9-1h-4.8c-0.6,0-0.9,0.3-0.9,1v4.3l-4.8-4.5c-0.1,0-0.1-0.1-0.2-0.2
					c-1-0.9-2.2-0.9-3.5,0c0,0-0.1,0.1-0.1,0.2L5.3,16.5l2,2.8h0.1h0.1l0,0L23.9,3.8l0,0l16.4,15.5l0,0h0.1h0.1l1.9-2.8l-5.3-5V1z"
					/>
			</g>
		</g>
	</g>
</g>
<g transform="matrix( 1, 0, 0, 1, 727.85,44.85) ">
	<g transform="matrix( 1, 0, 0, 1, -727.85,-44.85) ">
		<g>
			<g id="Symbol_7_0_Layer0_0_FILL">
				<path class="st1" d="M751.5,83.8V81h2.9h2.8h2h6.4h1.9h1.1v0.8l0.2-0.1l0.7,0.1l0.7,0.8l0.6,0.7l1.1,1v-0.1H782v-0.4l0,0v-1.2
					h-6.6c0.1-1.5,0.7-2.9,1.8-4.1l0.6-0.5l-0.1-0.2l-0.8-0.6l-0.5-0.6c-0.2-0.2-0.2-0.5-0.2-0.8c-0.1-0.3,0-0.6,0.2-0.8l0,0
					l0.3-0.2c0.2-0.1,0.4-0.2,0.6-0.2c0.1,0,0.2,0,0.3,0.1c0.1-0.1,0.3-0.1,0.5-0.1s0.3,0.1,0.5,0.2L779,75l0.5,0.4l0.7,0.7l0.6,0.8
					c0.1,0,0.3,0,0.4,0c0.2,0,0.4-0.1,0.7-0.1v0.1h0.1l-0.1-32.1h-44.4v60.1H782v-0.8c-2.6-0.1-4.8-1.1-6.5-2.8h-3v-0.1l-1,1
					l-0.7,0.8l-0.8,0.6c-0.2,0.1-0.4,0.2-0.6,0.2c-0.2,0-0.4-0.1-0.5-0.2l-0.3-0.2c-0.2-0.2-0.2-0.5-0.2-0.9c0-0.2,0.1-0.5,0.2-0.8
					h0.2l0.2-0.4l0.8-0.7l1.6-1.4l0.1-0.2h1.9c-0.9-1.3-1.4-2.8-1.5-4.5h-0.5h-0.1h-0.1H769h-0.1h-0.5h-0.1h-0.8
					c-0.4,0-0.6-0.1-0.8-0.3c-0.2-0.2-0.3-0.5-0.3-0.8c0-0.4,0.1-0.6,0.3-0.8c0.2-0.2,0.4-0.3,0.8-0.3l4.2-0.1c0-0.5,0-1,0.1-1.4
					L772,90c0.3-1.2,0.8-2.3,1.5-3.2h-2.9l-0.1-0.1l-1.7-1.7l-0.6-0.6l-0.5-0.5l0,0h-8.4h-2.4h-2h-0.7L751.5,83.8 M768.1,70.2v2.7
					h-16.6v-2.7H768.1 M768.5,59.2v2.7h-17v-2.7H768.5 M742.7,57.4c0.2,0,0.3,0.1,0.5,0.2l1.8,1.9l2.1-2.2c0.1-0.1,0.3-0.1,0.4-0.1
					c0.2,0,0.4,0,0.5,0.1v0.1c0.1,0.1,0.2,0.3,0.2,0.4c0,0.2-0.1,0.4-0.2,0.5l-2.1,2.1l2,1.9c0.2,0.2,0.3,0.4,0.2,0.5
					c0,0.1-0.1,0.3-0.2,0.4c-0.1,0.1-0.2,0.2-0.5,0.3c-0.1,0-0.2-0.1-0.5-0.3l-1.9-1.9l-2.2,2.1c-0.1,0.1-0.2,0.2-0.5,0.2
					c-0.2,0-0.3-0.1-0.5-0.2v-0.1c-0.1-0.1-0.1-0.2-0.1-0.3c0-0.2,0.1-0.4,0.1-0.5l2.1-2.1l-1.8-1.8c-0.1-0.1-0.2-0.3-0.3-0.5
					c0.1-0.2,0.2-0.3,0.3-0.5C742.4,57.5,742.6,57.4,742.7,57.4 M748.2,67.8c0.1-0.1,0.3-0.2,0.5-0.2s0.3,0.1,0.5,0.2l0.1,0.1
					c0,0.1,0,0.2,0.1,0.4c0,0.2,0,0.4-0.1,0.5l-4.3,4.3c-0.6,0.5-1.3,0.5-1.9-0.1l-1.8-1.9c-0.1-0.1-0.2-0.3-0.2-0.4l0.2-0.4
					c0.1-0.1,0.2-0.2,0.3-0.2c0.2,0,0.4,0.1,0.5,0.2l1.9,1.8L748.2,67.8 M749.2,79.8c0,0.1,0,0.2,0.1,0.5c0,0.2,0,0.3-0.1,0.5
					l-4.3,4.2c-0.6,0.6-1.3,0.5-1.9-0.1l-1.8-1.8c-0.1-0.1-0.2-0.3-0.2-0.5l0.2-0.4c0.1-0.1,0.2-0.2,0.3-0.2c0.2,0,0.4,0.1,0.5,0.2
					l1.9,1.9l4.3-4.3c0.1-0.1,0.3-0.2,0.5-0.2C748.8,79.7,749,79.8,749.2,79.8L749.2,79.8z"/>
			</g>
		</g>
	</g>
	<g transform="matrix( 1, 0, 0, 1, -727.85,-44.85) ">
		<g>
			<g id="Symbol_7_0_Layer0_0_MEMBER_0_FILL">
				<path class="st2" d="M786.9,77.2l0.5-0.4c0.2-0.2,0.3-0.5,0.3-0.9s-0.1-0.6-0.3-0.8l-0.3-0.2c-0.1-0.1-0.3-0.2-0.5-0.2
					c0,0-0.1,0-0.2,0c-0.2,0-0.4,0.1-0.5,0.2l-0.8,0.7l-0.7,0.7l-0.7,0.8l-1.3-0.2c-0.2,0-0.3,0-0.5,0.1v5.8h4.7h1.7
					c-0.1-1.4-0.7-2.7-1.7-3.8c-0.1-0.1-0.1-0.2-0.2-0.2l-0.5-0.4l0.3-0.2l0.4-0.4L786.9,77.2 M793.4,83.2l-1.1,1h-6.5h-3.7v20
					c1.3,0,2.5-0.3,3.7-0.8c1-0.5,2-1.1,3-1.9h2.9v-0.1l1,1l0.8,0.8l0.8,0.6l0.6,0.2c0.1,0,0.2-0.1,0.5-0.2l0.3-0.3
					c0.2-0.2,0.3-0.4,0.3-0.8c0-0.3-0.1-0.6-0.3-0.8l-0.6-0.5l-0.8-0.6l-1.5-1.5l-0.1-0.1h-2c1-1.3,1.5-2.8,1.6-4.6h0.4h0.2h2.3h0.5
					h0.5h0.7c0.3,0,0.6-0.1,0.8-0.3c0.2-0.2,0.2-0.5,0.2-0.8c0-0.4-0.1-0.6-0.2-0.8c-0.3-0.2-0.5-0.3-0.8-0.3h-0.7h-0.5h-0.5h-2.3
					h-0.2h-0.2l-0.2-1.5c-0.1-0.4-0.2-0.7-0.2-0.8c-0.2-1.1-0.7-2.2-1.5-3.2h2.9v-0.1l1.6-1.7l0.7-0.8l0.5-0.4
					c0.2-0.2,0.3-0.5,0.3-0.9c0-0.2-0.1-0.5-0.3-0.7v-0.1L796,82c-0.1-0.1-0.3-0.1-0.5-0.1s-0.5,0-0.7,0.1l-0.6,0.7L793.4,83.2z"/>
			</g>
		</g>
	</g>
</g>
</svg>
