<?xml version="1.0" encoding="utf-8"?>
<!-- Generator: Adobe Illustrator 21.1.0, SVG Export Plug-In . SVG Version: 6.00 Build 0)  -->
<svg version="1.1" id="Layer_1" xmlns="http://www.w3.org/2000/svg" xmlns:xlink="http://www.w3.org/1999/xlink" x="0px" y="0px"
	 viewBox="0 0 100 100" style="enable-background:new 0 0 100 100;" xml:space="preserve">
<style type="text/css">
	.st0{fill:#FFFFFF;}
	.st1{fill:#FFFFFF;fill-opacity:0.9804;}
	.st2{fill:#FBFCFC;}
</style>
<g transform="matrix( 0.27130126953125, 0, 0, 0.27130126953125, 0,182.6) ">
	<g>
		
			<image style="overflow:visible;enable-background:new    ;" width="3885" height="236" id="Bitmap_1" xlink:href="8556982B2BF6FD22.png" >
		</image>
	</g>
</g>
<g transform="matrix( 2.4595947265625, 0, 0, 2.4583740234375, -432.45,20) ">
	<g transform="matrix( 1, 0, 0, 1, 0,0) ">
		<g>
			<g id="Symbol_1_0_Layer0_0_FILL">
				<path d="M33.8,28.8c1.4-1.8,3.4-3.1,6-4c-1.7-0.8-3.5-0.4-5.2,1.2c0.7-2.7,1.9-4.9,3.5-6.8c-1.9,0.7-3.6,2.6-5.2,5.5
					c-0.1-2.2-0.6-4.1-1.4-5.6V28L33.8,28.8 M4.8,26.3c-1.6-1.5-3.2-1.9-4.8-1.1c2.5,0.9,4.3,2.2,5.6,4l2-0.8v-8.9
					c-0.8,1.5-1.2,3.4-1.3,5.6c-1.5-3-3.1-4.8-4.8-5.6C3.1,21.4,4.2,23.7,4.8,26.3 M2.8,31.7c-0.5,0.3-1,0.5-1.4,0.8h37.9
					c-0.5-0.3-1-0.6-1.5-0.8c-4.8-2.7-10.7-4-17.5-4C13.5,27.7,7.6,29,2.8,31.7 M30.4,10.6c0-2.9-1.1-5.4-3.2-7.5S22.6,0,19.6,0
					S14.1,1.1,12,3.2c-2.1,2.1-3.1,4.6-3.1,7.5V28c3.4-1,7.2-1.5,11.4-1.5c3.7,0,7.1,0.4,10.2,1.2V10.6 M22.5,8.4h2.3
					c0.5,0,0.9,0.1,1.3,0.2c0.4,0.1,0.7,0.3,0.9,0.5c0.3,0.2,0.5,0.5,0.6,0.8c0.1,0.3,0.2,0.6,0.2,1c0,0.3-0.1,0.7-0.2,1
					c-0.1,0.3-0.3,0.6-0.6,0.8c-0.3,0.2-0.6,0.4-0.9,0.5c-0.4,0.1-0.8,0.2-1.3,0.2h-1.2v2.9h-1.1V8.4 M25.3,21v1H14.1v-1H25.3
					 M28.6,18.9v1H10.8v-1H28.6 M20.6,8.4v7.8h-1.1V8.4H20.6 M12.7,8.4h2.2c0.5,0,0.9,0.1,1.3,0.2c0.3,0.1,0.6,0.2,0.9,0.4
					c0.3,0.2,0.5,0.4,0.5,0.6c0.1,0.3,0.1,0.6,0.1,0.9c0,0.3,0,0.5-0.1,0.8c0,0.3-0.1,0.5-0.4,0.6c-0.2,0.2-0.4,0.4-0.6,0.5
					c-0.2,0.1-0.5,0.2-0.8,0.3c0.1,0.1,0.2,0.2,0.4,0.3l2.2,3.1h-0.9c-0.2,0-0.4-0.1-0.5-0.2l-2-2.8l-0.2-0.2
					c-0.1,0-0.2-0.1-0.3-0.1h-0.8v3.2h-1.1V8.4 M13.8,9.3v2.9h1.1c0.3,0,0.6,0,0.9-0.1c0.2-0.1,0.4-0.2,0.5-0.3
					c0.2-0.1,0.3-0.3,0.4-0.5c0.1-0.2,0.1-0.4,0.1-0.6c0-0.5-0.1-0.8-0.4-1.1c-0.3-0.2-0.8-0.3-1.4-0.3H13.8 M24.8,9.3h-1.2v3.1h1.2
					c0.3,0,0.6,0,0.8-0.1c0.2-0.1,0.4-0.2,0.5-0.3c0.2-0.2,0.3-0.3,0.4-0.5c0.1-0.2,0.1-0.5,0.1-0.7c0-0.5-0.1-0.9-0.5-1.2
					C26,9.4,25.5,9.3,24.8,9.3z"/>
			</g>
		</g>
	</g>
</g>
<g transform="matrix( 1.8195953369140625, 0, 0, 1.8195953369140625, -48.7,0.35) ">
	<g transform="matrix( 1.663116455078125, 0, 0, 1.663116455078125, -130.3,0) ">
		<g>
			<g id="Symbol_2_0_Layer0_0_FILL">
				<path d="M16.6,29.6l2.8,3.3l2.8-3.2V0H0v29.6l2.8,3.3l2.8-3.3l2.8,3.3l2.8-3.3l2.8,3.3L16.6,29.6 M18.8,4v1.4H3.7V4H18.8
					 M18.8,6.8v1.4H3.7V6.8H18.8 M18.8,9.5v1.4H3.7V9.5H18.8 M3.7,22v-1.4h8V22H3.7 M3.7,16.5v-1.4h15.1v1.4H3.7 M3.7,19.2v-1.4
					h15.1v1.4H3.7 M3.7,12.3h15.1v1.4H3.7V12.3z"/>
			</g>
		</g>
	</g>
</g>
<g transform="matrix( 2.9329071044921875, 0, 0, 2.9329071044921875, 0.3,0.35) ">
	<g transform="matrix( 1, 0, 0, 1, 0,0) ">
		<g>
			<g id="Symbol_3_0_Layer0_0_FILL">
				<path class="st0" d="M17.9,17.1L16.3,22l4-2.7L17.9,17.1 M25,7.3c-0.4,0.5-0.9,1.1-1.3,1.6c-0.5,0.6-1,1.3-1.5,2
					c-0.3,0.4-0.6,0.8-1,1.2c0,0-0.1,0.1-0.1,0.1c-0.4,0.5-0.7,0.9-1.1,1.4c-0.4,0.5-0.8,0.9-1.1,1.4c0,0.1-0.1,0.1-0.1,0.1
					l-0.8,0.9c2.3,1.6,3.4,2.4,3.4,2.2l1.1-1.4c0.5-0.6,1-1.3,1.5-1.9c0.2-0.3,0.4-0.6,0.6-0.9c0.6-0.8,1.1-1.6,1.8-2.4
					c0.8-1.1,1.7-2.1,2.5-3.2c-0.4-0.3-0.9-0.7-1.4-1c-0.6-0.5-1.3-0.9-1.9-1.3C25.5,6.6,25.3,6.9,25,7.3 M24.9,5.2
					c-0.2-1.9-0.5-3.6-0.9-5.1H0.2c0.5,1.5,0.9,3.2,1.1,5.1c0,0.3,0.1,0.5,0.1,0.8c0,0.2,0.1,0.5,0.1,0.7c0,0.5,0.1,1,0.1,1.5
					c0,0.2,0,0.5,0,0.8c0,0.2,0,0.4,0.1,0.6c0,0.5,0,0.9,0,1.4c0,0.5-0.1,0.9-0.1,1.4c0,0.5-0.1,0.9-0.1,1.4c0,0.3,0,0.5-0.1,0.8
					c0,0.2,0,0.4,0,0.6c0,0.5-0.1,0.9-0.1,1.4c0,0.1-0.1,0.2-0.1,0.3c0,0.1,0,0.2,0,0.2c0,0.3-0.1,0.6-0.1,0.9
					c-0.1,0.4-0.1,0.9-0.1,1.4c0,0.1,0,0.2,0,0.4c0,0.3-0.1,0.7-0.2,1.1c0,0.4-0.1,0.9-0.1,1.4c0,0.3-0.1,0.6-0.1,0.9
					c0,0.1,0,0.3,0,0.5c-0.1,0.5-0.1,1.1-0.2,1.7c-0.3,3.1-0.3,5.7,0,7.8H24c-0.5-2.1-0.6-4.6-0.4-7.6c0-0.8,0.2-2.4,0.4-4.7
					c0.1-0.5,0.1-0.9,0.2-1.4c0.1-0.5,0.1-0.9,0.2-1.4c0-0.3,0-0.5,0.1-0.8c0-0.2,0-0.4,0-0.6l0.2-1.1l-2.9,3.9h0.5l-0.1,1.4h-1.4
					H20c-2.8,1.7-4.5,2.7-5.1,2.9l0.2-0.9c0.2-0.7,0.4-1.4,0.6-2l0.1,0H4.1H3.2H2.8c0-0.4,0.1-0.7,0.1-1.1c0-0.1,0-0.2,0-0.4h0.2
					h0.9h12.2c0.2-0.5,0.3-0.9,0.4-1.4H3.2v-0.4c0-0.2,0.1-0.3,0.1-0.5c0-0.1,0-0.1,0-0.2c0-0.1,0-0.2,0-0.3H17
					c0.4-0.5,0.8-0.9,1.2-1.4H3.4c0-0.2,0.1-0.4,0.1-0.6c0-0.3,0-0.5,0-0.8h15.7c0.1-0.1,0.2-0.2,0.3-0.4c0.2-0.4,0.5-0.7,0.8-1.1
					H3.6c0-0.5,0.1-0.9,0.1-1.4h17.1h0.7c0.2-0.3,0.4-0.5,0.5-0.8c0.2-0.2,0.4-0.4,0.5-0.7h-1.8H3.7c0-0.2,0-0.4,0-0.6
					c0-0.3,0-0.5-0.1-0.8h17.2h2.4v0.6c0.4-0.6,0.9-1.1,1.3-1.7c0.2-0.2,0.3-0.4,0.5-0.6C25,5.9,24.9,5.5,24.9,5.2 M20.8,5.2H23
					l0.1,1.4h-2.4H3.6c0-0.2,0-0.4,0-0.7c0-0.2-0.1-0.5-0.1-0.8H20.8 M2.7,22.5c0-0.1,0-0.3,0-0.4h0.2h0.9h8.1h1.6l-0.2,1.4h-1.4
					H3.8H2.9H2.5C2.6,23.1,2.6,22.8,2.7,22.5 M26.5,5.3c0,0.1,0.2,0.2,0.6,0.5c0.2,0.1,0.5,0.3,0.9,0.6c0.6,0.5,1.2,1,1.8,1.5V7.8
					c0.4-0.5,0.8-1,1.2-1.6c-0.4-0.4-0.9-0.7-1.4-1c-0.4-0.3-0.7-0.6-1.1-0.9c-0.2-0.2-0.5-0.3-0.7-0.4c-0.3,0.4-0.6,0.8-1,1.1
					C26.6,5.1,26.6,5.2,26.5,5.3 M33.8,2.1c0-0.1,0-0.2,0-0.2l-1.9-1.8C31.6,0.1,31.4,0,31.3,0c-0.3,0-0.5,0.1-0.7,0.3h0
					c0,0-0.1,0.1-0.1,0.1h0c-0.1,0.1-0.1,0.1-0.1,0.2c-0.7,0.7-1.3,1.5-1.9,2.2c0,0.1,0.2,0.2,0.6,0.5c0.3,0.3,0.6,0.5,0.8,0.6
					c0.6,0.5,1.3,1,1.9,1.4l0,0c0.1-0.1,0.1-0.2,0.2-0.2l0-0.1c0.4-0.6,0.8-1,1.1-1.3c0-0.1,0.1-0.1,0.1-0.2
					c0.2-0.3,0.3-0.4,0.4-0.5c0.2-0.2,0.3-0.4,0.3-0.8C33.8,2.2,33.8,2.2,33.8,2.1z"/>
			</g>
		</g>
	</g>
</g>
<g transform="matrix( 1.8195953369140625, 0, 0, 1.8195953369140625, 430.7,0.35) ">
	<g transform="matrix( 1, 0, 0, 1, 0,0) ">
		<g>
			<g id="Symbol_4_0_Layer0_0_FILL">
				<path class="st0" d="M36.1,3.3C36.1,1.1,35,0,32.9,0H3.3C1.1,0,0,1.1,0,3.3v20.3c0,2.2,1.1,3.2,3.3,3.3h12.1l-5.8,6.3l13.8-6.3
					h9.5c2.2,0,3.2-1.1,3.2-3.3V3.3 M30.2,5.8v1.7H5.9V5.8H30.2 M30.2,9.1v1.6H5.9V9.1H30.2 M30.2,15.6v1.6H5.9v-1.6H30.2
					 M30.2,18.8v1.6H5.9v-1.6H30.2 M30.2,12.3V14H5.9v-1.7H30.2z"/>
			</g>
		</g>
	</g>
</g>
<g transform="matrix( 1.8195953369140625, 0, 0, 1.8195953369140625, 613.65,0.45) ">
	<g transform="matrix( 1, 0, 0, 1, 0,0) ">
		<g>
			<g id="Symbol_6_0_Layer0_0_FILL">
				<path class="st0" d="M21.6,22.9L21.6,22.9L21.6,22.9c0.1,0.1,0.1,0.1,0.1,0.1c0,1.3,0,2.7,0,4c0,1.3,0,2.7,0,4
					c0,0.6,0,1.2,0,1.8c0.7,0,1.3,0,1.9,0c1.2,0,2.4,0,3.6,0c1.1,0,2.2,0,3.3,0c1,0,1.4-0.7,1.4-2c0,0,0-0.1,0-0.1c0-1.3,0-2.7,0-4
					c0-1.3,0-2.7,0-4c0-1.3,0-2.6,0-3.9L18.6,6.7L5.4,18.9c0,1.3,0,2.6,0,3.9c0,1.3,0,2.7,0,4c0,1.3,0,2.7,0,4c0,0.1,0,0.1,0,0.1
					c-0.1,1.3,0.4,1.9,1.3,1.9c1.1,0,2.2,0,3.3,0c1.2,0,2.4,0,3.6,0c0.6,0,1.3,0,1.9,0c0-0.6,0-1.2,0-1.8c0-1.3,0-2.7,0-4
					c0-1.3,0-2.7,0-4.1v0h0.1v-0.1c1,0,2,0,3,0S20.6,22.9,21.6,22.9 M31.8,1c0-0.7-0.3-1-0.9-1h-4.8c-0.6,0-0.9,0.3-0.9,1v4.3
					l-4.8-4.5c-0.1,0-0.1-0.1-0.2-0.2c-1-0.9-2.2-0.9-3.5,0c0,0-0.1,0.1-0.1,0.2L0,16.5l2,2.8c0,0,0.1,0,0.1,0c0,0,0.1,0,0.1,0h0
					L18.6,3.8v0l16.4,15.5h0c0,0,0.1,0,0.1,0c0,0,0.1,0,0.1,0l1.9-2.8l-5.3-5V1z"/>
			</g>
		</g>
	</g>
</g>
<g transform="matrix( 1, 0, 0, 1, 727.85,44.85) ">
	<g transform="matrix( 1, 0, 0, 1, -727.85,-44.85) ">
		<g>
			<g id="Symbol_7_0_Layer0_0_FILL">
				<path class="st1" d="M741.8,83.8v-2.8h2.9h2.8h2h6.4h1.9h1.1v0.8l0.2-0.1l0.7,0.1l0.7,0.8l0.6,0.7l1.1,1v-0.1h10.1v-0.4h0v-1.2
					h-6.6c0.1-1.5,0.7-2.9,1.8-4.1l0.6-0.5l-0.1-0.2l-0.8-0.6l-0.5-0.6c-0.2-0.2-0.2-0.5-0.2-0.8c-0.1-0.3,0-0.6,0.2-0.8v0l0.3-0.2
					c0.2-0.1,0.4-0.2,0.6-0.2c0.1,0,0.2,0,0.3,0.1c0.1-0.1,0.3-0.1,0.5-0.1c0.2,0,0.3,0.1,0.5,0.2l0.4,0.2l0.5,0.4l0.7,0.7l0.6,0.8
					c0.1,0,0.3,0,0.4,0c0.2,0,0.4-0.1,0.7-0.1v0.1c0,0,0.1,0,0.1,0l-0.1-32.1h-44.4v60.1h44.5v-0.8c-2.6-0.1-4.8-1.1-6.5-2.8h-3
					v-0.1l-1,1l-0.7,0.8l-0.8,0.6c-0.2,0.1-0.4,0.2-0.6,0.2c-0.2,0-0.4-0.1-0.5-0.2l-0.3-0.2c-0.2-0.2-0.2-0.5-0.2-0.9
					c0-0.2,0.1-0.5,0.2-0.8l0.2,0l0.2-0.4l0.8-0.7l1.6-1.4l0.1-0.2h1.9c-0.9-1.3-1.4-2.8-1.5-4.5h-0.5h-0.1h-0.1h-2.2h-0.1h-0.5
					h-0.1h-0.8c-0.4,0-0.6-0.1-0.8-0.3c-0.2-0.2-0.3-0.5-0.3-0.8c0-0.4,0.1-0.6,0.3-0.8c0.2-0.2,0.4-0.3,0.8-0.3l4.2-0.1
					c0-0.5,0-1,0.1-1.4l0.2-0.8c0.3-1.2,0.8-2.3,1.5-3.2h-2.9l-0.1-0.1l-1.7-1.7l-0.6-0.6l-0.5-0.5v0h-8.4h-2.4h-2h-0.7H741.8
					 M758.4,70.2v2.7h-16.6v-2.7H758.4 M758.8,59.2v2.7h-17v-2.7H758.8 M733,57.4c0.2,0,0.3,0.1,0.5,0.2l1.8,1.9l2.1-2.2
					c0.1-0.1,0.3-0.1,0.4-0.1c0.2,0,0.4,0,0.5,0.1v0.1c0.1,0.1,0.2,0.3,0.2,0.4c0,0.2-0.1,0.4-0.2,0.5l-2.1,2.1l2,1.9
					c0.2,0.2,0.3,0.4,0.2,0.5c0,0.1-0.1,0.3-0.2,0.4c-0.1,0.1-0.2,0.2-0.5,0.3c-0.1,0-0.2-0.1-0.5-0.3l-1.9-1.9l-2.2,2.1
					c-0.1,0.1-0.2,0.2-0.5,0.2c-0.2,0-0.3-0.1-0.5-0.2v-0.1c-0.1-0.1-0.1-0.2-0.1-0.3c0-0.2,0.1-0.4,0.1-0.5l2.1-2.1l-1.8-1.8
					c-0.1-0.1-0.2-0.3-0.3-0.5c0.1-0.2,0.2-0.3,0.3-0.5C732.7,57.5,732.9,57.4,733,57.4 M738.5,67.8c0.1-0.1,0.3-0.2,0.5-0.2
					c0.2,0,0.3,0.1,0.5,0.2l0.1,0.1c0,0.1,0,0.2,0.1,0.4c0,0.2,0,0.4-0.1,0.5l-4.3,4.3c-0.6,0.5-1.3,0.5-1.9-0.1l-1.8-1.9
					c-0.1-0.1-0.2-0.3-0.2-0.4l0.2-0.4c0.1-0.1,0.2-0.2,0.3-0.2c0.2,0,0.4,0.1,0.5,0.2l1.9,1.8L738.5,67.8 M739.5,79.8
					c0,0.1,0,0.2,0.1,0.5c0,0.2,0,0.3-0.1,0.5l-4.3,4.2c-0.6,0.6-1.3,0.5-1.9-0.1l-1.8-1.8c-0.1-0.1-0.2-0.3-0.2-0.5l0.2-0.4
					c0.1-0.1,0.2-0.2,0.3-0.2c0.2,0,0.4,0.1,0.5,0.2l1.9,1.9l4.3-4.3c0.1-0.1,0.3-0.2,0.5-0.2C739.1,79.7,739.3,79.8,739.5,79.8
					L739.5,79.8z"/>
			</g>
		</g>
	</g>
	<g transform="matrix( 1, 0, 0, 1, -727.85,-44.85) ">
		<g>
			<g id="Symbol_7_0_Layer0_0_MEMBER_0_FILL">
				<path class="st2" d="M777.2,77.2l0.5-0.4c0.2-0.2,0.3-0.5,0.3-0.9c0-0.4-0.1-0.6-0.3-0.8l-0.3-0.2c-0.1-0.1-0.3-0.2-0.5-0.2
					c0,0-0.1,0-0.2,0c-0.2,0-0.4,0.1-0.5,0.2l-0.8,0.7l-0.7,0.7l-0.7,0.8l-1.3-0.2c-0.2,0-0.3,0-0.5,0.1v5.8h4.7h1.7
					c-0.1-1.4-0.7-2.7-1.7-3.8c-0.1-0.1-0.1-0.2-0.2-0.2l-0.5-0.4l0.3-0.2l0.4-0.4L777.2,77.2 M783.7,83.2l-1.1,1h-6.5h-3.7v20
					c1.3,0,2.5-0.3,3.7-0.8c1-0.5,2-1.1,3-1.9h2.9v-0.1l1,1l0.8,0.8l0.8,0.6l0.6,0.2c0.1,0,0.2-0.1,0.5-0.2l0.3-0.3
					c0.2-0.2,0.3-0.4,0.3-0.8c0-0.3-0.1-0.6-0.3-0.8l-0.6-0.5l-0.8-0.6l-1.5-1.5l-0.1-0.1h-2c1-1.3,1.5-2.8,1.6-4.6h0.4h0.2h2.3h0.5
					h0.5h0.7c0.3,0,0.6-0.1,0.8-0.3c0.2-0.2,0.2-0.5,0.2-0.8c0-0.4-0.1-0.6-0.2-0.8c-0.3-0.2-0.5-0.3-0.8-0.3h-0.7h-0.5h-0.5h-2.3
					H783h-0.2l-0.2-1.5c-0.1-0.4-0.2-0.7-0.2-0.8c-0.2-1.1-0.7-2.2-1.5-3.2h2.9v-0.1l1.6-1.7l0.7-0.8l0.5-0.4
					c0.2-0.2,0.3-0.5,0.3-0.9c0-0.2-0.1-0.5-0.3-0.7v-0.1l-0.3-0.2c-0.1-0.1-0.3-0.1-0.5-0.1c-0.2,0-0.5,0-0.7,0.1l-0.6,0.7
					L783.7,83.2z"/>
			</g>
		</g>
	</g>
</g>
</svg>
