<svg width="272" height="81" viewBox="0 0 272 81" fill="none" xmlns="http://www.w3.org/2000/svg">
<g clip-path="url(#clip0_1808_384)">
<path d="M270.285 71.0599C270.285 72.0712 270.085 73.0726 269.696 74.0068C269.308 74.941 268.738 75.7898 268.02 76.5045C267.302 77.2192 266.449 77.7859 265.511 78.1722C264.573 78.5585 263.568 78.7567 262.553 78.7557H9.53463C7.4839 78.7578 5.51629 77.9483 4.0645 76.5051C2.61272 75.0619 1.79564 73.1033 1.79297 71.0599V9.68828C1.79564 7.64398 2.61239 5.6843 4.06389 4.23952C5.51538 2.79473 7.48297 1.98295 9.53463 1.98242H262.551C263.567 1.98242 264.572 2.18175 265.51 2.56903C266.449 2.95632 267.301 3.52396 268.019 4.23954C268.737 4.95512 269.306 5.80462 269.695 6.73953C270.083 7.67443 270.283 8.67643 270.283 9.68828L270.285 71.0599Z" fill="white"/>
<path d="M262.555 80.5463H9.53642C7.01016 80.5457 4.58729 79.5466 2.79944 77.7682C1.01159 75.9898 0.00480678 73.5773 0 71.0601L0 9.69053C0.00373724 7.17208 1.00986 4.75794 2.79765 2.97769C4.58544 1.19744 7.00891 0.196462 9.53642 0.194336L262.553 0.194336C265.08 0.197522 267.503 1.19884 269.291 2.97886C271.078 4.75888 272.085 7.17241 272.089 9.69053V71.0601C272.093 76.2925 267.808 80.5463 262.555 80.5463Z" fill="#A6A6A6"/>
<path d="M270.285 71.0599C270.285 72.0712 270.085 73.0726 269.696 74.0068C269.308 74.941 268.738 75.7898 268.02 76.5045C267.302 77.2192 266.449 77.7859 265.511 78.1722C264.573 78.5585 263.568 78.7567 262.553 78.7557H9.53463C7.4839 78.7578 5.51629 77.9483 4.0645 76.5051C2.61272 75.0619 1.79564 73.1033 1.79297 71.0599V9.68828C1.79564 7.64398 2.61239 5.6843 4.06389 4.23952C5.51538 2.79473 7.48297 1.98295 9.53463 1.98242H262.551C263.567 1.98242 264.572 2.18175 265.51 2.56903C266.449 2.95632 267.301 3.52396 268.019 4.23954C268.737 4.95512 269.306 5.80462 269.695 6.73953C270.083 7.67443 270.283 8.67643 270.283 9.68828L270.285 71.0599Z" fill="black"/>
<path d="M60.7565 39.9474C60.6981 33.4712 66.0783 30.3206 66.3243 30.1739C63.2773 25.7473 58.5544 25.1425 56.8948 25.0943C52.9282 24.6783 49.0805 27.4593 47.0599 27.4593C44.999 27.4593 41.8874 25.1345 38.5338 25.2028C34.2183 25.2691 30.1811 27.7587 27.9669 31.6247C23.3973 39.5073 26.8054 51.0912 31.1834 57.4629C33.3734 60.5854 35.9324 64.0676 39.282 63.9451C42.5589 63.8124 43.783 61.8654 47.7375 61.8654C51.6557 61.8654 52.8052 63.9451 56.2213 63.8667C59.7382 63.8124 61.9524 60.7321 64.0658 57.5835C66.5966 54.0088 67.6129 50.4844 67.6533 50.3036C67.5726 50.2754 60.8251 47.7075 60.7565 39.9474ZM54.3035 20.9028C56.066 18.7065 57.2719 15.7186 56.9371 12.6865C54.3862 12.799 51.1959 14.4447 49.3588 16.5927C47.7335 18.4855 46.2815 21.5879 46.6566 24.5055C49.5222 24.7185 52.4644 23.0648 54.3035 20.9028Z" fill="white"/>
<path d="M262.556 0.194336H127.031L180.114 80.5463H262.556C265.082 80.5441 267.505 79.5437 269.293 77.7643C271.081 75.985 272.087 73.5718 272.092 71.0541V9.69053C272.088 7.17224 271.082 4.75841 269.294 2.97828C267.506 1.19814 265.083 0.196992 262.556 0.194336Z" fill="url(#paint0_linear_1808_384)"/>
<path d="M108.219 50.1089H103.639L101.131 42.2544H92.4108L90.0212 50.1089H85.5625L94.2036 23.3685H99.5394L108.219 50.1089ZM100.374 38.959L98.1056 31.9766C97.8657 31.2632 97.414 29.5834 96.7525 26.9391H96.6719C96.4057 28.0764 95.9802 29.7562 95.3974 31.9766L93.167 38.959H100.374ZM130.397 40.231C130.397 43.5102 129.504 46.1023 127.715 48.0051C126.114 49.699 124.124 50.545 121.75 50.545C119.187 50.545 117.344 49.6347 116.225 47.8102V57.9273H111.925V37.1647C111.925 35.1051 111.871 32.9933 111.766 30.8272H115.547L115.787 33.8834H115.868C117.301 31.5807 119.477 30.4294 122.397 30.4294C124.68 30.4294 126.586 31.3275 128.11 33.1259C129.633 34.9283 130.397 37.2953 130.397 40.231ZM126.017 40.3877C126.017 38.511 125.594 36.9638 124.743 35.7441C123.813 34.4762 122.565 33.8412 121 33.8412C119.939 33.8412 118.975 34.1949 118.114 34.8921C117.251 35.5954 116.686 36.5137 116.422 37.651C116.304 38.0763 116.237 38.514 116.223 38.955V42.172C116.223 43.5725 116.654 44.756 117.517 45.7245C118.38 46.689 119.502 47.1733 120.881 47.1733C122.5 47.1733 123.761 46.5484 124.662 45.3086C125.565 44.0648 126.017 42.4252 126.017 40.3877ZM152.654 40.231C152.654 43.5102 151.761 46.1023 149.972 48.0051C148.369 49.699 146.381 50.545 144.005 50.545C141.442 50.545 139.599 49.6347 138.48 47.8102V57.9273H134.18V37.1647C134.18 35.1051 134.126 32.9933 134.021 30.8272H137.802L138.042 33.8834H138.123C139.554 31.5807 141.73 30.4294 144.652 30.4294C146.933 30.4294 148.839 31.3275 150.367 33.1259C151.888 34.9283 152.654 37.2953 152.654 40.231ZM148.272 40.3877C148.272 38.511 147.847 36.9638 146.996 35.7441C146.066 34.4762 144.822 33.8412 143.257 33.8412C142.196 33.8412 141.232 34.1949 140.367 34.8921C139.504 35.5954 138.941 36.5137 138.677 37.651C138.546 38.1814 138.476 38.6134 138.476 38.955V42.172C138.476 43.5725 138.909 44.756 139.768 45.7245C140.631 46.687 141.753 47.1733 143.136 47.1733C144.757 47.1733 146.018 46.5484 146.917 45.3086C147.82 44.0648 148.272 42.4252 148.272 40.3877ZM177.539 42.608C177.539 44.8846 176.74 46.7352 175.153 48.1639C173.407 49.7231 170.969 50.5048 167.843 50.5048C164.955 50.5048 162.64 49.9502 160.894 48.839L161.888 45.2684C163.774 46.3816 165.845 46.9362 168.099 46.9362C169.721 46.9362 170.981 46.5705 171.88 45.8451C172.782 45.1177 173.237 44.1452 173.237 42.9315C173.237 41.8445 172.86 40.9342 172.12 40.1928C171.376 39.4534 170.146 38.7641 168.418 38.1312C163.719 36.3851 161.368 33.8312 161.368 30.4716C161.368 28.2773 162.199 26.481 163.856 25.0764C165.514 23.6739 167.712 22.9727 170.447 22.9727C172.889 22.9727 174.923 23.3966 176.539 24.2426L175.46 27.7348C173.939 26.915 172.223 26.5051 170.303 26.5051C168.787 26.5051 167.597 26.8768 166.746 27.6163C166.03 28.2773 165.667 29.0831 165.667 30.0395C165.667 31.0945 166.081 31.9705 166.903 32.6577C167.617 33.2907 168.92 33.9799 170.803 34.7193C173.114 35.6476 174.812 36.7287 175.899 37.9704C176.994 39.2122 177.539 40.7614 177.539 42.608ZM191.79 34.0422H187.051V43.4037C187.051 45.7848 187.886 46.9723 189.56 46.9723C190.328 46.9723 190.965 46.908 191.469 46.7734L191.588 50.0266C190.741 50.342 189.626 50.5008 188.245 50.5008C186.547 50.5008 185.22 49.9844 184.262 48.9516C183.308 47.9187 182.828 46.1887 182.828 43.7534V34.0341H180.005V30.8192H182.828V27.2887L187.051 26.0188V30.8192H191.79V34.0422ZM213.13 40.3093C213.13 43.2731 212.279 45.7065 210.581 47.6093C208.804 49.5684 206.441 50.545 203.494 50.545C200.651 50.545 198.39 49.6066 196.704 47.7319C195.019 45.8531 194.176 43.4861 194.176 40.6308C194.176 37.6429 195.047 35.1955 196.783 33.2927C198.523 31.3878 200.867 30.4354 203.813 30.4354C206.652 30.4354 208.933 31.3758 210.659 33.2525C212.309 35.073 213.13 37.4239 213.13 40.3093ZM208.673 40.4078C208.673 38.6416 208.29 37.1265 207.521 35.8586C206.62 34.3275 205.329 33.5619 203.658 33.5619C201.935 33.5619 200.615 34.3275 199.715 35.8586C198.945 37.1265 198.562 38.6677 198.562 40.4882C198.562 42.2564 198.945 43.7755 199.715 45.0393C200.645 46.5705 201.942 47.336 203.621 47.336C205.265 47.336 206.553 46.5544 207.485 45.0012C208.276 43.7031 208.673 42.178 208.673 40.4078ZM227.11 34.5947C226.663 34.5143 226.21 34.4746 225.755 34.4762C224.243 34.4762 223.073 35.0428 222.251 36.1841C221.537 37.1888 221.178 38.4587 221.178 39.9919V50.1089H216.878V36.8995C216.882 34.8754 216.84 32.8514 216.753 30.8292H220.498L220.655 34.5184H220.774C221.23 33.2505 221.944 32.2277 222.924 31.4622C223.821 30.7932 224.911 30.4309 226.032 30.4294C226.429 30.4294 226.788 30.4575 227.106 30.5077L227.11 34.5947ZM246.339 39.5558C246.35 40.2071 246.297 40.8578 246.181 41.4989H233.283C233.332 43.4037 233.957 44.8625 235.155 45.8672C236.242 46.7634 237.647 47.2135 239.373 47.2135C241.283 47.2135 243.025 46.9121 244.592 46.3032L245.266 49.2751C243.435 50.0708 241.273 50.4666 238.778 50.4666C235.778 50.4666 233.422 49.5865 231.708 47.8303C229.998 46.0722 229.141 43.7092 229.141 40.7494C229.141 37.8439 229.938 35.4226 231.533 33.4916C233.203 31.43 235.459 30.3992 238.298 30.3992C241.087 30.3992 243.199 31.43 244.633 33.4916C245.768 35.1252 246.339 37.1506 246.339 39.5558ZM242.239 38.4447C242.269 37.1727 241.987 36.0776 241.404 35.1513C240.66 33.9578 239.514 33.363 237.98 33.363C236.574 33.363 235.429 33.9437 234.558 35.1091C233.842 36.0354 233.416 37.1486 233.285 38.4406L242.239 38.4447Z" fill="white"/>
</g>
<defs>
<linearGradient id="paint0_linear_1808_384" x1="199.559" y1="80.7596" x2="199.559" y2="-209.028" gradientUnits="userSpaceOnUse">
<stop stop-color="#1A1A1A" stop-opacity="0.1"/>
<stop offset="0.123" stop-color="#212121" stop-opacity="0.151"/>
<stop offset="0.308" stop-color="#353535" stop-opacity="0.227"/>
<stop offset="0.532" stop-color="#575757" stop-opacity="0.318"/>
<stop offset="0.783" stop-color="#858585" stop-opacity="0.421"/>
<stop offset="1" stop-color="#B3B3B3" stop-opacity="0.51"/>
</linearGradient>
<clipPath id="clip0_1808_384">
<rect width="272" height="81" fill="white"/>
</clipPath>
</defs>
</svg>
