<svg width="226" height="67" viewBox="0 0 226 67" fill="none" xmlns="http://www.w3.org/2000/svg">
<g clip-path="url(#clip0_1808_329)">
<path d="M217.63 66.8647H8.37037C3.68296 66.8647 0 63.1946 0 58.5235V8.47686C0 3.80583 3.68296 0.135742 8.37037 0.135742H217.63C222.317 0.135742 226 3.80583 226 8.47686V58.5235C226 63.1946 222.317 66.8647 217.63 66.8647Z" fill="black"/>
<path d="M217.63 1.47032C221.48 1.47032 224.661 4.63994 224.661 8.47686V58.5235C224.661 62.3605 221.48 65.5301 217.63 65.5301H8.37037C4.52 65.5301 1.33926 62.3605 1.33926 58.5235V8.47686C1.33926 4.63994 4.52 1.47032 8.37037 1.47032H217.63ZM217.63 0.135742H8.37037C3.68296 0.135742 0 3.97265 0 8.47686V58.5235C0 63.1946 3.68296 66.8647 8.37037 66.8647H217.63C222.317 66.8647 226 63.1946 226 58.5235V8.47686C226 3.97265 222.317 0.135742 217.63 0.135742Z" fill="#A6A6A6"/>
<path d="M79.3491 17.1516C79.3491 18.4862 79.0143 19.654 78.1773 20.4881C77.1728 21.489 76.001 21.9895 74.4943 21.9895C72.9876 21.9895 71.8158 21.489 70.8114 20.4881C69.8069 19.4871 69.3047 18.3194 69.3047 16.818C69.3047 15.3166 69.8069 14.1488 70.8114 13.1479C71.8158 12.147 72.9876 11.6465 74.4943 11.6465C75.1639 11.6465 75.8336 11.8133 76.5032 12.147C77.1728 12.4806 77.6751 12.8142 78.0099 13.3147L77.1728 14.1488C76.5032 13.3147 75.6662 12.9811 74.4943 12.9811C73.4899 12.9811 72.4854 13.3147 71.8158 14.1488C70.9788 14.8161 70.6439 15.817 70.6439 16.9848C70.6439 18.1526 70.9788 19.1535 71.8158 19.8208C72.6528 20.4881 73.4899 20.9885 74.4943 20.9885C75.6662 20.9885 76.5032 20.6549 77.3402 19.8208C77.8425 19.3203 78.1773 18.653 78.1773 17.8189H74.4943V16.4843H79.3491V17.1516ZM87.0499 12.9811H82.5299V16.1507H86.7151V17.3184H82.5299V20.4881H87.0499V21.8226H81.1906V11.8133H87.0499V12.9811ZM92.5743 21.8226H91.2351V12.9811H88.3891V11.8133H95.4202V12.9811H92.5743V21.8226ZM100.275 21.8226V11.8133H101.614V21.8226H100.275ZM107.306 21.8226H105.967V12.9811H103.121V11.8133H109.985V12.9811H107.139V21.8226H107.306ZM123.21 20.4881C122.205 21.489 121.034 21.9895 119.527 21.9895C118.02 21.9895 116.848 21.489 115.844 20.4881C114.839 19.4871 114.337 18.3194 114.337 16.818C114.337 15.3166 114.839 14.1488 115.844 13.1479C116.848 12.147 118.02 11.6465 119.527 11.6465C121.034 11.6465 122.205 12.147 123.21 13.1479C124.214 14.1488 124.717 15.3166 124.717 16.818C124.717 18.3194 124.214 19.4871 123.21 20.4881ZM116.848 19.654C117.518 20.3212 118.522 20.8217 119.527 20.8217C120.531 20.8217 121.536 20.4881 122.205 19.654C122.875 18.9867 123.377 17.9857 123.377 16.818C123.377 15.6502 123.042 14.6493 122.205 13.982C121.536 13.3147 120.531 12.8142 119.527 12.8142C118.522 12.8142 117.518 13.1479 116.848 13.982C116.179 14.6493 115.677 15.6502 115.677 16.818C115.677 17.9857 116.011 18.9867 116.848 19.654ZM126.558 21.8226V11.8133H128.065L132.92 19.654V11.8133H134.259V21.8226H132.92L127.73 13.6484V21.8226H126.558Z" fill="white" stroke="white" stroke-width="1.18519" stroke-miterlimit="10"/>
<path d="M114.005 36.8406C109.987 36.8406 106.806 39.8434 106.806 44.014C106.806 48.0177 109.987 51.1874 114.005 51.1874C118.022 51.1874 121.203 48.1846 121.203 44.014C121.203 39.6766 118.022 36.8406 114.005 36.8406ZM114.005 48.1846C111.828 48.1846 109.987 46.3495 109.987 43.8472C109.987 41.3448 111.828 39.5098 114.005 39.5098C116.181 39.5098 118.022 41.178 118.022 43.8472C118.022 46.3495 116.181 48.1846 114.005 48.1846ZM98.4358 36.8406C94.418 36.8406 91.2373 39.8434 91.2373 44.014C91.2373 48.0177 94.418 51.1874 98.4358 51.1874C102.454 51.1874 105.634 48.1846 105.634 44.014C105.634 39.6766 102.454 36.8406 98.4358 36.8406ZM98.4358 48.1846C96.2595 48.1846 94.418 46.3495 94.418 43.8472C94.418 41.3448 96.2595 39.5098 98.4358 39.5098C100.612 39.5098 102.454 41.178 102.454 43.8472C102.454 46.3495 100.612 48.1846 98.4358 48.1846ZM79.8536 39.0093V42.0121H87.0521C86.8847 43.6804 86.2151 45.0149 85.378 45.8491C84.3736 46.85 82.6995 48.0177 79.8536 48.0177C75.3336 48.0177 71.9854 44.5145 71.9854 40.0103C71.9854 35.5061 75.501 32.0028 79.8536 32.0028C82.1973 32.0028 84.0388 33.0037 85.378 34.1715L87.5543 32.0028C85.7128 30.3346 83.3691 29 80.021 29C73.9943 29 68.8047 34.0047 68.8047 40.0103C68.8047 46.0159 73.9943 51.0205 80.021 51.0205C83.3691 51.0205 85.7128 50.0196 87.7217 47.8509C89.7306 45.849 90.4002 43.0131 90.4002 40.8444C90.4002 40.1771 90.4002 39.5098 90.2328 39.0093H79.8536ZM155.857 41.3448C155.187 39.6766 153.513 36.8406 149.83 36.8406C146.147 36.8406 143.134 39.6766 143.134 44.014C143.134 48.0177 146.147 51.1874 150.165 51.1874C153.345 51.1874 155.354 49.1855 156.024 48.0177L153.68 46.3495C152.843 47.5173 151.839 48.3514 150.165 48.3514C148.491 48.3514 147.486 47.6841 146.649 46.1827L156.191 42.179L155.857 41.3448ZM146.147 43.6804C146.147 41.0112 148.323 39.5098 149.83 39.5098C151.002 39.5098 152.174 40.1771 152.508 41.0112L146.147 43.6804ZM138.279 50.5201H141.46V29.6673H138.279V50.5201ZM133.257 38.342C132.42 37.5079 131.08 36.6738 129.406 36.6738C125.891 36.6738 122.542 39.8434 122.542 43.8472C122.542 47.8509 125.723 50.8537 129.406 50.8537C131.08 50.8537 132.42 50.0196 133.089 49.1855H133.257V50.1864C133.257 52.8556 131.75 54.357 129.406 54.357C127.565 54.357 126.225 53.0224 125.891 51.8547L123.212 53.0224C124.049 54.8575 126.058 57.193 129.574 57.193C133.257 57.193 136.27 55.0243 136.27 49.8528V37.1743H133.257V38.342ZM129.574 48.1846C127.397 48.1846 125.556 46.3495 125.556 43.8472C125.556 41.3448 127.397 39.5098 129.574 39.5098C131.75 39.5098 133.424 41.3448 133.424 43.8472C133.424 46.3495 131.75 48.1846 129.574 48.1846ZM170.421 29.6673H162.888V50.5201H166.068V42.6794H170.421C173.937 42.6794 177.285 40.1771 177.285 36.1734C177.285 32.1696 173.937 29.6673 170.421 29.6673ZM170.588 39.6766H166.068V32.5033H170.588C172.932 32.5033 174.271 34.5051 174.271 36.0065C174.104 37.8416 172.765 39.6766 170.588 39.6766ZM189.84 36.6738C187.497 36.6738 185.153 37.6748 184.316 39.8434L187.162 41.0112C187.831 39.8434 188.836 39.5098 190.008 39.5098C191.682 39.5098 193.188 40.5107 193.356 42.179V42.3458C192.854 42.0121 191.514 41.5117 190.175 41.5117C187.162 41.5117 184.148 43.1799 184.148 46.1827C184.148 49.0187 186.66 50.8537 189.338 50.8537C191.514 50.8537 192.519 49.8528 193.356 48.8519H193.523V50.5201H196.537V42.5126C196.202 38.8425 193.356 36.6738 189.84 36.6738ZM189.505 48.1846C188.501 48.1846 186.994 47.6841 186.994 46.3495C186.994 44.6813 188.836 44.1808 190.342 44.1808C191.682 44.1808 192.351 44.5145 193.188 44.8481C192.854 46.85 191.179 48.1846 189.505 48.1846ZM207.083 37.1743L203.568 46.1827H203.4L199.717 37.1743H196.369L201.894 49.8528L198.713 56.8593H201.894L210.431 37.1743H207.083ZM178.959 50.5201H182.14V29.6673H178.959V50.5201Z" fill="white"/>
<path d="M17.4118 12.6475C16.9096 13.1479 16.7422 13.982 16.7422 14.983V51.8507C16.7422 52.8516 17.077 53.6857 17.5792 54.1862L17.7466 54.353L38.5052 33.6671V33.3334L17.4118 12.6475Z" fill="url(#paint0_linear_1808_329)"/>
<path d="M45.2035 40.6731L38.3398 33.8333V33.3329L45.2035 26.4932L45.371 26.66L53.5739 31.331C55.9176 32.6656 55.9176 34.8343 53.5739 36.1689L45.2035 40.6731Z" fill="url(#paint1_linear_1808_329)"/>
<path d="M45.3672 40.5065L38.3361 33.5L17.4102 54.3528C18.2472 55.1869 19.419 55.1869 20.9257 54.5196L45.3672 40.5065Z" fill="url(#paint2_linear_1808_329)"/>
<path d="M45.3672 26.4933L20.9257 12.647C19.419 11.8129 18.2472 11.9797 17.4102 12.8138L38.3361 33.4998L45.3672 26.4933Z" fill="url(#paint3_linear_1808_329)"/>
<path opacity="0.2" d="M45.1998 40.3398L20.9257 54.0193C19.5865 54.8534 18.4146 54.6866 17.5776 54.0193L17.4102 54.1861L17.5776 54.3529C18.4146 55.0202 19.5865 55.187 20.9257 54.3529L45.1998 40.3398Z" fill="black"/>
<path opacity="0.12" d="M17.4118 54.0191C16.9096 53.5187 16.7422 52.6846 16.7422 51.6836V51.8505C16.7422 52.8514 17.077 53.6855 17.5792 54.186V54.0191H17.4118ZM53.5718 35.6687L45.2014 40.3397L45.3689 40.5065L53.5718 35.8355C54.7437 35.1682 55.2459 34.3341 55.2459 33.5C55.2459 34.3341 54.5763 35.0014 53.5718 35.6687Z" fill="black"/>
<path opacity="0.25" d="M20.9274 12.814L53.5718 31.3313C54.5763 31.9985 55.2459 32.6658 55.2459 33.4999C55.2459 32.6658 54.7437 31.8317 53.5718 31.1644L20.9274 12.6472C18.5837 11.3126 16.7422 12.3135 16.7422 14.9827V15.1495C16.7422 12.6472 18.5837 11.4794 20.9274 12.814Z" fill="white"/>
</g>
<defs>
<linearGradient id="paint0_linear_1808_329" x1="36.4963" y1="14.666" x2="8.49864" y2="42.7602" gradientUnits="userSpaceOnUse">
<stop stop-color="#00A0FF"/>
<stop offset="0.007" stop-color="#00A1FF"/>
<stop offset="0.26" stop-color="#00BEFF"/>
<stop offset="0.512" stop-color="#00D2FF"/>
<stop offset="0.76" stop-color="#00DFFF"/>
<stop offset="1" stop-color="#00E3FF"/>
</linearGradient>
<linearGradient id="paint1_linear_1808_329" x1="56.6442" y1="33.5014" x2="16.1366" y2="33.5014" gradientUnits="userSpaceOnUse">
<stop stop-color="#FFE000"/>
<stop offset="0.409" stop-color="#FFBD00"/>
<stop offset="0.775" stop-color="#FFA500"/>
<stop offset="1" stop-color="#FF9C00"/>
</linearGradient>
<linearGradient id="paint2_linear_1808_329" x1="41.562" y1="37.3302" x2="3.59684" y2="75.4286" gradientUnits="userSpaceOnUse">
<stop stop-color="#FF3A44"/>
<stop offset="1" stop-color="#C31162"/>
</linearGradient>
<linearGradient id="paint3_linear_1808_329" x1="12.2155" y1="0.428957" x2="29.1695" y2="17.4425" gradientUnits="userSpaceOnUse">
<stop stop-color="#32A071"/>
<stop offset="0.069" stop-color="#2DA771"/>
<stop offset="0.476" stop-color="#15CF74"/>
<stop offset="0.801" stop-color="#06E775"/>
<stop offset="1" stop-color="#00F076"/>
</linearGradient>
<clipPath id="clip0_1808_329">
<rect width="226" height="67" fill="white"/>
</clipPath>
</defs>
</svg>
