<?xml version="1.0" encoding="UTF-8"?>
<svg width="512pt" height="512pt" version="1.1" viewBox="0 0 512 512" xmlns="http://www.w3.org/2000/svg">
 <g fill="#fff">
  <path d="m495.62 213.5-115.2-100.35c-5.6328-5.1211-14.336-5.1211-19.969 0l-114.68 100.35c-7.168 6.6562-2.5586 18.434 7.168 18.434h20.992v105.47c0 5.1211 4.0977 8.7031 8.7031 8.7031h54.785c5.1211 0 8.7031-4.0977 8.7031-8.7031v-58.883c0-3.0703 2.5586-5.6328 5.1211-5.6328h38.398c3.0703 0 5.1211 2.5586 5.1211 5.6328v58.879c0 5.1211 4.0977 8.7031 8.7031 8.7031h54.785c5.1211 0 8.7031-4.0977 8.7031-8.7031v-105.47h20.992c10.238 0 14.848-11.777 7.6797-18.434z"/>
  <path d="m243.71 259.07h-33.789c-3.5859 0-6.1445 2.5586-6.1445 6.1445v16.895c0.51172 1.0234 1.5352 2.0469 2.0469 2.5586l15.359 2.5586c4.0977 0.51172 7.6797 2.5586 10.238 6.1445 1.5352 2.0469 2.5586 4.6094 3.0703 7.168h9.2148c3.5859 0 6.1445-2.5586 6.1445-6.1445v-28.672c0.003907-3.5781-2.5547-6.6523-6.1406-6.6523z"/>
  <path d="m175.4 225.51c10.398 1.1328 17.91 10.484 16.777 20.883-1.1328 10.402-10.48 17.914-20.883 16.781-10.398-1.1328-17.914-10.484-16.781-20.883 1.1328-10.402 10.484-17.914 20.887-16.781"/>
  <path d="m220.16 293.89-16.895-2.5586c-1.0234 0-1.5352-0.51172-2.0469-1.5352-14.336-20.992-17.406-22.016-21.504-22.527-1.5352 0-4.6094-0.51172-8.1914-0.51172-3.5859 0-6.6562-0.51172-8.1914-0.51172-4.0977 0-8.1914 2.5586-9.2148 6.6562l-6.1445 27.137-4.6133 18.941c-1.0234 5.1211 0.51172 10.754 4.0977 14.848l3.0703 3.0703-18.941 52.227c-2.0469 5.1211 0.51172 10.754 5.6328 12.801 1.0234 0.51172 2.0469 0.51172 3.5859 0.51172 4.0977 0 7.6797-2.5586 9.2148-6.6562l16.383-44.031 8.7031 8.7031s0.51172 0.51172 0.51172 1.0234l11.777 34.305c1.5352 4.0977 5.1211 6.6562 9.2148 6.6562 1.0234 0 2.0469 0 3.0703-0.51172 5.1211-1.5352 7.6797-7.6797 6.1445-12.801l-11.777-34.305c-1.0234-3.0703-3.0703-6.1445-5.1211-8.1914l-15.359-15.359 10.754-34.305c0.51172 1.0234 1.0234 1.5352 2.0469 2.5586 3.0703 4.6094 8.1914 7.6797 13.824 8.7031l16.895 2.5586c4.6094 0.51172 9.2148-2.5586 9.7266-7.168 1.5391-4.6055-2.043-8.7031-6.6523-9.7266z"/>
  <path d="m108.03 361.47h-33.793c-3.5859 0-6.1445 2.5586-6.1445 6.1445v28.672c0 3.5859 2.5586 6.1445 6.1445 6.1445h33.793c3.5859 0 6.1445-2.5586 6.1445-6.1445v-28.672c0-3.0742-2.5586-6.1445-6.1445-6.1445z"/>
  <path d="m52.734 361.47h-33.789c-3.5859 0-6.1445 2.5586-6.1445 6.1445v28.672c0 3.5859 2.5586 6.1445 6.1445 6.1445h33.793c3.5859 0 6.1445-2.5586 6.1445-6.1445v-28.672c-0.003906-3.0742-2.5625-6.1445-6.1484-6.1445z"/>
  <path d="m46.594 352.26h33.793c3.5859 0 6.1445-2.5586 6.1445-6.1445l-0.003906-28.672c0-3.5859-2.5586-6.1445-6.1445-6.1445h-33.789c-3.5859 0-6.1445 2.5586-6.1445 6.1445v28.672c0 3.582 3.0703 6.1445 6.1445 6.1445z"/>
 </g>
</svg>
