<svg width="13" height="34" viewBox="0 0 13 34" fill="none" xmlns="http://www.w3.org/2000/svg">
<g clip-path="url(#clip0_2789_1736)">
<path d="M4.92843 8.47839C5.15407 8.57353 5.38743 8.64723 5.62548 8.69888C5.80027 8.73679 5.91835 8.9004 5.89928 9.07823C5.88021 9.25607 5.73013 9.39092 5.55128 9.39092H3.72577C3.40897 9.39092 3.09663 9.43574 2.79725 9.5218C2.6741 9.55717 2.55281 9.59962 2.434 9.64901C2.02442 9.81929 1.65216 10.0689 1.33863 10.3835C1.1139 10.6088 0.924101 10.8629 0.772792 11.1371C0.71112 11.2488 0.655671 11.3642 0.606783 11.4826C0.437118 11.8937 0.349848 12.3344 0.349976 12.7794V17.6799C0.349976 18.1602 0.54024 18.6206 0.878598 18.9599C1.21693 19.2992 1.67558 19.4896 2.15361 19.4896C2.26607 19.4896 2.37167 19.5436 2.43746 19.6348C2.50325 19.726 2.52122 19.8433 2.48575 19.95L0.485141 25.9688H2.15361C2.34691 25.9688 2.50361 26.1255 2.50361 26.3188V32.4481H10.4182V26.3188C10.4182 26.1255 10.5749 25.9688 10.7682 25.9688H12.4367L10.4361 19.95C10.4006 19.8433 10.4185 19.726 10.4843 19.6348C10.5501 19.5436 10.6557 19.4896 10.7682 19.4896C11.2462 19.4896 11.7049 19.2992 12.0432 18.9599C12.3816 18.6206 12.5718 18.1602 12.5718 17.6799V12.7773C12.5718 12.3324 12.4845 11.892 12.3147 11.481C12.145 11.0701 11.8962 10.6968 11.5827 10.3824C11.2692 10.068 10.8971 9.81866 10.4876 9.64856C10.0781 9.47846 9.63919 9.39092 9.19601 9.39092H7.37268C7.19383 9.39092 7.04375 9.25607 7.02468 9.07823C7.00561 8.9004 7.12369 8.73679 7.29848 8.69888C7.53717 8.64709 7.77116 8.57313 7.99736 8.47762C8.48311 8.27251 8.92316 7.97211 9.29165 7.59403C9.66015 7.21594 9.94967 6.76778 10.1432 6.27583C10.3367 5.78387 10.4302 5.25808 10.4183 4.72933C10.3949 3.69188 9.96739 2.70504 9.22768 1.98C8.488 1.25499 7.49489 0.84935 6.46099 0.849609C5.42709 0.849868 4.43419 1.25601 3.69487 1.98139C2.95552 2.7068 2.52855 3.69385 2.50568 4.73131C2.49402 5.26007 2.58782 5.78582 2.78155 6.27767C2.97527 6.76953 3.26501 7.21754 3.6337 7.59545C4.00238 7.97335 4.44258 8.27352 4.92843 8.47839ZM4.92843 8.47839L4.83881 8.69092M4.47215 9.04092H3.72577C3.37594 9.04092 3.03113 9.09039 2.70063 9.1854L4.47215 9.04092Z" stroke="#FF68FE" stroke-width="0.7" stroke-linejoin="round"/>
</g>
<defs>
<clipPath id="clip0_2789_1736">
<rect width="13" height="33" fill="white" transform="translate(0 0.5)"/>
</clipPath>
</defs>
</svg>
