<svg width="13" height="34" viewBox="0 0 13 34" fill="none" xmlns="http://www.w3.org/2000/svg">
<mask id="mask0_1837_20" style="mask-type:luminance" maskUnits="userSpaceOnUse" x="0" y="0" width="13" height="34">
<path d="M13 0.5H0V33.5H13V0.5Z" fill="white"/>
</mask>
<g mask="url(#mask0_1837_20)">
<path d="M4.92806 8.47839C5.1537 8.57353 5.38706 8.64723 5.62511 8.69888C5.7999 8.73679 5.91798 8.9004 5.89891 9.07823C5.87984 9.25607 5.72976 9.39092 5.55091 9.39092H3.7254C3.4086 9.39092 3.09626 9.43574 2.79688 9.5218C2.67373 9.55717 2.55244 9.59962 2.43363 9.64901C2.02405 9.81929 1.65179 10.0689 1.33826 10.3835C1.11353 10.6088 0.923735 10.8629 0.772426 11.1371C0.710754 11.2488 0.655304 11.3642 0.606416 11.4826C0.436751 11.8937 0.349482 12.3344 0.34961 12.7794V17.6799C0.34961 18.1602 0.539873 18.6206 0.878231 18.9599C1.21656 19.2992 1.67521 19.4896 2.15324 19.4896C2.2657 19.4896 2.3713 19.5436 2.43709 19.6348C2.50288 19.726 2.52085 19.8433 2.48538 19.95L0.484775 25.9688H2.15324C2.34654 25.9688 2.50324 26.1255 2.50324 26.3188V32.4481H10.4178V26.3188C10.4178 26.1255 10.5745 25.9688 10.7678 25.9688H12.4363L10.4357 19.95C10.4002 19.8433 10.4181 19.726 10.4839 19.6348C10.5497 19.5436 10.6553 19.4896 10.7678 19.4896C11.2458 19.4896 11.7045 19.2992 12.0428 18.9599C12.3812 18.6206 12.5714 18.1602 12.5714 17.6799V12.7773C12.5714 12.3324 12.4841 11.892 12.3143 11.481C12.1446 11.0701 11.8958 10.6968 11.5823 10.3824C11.2688 10.068 10.8967 9.81866 10.4872 9.64856C10.0777 9.47846 9.63882 9.39092 9.19564 9.39092H7.37231C7.19346 9.39092 7.04338 9.25607 7.02431 9.07823C7.00524 8.9004 7.12332 8.73679 7.29811 8.69888C7.5368 8.64709 7.77079 8.57313 7.99699 8.47762C8.48274 8.27251 8.92279 7.97211 9.29128 7.59403C9.65978 7.21594 9.9493 6.76778 10.1428 6.27583C10.3363 5.78387 10.4298 5.25808 10.4179 4.72933C10.3945 3.69188 9.96702 2.70504 9.22731 1.98C8.48763 1.25499 7.49452 0.84935 6.46062 0.849609C5.42672 0.849868 4.43382 1.25601 3.6945 1.98139C2.95515 2.7068 2.52818 3.69385 2.50531 4.73131C2.49365 5.26007 2.58745 5.78582 2.78118 6.27767C2.9749 6.76953 3.26464 7.21754 3.63333 7.59545C4.00201 7.97335 4.44221 8.27352 4.92806 8.47839ZM4.92806 8.47839L4.83844 8.69092ZM4.47178 9.04092H3.7254C3.37557 9.04092 3.03076 9.09039 2.70026 9.1854L4.47178 9.04092Z" fill="#FF68FE"/>
<path d="M4.92806 8.47839C5.1537 8.57353 5.38706 8.64723 5.62511 8.69888C5.7999 8.73679 5.91798 8.9004 5.89891 9.07823C5.87984 9.25607 5.72976 9.39092 5.55091 9.39092H3.7254C3.4086 9.39092 3.09626 9.43574 2.79688 9.5218C2.67373 9.55717 2.55244 9.59962 2.43363 9.64901C2.02405 9.81929 1.65179 10.0689 1.33826 10.3835C1.11353 10.6088 0.923735 10.8629 0.772426 11.1371C0.710754 11.2488 0.655304 11.3642 0.606416 11.4826C0.436751 11.8937 0.349482 12.3344 0.34961 12.7794V17.6799C0.34961 18.1602 0.539873 18.6206 0.878231 18.9599C1.21656 19.2992 1.67521 19.4896 2.15324 19.4896C2.2657 19.4896 2.3713 19.5436 2.43709 19.6348C2.50288 19.726 2.52085 19.8433 2.48538 19.95L0.484775 25.9688H2.15324C2.34654 25.9688 2.50324 26.1255 2.50324 26.3188V32.4481H10.4178V26.3188C10.4178 26.1255 10.5745 25.9688 10.7678 25.9688H12.4363L10.4357 19.95C10.4002 19.8433 10.4181 19.726 10.4839 19.6348C10.5497 19.5436 10.6553 19.4896 10.7678 19.4896C11.2458 19.4896 11.7045 19.2992 12.0428 18.9599C12.3812 18.6206 12.5714 18.1602 12.5714 17.6799V12.7773C12.5714 12.3324 12.4841 11.892 12.3143 11.481C12.1446 11.0701 11.8958 10.6968 11.5823 10.3824C11.2688 10.068 10.8967 9.81866 10.4872 9.64856C10.0777 9.47846 9.63882 9.39092 9.19564 9.39092H7.37231C7.19346 9.39092 7.04338 9.25607 7.02431 9.07823C7.00524 8.9004 7.12332 8.73679 7.29811 8.69888C7.5368 8.64709 7.77079 8.57313 7.99699 8.47762C8.48274 8.27251 8.92279 7.97211 9.29128 7.59403C9.65978 7.21594 9.9493 6.76778 10.1428 6.27583C10.3363 5.78387 10.4298 5.25808 10.4179 4.72933C10.3945 3.69188 9.96702 2.70504 9.22731 1.98C8.48763 1.25499 7.49452 0.84935 6.46062 0.849609C5.42672 0.849868 4.43382 1.25601 3.6945 1.98139C2.95515 2.7068 2.52818 3.69385 2.50531 4.73131C2.49365 5.26007 2.58745 5.78582 2.78118 6.27767C2.9749 6.76953 3.26464 7.21754 3.63333 7.59545C4.00201 7.97335 4.44221 8.27352 4.92806 8.47839ZM4.92806 8.47839L4.83844 8.69092M4.47178 9.04092H3.7254C3.37557 9.04092 3.03076 9.09039 2.70026 9.1854L4.47178 9.04092Z" stroke="#FF68FE" stroke-width="0.7" stroke-linejoin="round"/>
</g>
</svg>
