<svg width="9" height="23" viewBox="0 0 9 23" fill="none" xmlns="http://www.w3.org/2000/svg">
<g clip-path="url(#clip0_2789_1734)">
<path d="M7.99489 7.3128C7.78673 7.10864 7.53923 6.94634 7.26636 6.83549C6.99347 6.72464 6.70077 6.6675 6.40502 6.6675H5.13508C4.95592 6.6675 4.80569 6.5322 4.78699 6.35402C4.7683 6.17583 4.88718 6.0123 5.06245 5.97512C5.22268 5.94112 5.37969 5.89258 5.53141 5.82993C5.85722 5.69538 6.15189 5.49853 6.3983 5.25128C6.6447 5.00405 6.83787 4.71141 6.96683 4.39073C7.09579 4.07006 7.15805 3.7276 7.15011 3.38336C7.13454 2.70825 6.85013 2.0645 6.35552 1.59038C5.86069 1.11606 5.19481 0.849439 4.50012 0.849609C3.80542 0.849779 3.13968 1.11673 2.6451 1.59129C2.15073 2.06565 1.86665 2.70953 1.85143 3.38466C1.84366 3.72889 1.90609 4.07133 2.03522 4.39193C2.16434 4.71255 2.35767 5.0051 2.60419 5.25221C2.85072 5.49934 3.1455 5.69605 3.47138 5.83044C3.62272 5.89284 3.77932 5.94122 3.93912 5.97512C4.11438 6.0123 4.23326 6.17583 4.21457 6.35402C4.19588 6.5322 4.04564 6.6675 3.86648 6.6675H2.59502C2.38365 6.6675 2.17529 6.69675 1.97567 6.75287C1.89356 6.77594 1.81271 6.8036 1.73355 6.83579C1.46062 6.94675 1.21302 7.10925 1.00484 7.31353C0.855653 7.45984 0.729849 7.62463 0.629665 7.80217C0.588828 7.8745 0.55213 7.94915 0.519789 8.02579M7.99489 7.3128L8.21753 7.08579M7.99489 7.3128C8.20305 7.51694 8.36779 7.75892 8.48006 8.02475C8.59233 8.29056 8.65002 8.57521 8.65002 8.8625V12.2019C8.65002 12.497 8.53055 12.7814 8.31561 12.9922C8.10044 13.2033 7.80719 13.323 7.50002 13.323C7.38715 13.323 7.28121 13.3774 7.21549 13.4692C7.14976 13.5609 7.13232 13.6788 7.16864 13.7856L8.5114 17.7363H7.50002C7.30672 17.7363 7.15002 17.893 7.15002 18.0863V22.1496H1.85002V18.0863C1.85002 17.893 1.69332 17.7363 1.50002 17.7363H0.488647L1.8314 13.7856C1.86772 13.6788 1.85028 13.5609 1.78456 13.4692C1.71883 13.3774 1.61289 13.323 1.50002 13.323C1.19285 13.323 0.8996 13.2033 0.684433 12.9922C0.469497 12.7814 0.350024 12.497 0.350024 12.2019V8.86397C0.34994 8.57658 0.407565 8.29172 0.519789 8.02579M0.519789 8.02579L0.197327 7.88971M1.88101 6.41591C1.78632 6.44251 1.69307 6.47442 1.60173 6.51156C1.28683 6.63959 1.00074 6.82719 0.759772 7.06365C0.587006 7.23309 0.441155 7.42405 0.324884 7.6301L1.88101 6.41591Z" stroke="#FF68FE" stroke-width="0.7" stroke-linejoin="round"/>
</g>
<defs>
<clipPath id="clip0_2789_1734">
<rect width="9" height="22" fill="white" transform="translate(0 0.5)"/>
</clipPath>
</defs>
</svg>
