<svg width="13" height="34" viewBox="0 0 13 34" fill="none" xmlns="http://www.w3.org/2000/svg">
<g clip-path="url(#clip0_2794_1738)">
<path d="M7.34445 8.08501C7.16925 8.12228 7.05047 8.28582 7.06921 8.46396C7.08795 8.6421 7.23817 8.77734 7.41729 8.77734H9.25165C10.1548 8.77734 11.0198 9.13027 11.6567 9.75668C12.2934 10.3829 12.65 11.231 12.65 12.114V19.0824C12.65 19.5529 12.46 20.0053 12.12 20.3398C11.7797 20.6744 11.317 20.8635 10.8333 20.8635C10.64 20.8635 10.4833 21.0202 10.4833 21.2135V33.6496H2.51665V21.2135C2.51665 21.0202 2.35995 20.8635 2.16665 20.8635C1.68298 20.8635 1.22027 20.6744 0.880006 20.3398C0.539941 20.0053 0.349976 19.5529 0.349976 19.0824V12.114C0.349976 11.231 0.706582 10.3829 1.34327 9.75668C1.98015 9.13027 2.84517 8.77734 3.74832 8.77734H5.58487C5.764 8.77734 5.91421 8.6421 5.93295 8.46396C5.95169 8.28582 5.83291 8.12228 5.65771 8.08501C5.41774 8.03395 5.18252 7.96109 4.95518 7.86707C4.46565 7.66462 4.02258 7.36817 3.65178 6.99542C3.28101 6.62268 2.98999 6.18117 2.79553 5.69697C2.60108 5.21277 2.50702 4.69545 2.51872 4.1753C2.54166 3.155 2.96977 2.18286 3.71331 1.46737C4.45703 0.751701 5.45724 0.349866 6.50008 0.349609C7.54292 0.349353 8.54334 0.750696 9.28743 1.466C10.0314 2.18113 10.46 3.15306 10.4834 4.17334C10.4954 4.69348 10.4016 5.21086 10.2074 5.69515C10.0132 6.17945 9.72235 6.62111 9.35177 6.99402C8.98117 7.36695 8.53823 7.66362 8.04881 7.86631C7.82089 7.9607 7.58507 8.03381 7.34445 8.08501Z" stroke="#03DEFC" stroke-width="0.7" stroke-linejoin="round"/>
</g>
<defs>
<clipPath id="clip0_2794_1738">
<rect width="13" height="34" fill="white"/>
</clipPath>
</defs>
</svg>
