<svg width="13" height="34" viewBox="0 0 13 34" fill="none" xmlns="http://www.w3.org/2000/svg">
<g clip-path="url(#clip0_1837_26)">
<mask id="mask0_1837_26" style="mask-type:luminance" maskUnits="userSpaceOnUse" x="0" y="0" width="13" height="34">
<path d="M13 0H0V34H13V0Z" fill="white"/>
</mask>
<g mask="url(#mask0_1837_26)">
<path d="M7.34408 8.08501C7.16888 8.12228 7.0501 8.28582 7.06884 8.46396C7.08758 8.6421 7.2378 8.77734 7.41692 8.77734H9.25128C10.1544 8.77734 11.0194 9.13027 11.6563 9.75668C12.293 10.3829 12.6496 11.231 12.6496 12.114V19.0824C12.6496 19.5529 12.4596 20.0053 12.1196 20.3398C11.7793 20.6744 11.3166 20.8635 10.8329 20.8635C10.6396 20.8635 10.4829 21.0202 10.4829 21.2135V33.6496H2.51628V21.2135C2.51628 21.0202 2.35958 20.8635 2.16628 20.8635C1.68261 20.8635 1.2199 20.6744 0.879639 20.3398C0.539574 20.0053 0.349609 19.5529 0.349609 19.0824V12.114C0.349609 11.231 0.706215 10.3829 1.3429 9.75668C1.97978 9.13027 2.8448 8.77734 3.74795 8.77734H5.5845C5.76363 8.77734 5.91384 8.6421 5.93258 8.46396C5.95132 8.28582 5.83254 8.12228 5.65734 8.08501C5.41737 8.03395 5.18215 7.96109 4.95481 7.86707C4.46528 7.66462 4.02221 7.36817 3.65141 6.99542C3.28064 6.62268 2.98962 6.18117 2.79516 5.69697C2.60071 5.21277 2.50665 4.69545 2.51835 4.1753C2.54129 3.155 2.9694 2.18286 3.71294 1.46737C4.45666 0.751702 5.45687 0.349866 6.49971 0.349609C7.54255 0.349353 8.54297 0.750696 9.28706 1.466C10.031 2.18113 10.4596 3.15306 10.483 4.17334C10.495 4.69348 10.4012 5.21086 10.207 5.69515C10.0128 6.17945 9.72198 6.62111 9.3514 6.99402C8.9808 7.36695 8.53786 7.66362 8.04844 7.86631C7.82052 7.9607 7.5847 8.03381 7.34408 8.08501Z" fill="#03DEFC" stroke="#03DEFC" stroke-width="0.7" stroke-linejoin="round"/>
</g>
</g>
<defs>
<clipPath id="clip0_1837_26">
<rect width="13" height="34" fill="white"/>
</clipPath>
</defs>
</svg>
